<?xml version="1.0" encoding="UTF-8" standalone="no"?>
<!-- Created with Inkscape (http://www.inkscape.org/) -->

<svg
   xmlns:dc="http://purl.org/dc/elements/1.1/"
   xmlns:cc="http://creativecommons.org/ns#"
   xmlns:rdf="http://www.w3.org/1999/02/22-rdf-syntax-ns#"
   xmlns:svg="http://www.w3.org/2000/svg"
   xmlns="http://www.w3.org/2000/svg"
   xmlns:sodipodi="http://sodipodi.sourceforge.net/DTD/sodipodi-0.dtd"
   xmlns:inkscape="http://www.inkscape.org/namespaces/inkscape"
   width="370.10001mm"
   height="220.10001mm"
   viewBox="0 0 1311.378 779.88191"
   id="svg2"
   version="1.1"
   inkscape:version="0.91 r13725"
   sodipodi:docname="back.svg">
  <defs
     id="defs4" />
  <sodipodi:namedview
     id="base"
     pagecolor="#ffffff"
     bordercolor="#666666"
     borderopacity="1.0"
     inkscape:pageopacity="0.0"
     inkscape:pageshadow="2"
     inkscape:zoom="0.79345305"
     inkscape:cx="681.99954"
     inkscape:cy="418.30398"
     inkscape:document-units="mm"
     inkscape:current-layer="layer1"
     showgrid="false"
     inkscape:window-width="1680"
     inkscape:window-height="1001"
     inkscape:window-x="0"
     inkscape:window-y="23"
     inkscape:window-maximized="1"
     fit-margin-top="10"
     fit-margin-left="10"
     fit-margin-right="10"
     fit-margin-bottom="10" />
  <metadata
     id="metadata7">
    <rdf:RDF>
      <cc:Work
         rdf:about="">
        <dc:format>image/svg+xml</dc:format>
        <dc:type
           rdf:resource="http://purl.org/dc/dcmitype/StillImage" />
        <dc:title />
      </cc:Work>
    </rdf:RDF>
  </metadata>
  <g
     inkscape:label="Layer 1"
     inkscape:groupmode="layer"
     id="layer1"
     transform="translate(366.56599,-204.55129)">
    <path
       style="opacity:1;fill:none;fill-opacity:0.39215686;fill-rule:nonzero;stroke:#ff0000;stroke-width:0.35433072;stroke-miterlimit:4;stroke-dasharray:none;stroke-opacity:1"
       d="M 219.86133 115.33398 L 212.77539 122.42188 L 212.77539 133.05078 L 46.240234 133.05078 C 40.351255 133.05078 35.609375 137.79072 35.609375 143.67969 L 35.609375 653.91602 C 35.609375 659.80499 40.351255 664.54687 46.240234 664.54688 L 301.35938 664.54688 A 354.33052 354.33051 0 0 1 655.68945 310.2168 A 354.33052 354.33051 0 0 1 1010.0195 664.54688 L 1265.1387 664.54688 C 1271.0276 664.54688 1275.7676 659.80499 1275.7676 653.91602 L 1275.7676 143.67969 C 1275.7676 137.79072 1271.0276 133.05078 1265.1387 133.05078 L 1098.6035 133.05078 L 1098.6035 122.41992 L 1091.5176 115.33398 L 928.52344 115.33398 L 921.4375 122.42188 L 921.4375 133.05078 L 744.27148 133.05078 L 744.27148 122.41992 L 737.18555 115.33398 L 574.19141 115.33398 L 567.10547 122.42188 L 567.10547 133.05078 L 389.94141 133.05078 L 389.94141 122.41992 L 382.85547 115.33398 L 219.86133 115.33398 z M 71.042969 265.92578 L 88.759766 265.92578 L 88.759766 513.95703 L 71.042969 513.95703 L 71.042969 265.92578 z M 1222.6172 265.92578 L 1240.334 265.92578 L 1240.334 513.95703 L 1222.6172 513.95703 L 1222.6172 265.92578 z "
       transform="translate(-366.56599,204.55126)"
       id="rect4152" />
  </g>
</svg>
