<?xml version="1.0" encoding="UTF-8" standalone="no"?>
<!-- Created with Inkscape (http://www.inkscape.org/) -->

<svg
   xmlns:dc="http://purl.org/dc/elements/1.1/"
   xmlns:cc="http://creativecommons.org/ns#"
   xmlns:rdf="http://www.w3.org/1999/02/22-rdf-syntax-ns#"
   xmlns:svg="http://www.w3.org/2000/svg"
   xmlns="http://www.w3.org/2000/svg"
   xmlns:sodipodi="http://sodipodi.sourceforge.net/DTD/sodipodi-0.dtd"
   xmlns:inkscape="http://www.inkscape.org/namespaces/inkscape"
   sodipodi:docname="board-case.svg"
   inkscape:version="0.91 r13725"
   version="1.1"
   id="svg2"
   viewBox="0 0 2657.4803 1594.4881"
   height="450mm"
   width="750mm">
  <sodipodi:namedview
     inkscape:window-maximized="1"
     inkscape:window-y="23"
     inkscape:window-x="0"
     inkscape:window-height="1001"
     inkscape:window-width="1680"
     showgrid="false"
     inkscape:current-layer="layer1"
     inkscape:document-units="px"
     inkscape:cy="918.88863"
     inkscape:cx="1157.4682"
     inkscape:zoom="0.49497475"
     inkscape:pageshadow="2"
     inkscape:pageopacity="0.0"
     borderopacity="1.0"
     bordercolor="#666666"
     pagecolor="#ffffff"
     id="base" />
  <defs
     id="defs4" />
  <metadata
     id="metadata7">
    <rdf:RDF>
      <cc:Work
         rdf:about="">
        <dc:format>image/svg+xml</dc:format>
        <dc:type
           rdf:resource="http://purl.org/dc/dcmitype/StillImage" />
        <dc:title></dc:title>
      </cc:Work>
    </rdf:RDF>
  </metadata>
  <g
     transform="translate(0,542.1263)"
     id="layer1"
     inkscape:groupmode="layer"
     inkscape:label="Layer 1">
    <path
       id="rect3355"
       d="m 203.85811,-513.16619 c -59.026,141.674 -118.052096,283.3475 -177.078096,425.021502 l 0,637.968798 1062.992186,0 0,-637.968798 C 1030.7462,-229.81869 971.7201,-371.49219 912.6941,-513.16619 l -708.83599,0 z m 38.3106,17.6719 a 2.83464,2.8346403 0 0 1 2.8359,2.834 2.83464,2.8346403 0 0 1 -2.8359,2.8359 2.83464,2.8346403 0 0 1 -2.834,-2.8359 2.83464,2.8346403 0 0 1 2.834,-2.834 z m 8.8594,0 a 2.83464,2.8346403 0 0 1 2.8339,2.834 2.83464,2.8346403 0 0 1 -2.8339,2.8359 2.83464,2.8346403 0 0 1 -2.836,-2.8359 2.83464,2.8346403 0 0 1 2.836,-2.834 z m 8.8574,0 a 2.83464,2.8346403 0 0 1 2.834,2.834 2.83464,2.8346403 0 0 1 -2.834,2.8359 2.83464,2.8346403 0 0 1 -2.834,-2.8359 2.83464,2.8346403 0 0 1 2.834,-2.834 z m 8.8574,0 a 2.83464,2.8346403 0 0 1 2.8359,2.834 2.83464,2.8346403 0 0 1 -2.8359,2.8359 2.83464,2.8346403 0 0 1 -2.834,-2.8359 2.83464,2.8346403 0 0 1 2.834,-2.834 z m 8.8594,0 a 2.83464,2.8346403 0 0 1 2.834,2.834 2.83464,2.8346403 0 0 1 -2.834,2.8359 2.83464,2.8346403 0 0 1 -2.836,-2.8359 2.83464,2.8346403 0 0 1 2.836,-2.834 z m 8.8574,0 a 2.83464,2.8346403 0 0 1 2.8359,2.834 2.83464,2.8346403 0 0 1 -2.8359,2.8359 2.83464,2.8346403 0 0 1 -2.834,-2.8359 2.83464,2.8346403 0 0 1 2.834,-2.834 z m 8.8594,0 a 2.83464,2.8346403 0 0 1 2.834,2.834 2.83464,2.8346403 0 0 1 -2.834,2.8359 2.83464,2.8346403 0 0 1 -2.836,-2.8359 2.83464,2.8346403 0 0 1 2.836,-2.834 z m 8.8574,0 a 2.83464,2.8346403 0 0 1 2.834,2.834 2.83464,2.8346403 0 0 1 -2.834,2.8359 2.83464,2.8346403 0 0 1 -2.834,-2.8359 2.83464,2.8346403 0 0 1 2.834,-2.834 z m 8.8574,0 a 2.83464,2.8346403 0 0 1 2.836,2.834 2.83464,2.8346403 0 0 1 -2.836,2.8359 2.83464,2.8346403 0 0 1 -2.834,-2.8359 2.83464,2.8346403 0 0 1 2.834,-2.834 z m 8.8594,0 a 2.83464,2.8346403 0 0 1 2.834,2.834 2.83464,2.8346403 0 0 1 -2.834,2.8359 2.83464,2.8346403 0 0 1 -2.8359,-2.8359 2.83464,2.8346403 0 0 1 2.8359,-2.834 z m 8.8574,0 a 2.83464,2.8346403 0 0 1 2.834,2.834 2.83464,2.8346403 0 0 1 -2.834,2.8359 2.83464,2.8346403 0 0 1 -2.834,-2.8359 2.83464,2.8346403 0 0 1 2.834,-2.834 z m 8.8574,0 a 2.83464,2.8346403 0 0 1 2.836,2.834 2.83464,2.8346403 0 0 1 -2.836,2.8359 2.83464,2.8346403 0 0 1 -2.8339,-2.8359 2.83464,2.8346403 0 0 1 2.8339,-2.834 z m 8.8594,0 a 2.83464,2.8346403 0 0 1 2.834,2.834 2.83464,2.8346403 0 0 1 -2.834,2.8359 2.83464,2.8346403 0 0 1 -2.8359,-2.8359 2.83464,2.8346403 0 0 1 2.8359,-2.834 z m 8.8574,0 a 2.83464,2.8346403 0 0 1 2.836,2.834 2.83464,2.8346403 0 0 1 -2.836,2.8359 2.83464,2.8346403 0 0 1 -2.8339,-2.8359 2.83464,2.8346403 0 0 1 2.8339,-2.834 z m 8.8594,0 a 2.83464,2.8346403 0 0 1 2.834,2.834 2.83464,2.8346403 0 0 1 -2.834,2.8359 2.83464,2.8346403 0 0 1 -2.8359,-2.8359 2.83464,2.8346403 0 0 1 2.8359,-2.834 z m 8.8574,0 a 2.83464,2.8346403 0 0 1 2.834,2.834 2.83464,2.8346403 0 0 1 -2.834,2.8359 2.83464,2.8346403 0 0 1 -2.8339,-2.8359 2.83464,2.8346403 0 0 1 2.8339,-2.834 z m 156.7051,0 a 8.858263,8.858263 0 0 1 8.8574,8.8574 8.858263,8.858263 0 0 1 -8.8574,8.8575 8.858263,8.858263 0 0 1 -8.8594,-8.8575 8.858263,8.858263 0 0 1 8.8594,-8.8574 z m 53.1485,0 a 8.858263,8.858263 0 0 1 8.8593,8.8574 8.858263,8.858263 0 0 1 -8.8593,8.8575 8.858263,8.858263 0 0 1 -8.8575,-8.8575 8.858263,8.858263 0 0 1 8.8575,-8.8574 z m -342.7266,8.8574 a 2.83464,2.8346403 0 0 1 2.8359,2.834 2.83464,2.8346403 0 0 1 -2.8359,2.834 2.83464,2.8346403 0 0 1 -2.834,-2.834 2.83464,2.8346403 0 0 1 2.834,-2.834 z m 8.8594,0 a 2.83464,2.8346403 0 0 1 2.8339,2.834 2.83464,2.8346403 0 0 1 -2.8339,2.834 2.83464,2.8346403 0 0 1 -2.836,-2.834 2.83464,2.8346403 0 0 1 2.836,-2.834 z m 8.8574,0 a 2.83464,2.8346403 0 0 1 2.834,2.834 2.83464,2.8346403 0 0 1 -2.834,2.834 2.83464,2.8346403 0 0 1 -2.834,-2.834 2.83464,2.8346403 0 0 1 2.834,-2.834 z m 8.8574,0 a 2.83464,2.8346403 0 0 1 2.8359,2.834 2.83464,2.8346403 0 0 1 -2.8359,2.834 2.83464,2.8346403 0 0 1 -2.834,-2.834 2.83464,2.8346403 0 0 1 2.834,-2.834 z m 8.8594,0 a 2.83464,2.8346403 0 0 1 2.834,2.834 2.83464,2.8346403 0 0 1 -2.834,2.834 2.83464,2.8346403 0 0 1 -2.836,-2.834 2.83464,2.8346403 0 0 1 2.836,-2.834 z m 8.8574,0 a 2.83464,2.8346403 0 0 1 2.8359,2.834 2.83464,2.8346403 0 0 1 -2.8359,2.834 2.83464,2.8346403 0 0 1 -2.834,-2.834 2.83464,2.8346403 0 0 1 2.834,-2.834 z m 8.8594,0 a 2.83464,2.8346403 0 0 1 2.834,2.834 2.83464,2.8346403 0 0 1 -2.834,2.834 2.83464,2.8346403 0 0 1 -2.836,-2.834 2.83464,2.8346403 0 0 1 2.836,-2.834 z m 8.8574,0 a 2.83464,2.8346403 0 0 1 2.834,2.834 2.83464,2.8346403 0 0 1 -2.834,2.834 2.83464,2.8346403 0 0 1 -2.834,-2.834 2.83464,2.8346403 0 0 1 2.834,-2.834 z m 8.8574,0 a 2.83464,2.8346403 0 0 1 2.836,2.834 2.83464,2.8346403 0 0 1 -2.836,2.834 2.83464,2.8346403 0 0 1 -2.834,-2.834 2.83464,2.8346403 0 0 1 2.834,-2.834 z m 8.8594,0 a 2.83464,2.8346403 0 0 1 2.834,2.834 2.83464,2.8346403 0 0 1 -2.834,2.834 2.83464,2.8346403 0 0 1 -2.8359,-2.834 2.83464,2.8346403 0 0 1 2.8359,-2.834 z m 8.8574,0 a 2.83464,2.8346403 0 0 1 2.834,2.834 2.83464,2.8346403 0 0 1 -2.834,2.834 2.83464,2.8346403 0 0 1 -2.834,-2.834 2.83464,2.8346403 0 0 1 2.834,-2.834 z m 8.8574,0 a 2.83464,2.8346403 0 0 1 2.836,2.834 2.83464,2.8346403 0 0 1 -2.836,2.834 2.83464,2.8346403 0 0 1 -2.8339,-2.834 2.83464,2.8346403 0 0 1 2.8339,-2.834 z m 8.8594,0 a 2.83464,2.8346403 0 0 1 2.834,2.834 2.83464,2.8346403 0 0 1 -2.834,2.834 2.83464,2.8346403 0 0 1 -2.8359,-2.834 2.83464,2.8346403 0 0 1 2.8359,-2.834 z m 8.8574,0 a 2.83464,2.8346403 0 0 1 2.836,2.834 2.83464,2.8346403 0 0 1 -2.836,2.834 2.83464,2.8346403 0 0 1 -2.8339,-2.834 2.83464,2.8346403 0 0 1 2.8339,-2.834 z m 8.8594,0 a 2.83464,2.8346403 0 0 1 2.834,2.834 2.83464,2.8346403 0 0 1 -2.834,2.834 2.83464,2.8346403 0 0 1 -2.8359,-2.834 2.83464,2.8346403 0 0 1 2.8359,-2.834 z m 8.8574,0 a 2.83464,2.8346403 0 0 1 2.834,2.834 2.83464,2.8346403 0 0 1 -2.834,2.834 2.83464,2.8346403 0 0 1 -2.8339,-2.834 2.83464,2.8346403 0 0 1 2.8339,-2.834 z m -132.873,8.8594 a 2.83464,2.8346403 0 0 1 2.8359,2.834 2.83464,2.8346403 0 0 1 -2.8359,2.834 2.83464,2.8346403 0 0 1 -2.834,-2.834 2.83464,2.8346403 0 0 1 2.834,-2.834 z m 8.8594,0 a 2.83464,2.8346403 0 0 1 2.8339,2.834 2.83464,2.8346403 0 0 1 -2.8339,2.834 2.83464,2.8346403 0 0 1 -2.836,-2.834 2.83464,2.8346403 0 0 1 2.836,-2.834 z m 8.8574,0 a 2.83464,2.8346403 0 0 1 2.834,2.834 2.83464,2.8346403 0 0 1 -2.834,2.834 2.83464,2.8346403 0 0 1 -2.834,-2.834 2.83464,2.8346403 0 0 1 2.834,-2.834 z m 8.8574,0 a 2.83464,2.8346403 0 0 1 2.8359,2.834 2.83464,2.8346403 0 0 1 -2.8359,2.834 2.83464,2.8346403 0 0 1 -2.834,-2.834 2.83464,2.8346403 0 0 1 2.834,-2.834 z m 8.8594,0 a 2.83464,2.8346403 0 0 1 2.834,2.834 2.83464,2.8346403 0 0 1 -2.834,2.834 2.83464,2.8346403 0 0 1 -2.836,-2.834 2.83464,2.8346403 0 0 1 2.836,-2.834 z m 8.8574,0 a 2.83464,2.8346403 0 0 1 2.8359,2.834 2.83464,2.8346403 0 0 1 -2.8359,2.834 2.83464,2.8346403 0 0 1 -2.834,-2.834 2.83464,2.8346403 0 0 1 2.834,-2.834 z m 8.8594,0 a 2.83464,2.8346403 0 0 1 2.834,2.834 2.83464,2.8346403 0 0 1 -2.834,2.834 2.83464,2.8346403 0 0 1 -2.836,-2.834 2.83464,2.8346403 0 0 1 2.836,-2.834 z m 8.8574,0 a 2.83464,2.8346403 0 0 1 2.834,2.834 2.83464,2.8346403 0 0 1 -2.834,2.834 2.83464,2.8346403 0 0 1 -2.834,-2.834 2.83464,2.8346403 0 0 1 2.834,-2.834 z m 8.8574,0 a 2.83464,2.8346403 0 0 1 2.836,2.834 2.83464,2.8346403 0 0 1 -2.836,2.834 2.83464,2.8346403 0 0 1 -2.834,-2.834 2.83464,2.8346403 0 0 1 2.834,-2.834 z m 8.8594,0 a 2.83464,2.8346403 0 0 1 2.834,2.834 2.83464,2.8346403 0 0 1 -2.834,2.834 2.83464,2.8346403 0 0 1 -2.8359,-2.834 2.83464,2.8346403 0 0 1 2.8359,-2.834 z m 8.8574,0 a 2.83464,2.8346403 0 0 1 2.834,2.834 2.83464,2.8346403 0 0 1 -2.834,2.834 2.83464,2.8346403 0 0 1 -2.834,-2.834 2.83464,2.8346403 0 0 1 2.834,-2.834 z m 8.8574,0 a 2.83464,2.8346403 0 0 1 2.836,2.834 2.83464,2.8346403 0 0 1 -2.836,2.834 2.83464,2.8346403 0 0 1 -2.8339,-2.834 2.83464,2.8346403 0 0 1 2.8339,-2.834 z m 8.8594,0 a 2.83464,2.8346403 0 0 1 2.834,2.834 2.83464,2.8346403 0 0 1 -2.834,2.834 2.83464,2.8346403 0 0 1 -2.8359,-2.834 2.83464,2.8346403 0 0 1 2.8359,-2.834 z m 8.8574,0 a 2.83464,2.8346403 0 0 1 2.836,2.834 2.83464,2.8346403 0 0 1 -2.836,2.834 2.83464,2.8346403 0 0 1 -2.8339,-2.834 2.83464,2.8346403 0 0 1 2.8339,-2.834 z m 8.8594,0 a 2.83464,2.8346403 0 0 1 2.834,2.834 2.83464,2.8346403 0 0 1 -2.834,2.834 2.83464,2.8346403 0 0 1 -2.8359,-2.834 2.83464,2.8346403 0 0 1 2.8359,-2.834 z m 8.8574,0 a 2.83464,2.8346403 0 0 1 2.834,2.834 2.83464,2.8346403 0 0 1 -2.834,2.834 2.83464,2.8346403 0 0 1 -2.8339,-2.834 2.83464,2.8346403 0 0 1 2.8339,-2.834 z m -132.873,8.8555 a 2.83464,2.8346403 0 0 1 2.8359,2.834 2.83464,2.8346403 0 0 1 -2.8359,2.8379 2.83464,2.8346403 0 0 1 -2.834,-2.8379 2.83464,2.8346403 0 0 1 2.834,-2.834 z m 8.8594,0 a 2.83464,2.8346403 0 0 1 2.8339,2.834 2.83464,2.8346403 0 0 1 -2.8339,2.8379 2.83464,2.8346403 0 0 1 -2.836,-2.8379 2.83464,2.8346403 0 0 1 2.836,-2.834 z m 8.8574,0 a 2.83464,2.8346403 0 0 1 2.834,2.834 2.83464,2.8346403 0 0 1 -2.834,2.8379 2.83464,2.8346403 0 0 1 -2.834,-2.8379 2.83464,2.8346403 0 0 1 2.834,-2.834 z m 8.8574,0 a 2.83464,2.8346403 0 0 1 2.8359,2.834 2.83464,2.8346403 0 0 1 -2.8359,2.8379 2.83464,2.8346403 0 0 1 -2.834,-2.8379 2.83464,2.8346403 0 0 1 2.834,-2.834 z m 8.8594,0 a 2.83464,2.8346403 0 0 1 2.834,2.834 2.83464,2.8346403 0 0 1 -2.834,2.8379 2.83464,2.8346403 0 0 1 -2.836,-2.8379 2.83464,2.8346403 0 0 1 2.836,-2.834 z m 8.8574,0 a 2.83464,2.8346403 0 0 1 2.8359,2.834 2.83464,2.8346403 0 0 1 -2.8359,2.8379 2.83464,2.8346403 0 0 1 -2.834,-2.8379 2.83464,2.8346403 0 0 1 2.834,-2.834 z m 8.8594,0 a 2.83464,2.8346403 0 0 1 2.834,2.834 2.83464,2.8346403 0 0 1 -2.834,2.8379 2.83464,2.8346403 0 0 1 -2.836,-2.8379 2.83464,2.8346403 0 0 1 2.836,-2.834 z m 8.8574,0 a 2.83464,2.8346403 0 0 1 2.834,2.834 2.83464,2.8346403 0 0 1 -2.834,2.8379 2.83464,2.8346403 0 0 1 -2.834,-2.8379 2.83464,2.8346403 0 0 1 2.834,-2.834 z m 8.8574,0 a 2.83464,2.8346403 0 0 1 2.836,2.834 2.83464,2.8346403 0 0 1 -2.836,2.8379 2.83464,2.8346403 0 0 1 -2.834,-2.8379 2.83464,2.8346403 0 0 1 2.834,-2.834 z m 8.8594,0 a 2.83464,2.8346403 0 0 1 2.834,2.834 2.83464,2.8346403 0 0 1 -2.834,2.8379 2.83464,2.8346403 0 0 1 -2.8359,-2.8379 2.83464,2.8346403 0 0 1 2.8359,-2.834 z m 8.8574,0 a 2.83464,2.8346403 0 0 1 2.834,2.834 2.83464,2.8346403 0 0 1 -2.834,2.8379 2.83464,2.8346403 0 0 1 -2.834,-2.8379 2.83464,2.8346403 0 0 1 2.834,-2.834 z m 8.8574,0 a 2.83464,2.8346403 0 0 1 2.836,2.834 2.83464,2.8346403 0 0 1 -2.836,2.8379 2.83464,2.8346403 0 0 1 -2.8339,-2.8379 2.83464,2.8346403 0 0 1 2.8339,-2.834 z m 8.8594,0 a 2.83464,2.8346403 0 0 1 2.834,2.834 2.83464,2.8346403 0 0 1 -2.834,2.8379 2.83464,2.8346403 0 0 1 -2.8359,-2.8379 2.83464,2.8346403 0 0 1 2.8359,-2.834 z m 8.8574,0 a 2.83464,2.8346403 0 0 1 2.836,2.834 2.83464,2.8346403 0 0 1 -2.836,2.8379 2.83464,2.8346403 0 0 1 -2.8339,-2.8379 2.83464,2.8346403 0 0 1 2.8339,-2.834 z m 8.8594,0 a 2.83464,2.8346403 0 0 1 2.834,2.834 2.83464,2.8346403 0 0 1 -2.834,2.8379 2.83464,2.8346403 0 0 1 -2.8359,-2.8379 2.83464,2.8346403 0 0 1 2.8359,-2.834 z m 8.8574,0 a 2.83464,2.8346403 0 0 1 2.834,2.834 2.83464,2.8346403 0 0 1 -2.834,2.8379 2.83464,2.8346403 0 0 1 -2.8339,-2.8379 2.83464,2.8346403 0 0 1 2.8339,-2.834 z m -132.873,8.8613 a 2.83464,2.8346403 0 0 1 2.8359,2.834 2.83464,2.8346403 0 0 1 -2.8359,2.834 2.83464,2.8346403 0 0 1 -2.834,-2.834 2.83464,2.8346403 0 0 1 2.834,-2.834 z m 8.8594,0 a 2.83464,2.8346403 0 0 1 2.8339,2.834 2.83464,2.8346403 0 0 1 -2.8339,2.834 2.83464,2.8346403 0 0 1 -2.836,-2.834 2.83464,2.8346403 0 0 1 2.836,-2.834 z m 8.8574,0 a 2.83464,2.8346403 0 0 1 2.834,2.834 2.83464,2.8346403 0 0 1 -2.834,2.834 2.83464,2.8346403 0 0 1 -2.834,-2.834 2.83464,2.8346403 0 0 1 2.834,-2.834 z m 8.8574,0 a 2.83464,2.8346403 0 0 1 2.8359,2.834 2.83464,2.8346403 0 0 1 -2.8359,2.834 2.83464,2.8346403 0 0 1 -2.834,-2.834 2.83464,2.8346403 0 0 1 2.834,-2.834 z m 8.8594,0 a 2.83464,2.8346403 0 0 1 2.834,2.834 2.83464,2.8346403 0 0 1 -2.834,2.834 2.83464,2.8346403 0 0 1 -2.836,-2.834 2.83464,2.8346403 0 0 1 2.836,-2.834 z m 8.8574,0 a 2.83464,2.8346403 0 0 1 2.8359,2.834 2.83464,2.8346403 0 0 1 -2.8359,2.834 2.83464,2.8346403 0 0 1 -2.834,-2.834 2.83464,2.8346403 0 0 1 2.834,-2.834 z m 8.8594,0 a 2.83464,2.8346403 0 0 1 2.834,2.834 2.83464,2.8346403 0 0 1 -2.834,2.834 2.83464,2.8346403 0 0 1 -2.836,-2.834 2.83464,2.8346403 0 0 1 2.836,-2.834 z m 8.8574,0 a 2.83464,2.8346403 0 0 1 2.834,2.834 2.83464,2.8346403 0 0 1 -2.834,2.834 2.83464,2.8346403 0 0 1 -2.834,-2.834 2.83464,2.8346403 0 0 1 2.834,-2.834 z m 8.8574,0 a 2.83464,2.8346403 0 0 1 2.836,2.834 2.83464,2.8346403 0 0 1 -2.836,2.834 2.83464,2.8346403 0 0 1 -2.834,-2.834 2.83464,2.8346403 0 0 1 2.834,-2.834 z m 8.8594,0 a 2.83464,2.8346403 0 0 1 2.834,2.834 2.83464,2.8346403 0 0 1 -2.834,2.834 2.83464,2.8346403 0 0 1 -2.8359,-2.834 2.83464,2.8346403 0 0 1 2.8359,-2.834 z m 8.8574,0 a 2.83464,2.8346403 0 0 1 2.834,2.834 2.83464,2.8346403 0 0 1 -2.834,2.834 2.83464,2.8346403 0 0 1 -2.834,-2.834 2.83464,2.8346403 0 0 1 2.834,-2.834 z m 8.8574,0 a 2.83464,2.8346403 0 0 1 2.836,2.834 2.83464,2.8346403 0 0 1 -2.836,2.834 2.83464,2.8346403 0 0 1 -2.8339,-2.834 2.83464,2.8346403 0 0 1 2.8339,-2.834 z m 8.8594,0 a 2.83464,2.8346403 0 0 1 2.834,2.834 2.83464,2.8346403 0 0 1 -2.834,2.834 2.83464,2.8346403 0 0 1 -2.8359,-2.834 2.83464,2.8346403 0 0 1 2.8359,-2.834 z m 8.8574,0 a 2.83464,2.8346403 0 0 1 2.836,2.834 2.83464,2.8346403 0 0 1 -2.836,2.834 2.83464,2.8346403 0 0 1 -2.8339,-2.834 2.83464,2.8346403 0 0 1 2.8339,-2.834 z m 8.8594,0 a 2.83464,2.8346403 0 0 1 2.834,2.834 2.83464,2.8346403 0 0 1 -2.834,2.834 2.83464,2.8346403 0 0 1 -2.8359,-2.834 2.83464,2.8346403 0 0 1 2.8359,-2.834 z m 8.8574,0 a 2.83464,2.8346403 0 0 1 2.834,2.834 2.83464,2.8346403 0 0 1 -2.834,2.834 2.83464,2.8346403 0 0 1 -2.8339,-2.834 2.83464,2.8346403 0 0 1 2.8339,-2.834 z m -132.873,8.8574 a 2.83464,2.8346403 0 0 1 2.8359,2.834 2.83464,2.8346403 0 0 1 -2.8359,2.836 2.83464,2.8346403 0 0 1 -2.834,-2.836 2.83464,2.8346403 0 0 1 2.834,-2.834 z m 8.8594,0 a 2.83464,2.8346403 0 0 1 2.8339,2.834 2.83464,2.8346403 0 0 1 -2.8339,2.836 2.83464,2.8346403 0 0 1 -2.836,-2.836 2.83464,2.8346403 0 0 1 2.836,-2.834 z m 8.8574,0 a 2.83464,2.8346403 0 0 1 2.834,2.834 2.83464,2.8346403 0 0 1 -2.834,2.836 2.83464,2.8346403 0 0 1 -2.834,-2.836 2.83464,2.8346403 0 0 1 2.834,-2.834 z m 8.8574,0 a 2.83464,2.8346403 0 0 1 2.8359,2.834 2.83464,2.8346403 0 0 1 -2.8359,2.836 2.83464,2.8346403 0 0 1 -2.834,-2.836 2.83464,2.8346403 0 0 1 2.834,-2.834 z m 8.8594,0 a 2.83464,2.8346403 0 0 1 2.834,2.834 2.83464,2.8346403 0 0 1 -2.834,2.836 2.83464,2.8346403 0 0 1 -2.836,-2.836 2.83464,2.8346403 0 0 1 2.836,-2.834 z m 8.8574,0 a 2.83464,2.8346403 0 0 1 2.8359,2.834 2.83464,2.8346403 0 0 1 -2.8359,2.836 2.83464,2.8346403 0 0 1 -2.834,-2.836 2.83464,2.8346403 0 0 1 2.834,-2.834 z m 8.8594,0 a 2.83464,2.8346403 0 0 1 2.834,2.834 2.83464,2.8346403 0 0 1 -2.834,2.836 2.83464,2.8346403 0 0 1 -2.836,-2.836 2.83464,2.8346403 0 0 1 2.836,-2.834 z m 8.8574,0 a 2.83464,2.8346403 0 0 1 2.834,2.834 2.83464,2.8346403 0 0 1 -2.834,2.836 2.83464,2.8346403 0 0 1 -2.834,-2.836 2.83464,2.8346403 0 0 1 2.834,-2.834 z m 8.8574,0 a 2.83464,2.8346403 0 0 1 2.836,2.834 2.83464,2.8346403 0 0 1 -2.836,2.836 2.83464,2.8346403 0 0 1 -2.834,-2.836 2.83464,2.8346403 0 0 1 2.834,-2.834 z m 8.8594,0 a 2.83464,2.8346403 0 0 1 2.834,2.834 2.83464,2.8346403 0 0 1 -2.834,2.836 2.83464,2.8346403 0 0 1 -2.8359,-2.836 2.83464,2.8346403 0 0 1 2.8359,-2.834 z m 8.8574,0 a 2.83464,2.8346403 0 0 1 2.834,2.834 2.83464,2.8346403 0 0 1 -2.834,2.836 2.83464,2.8346403 0 0 1 -2.834,-2.836 2.83464,2.8346403 0 0 1 2.834,-2.834 z m 8.8574,0 a 2.83464,2.8346403 0 0 1 2.836,2.834 2.83464,2.8346403 0 0 1 -2.836,2.836 2.83464,2.8346403 0 0 1 -2.8339,-2.836 2.83464,2.8346403 0 0 1 2.8339,-2.834 z m 8.8594,0 a 2.83464,2.8346403 0 0 1 2.834,2.834 2.83464,2.8346403 0 0 1 -2.834,2.836 2.83464,2.8346403 0 0 1 -2.8359,-2.836 2.83464,2.8346403 0 0 1 2.8359,-2.834 z m 8.8574,0 a 2.83464,2.8346403 0 0 1 2.836,2.834 2.83464,2.8346403 0 0 1 -2.836,2.836 2.83464,2.8346403 0 0 1 -2.8339,-2.836 2.83464,2.8346403 0 0 1 2.8339,-2.834 z m 8.8594,0 a 2.83464,2.8346403 0 0 1 2.834,2.834 2.83464,2.8346403 0 0 1 -2.834,2.836 2.83464,2.8346403 0 0 1 -2.8359,-2.836 2.83464,2.8346403 0 0 1 2.8359,-2.834 z m 8.8574,0 a 2.83464,2.8346403 0 0 1 2.834,2.834 2.83464,2.8346403 0 0 1 -2.834,2.836 2.83464,2.8346403 0 0 1 -2.8339,-2.836 2.83464,2.8346403 0 0 1 2.8339,-2.834 z m -132.873,8.8574 a 2.83464,2.8346403 0 0 1 2.8359,2.834 2.83464,2.8346403 0 0 1 -2.8359,2.834 2.83464,2.8346403 0 0 1 -2.834,-2.834 2.83464,2.8346403 0 0 1 2.834,-2.834 z m 8.8594,0 a 2.83464,2.8346403 0 0 1 2.8339,2.834 2.83464,2.8346403 0 0 1 -2.8339,2.834 2.83464,2.8346403 0 0 1 -2.836,-2.834 2.83464,2.8346403 0 0 1 2.836,-2.834 z m 8.8574,0 a 2.83464,2.8346403 0 0 1 2.834,2.834 2.83464,2.8346403 0 0 1 -2.834,2.834 2.83464,2.8346403 0 0 1 -2.834,-2.834 2.83464,2.8346403 0 0 1 2.834,-2.834 z m 8.8574,0 a 2.83464,2.8346403 0 0 1 2.8359,2.834 2.83464,2.8346403 0 0 1 -2.8359,2.834 2.83464,2.8346403 0 0 1 -2.834,-2.834 2.83464,2.8346403 0 0 1 2.834,-2.834 z m 8.8594,0 a 2.83464,2.8346403 0 0 1 2.834,2.834 2.83464,2.8346403 0 0 1 -2.834,2.834 2.83464,2.8346403 0 0 1 -2.836,-2.834 2.83464,2.8346403 0 0 1 2.836,-2.834 z m 8.8574,0 a 2.83464,2.8346403 0 0 1 2.8359,2.834 2.83464,2.8346403 0 0 1 -2.8359,2.834 2.83464,2.8346403 0 0 1 -2.834,-2.834 2.83464,2.8346403 0 0 1 2.834,-2.834 z m 8.8594,0 a 2.83464,2.8346403 0 0 1 2.834,2.834 2.83464,2.8346403 0 0 1 -2.834,2.834 2.83464,2.8346403 0 0 1 -2.836,-2.834 2.83464,2.8346403 0 0 1 2.836,-2.834 z m 8.8574,0 a 2.83464,2.8346403 0 0 1 2.834,2.834 2.83464,2.8346403 0 0 1 -2.834,2.834 2.83464,2.8346403 0 0 1 -2.834,-2.834 2.83464,2.8346403 0 0 1 2.834,-2.834 z m 8.8574,0 a 2.83464,2.8346403 0 0 1 2.836,2.834 2.83464,2.8346403 0 0 1 -2.836,2.834 2.83464,2.8346403 0 0 1 -2.834,-2.834 2.83464,2.8346403 0 0 1 2.834,-2.834 z m 8.8594,0 a 2.83464,2.8346403 0 0 1 2.834,2.834 2.83464,2.8346403 0 0 1 -2.834,2.834 2.83464,2.8346403 0 0 1 -2.8359,-2.834 2.83464,2.8346403 0 0 1 2.8359,-2.834 z m 8.8574,0 a 2.83464,2.8346403 0 0 1 2.834,2.834 2.83464,2.8346403 0 0 1 -2.834,2.834 2.83464,2.8346403 0 0 1 -2.834,-2.834 2.83464,2.8346403 0 0 1 2.834,-2.834 z m 8.8574,0 a 2.83464,2.8346403 0 0 1 2.836,2.834 2.83464,2.8346403 0 0 1 -2.836,2.834 2.83464,2.8346403 0 0 1 -2.8339,-2.834 2.83464,2.8346403 0 0 1 2.8339,-2.834 z m 8.8594,0 a 2.83464,2.8346403 0 0 1 2.834,2.834 2.83464,2.8346403 0 0 1 -2.834,2.834 2.83464,2.8346403 0 0 1 -2.8359,-2.834 2.83464,2.8346403 0 0 1 2.8359,-2.834 z m 8.8574,0 a 2.83464,2.8346403 0 0 1 2.836,2.834 2.83464,2.8346403 0 0 1 -2.836,2.834 2.83464,2.8346403 0 0 1 -2.8339,-2.834 2.83464,2.8346403 0 0 1 2.8339,-2.834 z m 8.8594,0 a 2.83464,2.8346403 0 0 1 2.834,2.834 2.83464,2.8346403 0 0 1 -2.834,2.834 2.83464,2.8346403 0 0 1 -2.8359,-2.834 2.83464,2.8346403 0 0 1 2.8359,-2.834 z m 8.8574,0 a 2.83464,2.8346403 0 0 1 2.834,2.834 2.83464,2.8346403 0 0 1 -2.834,2.834 2.83464,2.8346403 0 0 1 -2.8339,-2.834 2.83464,2.8346403 0 0 1 2.8339,-2.834 z m -132.873,8.8594 a 2.83464,2.8346403 0 0 1 2.8359,2.834 2.83464,2.8346403 0 0 1 -2.8359,2.8359 2.83464,2.8346403 0 0 1 -2.834,-2.8359 2.83464,2.8346403 0 0 1 2.834,-2.834 z m 8.8594,0 a 2.83464,2.8346403 0 0 1 2.8339,2.834 2.83464,2.8346403 0 0 1 -2.8339,2.8359 2.83464,2.8346403 0 0 1 -2.836,-2.8359 2.83464,2.8346403 0 0 1 2.836,-2.834 z m 8.8574,0 a 2.83464,2.8346403 0 0 1 2.834,2.834 2.83464,2.8346403 0 0 1 -2.834,2.8359 2.83464,2.8346403 0 0 1 -2.834,-2.8359 2.83464,2.8346403 0 0 1 2.834,-2.834 z m 8.8574,0 a 2.83464,2.8346403 0 0 1 2.8359,2.834 2.83464,2.8346403 0 0 1 -2.8359,2.8359 2.83464,2.8346403 0 0 1 -2.834,-2.8359 2.83464,2.8346403 0 0 1 2.834,-2.834 z m 8.8594,0 a 2.83464,2.8346403 0 0 1 2.834,2.834 2.83464,2.8346403 0 0 1 -2.834,2.8359 2.83464,2.8346403 0 0 1 -2.836,-2.8359 2.83464,2.8346403 0 0 1 2.836,-2.834 z m 8.8574,0 a 2.83464,2.8346403 0 0 1 2.8359,2.834 2.83464,2.8346403 0 0 1 -2.8359,2.8359 2.83464,2.8346403 0 0 1 -2.834,-2.8359 2.83464,2.8346403 0 0 1 2.834,-2.834 z m 8.8594,0 a 2.83464,2.8346403 0 0 1 2.834,2.834 2.83464,2.8346403 0 0 1 -2.834,2.8359 2.83464,2.8346403 0 0 1 -2.836,-2.8359 2.83464,2.8346403 0 0 1 2.836,-2.834 z m 8.8574,0 a 2.83464,2.8346403 0 0 1 2.834,2.834 2.83464,2.8346403 0 0 1 -2.834,2.8359 2.83464,2.8346403 0 0 1 -2.834,-2.8359 2.83464,2.8346403 0 0 1 2.834,-2.834 z m 8.8574,0 a 2.83464,2.8346403 0 0 1 2.836,2.834 2.83464,2.8346403 0 0 1 -2.836,2.8359 2.83464,2.8346403 0 0 1 -2.834,-2.8359 2.83464,2.8346403 0 0 1 2.834,-2.834 z m 8.8594,0 a 2.83464,2.8346403 0 0 1 2.834,2.834 2.83464,2.8346403 0 0 1 -2.834,2.8359 2.83464,2.8346403 0 0 1 -2.8359,-2.8359 2.83464,2.8346403 0 0 1 2.8359,-2.834 z m 8.8574,0 a 2.83464,2.8346403 0 0 1 2.834,2.834 2.83464,2.8346403 0 0 1 -2.834,2.8359 2.83464,2.8346403 0 0 1 -2.834,-2.8359 2.83464,2.8346403 0 0 1 2.834,-2.834 z m 8.8574,0 a 2.83464,2.8346403 0 0 1 2.836,2.834 2.83464,2.8346403 0 0 1 -2.836,2.8359 2.83464,2.8346403 0 0 1 -2.8339,-2.8359 2.83464,2.8346403 0 0 1 2.8339,-2.834 z m 8.8594,0 a 2.83464,2.8346403 0 0 1 2.834,2.834 2.83464,2.8346403 0 0 1 -2.834,2.8359 2.83464,2.8346403 0 0 1 -2.8359,-2.8359 2.83464,2.8346403 0 0 1 2.8359,-2.834 z m 8.8574,0 a 2.83464,2.8346403 0 0 1 2.836,2.834 2.83464,2.8346403 0 0 1 -2.836,2.8359 2.83464,2.8346403 0 0 1 -2.8339,-2.8359 2.83464,2.8346403 0 0 1 2.8339,-2.834 z m 8.8594,0 a 2.83464,2.8346403 0 0 1 2.834,2.834 2.83464,2.8346403 0 0 1 -2.834,2.8359 2.83464,2.8346403 0 0 1 -2.8359,-2.8359 2.83464,2.8346403 0 0 1 2.8359,-2.834 z m 8.8574,0 a 2.83464,2.8346403 0 0 1 2.834,2.834 2.83464,2.8346403 0 0 1 -2.834,2.8359 2.83464,2.8346403 0 0 1 -2.8339,-2.8359 2.83464,2.8346403 0 0 1 2.8339,-2.834 z m -132.873,8.8574 a 2.83464,2.8346403 0 0 1 2.8359,2.836 2.83464,2.8346403 0 0 1 -2.8359,2.834 2.83464,2.8346403 0 0 1 -2.834,-2.834 2.83464,2.8346403 0 0 1 2.834,-2.836 z m 8.8594,0 a 2.83464,2.8346403 0 0 1 2.8339,2.836 2.83464,2.8346403 0 0 1 -2.8339,2.834 2.83464,2.8346403 0 0 1 -2.836,-2.834 2.83464,2.8346403 0 0 1 2.836,-2.836 z m 8.8574,0 a 2.83464,2.8346403 0 0 1 2.834,2.836 2.83464,2.8346403 0 0 1 -2.834,2.834 2.83464,2.8346403 0 0 1 -2.834,-2.834 2.83464,2.8346403 0 0 1 2.834,-2.836 z m 8.8574,0 a 2.83464,2.8346403 0 0 1 2.8359,2.836 2.83464,2.8346403 0 0 1 -2.8359,2.834 2.83464,2.8346403 0 0 1 -2.834,-2.834 2.83464,2.8346403 0 0 1 2.834,-2.836 z m 8.8594,0 a 2.83464,2.8346403 0 0 1 2.834,2.836 2.83464,2.8346403 0 0 1 -2.834,2.834 2.83464,2.8346403 0 0 1 -2.836,-2.834 2.83464,2.8346403 0 0 1 2.836,-2.836 z m 8.8574,0 a 2.83464,2.8346403 0 0 1 2.8359,2.836 2.83464,2.8346403 0 0 1 -2.8359,2.834 2.83464,2.8346403 0 0 1 -2.834,-2.834 2.83464,2.8346403 0 0 1 2.834,-2.836 z m 8.8594,0 a 2.83464,2.8346403 0 0 1 2.834,2.836 2.83464,2.8346403 0 0 1 -2.834,2.834 2.83464,2.8346403 0 0 1 -2.836,-2.834 2.83464,2.8346403 0 0 1 2.836,-2.836 z m 8.8574,0 a 2.83464,2.8346403 0 0 1 2.834,2.836 2.83464,2.8346403 0 0 1 -2.834,2.834 2.83464,2.8346403 0 0 1 -2.834,-2.834 2.83464,2.8346403 0 0 1 2.834,-2.836 z m 8.8574,0 a 2.83464,2.8346403 0 0 1 2.836,2.836 2.83464,2.8346403 0 0 1 -2.836,2.834 2.83464,2.8346403 0 0 1 -2.834,-2.834 2.83464,2.8346403 0 0 1 2.834,-2.836 z m 8.8594,0 a 2.83464,2.8346403 0 0 1 2.834,2.836 2.83464,2.8346403 0 0 1 -2.834,2.834 2.83464,2.8346403 0 0 1 -2.8359,-2.834 2.83464,2.8346403 0 0 1 2.8359,-2.836 z m 8.8574,0 a 2.83464,2.8346403 0 0 1 2.834,2.836 2.83464,2.8346403 0 0 1 -2.834,2.834 2.83464,2.8346403 0 0 1 -2.834,-2.834 2.83464,2.8346403 0 0 1 2.834,-2.836 z m 8.8574,0 a 2.83464,2.8346403 0 0 1 2.836,2.836 2.83464,2.8346403 0 0 1 -2.836,2.834 2.83464,2.8346403 0 0 1 -2.8339,-2.834 2.83464,2.8346403 0 0 1 2.8339,-2.836 z m 8.8594,0 a 2.83464,2.8346403 0 0 1 2.834,2.836 2.83464,2.8346403 0 0 1 -2.834,2.834 2.83464,2.8346403 0 0 1 -2.8359,-2.834 2.83464,2.8346403 0 0 1 2.8359,-2.836 z m 8.8574,0 a 2.83464,2.8346403 0 0 1 2.836,2.836 2.83464,2.8346403 0 0 1 -2.836,2.834 2.83464,2.8346403 0 0 1 -2.8339,-2.834 2.83464,2.8346403 0 0 1 2.8339,-2.836 z m 8.8594,0 a 2.83464,2.8346403 0 0 1 2.834,2.836 2.83464,2.8346403 0 0 1 -2.834,2.834 2.83464,2.8346403 0 0 1 -2.8359,-2.834 2.83464,2.8346403 0 0 1 2.8359,-2.836 z m 8.8574,0 a 2.83464,2.8346403 0 0 1 2.834,2.836 2.83464,2.8346403 0 0 1 -2.834,2.834 2.83464,2.8346403 0 0 1 -2.8339,-2.834 2.83464,2.8346403 0 0 1 2.8339,-2.836 z m -132.873,8.8594 a 2.83464,2.8346403 0 0 1 2.8359,2.834 2.83464,2.8346403 0 0 1 -2.8359,2.8359 2.83464,2.8346403 0 0 1 -2.834,-2.8359 2.83464,2.8346403 0 0 1 2.834,-2.834 z m 8.8594,0 a 2.83464,2.8346403 0 0 1 2.8339,2.834 2.83464,2.8346403 0 0 1 -2.8339,2.8359 2.83464,2.8346403 0 0 1 -2.836,-2.8359 2.83464,2.8346403 0 0 1 2.836,-2.834 z m 8.8574,0 a 2.83464,2.8346403 0 0 1 2.834,2.834 2.83464,2.8346403 0 0 1 -2.834,2.8359 2.83464,2.8346403 0 0 1 -2.834,-2.8359 2.83464,2.8346403 0 0 1 2.834,-2.834 z m 8.8574,0 a 2.83464,2.8346403 0 0 1 2.8359,2.834 2.83464,2.8346403 0 0 1 -2.8359,2.8359 2.83464,2.8346403 0 0 1 -2.834,-2.8359 2.83464,2.8346403 0 0 1 2.834,-2.834 z m 8.8594,0 a 2.83464,2.8346403 0 0 1 2.834,2.834 2.83464,2.8346403 0 0 1 -2.834,2.8359 2.83464,2.8346403 0 0 1 -2.836,-2.8359 2.83464,2.8346403 0 0 1 2.836,-2.834 z m 8.8574,0 a 2.83464,2.8346403 0 0 1 2.8359,2.834 2.83464,2.8346403 0 0 1 -2.8359,2.8359 2.83464,2.8346403 0 0 1 -2.834,-2.8359 2.83464,2.8346403 0 0 1 2.834,-2.834 z m 8.8594,0 a 2.83464,2.8346403 0 0 1 2.834,2.834 2.83464,2.8346403 0 0 1 -2.834,2.8359 2.83464,2.8346403 0 0 1 -2.836,-2.8359 2.83464,2.8346403 0 0 1 2.836,-2.834 z m 8.8574,0 a 2.83464,2.8346403 0 0 1 2.834,2.834 2.83464,2.8346403 0 0 1 -2.834,2.8359 2.83464,2.8346403 0 0 1 -2.834,-2.8359 2.83464,2.8346403 0 0 1 2.834,-2.834 z m 8.8574,0 a 2.83464,2.8346403 0 0 1 2.836,2.834 2.83464,2.8346403 0 0 1 -2.836,2.8359 2.83464,2.8346403 0 0 1 -2.834,-2.8359 2.83464,2.8346403 0 0 1 2.834,-2.834 z m 8.8594,0 a 2.83464,2.8346403 0 0 1 2.834,2.834 2.83464,2.8346403 0 0 1 -2.834,2.8359 2.83464,2.8346403 0 0 1 -2.8359,-2.8359 2.83464,2.8346403 0 0 1 2.8359,-2.834 z m 8.8574,0 a 2.83464,2.8346403 0 0 1 2.834,2.834 2.83464,2.8346403 0 0 1 -2.834,2.8359 2.83464,2.8346403 0 0 1 -2.834,-2.8359 2.83464,2.8346403 0 0 1 2.834,-2.834 z m 8.8574,0 a 2.83464,2.8346403 0 0 1 2.836,2.834 2.83464,2.8346403 0 0 1 -2.836,2.8359 2.83464,2.8346403 0 0 1 -2.8339,-2.8359 2.83464,2.8346403 0 0 1 2.8339,-2.834 z m 8.8594,0 a 2.83464,2.8346403 0 0 1 2.834,2.834 2.83464,2.8346403 0 0 1 -2.834,2.8359 2.83464,2.8346403 0 0 1 -2.8359,-2.8359 2.83464,2.8346403 0 0 1 2.8359,-2.834 z m 8.8574,0 a 2.83464,2.8346403 0 0 1 2.836,2.834 2.83464,2.8346403 0 0 1 -2.836,2.8359 2.83464,2.8346403 0 0 1 -2.8339,-2.8359 2.83464,2.8346403 0 0 1 2.8339,-2.834 z m 8.8594,0 a 2.83464,2.8346403 0 0 1 2.834,2.834 2.83464,2.8346403 0 0 1 -2.834,2.8359 2.83464,2.8346403 0 0 1 -2.8359,-2.8359 2.83464,2.8346403 0 0 1 2.8359,-2.834 z m 8.8574,0 a 2.83464,2.8346403 0 0 1 2.834,2.834 2.83464,2.8346403 0 0 1 -2.834,2.8359 2.83464,2.8346403 0 0 1 -2.8339,-2.8359 2.83464,2.8346403 0 0 1 2.8339,-2.834 z m -132.873,8.8574 a 2.83464,2.8346403 0 0 1 2.8359,2.834 2.83464,2.8346403 0 0 1 -2.8359,2.834 2.83464,2.8346403 0 0 1 -2.834,-2.834 2.83464,2.8346403 0 0 1 2.834,-2.834 z m 8.8594,0 a 2.83464,2.8346403 0 0 1 2.8339,2.834 2.83464,2.8346403 0 0 1 -2.8339,2.834 2.83464,2.8346403 0 0 1 -2.836,-2.834 2.83464,2.8346403 0 0 1 2.836,-2.834 z m 8.8574,0 a 2.83464,2.8346403 0 0 1 2.834,2.834 2.83464,2.8346403 0 0 1 -2.834,2.834 2.83464,2.8346403 0 0 1 -2.834,-2.834 2.83464,2.8346403 0 0 1 2.834,-2.834 z m 8.8574,0 a 2.83464,2.8346403 0 0 1 2.8359,2.834 2.83464,2.8346403 0 0 1 -2.8359,2.834 2.83464,2.8346403 0 0 1 -2.834,-2.834 2.83464,2.8346403 0 0 1 2.834,-2.834 z m 8.8594,0 a 2.83464,2.8346403 0 0 1 2.834,2.834 2.83464,2.8346403 0 0 1 -2.834,2.834 2.83464,2.8346403 0 0 1 -2.836,-2.834 2.83464,2.8346403 0 0 1 2.836,-2.834 z m 8.8574,0 a 2.83464,2.8346403 0 0 1 2.8359,2.834 2.83464,2.8346403 0 0 1 -2.8359,2.834 2.83464,2.8346403 0 0 1 -2.834,-2.834 2.83464,2.8346403 0 0 1 2.834,-2.834 z m 8.8594,0 a 2.83464,2.8346403 0 0 1 2.834,2.834 2.83464,2.8346403 0 0 1 -2.834,2.834 2.83464,2.8346403 0 0 1 -2.836,-2.834 2.83464,2.8346403 0 0 1 2.836,-2.834 z m 8.8574,0 a 2.83464,2.8346403 0 0 1 2.834,2.834 2.83464,2.8346403 0 0 1 -2.834,2.834 2.83464,2.8346403 0 0 1 -2.834,-2.834 2.83464,2.8346403 0 0 1 2.834,-2.834 z m 8.8574,0 a 2.83464,2.8346403 0 0 1 2.836,2.834 2.83464,2.8346403 0 0 1 -2.836,2.834 2.83464,2.8346403 0 0 1 -2.834,-2.834 2.83464,2.8346403 0 0 1 2.834,-2.834 z m 8.8594,0 a 2.83464,2.8346403 0 0 1 2.834,2.834 2.83464,2.8346403 0 0 1 -2.834,2.834 2.83464,2.8346403 0 0 1 -2.8359,-2.834 2.83464,2.8346403 0 0 1 2.8359,-2.834 z m 8.8574,0 a 2.83464,2.8346403 0 0 1 2.834,2.834 2.83464,2.8346403 0 0 1 -2.834,2.834 2.83464,2.8346403 0 0 1 -2.834,-2.834 2.83464,2.8346403 0 0 1 2.834,-2.834 z m 8.8574,0 a 2.83464,2.8346403 0 0 1 2.836,2.834 2.83464,2.8346403 0 0 1 -2.836,2.834 2.83464,2.8346403 0 0 1 -2.8339,-2.834 2.83464,2.8346403 0 0 1 2.8339,-2.834 z m 8.8594,0 a 2.83464,2.8346403 0 0 1 2.834,2.834 2.83464,2.8346403 0 0 1 -2.834,2.834 2.83464,2.8346403 0 0 1 -2.8359,-2.834 2.83464,2.8346403 0 0 1 2.8359,-2.834 z m 8.8574,0 a 2.83464,2.8346403 0 0 1 2.836,2.834 2.83464,2.8346403 0 0 1 -2.836,2.834 2.83464,2.8346403 0 0 1 -2.8339,-2.834 2.83464,2.8346403 0 0 1 2.8339,-2.834 z m 8.8594,0 a 2.83464,2.8346403 0 0 1 2.834,2.834 2.83464,2.8346403 0 0 1 -2.834,2.834 2.83464,2.8346403 0 0 1 -2.8359,-2.834 2.83464,2.8346403 0 0 1 2.8359,-2.834 z m 8.8574,0 a 2.83464,2.8346403 0 0 1 2.834,2.834 2.83464,2.8346403 0 0 1 -2.834,2.834 2.83464,2.8346403 0 0 1 -2.8339,-2.834 2.83464,2.8346403 0 0 1 2.8339,-2.834 z m -132.873,8.8575 a 2.83464,2.8346403 0 0 1 2.8359,2.8339 2.83464,2.8346403 0 0 1 -2.8359,2.834 2.83464,2.8346403 0 0 1 -2.834,-2.834 2.83464,2.8346403 0 0 1 2.834,-2.8339 z m 8.8594,0 a 2.83464,2.8346403 0 0 1 2.8339,2.8339 2.83464,2.8346403 0 0 1 -2.8339,2.834 2.83464,2.8346403 0 0 1 -2.836,-2.834 2.83464,2.8346403 0 0 1 2.836,-2.8339 z m 8.8574,0 a 2.83464,2.8346403 0 0 1 2.834,2.8339 2.83464,2.8346403 0 0 1 -2.834,2.834 2.83464,2.8346403 0 0 1 -2.834,-2.834 2.83464,2.8346403 0 0 1 2.834,-2.8339 z m 8.8574,0 a 2.83464,2.8346403 0 0 1 2.8359,2.8339 2.83464,2.8346403 0 0 1 -2.8359,2.834 2.83464,2.8346403 0 0 1 -2.834,-2.834 2.83464,2.8346403 0 0 1 2.834,-2.8339 z m 8.8594,0 a 2.83464,2.8346403 0 0 1 2.834,2.8339 2.83464,2.8346403 0 0 1 -2.834,2.834 2.83464,2.8346403 0 0 1 -2.836,-2.834 2.83464,2.8346403 0 0 1 2.836,-2.8339 z m 8.8574,0 a 2.83464,2.8346403 0 0 1 2.8359,2.8339 2.83464,2.8346403 0 0 1 -2.8359,2.834 2.83464,2.8346403 0 0 1 -2.834,-2.834 2.83464,2.8346403 0 0 1 2.834,-2.8339 z m 8.8594,0 a 2.83464,2.8346403 0 0 1 2.834,2.8339 2.83464,2.8346403 0 0 1 -2.834,2.834 2.83464,2.8346403 0 0 1 -2.836,-2.834 2.83464,2.8346403 0 0 1 2.836,-2.8339 z m 8.8574,0 a 2.83464,2.8346403 0 0 1 2.834,2.8339 2.83464,2.8346403 0 0 1 -2.834,2.834 2.83464,2.8346403 0 0 1 -2.834,-2.834 2.83464,2.8346403 0 0 1 2.834,-2.8339 z m 8.8574,0 a 2.83464,2.8346403 0 0 1 2.836,2.8339 2.83464,2.8346403 0 0 1 -2.836,2.834 2.83464,2.8346403 0 0 1 -2.834,-2.834 2.83464,2.8346403 0 0 1 2.834,-2.8339 z m 8.8594,0 a 2.83464,2.8346403 0 0 1 2.834,2.8339 2.83464,2.8346403 0 0 1 -2.834,2.834 2.83464,2.8346403 0 0 1 -2.8359,-2.834 2.83464,2.8346403 0 0 1 2.8359,-2.8339 z m 8.8574,0 a 2.83464,2.8346403 0 0 1 2.834,2.8339 2.83464,2.8346403 0 0 1 -2.834,2.834 2.83464,2.8346403 0 0 1 -2.834,-2.834 2.83464,2.8346403 0 0 1 2.834,-2.8339 z m 8.8574,0 a 2.83464,2.8346403 0 0 1 2.836,2.8339 2.83464,2.8346403 0 0 1 -2.836,2.834 2.83464,2.8346403 0 0 1 -2.8339,-2.834 2.83464,2.8346403 0 0 1 2.8339,-2.8339 z m 8.8594,0 a 2.83464,2.8346403 0 0 1 2.834,2.8339 2.83464,2.8346403 0 0 1 -2.834,2.834 2.83464,2.8346403 0 0 1 -2.8359,-2.834 2.83464,2.8346403 0 0 1 2.8359,-2.8339 z m 8.8574,0 a 2.83464,2.8346403 0 0 1 2.836,2.8339 2.83464,2.8346403 0 0 1 -2.836,2.834 2.83464,2.8346403 0 0 1 -2.8339,-2.834 2.83464,2.8346403 0 0 1 2.8339,-2.8339 z m 8.8594,0 a 2.83464,2.8346403 0 0 1 2.834,2.8339 2.83464,2.8346403 0 0 1 -2.834,2.834 2.83464,2.8346403 0 0 1 -2.8359,-2.834 2.83464,2.8346403 0 0 1 2.8359,-2.8339 z m 8.8574,0 a 2.83464,2.8346403 0 0 1 2.834,2.8339 2.83464,2.8346403 0 0 1 -2.834,2.834 2.83464,2.8346403 0 0 1 -2.8339,-2.834 2.83464,2.8346403 0 0 1 2.8339,-2.8339 z m -132.873,8.8593 a 2.83464,2.8346403 0 0 1 2.8359,2.834 2.83464,2.8346403 0 0 1 -2.8359,2.836 2.83464,2.8346403 0 0 1 -2.834,-2.836 2.83464,2.8346403 0 0 1 2.834,-2.834 z m 8.8594,0 a 2.83464,2.8346403 0 0 1 2.8339,2.834 2.83464,2.8346403 0 0 1 -2.8339,2.836 2.83464,2.8346403 0 0 1 -2.836,-2.836 2.83464,2.8346403 0 0 1 2.836,-2.834 z m 8.8574,0 a 2.83464,2.8346403 0 0 1 2.834,2.834 2.83464,2.8346403 0 0 1 -2.834,2.836 2.83464,2.8346403 0 0 1 -2.834,-2.836 2.83464,2.8346403 0 0 1 2.834,-2.834 z m 8.8574,0 a 2.83464,2.8346403 0 0 1 2.8359,2.834 2.83464,2.8346403 0 0 1 -2.8359,2.836 2.83464,2.8346403 0 0 1 -2.834,-2.836 2.83464,2.8346403 0 0 1 2.834,-2.834 z m 8.8594,0 a 2.83464,2.8346403 0 0 1 2.834,2.834 2.83464,2.8346403 0 0 1 -2.834,2.836 2.83464,2.8346403 0 0 1 -2.836,-2.836 2.83464,2.8346403 0 0 1 2.836,-2.834 z m 8.8574,0 a 2.83464,2.8346403 0 0 1 2.8359,2.834 2.83464,2.8346403 0 0 1 -2.8359,2.836 2.83464,2.8346403 0 0 1 -2.834,-2.836 2.83464,2.8346403 0 0 1 2.834,-2.834 z m 8.8594,0 a 2.83464,2.8346403 0 0 1 2.834,2.834 2.83464,2.8346403 0 0 1 -2.834,2.836 2.83464,2.8346403 0 0 1 -2.836,-2.836 2.83464,2.8346403 0 0 1 2.836,-2.834 z m 8.8574,0 a 2.83464,2.8346403 0 0 1 2.834,2.834 2.83464,2.8346403 0 0 1 -2.834,2.836 2.83464,2.8346403 0 0 1 -2.834,-2.836 2.83464,2.8346403 0 0 1 2.834,-2.834 z m 8.8574,0 a 2.83464,2.8346403 0 0 1 2.836,2.834 2.83464,2.8346403 0 0 1 -2.836,2.836 2.83464,2.8346403 0 0 1 -2.834,-2.836 2.83464,2.8346403 0 0 1 2.834,-2.834 z m 8.8594,0 a 2.83464,2.8346403 0 0 1 2.834,2.834 2.83464,2.8346403 0 0 1 -2.834,2.836 2.83464,2.8346403 0 0 1 -2.8359,-2.836 2.83464,2.8346403 0 0 1 2.8359,-2.834 z m 8.8574,0 a 2.83464,2.8346403 0 0 1 2.834,2.834 2.83464,2.8346403 0 0 1 -2.834,2.836 2.83464,2.8346403 0 0 1 -2.834,-2.836 2.83464,2.8346403 0 0 1 2.834,-2.834 z m 8.8574,0 a 2.83464,2.8346403 0 0 1 2.836,2.834 2.83464,2.8346403 0 0 1 -2.836,2.836 2.83464,2.8346403 0 0 1 -2.8339,-2.836 2.83464,2.8346403 0 0 1 2.8339,-2.834 z m 8.8594,0 a 2.83464,2.8346403 0 0 1 2.834,2.834 2.83464,2.8346403 0 0 1 -2.834,2.836 2.83464,2.8346403 0 0 1 -2.8359,-2.836 2.83464,2.8346403 0 0 1 2.8359,-2.834 z m 8.8574,0 a 2.83464,2.8346403 0 0 1 2.836,2.834 2.83464,2.8346403 0 0 1 -2.836,2.836 2.83464,2.8346403 0 0 1 -2.8339,-2.836 2.83464,2.8346403 0 0 1 2.8339,-2.834 z m 8.8594,0 a 2.83464,2.8346403 0 0 1 2.834,2.834 2.83464,2.8346403 0 0 1 -2.834,2.836 2.83464,2.8346403 0 0 1 -2.8359,-2.836 2.83464,2.8346403 0 0 1 2.8359,-2.834 z m 8.8574,0 a 2.83464,2.8346403 0 0 1 2.834,2.834 2.83464,2.8346403 0 0 1 -2.834,2.836 2.83464,2.8346403 0 0 1 -2.8339,-2.836 2.83464,2.8346403 0 0 1 2.8339,-2.834 z m -132.873,8.8575 a 2.83464,2.8346403 0 0 1 2.8359,2.8339 2.83464,2.8346403 0 0 1 -2.8359,2.836 2.83464,2.8346403 0 0 1 -2.834,-2.836 2.83464,2.8346403 0 0 1 2.834,-2.8339 z m 8.8594,0 a 2.83464,2.8346403 0 0 1 2.8339,2.8339 2.83464,2.8346403 0 0 1 -2.8339,2.836 2.83464,2.8346403 0 0 1 -2.836,-2.836 2.83464,2.8346403 0 0 1 2.836,-2.8339 z m 8.8574,0 a 2.83464,2.8346403 0 0 1 2.834,2.8339 2.83464,2.8346403 0 0 1 -2.834,2.836 2.83464,2.8346403 0 0 1 -2.834,-2.836 2.83464,2.8346403 0 0 1 2.834,-2.8339 z m 8.8574,0 a 2.83464,2.8346403 0 0 1 2.8359,2.8339 2.83464,2.8346403 0 0 1 -2.8359,2.836 2.83464,2.8346403 0 0 1 -2.834,-2.836 2.83464,2.8346403 0 0 1 2.834,-2.8339 z m 8.8594,0 a 2.83464,2.8346403 0 0 1 2.834,2.8339 2.83464,2.8346403 0 0 1 -2.834,2.836 2.83464,2.8346403 0 0 1 -2.836,-2.836 2.83464,2.8346403 0 0 1 2.836,-2.8339 z m 8.8574,0 a 2.83464,2.8346403 0 0 1 2.8359,2.8339 2.83464,2.8346403 0 0 1 -2.8359,2.836 2.83464,2.8346403 0 0 1 -2.834,-2.836 2.83464,2.8346403 0 0 1 2.834,-2.8339 z m 8.8594,0 a 2.83464,2.8346403 0 0 1 2.834,2.8339 2.83464,2.8346403 0 0 1 -2.834,2.836 2.83464,2.8346403 0 0 1 -2.836,-2.836 2.83464,2.8346403 0 0 1 2.836,-2.8339 z m 8.8574,0 a 2.83464,2.8346403 0 0 1 2.834,2.8339 2.83464,2.8346403 0 0 1 -2.834,2.836 2.83464,2.8346403 0 0 1 -2.834,-2.836 2.83464,2.8346403 0 0 1 2.834,-2.8339 z m 8.8574,0 a 2.83464,2.8346403 0 0 1 2.836,2.8339 2.83464,2.8346403 0 0 1 -2.836,2.836 2.83464,2.8346403 0 0 1 -2.834,-2.836 2.83464,2.8346403 0 0 1 2.834,-2.8339 z m 8.8594,0 a 2.83464,2.8346403 0 0 1 2.834,2.8339 2.83464,2.8346403 0 0 1 -2.834,2.836 2.83464,2.8346403 0 0 1 -2.8359,-2.836 2.83464,2.8346403 0 0 1 2.8359,-2.8339 z m 8.8574,0 a 2.83464,2.8346403 0 0 1 2.834,2.8339 2.83464,2.8346403 0 0 1 -2.834,2.836 2.83464,2.8346403 0 0 1 -2.834,-2.836 2.83464,2.8346403 0 0 1 2.834,-2.8339 z m 8.8574,0 a 2.83464,2.8346403 0 0 1 2.836,2.8339 2.83464,2.8346403 0 0 1 -2.836,2.836 2.83464,2.8346403 0 0 1 -2.8339,-2.836 2.83464,2.8346403 0 0 1 2.8339,-2.8339 z m 8.8594,0 a 2.83464,2.8346403 0 0 1 2.834,2.8339 2.83464,2.8346403 0 0 1 -2.834,2.836 2.83464,2.8346403 0 0 1 -2.8359,-2.836 2.83464,2.8346403 0 0 1 2.8359,-2.8339 z m 8.8574,0 a 2.83464,2.8346403 0 0 1 2.836,2.8339 2.83464,2.8346403 0 0 1 -2.836,2.836 2.83464,2.8346403 0 0 1 -2.8339,-2.836 2.83464,2.8346403 0 0 1 2.8339,-2.8339 z m 8.8594,0 a 2.83464,2.8346403 0 0 1 2.834,2.8339 2.83464,2.8346403 0 0 1 -2.834,2.836 2.83464,2.8346403 0 0 1 -2.8359,-2.836 2.83464,2.8346403 0 0 1 2.8359,-2.8339 z m 8.8574,0 a 2.83464,2.8346403 0 0 1 2.834,2.8339 2.83464,2.8346403 0 0 1 -2.834,2.836 2.83464,2.8346403 0 0 1 -2.8339,-2.836 2.83464,2.8346403 0 0 1 2.8339,-2.8339 z m -132.873,8.8593 a 2.83464,2.8346403 0 0 1 2.8359,2.834 2.83464,2.8346403 0 0 1 -2.8359,2.836 2.83464,2.8346403 0 0 1 -2.834,-2.836 2.83464,2.8346403 0 0 1 2.834,-2.834 z m 8.8594,0 a 2.83464,2.8346403 0 0 1 2.8339,2.834 2.83464,2.8346403 0 0 1 -2.8339,2.836 2.83464,2.8346403 0 0 1 -2.836,-2.836 2.83464,2.8346403 0 0 1 2.836,-2.834 z m 8.8574,0 a 2.83464,2.8346403 0 0 1 2.834,2.834 2.83464,2.8346403 0 0 1 -2.834,2.836 2.83464,2.8346403 0 0 1 -2.834,-2.836 2.83464,2.8346403 0 0 1 2.834,-2.834 z m 8.8574,0 a 2.83464,2.8346403 0 0 1 2.8359,2.834 2.83464,2.8346403 0 0 1 -2.8359,2.836 2.83464,2.8346403 0 0 1 -2.834,-2.836 2.83464,2.8346403 0 0 1 2.834,-2.834 z m 8.8594,0 a 2.83464,2.8346403 0 0 1 2.834,2.834 2.83464,2.8346403 0 0 1 -2.834,2.836 2.83464,2.8346403 0 0 1 -2.836,-2.836 2.83464,2.8346403 0 0 1 2.836,-2.834 z m 8.8574,0 a 2.83464,2.8346403 0 0 1 2.8359,2.834 2.83464,2.8346403 0 0 1 -2.8359,2.836 2.83464,2.8346403 0 0 1 -2.834,-2.836 2.83464,2.8346403 0 0 1 2.834,-2.834 z m 8.8594,0 a 2.83464,2.8346403 0 0 1 2.834,2.834 2.83464,2.8346403 0 0 1 -2.834,2.836 2.83464,2.8346403 0 0 1 -2.836,-2.836 2.83464,2.8346403 0 0 1 2.836,-2.834 z m 8.8574,0 a 2.83464,2.8346403 0 0 1 2.834,2.834 2.83464,2.8346403 0 0 1 -2.834,2.836 2.83464,2.8346403 0 0 1 -2.834,-2.836 2.83464,2.8346403 0 0 1 2.834,-2.834 z m 8.8574,0 a 2.83464,2.8346403 0 0 1 2.836,2.834 2.83464,2.8346403 0 0 1 -2.836,2.836 2.83464,2.8346403 0 0 1 -2.834,-2.836 2.83464,2.8346403 0 0 1 2.834,-2.834 z m 8.8594,0 a 2.83464,2.8346403 0 0 1 2.834,2.834 2.83464,2.8346403 0 0 1 -2.834,2.836 2.83464,2.8346403 0 0 1 -2.8359,-2.836 2.83464,2.8346403 0 0 1 2.8359,-2.834 z m 8.8574,0 a 2.83464,2.8346403 0 0 1 2.834,2.834 2.83464,2.8346403 0 0 1 -2.834,2.836 2.83464,2.8346403 0 0 1 -2.834,-2.836 2.83464,2.8346403 0 0 1 2.834,-2.834 z m 8.8574,0 a 2.83464,2.8346403 0 0 1 2.836,2.834 2.83464,2.8346403 0 0 1 -2.836,2.836 2.83464,2.8346403 0 0 1 -2.8339,-2.836 2.83464,2.8346403 0 0 1 2.8339,-2.834 z m 8.8594,0 a 2.83464,2.8346403 0 0 1 2.834,2.834 2.83464,2.8346403 0 0 1 -2.834,2.836 2.83464,2.8346403 0 0 1 -2.8359,-2.836 2.83464,2.8346403 0 0 1 2.8359,-2.834 z m 8.8574,0 a 2.83464,2.8346403 0 0 1 2.836,2.834 2.83464,2.8346403 0 0 1 -2.836,2.836 2.83464,2.8346403 0 0 1 -2.8339,-2.836 2.83464,2.8346403 0 0 1 2.8339,-2.834 z m 8.8594,0 a 2.83464,2.8346403 0 0 1 2.834,2.834 2.83464,2.8346403 0 0 1 -2.834,2.836 2.83464,2.8346403 0 0 1 -2.8359,-2.836 2.83464,2.8346403 0 0 1 2.8359,-2.834 z m 8.8574,0 a 2.83464,2.8346403 0 0 1 2.834,2.834 2.83464,2.8346403 0 0 1 -2.834,2.836 2.83464,2.8346403 0 0 1 -2.8339,-2.836 2.83464,2.8346403 0 0 1 2.8339,-2.834 z m -132.873,8.8575 a 2.83464,2.8346403 0 0 1 2.8359,2.8339 2.83464,2.8346403 0 0 1 -2.8359,2.836 2.83464,2.8346403 0 0 1 -2.834,-2.836 2.83464,2.8346403 0 0 1 2.834,-2.8339 z m 8.8594,0 a 2.83464,2.8346403 0 0 1 2.8339,2.8339 2.83464,2.8346403 0 0 1 -2.8339,2.836 2.83464,2.8346403 0 0 1 -2.836,-2.836 2.83464,2.8346403 0 0 1 2.836,-2.8339 z m 8.8574,0 a 2.83464,2.8346403 0 0 1 2.834,2.8339 2.83464,2.8346403 0 0 1 -2.834,2.836 2.83464,2.8346403 0 0 1 -2.834,-2.836 2.83464,2.8346403 0 0 1 2.834,-2.8339 z m 8.8574,0 a 2.83464,2.8346403 0 0 1 2.8359,2.8339 2.83464,2.8346403 0 0 1 -2.8359,2.836 2.83464,2.8346403 0 0 1 -2.834,-2.836 2.83464,2.8346403 0 0 1 2.834,-2.8339 z m 8.8594,0 a 2.83464,2.8346403 0 0 1 2.834,2.8339 2.83464,2.8346403 0 0 1 -2.834,2.836 2.83464,2.8346403 0 0 1 -2.836,-2.836 2.83464,2.8346403 0 0 1 2.836,-2.8339 z m 8.8574,0 a 2.83464,2.8346403 0 0 1 2.8359,2.8339 2.83464,2.8346403 0 0 1 -2.8359,2.836 2.83464,2.8346403 0 0 1 -2.834,-2.836 2.83464,2.8346403 0 0 1 2.834,-2.8339 z m 8.8594,0 a 2.83464,2.8346403 0 0 1 2.834,2.8339 2.83464,2.8346403 0 0 1 -2.834,2.836 2.83464,2.8346403 0 0 1 -2.836,-2.836 2.83464,2.8346403 0 0 1 2.836,-2.8339 z m 8.8574,0 a 2.83464,2.8346403 0 0 1 2.834,2.8339 2.83464,2.8346403 0 0 1 -2.834,2.836 2.83464,2.8346403 0 0 1 -2.834,-2.836 2.83464,2.8346403 0 0 1 2.834,-2.8339 z m 8.8574,0 a 2.83464,2.8346403 0 0 1 2.836,2.8339 2.83464,2.8346403 0 0 1 -2.836,2.836 2.83464,2.8346403 0 0 1 -2.834,-2.836 2.83464,2.8346403 0 0 1 2.834,-2.8339 z m 8.8594,0 a 2.83464,2.8346403 0 0 1 2.834,2.8339 2.83464,2.8346403 0 0 1 -2.834,2.836 2.83464,2.8346403 0 0 1 -2.8359,-2.836 2.83464,2.8346403 0 0 1 2.8359,-2.8339 z m 8.8574,0 a 2.83464,2.8346403 0 0 1 2.834,2.8339 2.83464,2.8346403 0 0 1 -2.834,2.836 2.83464,2.8346403 0 0 1 -2.834,-2.836 2.83464,2.8346403 0 0 1 2.834,-2.8339 z m 8.8574,0 a 2.83464,2.8346403 0 0 1 2.836,2.8339 2.83464,2.8346403 0 0 1 -2.836,2.836 2.83464,2.8346403 0 0 1 -2.8339,-2.836 2.83464,2.8346403 0 0 1 2.8339,-2.8339 z m 8.8594,0 a 2.83464,2.8346403 0 0 1 2.834,2.8339 2.83464,2.8346403 0 0 1 -2.834,2.836 2.83464,2.8346403 0 0 1 -2.8359,-2.836 2.83464,2.8346403 0 0 1 2.8359,-2.8339 z m 8.8574,0 a 2.83464,2.8346403 0 0 1 2.836,2.8339 2.83464,2.8346403 0 0 1 -2.836,2.836 2.83464,2.8346403 0 0 1 -2.8339,-2.836 2.83464,2.8346403 0 0 1 2.8339,-2.8339 z m 8.8594,0 a 2.83464,2.8346403 0 0 1 2.834,2.8339 2.83464,2.8346403 0 0 1 -2.834,2.836 2.83464,2.8346403 0 0 1 -2.8359,-2.836 2.83464,2.8346403 0 0 1 2.8359,-2.8339 z m 8.8574,0 a 2.83464,2.8346403 0 0 1 2.834,2.8339 2.83464,2.8346403 0 0 1 -2.834,2.836 2.83464,2.8346403 0 0 1 -2.8339,-2.836 2.83464,2.8346403 0 0 1 2.8339,-2.8339 z m -132.873,8.8574 a 2.83464,2.8346403 0 0 1 2.8359,2.834 2.83464,2.8346403 0 0 1 -2.8359,2.8359 2.83464,2.8346403 0 0 1 -2.834,-2.8359 2.83464,2.8346403 0 0 1 2.834,-2.834 z m 8.8594,0 a 2.83464,2.8346403 0 0 1 2.8339,2.834 2.83464,2.8346403 0 0 1 -2.8339,2.8359 2.83464,2.8346403 0 0 1 -2.836,-2.8359 2.83464,2.8346403 0 0 1 2.836,-2.834 z m 8.8574,0 a 2.83464,2.8346403 0 0 1 2.834,2.834 2.83464,2.8346403 0 0 1 -2.834,2.8359 2.83464,2.8346403 0 0 1 -2.834,-2.8359 2.83464,2.8346403 0 0 1 2.834,-2.834 z m 8.8574,0 a 2.83464,2.8346403 0 0 1 2.8359,2.834 2.83464,2.8346403 0 0 1 -2.8359,2.8359 2.83464,2.8346403 0 0 1 -2.834,-2.8359 2.83464,2.8346403 0 0 1 2.834,-2.834 z m 8.8594,0 a 2.83464,2.8346403 0 0 1 2.834,2.834 2.83464,2.8346403 0 0 1 -2.834,2.8359 2.83464,2.8346403 0 0 1 -2.836,-2.8359 2.83464,2.8346403 0 0 1 2.836,-2.834 z m 8.8574,0 a 2.83464,2.8346403 0 0 1 2.8359,2.834 2.83464,2.8346403 0 0 1 -2.8359,2.8359 2.83464,2.8346403 0 0 1 -2.834,-2.8359 2.83464,2.8346403 0 0 1 2.834,-2.834 z m 8.8594,0 a 2.83464,2.8346403 0 0 1 2.834,2.834 2.83464,2.8346403 0 0 1 -2.834,2.8359 2.83464,2.8346403 0 0 1 -2.836,-2.8359 2.83464,2.8346403 0 0 1 2.836,-2.834 z m 8.8574,0 a 2.83464,2.8346403 0 0 1 2.834,2.834 2.83464,2.8346403 0 0 1 -2.834,2.8359 2.83464,2.8346403 0 0 1 -2.834,-2.8359 2.83464,2.8346403 0 0 1 2.834,-2.834 z m 8.8574,0 a 2.83464,2.8346403 0 0 1 2.836,2.834 2.83464,2.8346403 0 0 1 -2.836,2.8359 2.83464,2.8346403 0 0 1 -2.834,-2.8359 2.83464,2.8346403 0 0 1 2.834,-2.834 z m 8.8594,0 a 2.83464,2.8346403 0 0 1 2.834,2.834 2.83464,2.8346403 0 0 1 -2.834,2.8359 2.83464,2.8346403 0 0 1 -2.8359,-2.8359 2.83464,2.8346403 0 0 1 2.8359,-2.834 z m 8.8574,0 a 2.83464,2.8346403 0 0 1 2.834,2.834 2.83464,2.8346403 0 0 1 -2.834,2.8359 2.83464,2.8346403 0 0 1 -2.834,-2.8359 2.83464,2.8346403 0 0 1 2.834,-2.834 z m 8.8574,0 a 2.83464,2.8346403 0 0 1 2.836,2.834 2.83464,2.8346403 0 0 1 -2.836,2.8359 2.83464,2.8346403 0 0 1 -2.8339,-2.8359 2.83464,2.8346403 0 0 1 2.8339,-2.834 z m 8.8594,0 a 2.83464,2.8346403 0 0 1 2.834,2.834 2.83464,2.8346403 0 0 1 -2.834,2.8359 2.83464,2.8346403 0 0 1 -2.8359,-2.8359 2.83464,2.8346403 0 0 1 2.8359,-2.834 z m 8.8574,0 a 2.83464,2.8346403 0 0 1 2.836,2.834 2.83464,2.8346403 0 0 1 -2.836,2.8359 2.83464,2.8346403 0 0 1 -2.8339,-2.8359 2.83464,2.8346403 0 0 1 2.8339,-2.834 z m 8.8594,0 a 2.83464,2.8346403 0 0 1 2.834,2.834 2.83464,2.8346403 0 0 1 -2.834,2.8359 2.83464,2.8346403 0 0 1 -2.8359,-2.8359 2.83464,2.8346403 0 0 1 2.8359,-2.834 z m 8.8574,0 a 2.83464,2.8346403 0 0 1 2.834,2.834 2.83464,2.8346403 0 0 1 -2.834,2.8359 2.83464,2.8346403 0 0 1 -2.8339,-2.8359 2.83464,2.8346403 0 0 1 2.8339,-2.834 z m -132.873,8.8594 a 2.83464,2.8346403 0 0 1 2.8359,2.8339 2.83464,2.8346403 0 0 1 -2.8359,2.836 2.83464,2.8346403 0 0 1 -2.834,-2.836 2.83464,2.8346403 0 0 1 2.834,-2.8339 z m 8.8594,0 a 2.83464,2.8346403 0 0 1 2.8339,2.8339 2.83464,2.8346403 0 0 1 -2.8339,2.836 2.83464,2.8346403 0 0 1 -2.836,-2.836 2.83464,2.8346403 0 0 1 2.836,-2.8339 z m 8.8574,0 a 2.83464,2.8346403 0 0 1 2.834,2.8339 2.83464,2.8346403 0 0 1 -2.834,2.836 2.83464,2.8346403 0 0 1 -2.834,-2.836 2.83464,2.8346403 0 0 1 2.834,-2.8339 z m 8.8574,0 a 2.83464,2.8346403 0 0 1 2.8359,2.8339 2.83464,2.8346403 0 0 1 -2.8359,2.836 2.83464,2.8346403 0 0 1 -2.834,-2.836 2.83464,2.8346403 0 0 1 2.834,-2.8339 z m 8.8594,0 a 2.83464,2.8346403 0 0 1 2.834,2.8339 2.83464,2.8346403 0 0 1 -2.834,2.836 2.83464,2.8346403 0 0 1 -2.836,-2.836 2.83464,2.8346403 0 0 1 2.836,-2.8339 z m 8.8574,0 a 2.83464,2.8346403 0 0 1 2.8359,2.8339 2.83464,2.8346403 0 0 1 -2.8359,2.836 2.83464,2.8346403 0 0 1 -2.834,-2.836 2.83464,2.8346403 0 0 1 2.834,-2.8339 z m 8.8594,0 a 2.83464,2.8346403 0 0 1 2.834,2.8339 2.83464,2.8346403 0 0 1 -2.834,2.836 2.83464,2.8346403 0 0 1 -2.836,-2.836 2.83464,2.8346403 0 0 1 2.836,-2.8339 z m 8.8574,0 a 2.83464,2.8346403 0 0 1 2.834,2.8339 2.83464,2.8346403 0 0 1 -2.834,2.836 2.83464,2.8346403 0 0 1 -2.834,-2.836 2.83464,2.8346403 0 0 1 2.834,-2.8339 z m 8.8574,0 a 2.83464,2.8346403 0 0 1 2.836,2.8339 2.83464,2.8346403 0 0 1 -2.836,2.836 2.83464,2.8346403 0 0 1 -2.834,-2.836 2.83464,2.8346403 0 0 1 2.834,-2.8339 z m 8.8594,0 a 2.83464,2.8346403 0 0 1 2.834,2.8339 2.83464,2.8346403 0 0 1 -2.834,2.836 2.83464,2.8346403 0 0 1 -2.8359,-2.836 2.83464,2.8346403 0 0 1 2.8359,-2.8339 z m 8.8574,0 a 2.83464,2.8346403 0 0 1 2.834,2.8339 2.83464,2.8346403 0 0 1 -2.834,2.836 2.83464,2.8346403 0 0 1 -2.834,-2.836 2.83464,2.8346403 0 0 1 2.834,-2.8339 z m 8.8574,0 a 2.83464,2.8346403 0 0 1 2.836,2.8339 2.83464,2.8346403 0 0 1 -2.836,2.836 2.83464,2.8346403 0 0 1 -2.8339,-2.836 2.83464,2.8346403 0 0 1 2.8339,-2.8339 z m 8.8594,0 a 2.83464,2.8346403 0 0 1 2.834,2.8339 2.83464,2.8346403 0 0 1 -2.834,2.836 2.83464,2.8346403 0 0 1 -2.8359,-2.836 2.83464,2.8346403 0 0 1 2.8359,-2.8339 z m 8.8574,0 a 2.83464,2.8346403 0 0 1 2.836,2.8339 2.83464,2.8346403 0 0 1 -2.836,2.836 2.83464,2.8346403 0 0 1 -2.8339,-2.836 2.83464,2.8346403 0 0 1 2.8339,-2.8339 z m 8.8594,0 a 2.83464,2.8346403 0 0 1 2.834,2.8339 2.83464,2.8346403 0 0 1 -2.834,2.836 2.83464,2.8346403 0 0 1 -2.8359,-2.836 2.83464,2.8346403 0 0 1 2.8359,-2.8339 z m 8.8574,0 a 2.83464,2.8346403 0 0 1 2.834,2.8339 2.83464,2.8346403 0 0 1 -2.834,2.836 2.83464,2.8346403 0 0 1 -2.8339,-2.836 2.83464,2.8346403 0 0 1 2.8339,-2.8339 z m -132.873,8.8574 a 2.83464,2.8346403 0 0 1 2.8359,2.834 2.83464,2.8346403 0 0 1 -2.8359,2.8339 2.83464,2.8346403 0 0 1 -2.834,-2.8339 2.83464,2.8346403 0 0 1 2.834,-2.834 z m 8.8594,0 a 2.83464,2.8346403 0 0 1 2.8339,2.834 2.83464,2.8346403 0 0 1 -2.8339,2.8339 2.83464,2.8346403 0 0 1 -2.836,-2.8339 2.83464,2.8346403 0 0 1 2.836,-2.834 z m 8.8574,0 a 2.83464,2.8346403 0 0 1 2.834,2.834 2.83464,2.8346403 0 0 1 -2.834,2.8339 2.83464,2.8346403 0 0 1 -2.834,-2.8339 2.83464,2.8346403 0 0 1 2.834,-2.834 z m 8.8574,0 a 2.83464,2.8346403 0 0 1 2.8359,2.834 2.83464,2.8346403 0 0 1 -2.8359,2.8339 2.83464,2.8346403 0 0 1 -2.834,-2.8339 2.83464,2.8346403 0 0 1 2.834,-2.834 z m 8.8594,0 a 2.83464,2.8346403 0 0 1 2.834,2.834 2.83464,2.8346403 0 0 1 -2.834,2.8339 2.83464,2.8346403 0 0 1 -2.836,-2.8339 2.83464,2.8346403 0 0 1 2.836,-2.834 z m 8.8574,0 a 2.83464,2.8346403 0 0 1 2.8359,2.834 2.83464,2.8346403 0 0 1 -2.8359,2.8339 2.83464,2.8346403 0 0 1 -2.834,-2.8339 2.83464,2.8346403 0 0 1 2.834,-2.834 z m 8.8594,0 a 2.83464,2.8346403 0 0 1 2.834,2.834 2.83464,2.8346403 0 0 1 -2.834,2.8339 2.83464,2.8346403 0 0 1 -2.836,-2.8339 2.83464,2.8346403 0 0 1 2.836,-2.834 z m 8.8574,0 a 2.83464,2.8346403 0 0 1 2.834,2.834 2.83464,2.8346403 0 0 1 -2.834,2.8339 2.83464,2.8346403 0 0 1 -2.834,-2.8339 2.83464,2.8346403 0 0 1 2.834,-2.834 z m 8.8574,0 a 2.83464,2.8346403 0 0 1 2.836,2.834 2.83464,2.8346403 0 0 1 -2.836,2.8339 2.83464,2.8346403 0 0 1 -2.834,-2.8339 2.83464,2.8346403 0 0 1 2.834,-2.834 z m 8.8594,0 a 2.83464,2.8346403 0 0 1 2.834,2.834 2.83464,2.8346403 0 0 1 -2.834,2.8339 2.83464,2.8346403 0 0 1 -2.8359,-2.8339 2.83464,2.8346403 0 0 1 2.8359,-2.834 z m 8.8574,0 a 2.83464,2.8346403 0 0 1 2.834,2.834 2.83464,2.8346403 0 0 1 -2.834,2.8339 2.83464,2.8346403 0 0 1 -2.834,-2.8339 2.83464,2.8346403 0 0 1 2.834,-2.834 z m 8.8574,0 a 2.83464,2.8346403 0 0 1 2.836,2.834 2.83464,2.8346403 0 0 1 -2.836,2.8339 2.83464,2.8346403 0 0 1 -2.8339,-2.8339 2.83464,2.8346403 0 0 1 2.8339,-2.834 z m 8.8594,0 a 2.83464,2.8346403 0 0 1 2.834,2.834 2.83464,2.8346403 0 0 1 -2.834,2.8339 2.83464,2.8346403 0 0 1 -2.8359,-2.8339 2.83464,2.8346403 0 0 1 2.8359,-2.834 z m 8.8574,0 a 2.83464,2.8346403 0 0 1 2.836,2.834 2.83464,2.8346403 0 0 1 -2.836,2.8339 2.83464,2.8346403 0 0 1 -2.8339,-2.8339 2.83464,2.8346403 0 0 1 2.8339,-2.834 z m 8.8594,0 a 2.83464,2.8346403 0 0 1 2.834,2.834 2.83464,2.8346403 0 0 1 -2.834,2.8339 2.83464,2.8346403 0 0 1 -2.8359,-2.8339 2.83464,2.8346403 0 0 1 2.8359,-2.834 z m 8.8574,0 a 2.83464,2.8346403 0 0 1 2.834,2.834 2.83464,2.8346403 0 0 1 -2.834,2.8339 2.83464,2.8346403 0 0 1 -2.8339,-2.8339 2.83464,2.8346403 0 0 1 2.8339,-2.834 z m -132.873,8.8594 a 2.83464,2.8346403 0 0 1 2.8359,2.8339 2.83464,2.8346403 0 0 1 -2.8359,2.836 2.83464,2.8346403 0 0 1 -2.834,-2.836 2.83464,2.8346403 0 0 1 2.834,-2.8339 z m 8.8594,0 a 2.83464,2.8346403 0 0 1 2.8339,2.8339 2.83464,2.8346403 0 0 1 -2.8339,2.836 2.83464,2.8346403 0 0 1 -2.836,-2.836 2.83464,2.8346403 0 0 1 2.836,-2.8339 z m 8.8574,0 a 2.83464,2.8346403 0 0 1 2.834,2.8339 2.83464,2.8346403 0 0 1 -2.834,2.836 2.83464,2.8346403 0 0 1 -2.834,-2.836 2.83464,2.8346403 0 0 1 2.834,-2.8339 z m 8.8574,0 a 2.83464,2.8346403 0 0 1 2.8359,2.8339 2.83464,2.8346403 0 0 1 -2.8359,2.836 2.83464,2.8346403 0 0 1 -2.834,-2.836 2.83464,2.8346403 0 0 1 2.834,-2.8339 z m 8.8594,0 a 2.83464,2.8346403 0 0 1 2.834,2.8339 2.83464,2.8346403 0 0 1 -2.834,2.836 2.83464,2.8346403 0 0 1 -2.836,-2.836 2.83464,2.8346403 0 0 1 2.836,-2.8339 z m 8.8574,0 a 2.83464,2.8346403 0 0 1 2.8359,2.8339 2.83464,2.8346403 0 0 1 -2.8359,2.836 2.83464,2.8346403 0 0 1 -2.834,-2.836 2.83464,2.8346403 0 0 1 2.834,-2.8339 z m 8.8594,0 a 2.83464,2.8346403 0 0 1 2.834,2.8339 2.83464,2.8346403 0 0 1 -2.834,2.836 2.83464,2.8346403 0 0 1 -2.836,-2.836 2.83464,2.8346403 0 0 1 2.836,-2.8339 z m 8.8574,0 a 2.83464,2.8346403 0 0 1 2.834,2.8339 2.83464,2.8346403 0 0 1 -2.834,2.836 2.83464,2.8346403 0 0 1 -2.834,-2.836 2.83464,2.8346403 0 0 1 2.834,-2.8339 z m 8.8574,0 a 2.83464,2.8346403 0 0 1 2.836,2.8339 2.83464,2.8346403 0 0 1 -2.836,2.836 2.83464,2.8346403 0 0 1 -2.834,-2.836 2.83464,2.8346403 0 0 1 2.834,-2.8339 z m 8.8594,0 a 2.83464,2.8346403 0 0 1 2.834,2.8339 2.83464,2.8346403 0 0 1 -2.834,2.836 2.83464,2.8346403 0 0 1 -2.8359,-2.836 2.83464,2.8346403 0 0 1 2.8359,-2.8339 z m 8.8574,0 a 2.83464,2.8346403 0 0 1 2.834,2.8339 2.83464,2.8346403 0 0 1 -2.834,2.836 2.83464,2.8346403 0 0 1 -2.834,-2.836 2.83464,2.8346403 0 0 1 2.834,-2.8339 z m 8.8574,0 a 2.83464,2.8346403 0 0 1 2.836,2.8339 2.83464,2.8346403 0 0 1 -2.836,2.836 2.83464,2.8346403 0 0 1 -2.8339,-2.836 2.83464,2.8346403 0 0 1 2.8339,-2.8339 z m 8.8594,0 a 2.83464,2.8346403 0 0 1 2.834,2.8339 2.83464,2.8346403 0 0 1 -2.834,2.836 2.83464,2.8346403 0 0 1 -2.8359,-2.836 2.83464,2.8346403 0 0 1 2.8359,-2.8339 z m 8.8574,0 a 2.83464,2.8346403 0 0 1 2.836,2.8339 2.83464,2.8346403 0 0 1 -2.836,2.836 2.83464,2.8346403 0 0 1 -2.8339,-2.836 2.83464,2.8346403 0 0 1 2.8339,-2.8339 z m 8.8594,0 a 2.83464,2.8346403 0 0 1 2.834,2.8339 2.83464,2.8346403 0 0 1 -2.834,2.836 2.83464,2.8346403 0 0 1 -2.8359,-2.836 2.83464,2.8346403 0 0 1 2.8359,-2.8339 z m 8.8574,0 a 2.83464,2.8346403 0 0 1 2.834,2.8339 2.83464,2.8346403 0 0 1 -2.834,2.836 2.83464,2.8346403 0 0 1 -2.8339,-2.836 2.83464,2.8346403 0 0 1 2.8339,-2.8339 z m -132.873,8.8593 a 2.83464,2.8346403 0 0 1 2.8359,2.834 2.83464,2.8346403 0 0 1 -2.8359,2.836 2.83464,2.8346403 0 0 1 -2.834,-2.836 2.83464,2.8346403 0 0 1 2.834,-2.834 z m 8.8594,0 a 2.83464,2.8346403 0 0 1 2.8339,2.834 2.83464,2.8346403 0 0 1 -2.8339,2.836 2.83464,2.8346403 0 0 1 -2.836,-2.836 2.83464,2.8346403 0 0 1 2.836,-2.834 z m 8.8574,0 a 2.83464,2.8346403 0 0 1 2.834,2.834 2.83464,2.8346403 0 0 1 -2.834,2.836 2.83464,2.8346403 0 0 1 -2.834,-2.836 2.83464,2.8346403 0 0 1 2.834,-2.834 z m 8.8574,0 a 2.83464,2.8346403 0 0 1 2.8359,2.834 2.83464,2.8346403 0 0 1 -2.8359,2.836 2.83464,2.8346403 0 0 1 -2.834,-2.836 2.83464,2.8346403 0 0 1 2.834,-2.834 z m 8.8594,0 a 2.83464,2.8346403 0 0 1 2.834,2.834 2.83464,2.8346403 0 0 1 -2.834,2.836 2.83464,2.8346403 0 0 1 -2.836,-2.836 2.83464,2.8346403 0 0 1 2.836,-2.834 z m 8.8574,0 a 2.83464,2.8346403 0 0 1 2.8359,2.834 2.83464,2.8346403 0 0 1 -2.8359,2.836 2.83464,2.8346403 0 0 1 -2.834,-2.836 2.83464,2.8346403 0 0 1 2.834,-2.834 z m 8.8594,0 a 2.83464,2.8346403 0 0 1 2.834,2.834 2.83464,2.8346403 0 0 1 -2.834,2.836 2.83464,2.8346403 0 0 1 -2.836,-2.836 2.83464,2.8346403 0 0 1 2.836,-2.834 z m 8.8574,0 a 2.83464,2.8346403 0 0 1 2.834,2.834 2.83464,2.8346403 0 0 1 -2.834,2.836 2.83464,2.8346403 0 0 1 -2.834,-2.836 2.83464,2.8346403 0 0 1 2.834,-2.834 z m 8.8574,0 a 2.83464,2.8346403 0 0 1 2.836,2.834 2.83464,2.8346403 0 0 1 -2.836,2.836 2.83464,2.8346403 0 0 1 -2.834,-2.836 2.83464,2.8346403 0 0 1 2.834,-2.834 z m 8.8594,0 a 2.83464,2.8346403 0 0 1 2.834,2.834 2.83464,2.8346403 0 0 1 -2.834,2.836 2.83464,2.8346403 0 0 1 -2.8359,-2.836 2.83464,2.8346403 0 0 1 2.8359,-2.834 z m 8.8574,0 a 2.83464,2.8346403 0 0 1 2.834,2.834 2.83464,2.8346403 0 0 1 -2.834,2.836 2.83464,2.8346403 0 0 1 -2.834,-2.836 2.83464,2.8346403 0 0 1 2.834,-2.834 z m 8.8574,0 a 2.83464,2.8346403 0 0 1 2.836,2.834 2.83464,2.8346403 0 0 1 -2.836,2.836 2.83464,2.8346403 0 0 1 -2.8339,-2.836 2.83464,2.8346403 0 0 1 2.8339,-2.834 z m 8.8594,0 a 2.83464,2.8346403 0 0 1 2.834,2.834 2.83464,2.8346403 0 0 1 -2.834,2.836 2.83464,2.8346403 0 0 1 -2.8359,-2.836 2.83464,2.8346403 0 0 1 2.8359,-2.834 z m 8.8574,0 a 2.83464,2.8346403 0 0 1 2.836,2.834 2.83464,2.8346403 0 0 1 -2.836,2.836 2.83464,2.8346403 0 0 1 -2.8339,-2.836 2.83464,2.8346403 0 0 1 2.8339,-2.834 z m 8.8594,0 a 2.83464,2.8346403 0 0 1 2.834,2.834 2.83464,2.8346403 0 0 1 -2.834,2.836 2.83464,2.8346403 0 0 1 -2.8359,-2.836 2.83464,2.8346403 0 0 1 2.8359,-2.834 z m 8.8574,0 a 2.83464,2.8346403 0 0 1 2.834,2.834 2.83464,2.8346403 0 0 1 -2.834,2.836 2.83464,2.8346403 0 0 1 -2.8339,-2.836 2.83464,2.8346403 0 0 1 2.8339,-2.834 z m -132.873,8.8574 a 2.83464,2.8346403 0 0 1 2.8359,2.8321 2.83464,2.8346403 0 0 1 -2.8359,2.8359 2.83464,2.8346403 0 0 1 -2.834,-2.8359 2.83464,2.8346403 0 0 1 2.834,-2.8321 z m 8.8594,0 a 2.83464,2.8346403 0 0 1 2.8339,2.8321 2.83464,2.8346403 0 0 1 -2.8339,2.8359 2.83464,2.8346403 0 0 1 -2.836,-2.8359 2.83464,2.8346403 0 0 1 2.836,-2.8321 z m 8.8574,0 a 2.83464,2.8346403 0 0 1 2.834,2.8321 2.83464,2.8346403 0 0 1 -2.834,2.8359 2.83464,2.8346403 0 0 1 -2.834,-2.8359 2.83464,2.8346403 0 0 1 2.834,-2.8321 z m 8.8574,0 a 2.83464,2.8346403 0 0 1 2.8359,2.8321 2.83464,2.8346403 0 0 1 -2.8359,2.8359 2.83464,2.8346403 0 0 1 -2.834,-2.8359 2.83464,2.8346403 0 0 1 2.834,-2.8321 z m 8.8594,0 a 2.83464,2.8346403 0 0 1 2.834,2.8321 2.83464,2.8346403 0 0 1 -2.834,2.8359 2.83464,2.8346403 0 0 1 -2.836,-2.8359 2.83464,2.8346403 0 0 1 2.836,-2.8321 z m 8.8574,0 a 2.83464,2.8346403 0 0 1 2.8359,2.8321 2.83464,2.8346403 0 0 1 -2.8359,2.8359 2.83464,2.8346403 0 0 1 -2.834,-2.8359 2.83464,2.8346403 0 0 1 2.834,-2.8321 z m 8.8594,0 a 2.83464,2.8346403 0 0 1 2.834,2.8321 2.83464,2.8346403 0 0 1 -2.834,2.8359 2.83464,2.8346403 0 0 1 -2.836,-2.8359 2.83464,2.8346403 0 0 1 2.836,-2.8321 z m 8.8574,0 a 2.83464,2.8346403 0 0 1 2.834,2.8321 2.83464,2.8346403 0 0 1 -2.834,2.8359 2.83464,2.8346403 0 0 1 -2.834,-2.8359 2.83464,2.8346403 0 0 1 2.834,-2.8321 z m 8.8574,0 a 2.83464,2.8346403 0 0 1 2.836,2.8321 2.83464,2.8346403 0 0 1 -2.836,2.8359 2.83464,2.8346403 0 0 1 -2.834,-2.8359 2.83464,2.8346403 0 0 1 2.834,-2.8321 z m 8.8594,0 a 2.83464,2.8346403 0 0 1 2.834,2.8321 2.83464,2.8346403 0 0 1 -2.834,2.8359 2.83464,2.8346403 0 0 1 -2.8359,-2.8359 2.83464,2.8346403 0 0 1 2.8359,-2.8321 z m 8.8574,0 a 2.83464,2.8346403 0 0 1 2.834,2.8321 2.83464,2.8346403 0 0 1 -2.834,2.8359 2.83464,2.8346403 0 0 1 -2.834,-2.8359 2.83464,2.8346403 0 0 1 2.834,-2.8321 z m 8.8574,0 a 2.83464,2.8346403 0 0 1 2.836,2.8321 2.83464,2.8346403 0 0 1 -2.836,2.8359 2.83464,2.8346403 0 0 1 -2.8339,-2.8359 2.83464,2.8346403 0 0 1 2.8339,-2.8321 z m 8.8594,0 a 2.83464,2.8346403 0 0 1 2.834,2.8321 2.83464,2.8346403 0 0 1 -2.834,2.8359 2.83464,2.8346403 0 0 1 -2.8359,-2.8359 2.83464,2.8346403 0 0 1 2.8359,-2.8321 z m 8.8574,0 a 2.83464,2.8346403 0 0 1 2.836,2.8321 2.83464,2.8346403 0 0 1 -2.836,2.8359 2.83464,2.8346403 0 0 1 -2.8339,-2.8359 2.83464,2.8346403 0 0 1 2.8339,-2.8321 z m 8.8594,0 a 2.83464,2.8346403 0 0 1 2.834,2.8321 2.83464,2.8346403 0 0 1 -2.834,2.8359 2.83464,2.8346403 0 0 1 -2.8359,-2.8359 2.83464,2.8346403 0 0 1 2.8359,-2.8321 z m 8.8574,0 a 2.83464,2.8346403 0 0 1 2.834,2.8321 2.83464,2.8346403 0 0 1 -2.834,2.8359 2.83464,2.8346403 0 0 1 -2.8339,-2.8359 2.83464,2.8346403 0 0 1 2.8339,-2.8321 z m -132.873,8.8575 a 2.83464,2.8346403 0 0 1 2.8359,2.834 2.83464,2.8346403 0 0 1 -2.8359,2.8339 2.83464,2.8346403 0 0 1 -2.834,-2.8339 2.83464,2.8346403 0 0 1 2.834,-2.834 z m 8.8594,0 a 2.83464,2.8346403 0 0 1 2.8339,2.834 2.83464,2.8346403 0 0 1 -2.8339,2.8339 2.83464,2.8346403 0 0 1 -2.836,-2.8339 2.83464,2.8346403 0 0 1 2.836,-2.834 z m 8.8574,0 a 2.83464,2.8346403 0 0 1 2.834,2.834 2.83464,2.8346403 0 0 1 -2.834,2.8339 2.83464,2.8346403 0 0 1 -2.834,-2.8339 2.83464,2.8346403 0 0 1 2.834,-2.834 z m 8.8574,0 a 2.83464,2.8346403 0 0 1 2.8359,2.834 2.83464,2.8346403 0 0 1 -2.8359,2.8339 2.83464,2.8346403 0 0 1 -2.834,-2.8339 2.83464,2.8346403 0 0 1 2.834,-2.834 z m 8.8594,0 a 2.83464,2.8346403 0 0 1 2.834,2.834 2.83464,2.8346403 0 0 1 -2.834,2.8339 2.83464,2.8346403 0 0 1 -2.836,-2.8339 2.83464,2.8346403 0 0 1 2.836,-2.834 z m 8.8574,0 a 2.83464,2.8346403 0 0 1 2.8359,2.834 2.83464,2.8346403 0 0 1 -2.8359,2.8339 2.83464,2.8346403 0 0 1 -2.834,-2.8339 2.83464,2.8346403 0 0 1 2.834,-2.834 z m 8.8594,0 a 2.83464,2.8346403 0 0 1 2.834,2.834 2.83464,2.8346403 0 0 1 -2.834,2.8339 2.83464,2.8346403 0 0 1 -2.836,-2.8339 2.83464,2.8346403 0 0 1 2.836,-2.834 z m 8.8574,0 a 2.83464,2.8346403 0 0 1 2.834,2.834 2.83464,2.8346403 0 0 1 -2.834,2.8339 2.83464,2.8346403 0 0 1 -2.834,-2.8339 2.83464,2.8346403 0 0 1 2.834,-2.834 z m 8.8574,0 a 2.83464,2.8346403 0 0 1 2.836,2.834 2.83464,2.8346403 0 0 1 -2.836,2.8339 2.83464,2.8346403 0 0 1 -2.834,-2.8339 2.83464,2.8346403 0 0 1 2.834,-2.834 z m 8.8594,0 a 2.83464,2.8346403 0 0 1 2.834,2.834 2.83464,2.8346403 0 0 1 -2.834,2.8339 2.83464,2.8346403 0 0 1 -2.8359,-2.8339 2.83464,2.8346403 0 0 1 2.8359,-2.834 z m 8.8574,0 a 2.83464,2.8346403 0 0 1 2.834,2.834 2.83464,2.8346403 0 0 1 -2.834,2.8339 2.83464,2.8346403 0 0 1 -2.834,-2.8339 2.83464,2.8346403 0 0 1 2.834,-2.834 z m 8.8574,0 a 2.83464,2.8346403 0 0 1 2.836,2.834 2.83464,2.8346403 0 0 1 -2.836,2.8339 2.83464,2.8346403 0 0 1 -2.8339,-2.8339 2.83464,2.8346403 0 0 1 2.8339,-2.834 z m 8.8594,0 a 2.83464,2.8346403 0 0 1 2.834,2.834 2.83464,2.8346403 0 0 1 -2.834,2.8339 2.83464,2.8346403 0 0 1 -2.8359,-2.8339 2.83464,2.8346403 0 0 1 2.8359,-2.834 z m 8.8574,0 a 2.83464,2.8346403 0 0 1 2.836,2.834 2.83464,2.8346403 0 0 1 -2.836,2.8339 2.83464,2.8346403 0 0 1 -2.8339,-2.8339 2.83464,2.8346403 0 0 1 2.8339,-2.834 z m 8.8594,0 a 2.83464,2.8346403 0 0 1 2.834,2.834 2.83464,2.8346403 0 0 1 -2.834,2.8339 2.83464,2.8346403 0 0 1 -2.8359,-2.8339 2.83464,2.8346403 0 0 1 2.8359,-2.834 z m 8.8574,0 a 2.83464,2.8346403 0 0 1 2.834,2.834 2.83464,2.8346403 0 0 1 -2.834,2.8339 2.83464,2.8346403 0 0 1 -2.8339,-2.8339 2.83464,2.8346403 0 0 1 2.8339,-2.834 z m 156.7051,0 a 8.858263,8.858263 0 0 1 8.8574,8.8574 8.858263,8.858263 0 0 1 -8.8574,8.8594 8.858263,8.858263 0 0 1 -8.8594,-8.8594 8.858263,8.858263 0 0 1 8.8594,-8.8574 z m 53.1485,0 a 8.858263,8.858263 0 0 1 8.8593,8.8574 8.858263,8.858263 0 0 1 -8.8593,8.8594 8.858263,8.858263 0 0 1 -8.8575,-8.8594 8.858263,8.858263 0 0 1 8.8575,-8.8574 z m -342.7266,8.8554 a 2.83464,2.8346403 0 0 1 2.8359,2.834 2.83464,2.8346403 0 0 1 -2.8359,2.8379 2.83464,2.8346403 0 0 1 -2.834,-2.8379 2.83464,2.8346403 0 0 1 2.834,-2.834 z m 8.8594,0 a 2.83464,2.8346403 0 0 1 2.8339,2.834 2.83464,2.8346403 0 0 1 -2.8339,2.8379 2.83464,2.8346403 0 0 1 -2.836,-2.8379 2.83464,2.8346403 0 0 1 2.836,-2.834 z m 8.8574,0 a 2.83464,2.8346403 0 0 1 2.834,2.834 2.83464,2.8346403 0 0 1 -2.834,2.8379 2.83464,2.8346403 0 0 1 -2.834,-2.8379 2.83464,2.8346403 0 0 1 2.834,-2.834 z m 8.8574,0 a 2.83464,2.8346403 0 0 1 2.8359,2.834 2.83464,2.8346403 0 0 1 -2.8359,2.8379 2.83464,2.8346403 0 0 1 -2.834,-2.8379 2.83464,2.8346403 0 0 1 2.834,-2.834 z m 8.8594,0 a 2.83464,2.8346403 0 0 1 2.834,2.834 2.83464,2.8346403 0 0 1 -2.834,2.8379 2.83464,2.8346403 0 0 1 -2.836,-2.8379 2.83464,2.8346403 0 0 1 2.836,-2.834 z m 8.8574,0 a 2.83464,2.8346403 0 0 1 2.8359,2.834 2.83464,2.8346403 0 0 1 -2.8359,2.8379 2.83464,2.8346403 0 0 1 -2.834,-2.8379 2.83464,2.8346403 0 0 1 2.834,-2.834 z m 8.8594,0 a 2.83464,2.8346403 0 0 1 2.834,2.834 2.83464,2.8346403 0 0 1 -2.834,2.8379 2.83464,2.8346403 0 0 1 -2.836,-2.8379 2.83464,2.8346403 0 0 1 2.836,-2.834 z m 8.8574,0 a 2.83464,2.8346403 0 0 1 2.834,2.834 2.83464,2.8346403 0 0 1 -2.834,2.8379 2.83464,2.8346403 0 0 1 -2.834,-2.8379 2.83464,2.8346403 0 0 1 2.834,-2.834 z m 8.8574,0 a 2.83464,2.8346403 0 0 1 2.836,2.834 2.83464,2.8346403 0 0 1 -2.836,2.8379 2.83464,2.8346403 0 0 1 -2.834,-2.8379 2.83464,2.8346403 0 0 1 2.834,-2.834 z m 8.8594,0 a 2.83464,2.8346403 0 0 1 2.834,2.834 2.83464,2.8346403 0 0 1 -2.834,2.8379 2.83464,2.8346403 0 0 1 -2.8359,-2.8379 2.83464,2.8346403 0 0 1 2.8359,-2.834 z m 8.8574,0 a 2.83464,2.8346403 0 0 1 2.834,2.834 2.83464,2.8346403 0 0 1 -2.834,2.8379 2.83464,2.8346403 0 0 1 -2.834,-2.8379 2.83464,2.8346403 0 0 1 2.834,-2.834 z m 8.8574,0 a 2.83464,2.8346403 0 0 1 2.836,2.834 2.83464,2.8346403 0 0 1 -2.836,2.8379 2.83464,2.8346403 0 0 1 -2.8339,-2.8379 2.83464,2.8346403 0 0 1 2.8339,-2.834 z m 8.8594,0 a 2.83464,2.8346403 0 0 1 2.834,2.834 2.83464,2.8346403 0 0 1 -2.834,2.8379 2.83464,2.8346403 0 0 1 -2.8359,-2.8379 2.83464,2.8346403 0 0 1 2.8359,-2.834 z m 8.8574,0 a 2.83464,2.8346403 0 0 1 2.836,2.834 2.83464,2.8346403 0 0 1 -2.836,2.8379 2.83464,2.8346403 0 0 1 -2.8339,-2.8379 2.83464,2.8346403 0 0 1 2.8339,-2.834 z m 8.8594,0 a 2.83464,2.8346403 0 0 1 2.834,2.834 2.83464,2.8346403 0 0 1 -2.834,2.8379 2.83464,2.8346403 0 0 1 -2.8359,-2.8379 2.83464,2.8346403 0 0 1 2.8359,-2.834 z m 8.8574,0 a 2.83464,2.8346403 0 0 1 2.834,2.834 2.83464,2.8346403 0 0 1 -2.834,2.8379 2.83464,2.8346403 0 0 1 -2.8339,-2.8379 2.83464,2.8346403 0 0 1 2.8339,-2.834 z M 88.742914,-52.582188 a 8.858263,8.858263 0 0 1 8.8594,8.8574 8.858263,8.858263 0 0 1 -8.8594,8.8594 8.858263,8.858263 0 0 1 -8.8574,-8.8594 8.858263,8.858263 0 0 1 8.8574,-8.8574 z m 938.976586,0 a 8.858263,8.858263 0 0 1 8.8593,8.8574 8.858263,8.858263 0 0 1 -8.8593,8.8594 8.858263,8.858263 0 0 1 -8.8575,-8.8594 8.858263,8.858263 0 0 1 8.8575,-8.8574 z"
       style="fill:#ff0000;fill-opacity:1;fill-rule:evenodd;stroke:#ff0000;stroke-width:0.09;stroke-linecap:butt;stroke-linejoin:miter;stroke-miterlimit:4;stroke-dasharray:none;stroke-opacity:1"
       inkscape:connector-curvature="0" />
    <g
       id="g12081"
       transform="translate(-4024.276,13265.947)">
      <path
         inkscape:connector-curvature="0"
         d="m 5211.7773,-13062.182 58.6417,0 0,-10.63 -58.6417,0 0,10.63"
         style="fill:none;stroke:#000000;stroke-width:1"
         inkscape:label="part"
         id="path11794" />
      <path
         inkscape:connector-curvature="0"
         d="m 5211.7773,-12983.048 58.6417,0 0,-10.63 -58.6417,0 0,10.63"
         style="fill:none;stroke:#000000;stroke-width:1"
         inkscape:label="part"
         id="path11796" />
      <path
         inkscape:connector-curvature="0"
         d="m 5344.4741,-13062.182 67.6772,0 0,-10.63 -67.6772,0 0,10.63"
         style="fill:none;stroke:#000000;stroke-width:1"
         inkscape:label="part"
         id="path11798" />
      <path
         inkscape:connector-curvature="0"
         d="m 5344.4741,-12983.048 67.6772,0 0,-10.63 -67.6772,0 0,10.63"
         style="fill:none;stroke:#000000;stroke-width:1"
         inkscape:label="part"
         id="path11800" />
      <path
         inkscape:connector-curvature="0"
         d="m 5486.2064,-13062.182 58.6417,0 0,-10.63 -58.6417,0 0,10.63"
         style="fill:none;stroke:#000000;stroke-width:1"
         inkscape:label="part"
         id="path11802" />
      <path
         inkscape:connector-curvature="0"
         d="m 5486.2064,-12983.048 58.6417,0 0,-10.63 -58.6417,0 0,10.63"
         style="fill:none;stroke:#000000;stroke-width:1"
         inkscape:label="part"
         id="path11804" />
      <path
         inkscape:connector-curvature="0"
         d="m 5211.7773,-13141.316 58.6417,0 0,-10.63 74.0551,0 0,10.63 67.6772,0 0,-10.63 74.0551,0 0,10.63 58.6417,0"
         style="fill:none;stroke:#000000;stroke-width:1"
         inkscape:label="part"
         id="path11806" />
      <path
         inkscape:connector-curvature="0"
         d="m 5544.8481,-13141.316 0,76.358 10.63,0 0,74.055 -10.63,0 0,76.359"
         style="fill:none;stroke:#000000;stroke-width:1"
         inkscape:label="part"
         id="path11808" />
      <path
         inkscape:connector-curvature="0"
         d="m 5544.8481,-12914.544 -58.6417,0 0,10.63 -74.0551,0 0,-10.63 -67.6772,0 0,10.63 -74.0551,0 0,-10.63 -58.6417,0"
         style="fill:none;stroke:#000000;stroke-width:1"
         inkscape:label="part"
         id="path11810" />
      <path
         inkscape:connector-curvature="0"
         d="m 5211.7773,-12914.544 0,-76.359 -10.63,0 0,-74.055 10.63,0 0,-76.358"
         style="fill:none;stroke:#000000;stroke-width:1"
         inkscape:label="part"
         id="path11812" />
    </g>
    <g
       id="g12063"
       transform="translate(-4024.276,13265.947)">
      <path
         inkscape:connector-curvature="0"
         d="m 5590.9111,-13151.946 72.4607,0 0,10.63 67.6771,0 0,-10.63 74.0551,0 0,10.63 67.6772,0 0,-10.63 74.0551,0 0,10.63 67.6772,0 0,-10.63 74.0551,0 0,10.63 67.6772,0 0,-10.63 72.4606,0"
         style="fill:none;stroke:#000000;stroke-width:1"
         inkscape:label="part"
         id="path11866" />
      <path
         inkscape:connector-curvature="0"
         d="m 6228.7064,-13151.946 0,90.177 -10.6299,0 0,67.677 10.6299,0 0,90.178"
         style="fill:none;stroke:#000000;stroke-width:1"
         inkscape:label="part"
         id="path11874" />
      <path
         inkscape:connector-curvature="0"
         d="m 6228.7064,-12903.914 -72.4606,0 0,-10.63 -67.6772,0 0,10.63 -74.0551,0 0,-10.63 -67.6772,0 0,10.63 -74.0551,0 0,-10.63 -67.6772,0 0,10.63 -74.0551,0 0,-10.63 -67.6771,0 0,10.63 -72.4607,0"
         style="fill:none;stroke:#000000;stroke-width:1"
         inkscape:label="part"
         id="path11876" />
      <path
         inkscape:connector-curvature="0"
         d="m 5590.9111,-12903.914 0,-90.178 10.6299,0 0,-67.677 -10.6299,0 0,-90.177"
         style="fill:none;stroke:#000000;stroke-width:1"
         inkscape:label="part"
         id="path11878" />
    </g>
    <g
       id="g12069"
       transform="translate(-4024.276,13265.947)">
      <path
         inkscape:connector-curvature="0"
         d="m 6274.7694,-13062.182 58.6417,0 0,-10.63 -58.6417,0 0,10.63"
         style="fill:none;stroke:#000000;stroke-width:1"
         inkscape:label="part"
         id="path11880" />
      <path
         inkscape:connector-curvature="0"
         d="m 6274.7694,-12983.048 58.6417,0 0,-10.63 -58.6417,0 0,10.63"
         style="fill:none;stroke:#000000;stroke-width:1"
         inkscape:label="part"
         id="path11882" />
      <path
         inkscape:connector-curvature="0"
         d="m 6407.4662,-13062.182 67.6772,0 0,-10.63 -67.6772,0 0,10.63"
         style="fill:none;stroke:#000000;stroke-width:1"
         inkscape:label="part"
         id="path11884" />
      <path
         inkscape:connector-curvature="0"
         d="m 6407.4662,-12983.048 67.6772,0 0,-10.63 -67.6772,0 0,10.63"
         style="fill:none;stroke:#000000;stroke-width:1"
         inkscape:label="part"
         id="path11886" />
      <path
         inkscape:connector-curvature="0"
         d="m 6549.1985,-13062.182 58.6418,0 0,-10.63 -58.6418,0 0,10.63"
         style="fill:none;stroke:#000000;stroke-width:1"
         inkscape:label="part"
         id="path11888" />
      <path
         inkscape:connector-curvature="0"
         d="m 6549.1985,-12983.048 58.6418,0 0,-10.63 -58.6418,0 0,10.63"
         style="fill:none;stroke:#000000;stroke-width:1"
         inkscape:label="part"
         id="path11890" />
      <path
         inkscape:connector-curvature="0"
         d="m 6274.7694,-13141.316 58.6417,0 0,-10.63 74.0551,0 0,10.63 67.6772,0 0,-10.63 74.0551,0 0,10.63 58.6418,0"
         style="fill:none;stroke:#000000;stroke-width:1"
         inkscape:label="part"
         id="path11892" />
      <path
         inkscape:connector-curvature="0"
         d="m 6607.8403,-13141.316 0,76.358 10.6299,0 0,74.055 -10.6299,0 0,76.359"
         style="fill:none;stroke:#000000;stroke-width:1"
         inkscape:label="part"
         id="path11894" />
      <path
         inkscape:connector-curvature="0"
         d="m 6607.8403,-12914.544 -58.6418,0 0,10.63 -74.0551,0 0,-10.63 -67.6772,0 0,10.63 -74.0551,0 0,-10.63 -58.6417,0"
         style="fill:none;stroke:#000000;stroke-width:1"
         inkscape:label="part"
         id="path11896" />
      <path
         inkscape:connector-curvature="0"
         d="m 6274.7694,-12914.544 0,-76.359 -10.6299,0 0,-74.055 10.6299,0 0,-76.358"
         style="fill:none;stroke:#000000;stroke-width:1"
         inkscape:label="part"
         id="path11898" />
    </g>
    <g
       id="g12095"
       transform="translate(-4024.276,13265.947)">
      <path
         inkscape:connector-curvature="0"
         d="m 5590.9111,-13531.08 69.2717,0 0,-10.63 74.0551,0 0,10.63 67.6772,0 0,-10.63 74.0551,0 0,10.63 67.6771,0 0,-10.63 74.0552,0 0,10.63 67.6771,0 0,-10.63 74.0551,0 0,10.63 69.2717,0"
         style="fill:none;stroke:#000000;stroke-width:1"
         inkscape:label="part"
         id="path11930" />
      <path
         inkscape:connector-curvature="0"
         d="m 6228.7064,-13531.08 0,61.831 -10.6299,0 0,67.677 10.6299,0 0,74.055 -10.6299,0 0,67.677 10.6299,0 0,61.831"
         style="fill:none;stroke:#000000;stroke-width:1"
         inkscape:label="part"
         id="path11944" />
      <path
         inkscape:connector-curvature="0"
         d="m 6228.7064,-13198.009 -69.2717,0 0,10.63 -74.0551,0 0,-10.63 -67.6771,0 0,10.63 -74.0552,0 0,-10.63 -67.6771,0 0,10.63 -74.0551,0 0,-10.63 -67.6772,0 0,10.63 -74.0551,0 0,-10.63 -69.2717,0"
         style="fill:none;stroke:#000000;stroke-width:1"
         inkscape:label="part"
         id="path11946" />
      <path
         inkscape:connector-curvature="0"
         d="m 5590.9111,-13198.009 0,-61.831 10.6299,0 0,-67.677 -10.6299,0 0,-74.055 10.6299,0 0,-67.677 -10.6299,0 0,-61.831"
         style="fill:none;stroke:#000000;stroke-width:1"
         inkscape:label="part"
         id="path11948" />
    </g>
    <text
       xml:space="preserve"
       style="font-style:normal;font-weight:normal;font-size:40px;line-height:125%;font-family:sans-serif;letter-spacing:0px;word-spacing:0px;fill:#000000;fill-opacity:1;stroke:none;stroke-width:1px;stroke-linecap:butt;stroke-linejoin:miter;stroke-opacity:1"
       x="1393.2035"
       y="-476.83145"
       id="text12101"
       sodipodi:linespacing="125%"><tspan
         sodipodi:role="line"
         x="1393.2035"
         y="-476.83145"
         id="tspan12105">Figure out the material's thickness</tspan><tspan
         sodipodi:role="line"
         x="1393.2035"
         y="-426.83145"
         id="tspan12119">Change the line color and width</tspan><tspan
         sodipodi:role="line"
         x="1393.2035"
         y="-376.83145"
         id="tspan12129">put some holes in the back (make something like connector for the power)</tspan><tspan
         sodipodi:role="line"
         x="1393.2035"
         y="-326.83145"
         id="tspan12133">put some docker on the left plan for the box</tspan><tspan
         sodipodi:role="line"
         x="1393.2035"
         y="-276.83145"
         id="tspan12135" /></text>
    <text
       xml:space="preserve"
       style="font-style:normal;font-weight:normal;font-size:40px;line-height:125%;font-family:sans-serif;letter-spacing:0px;word-spacing:0px;fill:#000000;fill-opacity:1;stroke:none;stroke-width:1px;stroke-linecap:butt;stroke-linejoin:miter;stroke-opacity:1"
       x="4412.3462"
       y="-13208.972"
       id="text12123"
       sodipodi:linespacing="125%"><tspan
         sodipodi:role="line"
         id="tspan12125"
         x="4412.3462"
         y="-13208.972" /></text>
  </g>
  <g
     id="g9579"
     inkscape:groupmode="layer"
     inkscape:label="newlayer"
     transform="translate(0,-14350.394)" />
  <g
     inkscape:label="newlayer"
     inkscape:groupmode="layer"
     id="g11630"
     transform="translate(0,-14350.394)" />
  <g
     id="g11952"
     inkscape:groupmode="layer"
     inkscape:label="newlayer"
     transform="translate(0,-14350.394)" />
</svg>
