<?xml version="1.0" encoding="UTF-8" standalone="no"?>
<!-- Created with Inkscape (http://www.inkscape.org/) -->

<svg
   xmlns:dc="http://purl.org/dc/elements/1.1/"
   xmlns:cc="http://creativecommons.org/ns#"
   xmlns:rdf="http://www.w3.org/1999/02/22-rdf-syntax-ns#"
   xmlns:svg="http://www.w3.org/2000/svg"
   xmlns="http://www.w3.org/2000/svg"
   xmlns:sodipodi="http://sodipodi.sourceforge.net/DTD/sodipodi-0.dtd"
   xmlns:inkscape="http://www.inkscape.org/namespaces/inkscape"
   width="300.10001mm"
   height="300.10001mm"
   viewBox="0 0 1063.3465 1063.3464"
   id="svg2"
   version="1.1"
   inkscape:version="0.91 r13725"
   sodipodi:docname="board.svg">
  <defs
     id="defs4" />
  <sodipodi:namedview
     id="base"
     pagecolor="#ffffff"
     bordercolor="#666666"
     borderopacity="1.0"
     inkscape:pageopacity="0.0"
     inkscape:pageshadow="2"
     inkscape:zoom="0.69999999"
     inkscape:cx="459.86011"
     inkscape:cy="509.30963"
     inkscape:document-units="mm"
     inkscape:current-layer="layer1"
     showgrid="false"
     fit-margin-top="0"
     fit-margin-left="0"
     fit-margin-right="0"
     fit-margin-bottom="0"
     inkscape:window-width="1680"
     inkscape:window-height="1001"
     inkscape:window-x="0"
     inkscape:window-y="23"
     inkscape:window-maximized="1" />
  <metadata
     id="metadata7">
    <rdf:RDF>
      <cc:Work
         rdf:about="">
        <dc:format>image/svg+xml</dc:format>
        <dc:type
           rdf:resource="http://purl.org/dc/dcmitype/StillImage" />
        <dc:title></dc:title>
      </cc:Work>
    </rdf:RDF>
  </metadata>
  <g
     inkscape:label="Layer 1"
     inkscape:groupmode="layer"
     id="layer1"
     transform="translate(-510.4343,688.62164)">
    <g
       style="stroke:#ff0000;stroke-width:0.99921274;stroke-miterlimit:4;stroke-dasharray:none;stroke-opacity:1"
       id="g4402"
       transform="translate(-40.925193,-176.988)" />
    <g
       style="stroke:#ff0000;stroke-width:0.99921274;stroke-miterlimit:4;stroke-dasharray:none;stroke-opacity:1"
       id="g4501"
       transform="translate(-593.15582,-475.75146)">
      <g
         style="stroke:#ff0000;stroke-width:0.99921274;stroke-miterlimit:4;stroke-dasharray:none;stroke-opacity:1"
         id="g4161" />
      <g
         style="stroke:#ff0000;stroke-width:0.99921274;stroke-miterlimit:4;stroke-dasharray:none;stroke-opacity:1"
         transform="translate(0,17.716533)"
         id="g4171" />
      <g
         style="stroke:#ff0000;stroke-width:0.99921274;stroke-miterlimit:4;stroke-dasharray:none;stroke-opacity:1"
         id="g4189"
         transform="translate(0,35.433066)" />
      <g
         style="stroke:#ff0000;stroke-width:0.99921274;stroke-miterlimit:4;stroke-dasharray:none;stroke-opacity:1"
         transform="translate(0,53.149599)"
         id="g4207" />
      <g
         style="stroke:#ff0000;stroke-width:0.99921274;stroke-miterlimit:4;stroke-dasharray:none;stroke-opacity:1"
         id="g4225"
         transform="translate(0,70.866132)" />
      <g
         style="stroke:#ff0000;stroke-width:0.99921274;stroke-miterlimit:4;stroke-dasharray:none;stroke-opacity:1"
         transform="translate(0,88.582665)"
         id="g4243" />
      <g
         style="stroke:#ff0000;stroke-width:0.99921274;stroke-miterlimit:4;stroke-dasharray:none;stroke-opacity:1"
         id="g4261"
         transform="translate(0,106.2992)" />
      <g
         style="stroke:#ff0000;stroke-width:0.99921274;stroke-miterlimit:4;stroke-dasharray:none;stroke-opacity:1"
         transform="translate(0,124.01573)"
         id="g4279" />
      <g
         style="stroke:#ff0000;stroke-width:0.99921274;stroke-miterlimit:4;stroke-dasharray:none;stroke-opacity:1"
         id="g4297"
         transform="translate(0,141.73226)" />
      <g
         style="stroke:#ff0000;stroke-width:0.99921274;stroke-miterlimit:4;stroke-dasharray:none;stroke-opacity:1"
         transform="translate(0,159.44879)"
         id="g4315" />
      <g
         style="stroke:#ff0000;stroke-width:0.99921274;stroke-miterlimit:4;stroke-dasharray:none;stroke-opacity:1"
         id="g4333"
         transform="translate(0,177.16532)" />
      <g
         style="stroke:#ff0000;stroke-width:0.99921274;stroke-miterlimit:4;stroke-dasharray:none;stroke-opacity:1"
         transform="translate(0,194.88185)"
         id="g4351" />
    </g>
    <g
       style="stroke:#ff0000;stroke-width:0.99921274;stroke-miterlimit:4;stroke-dasharray:none;stroke-opacity:1"
       id="g4619"
       transform="translate(-591.02235,-502.11156)" />
    <g
       style="stroke:#ff0000;stroke-width:0.99921274;stroke-miterlimit:4;stroke-dasharray:none;stroke-opacity:1"
       id="g4648"
       transform="translate(-40.925229,-184.07461)" />
    <g
       style="stroke:#ff0000;stroke-width:0.17716537;stroke-miterlimit:4;stroke-dasharray:none;stroke-opacity:1"
       id="g4392"
       transform="translate(-40.925198,-176.988)">
      <g
         style="stroke:#ff0000;stroke-width:0.17716537;stroke-miterlimit:4;stroke-dasharray:none;stroke-opacity:1"
         transform="translate(177.16534,70.86613)"
         id="g5275" />
      <g
         style="stroke:#ff0000;stroke-width:0.17716537;stroke-miterlimit:4;stroke-dasharray:none;stroke-opacity:1"
         transform="translate(-104.75151,15.649796)"
         id="g5410">
        <path
           id="path5408"
           style="fill:none;stroke:#ff0000;stroke-width:0.17716537;stroke-miterlimit:4;stroke-dasharray:none;stroke-opacity:1"
           d="m 1577.548,-102.08669 0,-70.86615 m -779.52749,70.86615 0,-70.86615 m 708.66139,-35.2559 -177.1654,0 m -283.4645,0 -177.16535,0 m 825.59055,180.531483 a 10.45278,10.452781 0 0 1 -10.4528,10.45278 10.45278,10.452781 0 0 1 -10.4527,-10.45278 10.45278,10.452781 0 0 1 10.4527,-10.452781 10.45278,10.452781 0 0 1 10.4528,10.452781 z m -992.48034,0 a 10.45278,10.452781 0 0 1 -10.45278,10.45278 10.45278,10.452781 0 0 1 -10.45278,-10.45278 10.45278,10.452781 0 0 1 10.45278,-10.452781 10.45278,10.452781 0 0 1 10.45278,10.452781 z M 1198.237,-279.25204 a 10.45278,10.452781 0 0 1 -10.4528,10.45278 10.45278,10.452781 0 0 1 -10.4527,-10.45278 10.45278,10.452781 0 0 1 10.4527,-10.45278 10.45278,10.452781 0 0 1 10.4528,10.45278 z m 14.1733,-54.92124 a 5.137866,5.1378665 0 0 1 -5.1379,5.13786 5.137866,5.1378665 0 0 1 -5.1378,-5.13786 5.137866,5.1378665 0 0 1 5.1378,-5.13787 5.137866,5.1378665 0 0 1 5.1379,5.13787 z m -38.9763,0 a 5.137866,5.1378665 0 0 1 -5.1379,5.13786 5.137866,5.1378665 0 0 1 -5.1378,-5.13786 5.137866,5.1378665 0 0 1 5.1378,-5.13787 5.137866,5.1378665 0 0 1 5.1379,5.13787 z m 38.9763,-177.16534 a 5.137866,5.1378665 0 0 1 -5.1379,5.13786 5.137866,5.1378665 0 0 1 -5.1378,-5.13786 5.137866,5.1378665 0 0 1 5.1378,-5.13787 5.137866,5.1378665 0 0 1 5.1379,5.13787 z m -38.9763,0 a 5.137866,5.1378665 0 0 1 -5.1379,5.13786 5.137866,5.1378665 0 0 1 -5.1378,-5.13786 5.137866,5.1378665 0 0 1 5.1378,-5.13787 5.137866,5.1378665 0 0 1 5.1379,5.13787 z m -339.97982,-15.76772 -177.16601,425.19727 0,637.79492 1062.99213,0 0,-637.79492 -177.166,-425.19727 -708.66012,0 z m 268.93662,210.64956 a 5.1379375,5.1379375 0 0 1 -5.138,5.13794 5.1379375,5.1379375 0 0 1 -5.1379,-5.13794 5.1379375,5.1379375 0 0 1 5.1379,-5.13794 5.1379375,5.1379375 0 0 1 5.138,5.13794 z m -17.7166,0 a 5.1379375,5.1379375 0 0 1 -5.1379,5.13794 5.1379375,5.1379375 0 0 1 -5.138,-5.13794 5.1379375,5.1379375 0 0 1 5.138,-5.13794 5.1379375,5.1379375 0 0 1 5.1379,5.13794 z m -17.7165,0 a 5.1379375,5.1379375 0 0 1 -5.138,5.13794 5.1379375,5.1379375 0 0 1 -5.1379,-5.13794 5.1379375,5.1379375 0 0 1 5.1379,-5.13794 5.1379375,5.1379375 0 0 1 5.138,5.13794 z m -17.7166,0 a 5.1379375,5.1379375 0 0 1 -5.1379,5.13794 5.1379375,5.1379375 0 0 1 -5.138,-5.13794 5.1379375,5.1379375 0 0 1 5.138,-5.13794 5.1379375,5.1379375 0 0 1 5.1379,5.13794 z m -17.7165,0 a 5.1379375,5.1379375 0 0 1 -5.138,5.13794 5.1379375,5.1379375 0 0 1 -5.1379,-5.13794 5.1379375,5.1379375 0 0 1 5.1379,-5.13794 5.1379375,5.1379375 0 0 1 5.138,5.13794 z m -17.7166,0 a 5.1379375,5.1379375 0 0 1 -5.1379,5.13794 5.1379375,5.1379375 0 0 1 -5.138,-5.13794 5.1379375,5.1379375 0 0 1 5.138,-5.13794 5.1379375,5.1379375 0 0 1 5.1379,5.13794 z m -17.71651,0 a 5.1379375,5.1379375 0 0 1 -5.138,5.13794 5.1379375,5.1379375 0 0 1 -5.1379,-5.13794 5.1379375,5.1379375 0 0 1 5.1379,-5.13794 5.1379375,5.1379375 0 0 1 5.138,5.13794 z m -17.7166,0 a 5.1379375,5.1379375 0 0 1 -5.1379,5.13794 5.1379375,5.1379375 0 0 1 -5.138,-5.13794 5.1379375,5.1379375 0 0 1 5.138,-5.13794 5.1379375,5.1379375 0 0 1 5.1379,5.13794 z m 124.01591,-17.71653 a 5.1379375,5.1379375 0 0 1 -5.138,5.13794 5.1379375,5.1379375 0 0 1 -5.1379,-5.13794 5.1379375,5.1379375 0 0 1 5.1379,-5.13794 5.1379375,5.1379375 0 0 1 5.138,5.13794 z m -17.7166,0 a 5.1379375,5.1379375 0 0 1 -5.1379,5.13794 5.1379375,5.1379375 0 0 1 -5.138,-5.13794 5.1379375,5.1379375 0 0 1 5.138,-5.13794 5.1379375,5.1379375 0 0 1 5.1379,5.13794 z m -17.7165,0 a 5.1379375,5.1379375 0 0 1 -5.138,5.13794 5.1379375,5.1379375 0 0 1 -5.1379,-5.13794 5.1379375,5.1379375 0 0 1 5.1379,-5.13794 5.1379375,5.1379375 0 0 1 5.138,5.13794 z m -17.7166,0 a 5.1379375,5.1379375 0 0 1 -5.1379,5.13794 5.1379375,5.1379375 0 0 1 -5.138,-5.13794 5.1379375,5.1379375 0 0 1 5.138,-5.13794 5.1379375,5.1379375 0 0 1 5.1379,5.13794 z m -17.7165,0 a 5.1379375,5.1379375 0 0 1 -5.138,5.13794 5.1379375,5.1379375 0 0 1 -5.1379,-5.13794 5.1379375,5.1379375 0 0 1 5.1379,-5.13794 5.1379375,5.1379375 0 0 1 5.138,5.13794 z m -17.7166,0 a 5.1379375,5.1379375 0 0 1 -5.1379,5.13794 5.1379375,5.1379375 0 0 1 -5.138,-5.13794 5.1379375,5.1379375 0 0 1 5.138,-5.13794 5.1379375,5.1379375 0 0 1 5.1379,5.13794 z m -17.71651,0 a 5.1379375,5.1379375 0 0 1 -5.138,5.13794 5.1379375,5.1379375 0 0 1 -5.1379,-5.13794 5.1379375,5.1379375 0 0 1 5.1379,-5.13794 5.1379375,5.1379375 0 0 1 5.138,5.13794 z m -17.7166,0 a 5.1379375,5.1379375 0 0 1 -5.1379,5.13794 5.1379375,5.1379375 0 0 1 -5.138,-5.13794 5.1379375,5.1379375 0 0 1 5.138,-5.13794 5.1379375,5.1379375 0 0 1 5.1379,5.13794 z m 124.01591,-17.71653 a 5.1379375,5.1379375 0 0 1 -5.138,5.13794 5.1379375,5.1379375 0 0 1 -5.1379,-5.13794 5.1379375,5.1379375 0 0 1 5.1379,-5.13794 5.1379375,5.1379375 0 0 1 5.138,5.13794 z m -17.7166,0 a 5.1379375,5.1379375 0 0 1 -5.1379,5.13794 5.1379375,5.1379375 0 0 1 -5.138,-5.13794 5.1379375,5.1379375 0 0 1 5.138,-5.13794 5.1379375,5.1379375 0 0 1 5.1379,5.13794 z m -17.7165,0 a 5.1379375,5.1379375 0 0 1 -5.138,5.13794 5.1379375,5.1379375 0 0 1 -5.1379,-5.13794 5.1379375,5.1379375 0 0 1 5.1379,-5.13794 5.1379375,5.1379375 0 0 1 5.138,5.13794 z m -17.7166,0 a 5.1379375,5.1379375 0 0 1 -5.1379,5.13794 5.1379375,5.1379375 0 0 1 -5.138,-5.13794 5.1379375,5.1379375 0 0 1 5.138,-5.13794 5.1379375,5.1379375 0 0 1 5.1379,5.13794 z m -17.7165,0 a 5.1379375,5.1379375 0 0 1 -5.138,5.13794 5.1379375,5.1379375 0 0 1 -5.1379,-5.13794 5.1379375,5.1379375 0 0 1 5.1379,-5.13794 5.1379375,5.1379375 0 0 1 5.138,5.13794 z m -17.7166,0 a 5.1379375,5.1379375 0 0 1 -5.1379,5.13794 5.1379375,5.1379375 0 0 1 -5.138,-5.13794 5.1379375,5.1379375 0 0 1 5.138,-5.13794 5.1379375,5.1379375 0 0 1 5.1379,5.13794 z m -17.71651,0 a 5.1379375,5.1379375 0 0 1 -5.138,5.13794 5.1379375,5.1379375 0 0 1 -5.1379,-5.13794 5.1379375,5.1379375 0 0 1 5.1379,-5.13794 5.1379375,5.1379375 0 0 1 5.138,5.13794 z m -17.7166,0 a 5.1379375,5.1379375 0 0 1 -5.1379,5.13794 5.1379375,5.1379375 0 0 1 -5.138,-5.13794 5.1379375,5.1379375 0 0 1 5.138,-5.13794 5.1379375,5.1379375 0 0 1 5.1379,5.13794 z m 124.01591,-17.71653 a 5.1379375,5.1379375 0 0 1 -5.138,5.13794 5.1379375,5.1379375 0 0 1 -5.1379,-5.13794 5.1379375,5.1379375 0 0 1 5.1379,-5.13794 5.1379375,5.1379375 0 0 1 5.138,5.13794 z m -17.7166,0 a 5.1379375,5.1379375 0 0 1 -5.1379,5.13794 5.1379375,5.1379375 0 0 1 -5.138,-5.13794 5.1379375,5.1379375 0 0 1 5.138,-5.13794 5.1379375,5.1379375 0 0 1 5.1379,5.13794 z m -17.7165,0 a 5.1379375,5.1379375 0 0 1 -5.138,5.13794 5.1379375,5.1379375 0 0 1 -5.1379,-5.13794 5.1379375,5.1379375 0 0 1 5.1379,-5.13794 5.1379375,5.1379375 0 0 1 5.138,5.13794 z m -17.7166,0 a 5.1379375,5.1379375 0 0 1 -5.1379,5.13794 5.1379375,5.1379375 0 0 1 -5.138,-5.13794 5.1379375,5.1379375 0 0 1 5.138,-5.13794 5.1379375,5.1379375 0 0 1 5.1379,5.13794 z m -17.7165,0 a 5.1379375,5.1379375 0 0 1 -5.138,5.13794 5.1379375,5.1379375 0 0 1 -5.1379,-5.13794 5.1379375,5.1379375 0 0 1 5.1379,-5.13794 5.1379375,5.1379375 0 0 1 5.138,5.13794 z m -17.7166,0 a 5.1379375,5.1379375 0 0 1 -5.1379,5.13794 5.1379375,5.1379375 0 0 1 -5.138,-5.13794 5.1379375,5.1379375 0 0 1 5.138,-5.13794 5.1379375,5.1379375 0 0 1 5.1379,5.13794 z m -17.71651,0 a 5.1379375,5.1379375 0 0 1 -5.138,5.13794 5.1379375,5.1379375 0 0 1 -5.1379,-5.13794 5.1379375,5.1379375 0 0 1 5.1379,-5.13794 5.1379375,5.1379375 0 0 1 5.138,5.13794 z m -17.7166,0 a 5.1379375,5.1379375 0 0 1 -5.1379,5.13794 5.1379375,5.1379375 0 0 1 -5.138,-5.13794 5.1379375,5.1379375 0 0 1 5.138,-5.13794 5.1379375,5.1379375 0 0 1 5.1379,5.13794 z m 124.01591,-17.71653 a 5.1379375,5.1379375 0 0 1 -5.138,5.13794 5.1379375,5.1379375 0 0 1 -5.1379,-5.13794 5.1379375,5.1379375 0 0 1 5.1379,-5.13794 5.1379375,5.1379375 0 0 1 5.138,5.13794 z m -17.7166,0 a 5.1379375,5.1379375 0 0 1 -5.1379,5.13794 5.1379375,5.1379375 0 0 1 -5.138,-5.13794 5.1379375,5.1379375 0 0 1 5.138,-5.13794 5.1379375,5.1379375 0 0 1 5.1379,5.13794 z m -17.7165,0 a 5.1379375,5.1379375 0 0 1 -5.138,5.13794 5.1379375,5.1379375 0 0 1 -5.1379,-5.13794 5.1379375,5.1379375 0 0 1 5.1379,-5.13794 5.1379375,5.1379375 0 0 1 5.138,5.13794 z m -17.7166,0 a 5.1379375,5.1379375 0 0 1 -5.1379,5.13794 5.1379375,5.1379375 0 0 1 -5.138,-5.13794 5.1379375,5.1379375 0 0 1 5.138,-5.13794 5.1379375,5.1379375 0 0 1 5.1379,5.13794 z m -17.7165,0 a 5.1379375,5.1379375 0 0 1 -5.138,5.13794 5.1379375,5.1379375 0 0 1 -5.1379,-5.13794 5.1379375,5.1379375 0 0 1 5.1379,-5.13794 5.1379375,5.1379375 0 0 1 5.138,5.13794 z m -17.7166,0 a 5.1379375,5.1379375 0 0 1 -5.1379,5.13794 5.1379375,5.1379375 0 0 1 -5.138,-5.13794 5.1379375,5.1379375 0 0 1 5.138,-5.13794 5.1379375,5.1379375 0 0 1 5.1379,5.13794 z m -17.71651,0 a 5.1379375,5.1379375 0 0 1 -5.138,5.13794 5.1379375,5.1379375 0 0 1 -5.1379,-5.13794 5.1379375,5.1379375 0 0 1 5.1379,-5.13794 5.1379375,5.1379375 0 0 1 5.138,5.13794 z m -17.7166,0 a 5.1379375,5.1379375 0 0 1 -5.1379,5.13794 5.1379375,5.1379375 0 0 1 -5.138,-5.13794 5.1379375,5.1379375 0 0 1 5.138,-5.13794 5.1379375,5.1379375 0 0 1 5.1379,5.13794 z m 124.01591,-17.71653 a 5.1379375,5.1379375 0 0 1 -5.138,5.13794 5.1379375,5.1379375 0 0 1 -5.1379,-5.13794 5.1379375,5.1379375 0 0 1 5.1379,-5.13794 5.1379375,5.1379375 0 0 1 5.138,5.13794 z m -17.7166,0 a 5.1379375,5.1379375 0 0 1 -5.1379,5.13794 5.1379375,5.1379375 0 0 1 -5.138,-5.13794 5.1379375,5.1379375 0 0 1 5.138,-5.13794 5.1379375,5.1379375 0 0 1 5.1379,5.13794 z m -17.7165,0 a 5.1379375,5.1379375 0 0 1 -5.138,5.13794 5.1379375,5.1379375 0 0 1 -5.1379,-5.13794 5.1379375,5.1379375 0 0 1 5.1379,-5.13794 5.1379375,5.1379375 0 0 1 5.138,5.13794 z m -17.7166,0 a 5.1379375,5.1379375 0 0 1 -5.1379,5.13794 5.1379375,5.1379375 0 0 1 -5.138,-5.13794 5.1379375,5.1379375 0 0 1 5.138,-5.13794 5.1379375,5.1379375 0 0 1 5.1379,5.13794 z m -17.7165,0 a 5.1379375,5.1379375 0 0 1 -5.138,5.13794 5.1379375,5.1379375 0 0 1 -5.1379,-5.13794 5.1379375,5.1379375 0 0 1 5.1379,-5.13794 5.1379375,5.1379375 0 0 1 5.138,5.13794 z m -17.7166,0 a 5.1379375,5.1379375 0 0 1 -5.1379,5.13794 5.1379375,5.1379375 0 0 1 -5.138,-5.13794 5.1379375,5.1379375 0 0 1 5.138,-5.13794 5.1379375,5.1379375 0 0 1 5.1379,5.13794 z m -17.71651,0 a 5.1379375,5.1379375 0 0 1 -5.138,5.13794 5.1379375,5.1379375 0 0 1 -5.1379,-5.13794 5.1379375,5.1379375 0 0 1 5.1379,-5.13794 5.1379375,5.1379375 0 0 1 5.138,5.13794 z m -17.7166,0 a 5.1379375,5.1379375 0 0 1 -5.1379,5.13794 5.1379375,5.1379375 0 0 1 -5.138,-5.13794 5.1379375,5.1379375 0 0 1 5.138,-5.13794 5.1379375,5.1379375 0 0 1 5.1379,5.13794 z m 124.01591,-17.71653 a 5.1379375,5.1379375 0 0 1 -5.138,5.13794 5.1379375,5.1379375 0 0 1 -5.1379,-5.13794 5.1379375,5.1379375 0 0 1 5.1379,-5.13794 5.1379375,5.1379375 0 0 1 5.138,5.13794 z m -17.7166,0 a 5.1379375,5.1379375 0 0 1 -5.1379,5.13794 5.1379375,5.1379375 0 0 1 -5.138,-5.13794 5.1379375,5.1379375 0 0 1 5.138,-5.13794 5.1379375,5.1379375 0 0 1 5.1379,5.13794 z m -17.7165,0 a 5.1379375,5.1379375 0 0 1 -5.138,5.13794 5.1379375,5.1379375 0 0 1 -5.1379,-5.13794 5.1379375,5.1379375 0 0 1 5.1379,-5.13794 5.1379375,5.1379375 0 0 1 5.138,5.13794 z m -17.7166,0 a 5.1379375,5.1379375 0 0 1 -5.1379,5.13794 5.1379375,5.1379375 0 0 1 -5.138,-5.13794 5.1379375,5.1379375 0 0 1 5.138,-5.13794 5.1379375,5.1379375 0 0 1 5.1379,5.13794 z m -17.7165,0 a 5.1379375,5.1379375 0 0 1 -5.138,5.13794 5.1379375,5.1379375 0 0 1 -5.1379,-5.13794 5.1379375,5.1379375 0 0 1 5.1379,-5.13794 5.1379375,5.1379375 0 0 1 5.138,5.13794 z m -17.7166,0 a 5.1379375,5.1379375 0 0 1 -5.1379,5.13794 5.1379375,5.1379375 0 0 1 -5.138,-5.13794 5.1379375,5.1379375 0 0 1 5.138,-5.13794 5.1379375,5.1379375 0 0 1 5.1379,5.13794 z m -17.71651,0 a 5.1379375,5.1379375 0 0 1 -5.138,5.13794 5.1379375,5.1379375 0 0 1 -5.1379,-5.13794 5.1379375,5.1379375 0 0 1 5.1379,-5.13794 5.1379375,5.1379375 0 0 1 5.138,5.13794 z m -17.7166,0 a 5.1379375,5.1379375 0 0 1 -5.1379,5.13794 5.1379375,5.1379375 0 0 1 -5.138,-5.13794 5.1379375,5.1379375 0 0 1 5.138,-5.13794 5.1379375,5.1379375 0 0 1 5.1379,5.13794 z m 124.01591,-17.71653 a 5.1379375,5.1379375 0 0 1 -5.138,5.13794 5.1379375,5.1379375 0 0 1 -5.1379,-5.13794 5.1379375,5.1379375 0 0 1 5.1379,-5.13794 5.1379375,5.1379375 0 0 1 5.138,5.13794 z m -17.7166,0 a 5.1379375,5.1379375 0 0 1 -5.1379,5.13794 5.1379375,5.1379375 0 0 1 -5.138,-5.13794 5.1379375,5.1379375 0 0 1 5.138,-5.13794 5.1379375,5.1379375 0 0 1 5.1379,5.13794 z m -17.7165,0 a 5.1379375,5.1379375 0 0 1 -5.138,5.13794 5.1379375,5.1379375 0 0 1 -5.1379,-5.13794 5.1379375,5.1379375 0 0 1 5.1379,-5.13794 5.1379375,5.1379375 0 0 1 5.138,5.13794 z m -17.7166,0 a 5.1379375,5.1379375 0 0 1 -5.1379,5.13794 5.1379375,5.1379375 0 0 1 -5.138,-5.13794 5.1379375,5.1379375 0 0 1 5.138,-5.13794 5.1379375,5.1379375 0 0 1 5.1379,5.13794 z m -17.7165,0 a 5.1379375,5.1379375 0 0 1 -5.138,5.13794 5.1379375,5.1379375 0 0 1 -5.1379,-5.13794 5.1379375,5.1379375 0 0 1 5.1379,-5.13794 5.1379375,5.1379375 0 0 1 5.138,5.13794 z m -17.7166,0 a 5.1379375,5.1379375 0 0 1 -5.1379,5.13794 5.1379375,5.1379375 0 0 1 -5.138,-5.13794 5.1379375,5.1379375 0 0 1 5.138,-5.13794 5.1379375,5.1379375 0 0 1 5.1379,5.13794 z m -17.71651,0 a 5.1379375,5.1379375 0 0 1 -5.138,5.13794 5.1379375,5.1379375 0 0 1 -5.1379,-5.13794 5.1379375,5.1379375 0 0 1 5.1379,-5.13794 5.1379375,5.1379375 0 0 1 5.138,5.13794 z m -17.7166,0 a 5.1379375,5.1379375 0 0 1 -5.1379,5.13794 5.1379375,5.1379375 0 0 1 -5.138,-5.13794 5.1379375,5.1379375 0 0 1 5.138,-5.13794 5.1379375,5.1379375 0 0 1 5.1379,5.13794 z m 124.01591,-17.71654 a 5.1379375,5.1379375 0 0 1 -5.138,5.13794 5.1379375,5.1379375 0 0 1 -5.1379,-5.13794 5.1379375,5.1379375 0 0 1 5.1379,-5.13794 5.1379375,5.1379375 0 0 1 5.138,5.13794 z m -17.7166,0 a 5.1379375,5.1379375 0 0 1 -5.1379,5.13794 5.1379375,5.1379375 0 0 1 -5.138,-5.13794 5.1379375,5.1379375 0 0 1 5.138,-5.13794 5.1379375,5.1379375 0 0 1 5.1379,5.13794 z m -17.7165,0 a 5.1379375,5.1379375 0 0 1 -5.138,5.13794 5.1379375,5.1379375 0 0 1 -5.1379,-5.13794 5.1379375,5.1379375 0 0 1 5.1379,-5.13794 5.1379375,5.1379375 0 0 1 5.138,5.13794 z m -17.7166,0 a 5.1379375,5.1379375 0 0 1 -5.1379,5.13794 5.1379375,5.1379375 0 0 1 -5.138,-5.13794 5.1379375,5.1379375 0 0 1 5.138,-5.13794 5.1379375,5.1379375 0 0 1 5.1379,5.13794 z m -17.7165,0 a 5.1379375,5.1379375 0 0 1 -5.138,5.13794 5.1379375,5.1379375 0 0 1 -5.1379,-5.13794 5.1379375,5.1379375 0 0 1 5.1379,-5.13794 5.1379375,5.1379375 0 0 1 5.138,5.13794 z m -17.7166,0 a 5.1379375,5.1379375 0 0 1 -5.1379,5.13794 5.1379375,5.1379375 0 0 1 -5.138,-5.13794 5.1379375,5.1379375 0 0 1 5.138,-5.13794 5.1379375,5.1379375 0 0 1 5.1379,5.13794 z m -17.71651,0 a 5.1379375,5.1379375 0 0 1 -5.138,5.13794 5.1379375,5.1379375 0 0 1 -5.1379,-5.13794 5.1379375,5.1379375 0 0 1 5.1379,-5.13794 5.1379375,5.1379375 0 0 1 5.138,5.13794 z m -17.7166,0 a 5.1379375,5.1379375 0 0 1 -5.1379,5.13794 5.1379375,5.1379375 0 0 1 -5.138,-5.13794 5.1379375,5.1379375 0 0 1 5.138,-5.13794 5.1379375,5.1379375 0 0 1 5.1379,5.13794 z m 124.01591,-17.71653 a 5.1379375,5.1379375 0 0 1 -5.138,5.13794 5.1379375,5.1379375 0 0 1 -5.1379,-5.13794 5.1379375,5.1379375 0 0 1 5.1379,-5.13794 5.1379375,5.1379375 0 0 1 5.138,5.13794 z m -17.7166,0 a 5.1379375,5.1379375 0 0 1 -5.1379,5.13794 5.1379375,5.1379375 0 0 1 -5.138,-5.13794 5.1379375,5.1379375 0 0 1 5.138,-5.13794 5.1379375,5.1379375 0 0 1 5.1379,5.13794 z m -17.7165,0 a 5.1379375,5.1379375 0 0 1 -5.138,5.13794 5.1379375,5.1379375 0 0 1 -5.1379,-5.13794 5.1379375,5.1379375 0 0 1 5.1379,-5.13794 5.1379375,5.1379375 0 0 1 5.138,5.13794 z m -17.7166,0 a 5.1379375,5.1379375 0 0 1 -5.1379,5.13794 5.1379375,5.1379375 0 0 1 -5.138,-5.13794 5.1379375,5.1379375 0 0 1 5.138,-5.13794 5.1379375,5.1379375 0 0 1 5.1379,5.13794 z m -17.7165,0 a 5.1379375,5.1379375 0 0 1 -5.138,5.13794 5.1379375,5.1379375 0 0 1 -5.1379,-5.13794 5.1379375,5.1379375 0 0 1 5.1379,-5.13794 5.1379375,5.1379375 0 0 1 5.138,5.13794 z m -17.7166,0 a 5.1379375,5.1379375 0 0 1 -5.1379,5.13794 5.1379375,5.1379375 0 0 1 -5.138,-5.13794 5.1379375,5.1379375 0 0 1 5.138,-5.13794 5.1379375,5.1379375 0 0 1 5.1379,5.13794 z m -17.71651,0 a 5.1379375,5.1379375 0 0 1 -5.138,5.13794 5.1379375,5.1379375 0 0 1 -5.1379,-5.13794 5.1379375,5.1379375 0 0 1 5.1379,-5.13794 5.1379375,5.1379375 0 0 1 5.138,5.13794 z m -17.7166,0 a 5.1379375,5.1379375 0 0 1 -5.1379,5.13794 5.1379375,5.1379375 0 0 1 -5.138,-5.13794 5.1379375,5.1379375 0 0 1 5.138,-5.13794 5.1379375,5.1379375 0 0 1 5.1379,5.13794 z m 124.01591,-17.71653 a 5.1379375,5.1379375 0 0 1 -5.138,5.13794 5.1379375,5.1379375 0 0 1 -5.1379,-5.13794 5.1379375,5.1379375 0 0 1 5.1379,-5.13794 5.1379375,5.1379375 0 0 1 5.138,5.13794 z m -17.7166,0 a 5.1379375,5.1379375 0 0 1 -5.1379,5.13794 5.1379375,5.1379375 0 0 1 -5.138,-5.13794 5.1379375,5.1379375 0 0 1 5.138,-5.13794 5.1379375,5.1379375 0 0 1 5.1379,5.13794 z m -17.7165,0 a 5.1379375,5.1379375 0 0 1 -5.138,5.13794 5.1379375,5.1379375 0 0 1 -5.1379,-5.13794 5.1379375,5.1379375 0 0 1 5.1379,-5.13794 5.1379375,5.1379375 0 0 1 5.138,5.13794 z m -17.7166,0 a 5.1379375,5.1379375 0 0 1 -5.1379,5.13794 5.1379375,5.1379375 0 0 1 -5.138,-5.13794 5.1379375,5.1379375 0 0 1 5.138,-5.13794 5.1379375,5.1379375 0 0 1 5.1379,5.13794 z m -17.7165,0 a 5.1379375,5.1379375 0 0 1 -5.138,5.13794 5.1379375,5.1379375 0 0 1 -5.1379,-5.13794 5.1379375,5.1379375 0 0 1 5.1379,-5.13794 5.1379375,5.1379375 0 0 1 5.138,5.13794 z m -17.7166,0 a 5.1379375,5.1379375 0 0 1 -5.1379,5.13794 5.1379375,5.1379375 0 0 1 -5.138,-5.13794 5.1379375,5.1379375 0 0 1 5.138,-5.13794 5.1379375,5.1379375 0 0 1 5.1379,5.13794 z m -17.71651,0 a 5.1379375,5.1379375 0 0 1 -5.138,5.13794 5.1379375,5.1379375 0 0 1 -5.1379,-5.13794 5.1379375,5.1379375 0 0 1 5.1379,-5.13794 5.1379375,5.1379375 0 0 1 5.138,5.13794 z m -17.7166,0 a 5.1379375,5.1379375 0 0 1 -5.1379,5.13794 5.1379375,5.1379375 0 0 1 -5.138,-5.13794 5.1379375,5.1379375 0 0 1 5.138,-5.13794 5.1379375,5.1379375 0 0 1 5.1379,5.13794 z m 124.01591,-17.71654 a 5.1379375,5.1379375 0 0 1 -5.138,5.13794 5.1379375,5.1379375 0 0 1 -5.1379,-5.13794 5.1379375,5.1379375 0 0 1 5.1379,-5.13794 5.1379375,5.1379375 0 0 1 5.138,5.13794 z m -17.7166,0 a 5.1379375,5.1379375 0 0 1 -5.1379,5.13794 5.1379375,5.1379375 0 0 1 -5.138,-5.13794 5.1379375,5.1379375 0 0 1 5.138,-5.13794 5.1379375,5.1379375 0 0 1 5.1379,5.13794 z m -17.7165,0 a 5.1379375,5.1379375 0 0 1 -5.138,5.13794 5.1379375,5.1379375 0 0 1 -5.1379,-5.13794 5.1379375,5.1379375 0 0 1 5.1379,-5.13794 5.1379375,5.1379375 0 0 1 5.138,5.13794 z m -17.7166,0 a 5.1379375,5.1379375 0 0 1 -5.1379,5.13794 5.1379375,5.1379375 0 0 1 -5.138,-5.13794 5.1379375,5.1379375 0 0 1 5.138,-5.13794 5.1379375,5.1379375 0 0 1 5.1379,5.13794 z m -17.7165,0 a 5.1379375,5.1379375 0 0 1 -5.138,5.13794 5.1379375,5.1379375 0 0 1 -5.1379,-5.13794 5.1379375,5.1379375 0 0 1 5.1379,-5.13794 5.1379375,5.1379375 0 0 1 5.138,5.13794 z m -17.7166,0 a 5.1379375,5.1379375 0 0 1 -5.1379,5.13794 5.1379375,5.1379375 0 0 1 -5.138,-5.13794 5.1379375,5.1379375 0 0 1 5.138,-5.13794 5.1379375,5.1379375 0 0 1 5.1379,5.13794 z m -17.71651,0 a 5.1379375,5.1379375 0 0 1 -5.138,5.13794 5.1379375,5.1379375 0 0 1 -5.1379,-5.13794 5.1379375,5.1379375 0 0 1 5.1379,-5.13794 5.1379375,5.1379375 0 0 1 5.138,5.13794 z m -17.7166,0 a 5.1379375,5.1379375 0 0 1 -5.1379,5.13794 5.1379375,5.1379375 0 0 1 -5.138,-5.13794 5.1379375,5.1379375 0 0 1 5.138,-5.13794 5.1379375,5.1379375 0 0 1 5.1379,5.13794 z m 723.18881,551.16136 -70.8661,0 m -885.82668,0 -70.86612,0" />
      </g>
    </g>
  </g>
</svg>
