<?xml version="1.0" encoding="UTF-8" standalone="no"?>
<!-- Created with Inkscape (http://www.inkscape.org/) -->

<svg
   xmlns:dc="http://purl.org/dc/elements/1.1/"
   xmlns:cc="http://creativecommons.org/ns#"
   xmlns:rdf="http://www.w3.org/1999/02/22-rdf-syntax-ns#"
   xmlns:svg="http://www.w3.org/2000/svg"
   xmlns="http://www.w3.org/2000/svg"
   xmlns:sodipodi="http://sodipodi.sourceforge.net/DTD/sodipodi-0.dtd"
   xmlns:inkscape="http://www.inkscape.org/namespaces/inkscape"
   width="340.11707mm"
   height="420.01517mm"
   viewBox="0 0 1205.1393 1488.2427"
   id="svg2"
   version="1.1"
   inkscape:version="0.91 r13725"
   sodipodi:docname="gate.svg">
  <defs
     id="defs4" />
  <sodipodi:namedview
     id="base"
     pagecolor="#ffffff"
     bordercolor="#666666"
     borderopacity="1.0"
     inkscape:pageopacity="0.0"
     inkscape:pageshadow="2"
     inkscape:zoom="0.49497475"
     inkscape:cx="718.28515"
     inkscape:cy="710.59388"
     inkscape:document-units="mm"
     inkscape:current-layer="layer1"
     showgrid="false"
     fit-margin-top="20"
     fit-margin-left="20"
     fit-margin-right="20"
     fit-margin-bottom="20"
     showguides="false"
     inkscape:window-width="1680"
     inkscape:window-height="1001"
     inkscape:window-x="0"
     inkscape:window-y="23"
     inkscape:window-maximized="1" />
  <metadata
     id="metadata7">
    <rdf:RDF>
      <cc:Work
         rdf:about="">
        <dc:format>image/svg+xml</dc:format>
        <dc:type
           rdf:resource="http://purl.org/dc/dcmitype/StillImage" />
        <dc:title></dc:title>
      </cc:Work>
    </rdf:RDF>
  </metadata>
  <g
     inkscape:label="Layer 1"
     inkscape:groupmode="layer"
     id="layer1"
     transform="translate(-877.07076,-101.72542)">
    <g
       id="g4948"
       transform="translate(642.66874,-70.839261)">
      <g
         transform="translate(729.89599,-6.6342808)"
         id="g4862">
        <g
           id="g4856"
           style="stroke-width:0.35433075;stroke-miterlimit:4;stroke-dasharray:none"
           transform="translate(0,-5.3706409)" />
      </g>
      <g
         transform="translate(-70.866147,70.866057)"
         id="g4878">
        <g
           id="g4771">
          <g
             id="g4716">
            <g
               id="g4712"
               transform="translate(-256.90492,75.052693)" />
            <g
               id="g4672"
               transform="translate(290.72115,0)">
              <g
                 id="g4630">
                <g
                   id="g4600">
                  <g
                     transform="translate(-1069.2583,-293.32392)"
                     id="g4566" />
                  <g
                     id="g4576">
                    <g
                       transform="translate(-145.71431,-185.71432)"
                       id="g4461">
                      <g
                         id="g4411"
                         transform="translate(96.149793,258.53)">
                        <g
                           id="g4389"
                           transform="translate(247.77151,-175.4509)">
                          <g
                             id="g4385" />
                        </g>
                      </g>
                      <g
                         id="g4449"
                         transform="translate(-191.45866,0)">
                        <g
                           transform="translate(-4.7321435,10.625002)"
                           id="g4433">
                          <g
                             id="g4429"
                             transform="translate(-4.4627065e-6,0)"
                             style="stroke:#ff0000;stroke-width:0.35433075;stroke-miterlimit:4;stroke-dasharray:none;stroke-opacity:1" />
                        </g>
                        <g
                           transform="translate(739.36243,10.625002)"
                           id="g4439">
                          <g
                             style="stroke:#ff0000;stroke-width:0.35433075;stroke-miterlimit:4;stroke-dasharray:none;stroke-opacity:1"
                             transform="translate(-4.4627065e-6,0)"
                             id="g4443" />
                        </g>
                      </g>
                    </g>
                    <g
                       id="g4570"
                       transform="matrix(-1,0,0,1,2303.4917,-293.32392)" />
                  </g>
                </g>
              </g>
              <g
                 transform="translate(-161.97612,75.052693)"
                 id="g4668" />
            </g>
          </g>
          <g
             transform="translate(-53.380869,114.60371)"
             id="g4764" />
        </g>
        <g
           id="g4868"
           transform="matrix(-1,0,0,1,1014.9136,-77.500341)">
          <g
             id="g4870"
             style="stroke-width:0.35433075;stroke-miterlimit:4;stroke-dasharray:none"
             transform="translate(0,-5.3706409)" />
        </g>
      </g>
    </g>
    <g
       id="g5019"
       transform="translate(-386.01035,47.000466)">
      <g
         transform="translate(-23.678122,-6.6647598)"
         id="g5009" />
      <g
         transform="translate(-23.678122,-130.68052)"
         id="g5013" />
    </g>
    <g
       transform="translate(511.57148,40.335706)"
       id="g5029" />
    <path
       id="rect5039"
       style="opacity:1;fill:none;fill-opacity:0.39215686;fill-rule:nonzero;stroke:#ff0000;stroke-width:0.35433072;stroke-miterlimit:4;stroke-dasharray:none;stroke-opacity:1"
       d="m 1922.5539,745.11383 35.4331,0 0,17.71654 -35.4331,0 z m 0,35.43305 35.4331,0 0,17.71653 -35.4331,0 z m 0,88.58271 35.4331,0 0,17.71654 -35.4331,0 z m 0,35.43305 35.4331,0 0,17.71651 -35.4331,0 z m -921.26,-159.44881 35.4331,0 0,17.71654 -35.4331,0 z m 0,35.43305 35.4331,0 0,17.71653 -35.4331,0 z m 0,88.58271 35.4331,0 0,17.71654 -35.4331,0 z m 0,35.43305 35.4331,0 0,17.71651 -35.4331,0 z m 862.6485,11.99981 a 5.3148117,5.3148117 0 0 0 5.3149,5.3148 5.3148117,5.3148117 0 0 0 5.3148,-5.3148 5.3148117,5.3148117 0 0 0 -5.3148,-5.31485 5.3148117,5.3148117 0 0 0 -5.3149,5.31485 z m 100.9109,354.08035 0,-10.6299 10.6299,0 z m -49.1052,0 0,-10.6299 -10.6299,0 z m 59.9857,-35.1826 -70.8661,0 0,35.4331 70.8661,0 z m -106.2992,-318.89765 0,318.89765 141.7323,0 0,-318.89765 m -854.4623,70.8662 91.6984,0 c 4.0445,0 7.3004,3.256 7.3004,7.3004 l 0,91.69845 c 0,4.0444 -3.2559,7.3004 -7.3004,7.3004 l -91.6984,0 c -4.0444,0 -7.3004,-3.256 -7.3004,-7.3004 l 0,-91.69845 c 0,-4.0444 3.256,-7.3004 7.3004,-7.3004 z m 138.5433,0 91.6985,0 c 4.0444,0 7.3004,3.256 7.3004,7.3004 l 0,91.69845 c 0,4.0444 -3.256,7.3004 -7.3004,7.3004 l -91.6985,0 c -4.0444,0 -7.3003,-3.256 -7.3003,-7.3004 l 0,-91.69845 c 0,-4.0444 3.2559,-7.3004 7.3003,-7.3004 z m 138.5433,0 91.6984,0 c 4.0444,0 7.3004,3.256 7.3004,7.3004 l 0,91.69845 c 0,4.0444 -3.256,7.3004 -7.3004,7.3004 l -91.6984,0 c -4.0444,0 -7.3004,-3.256 -7.3004,-7.3004 l 0,-91.69845 c 0,-4.0444 3.256,-7.3004 7.3004,-7.3004 z m 138.5433,0 91.6985,0 c 4.0444,0 7.3003,3.256 7.3003,7.3004 l 0,91.69845 c 0,4.0444 -3.2559,7.3004 -7.3003,7.3004 l -91.6985,0 c -4.0444,0 -7.3004,-3.256 -7.3004,-7.3004 l 0,-91.69845 c 0,-4.0444 3.256,-7.3004 7.3004,-7.3004 z m 138.5433,0 91.6985,0 c 4.0444,0 7.3004,3.256 7.3004,7.3004 l 0,91.69845 c 0,4.0444 -3.256,7.3004 -7.3004,7.3004 l -91.6985,0 c -4.0444,0 -7.3003,-3.256 -7.3003,-7.3004 l 0,-91.69845 c 0,-4.0444 3.2559,-7.3004 7.3003,-7.3004 z m -16.6956,506.69285 31.5465,0 c 1.0766,0 1.9433,0.8667 1.9433,1.9433 l 0,3.2001 c 0,1.0766 -0.8667,1.9433 -1.9433,1.9433 l -31.5465,0 c -1.0766,0 -1.9433,-0.8667 -1.9433,-1.9433 l 0,-3.2001 c 0,-1.0766 0.8667,-1.9433 1.9433,-1.9433 z m -460.9128,0.4923 32.1121,0 c 0.9269,0 1.6732,0.7463 1.6732,1.6733 l 0,2.7554 c 0,0.927 -0.7463,1.6732 -1.6732,1.6732 l -32.1121,0 c -0.9269,0 -1.6732,-0.7462 -1.6732,-1.6732 l 0,-2.7554 c 0,-0.927 0.7463,-1.6733 1.6732,-1.6733 z m -24.9717,-280.4135 542.6855,0 c 6.7155,0 12.1218,5.4063 12.1218,12.1218 l 0,103.3154 c 0,6.7155 -5.4063,12.1217 -12.1218,12.1217 l -542.6855,0 c -6.7155,0 -12.1218,-5.4063 -12.1218,-12.1217 l 0,-103.3154 c 0,-6.7155 5.4063,-12.1218 12.1218,-12.1218 z m 767.3323,294.0945 0,10.6299 -10.6299,0 z m 35.5369,-24.8018 -35.4331,0 0,35.4317 35.4331,0 z m -106.1894,24.8018 0,10.6299 10.6299,0 z m -106.4757,-24.8333 106.2992,0 0,35.433 -106.2992,0 z m -0.1038,24.8333 0,10.6299 -10.6299,0 z m -637.5151,0 0,10.6299 10.6299,0 z m -106.4757,-24.8333 106.2992,0 0,35.433 -106.2992,0 z m -0.1038,24.8333 0,10.6299 -10.6299,0 z m 283.501,0 0,10.6299 -10.6299,0 z m 0.1038,-24.8032 283.4646,0 0,35.4331 -283.4646,0 z m 283.641,24.8333 0,10.6299 10.63,0 z M 1479.6396,172.76867 a 531.5216,425.04524 0 0 0 -531.52152,425.04493 531.5216,425.04524 0 0 0 0.006,0.14648 l -0.01,0 0,920.96472 1063.05272,0 0,-920.96472 -0.016,0 a 531.5216,425.04524 0 0 0 0.01,-0.14648 531.5216,425.04524 0 0 0 -531.5214,-425.04493 z m -495.98865,1335.52623 0,10.6299 10.6299,0 z m -35.5369,-24.8018 35.4331,0 0,35.4317 -35.4331,0 z m 976.38315,10.6285 31.5466,0 c 1.0765,0 1.9432,0.8667 1.9432,1.9433 l 0,3.2001 c 0,1.0766 -0.8667,1.9433 -1.9432,1.9433 l -31.5466,0 c -1.0766,0 -1.9432,-0.8667 -1.9432,-1.9433 l 0,-3.2001 c 0,-1.0766 0.8666,-1.9433 1.9432,-1.9433 z m -921.26,0 31.5465,0 c 1.0766,0 1.9433,0.8667 1.9433,1.9433 l 0,3.2001 c 0,1.0766 -0.8667,1.9433 -1.9433,1.9433 l -31.5465,0 c -1.0766,0 -1.9433,-0.8667 -1.9433,-1.9433 l 0,-3.2001 c 0,-1.0766 0.8667,-1.9433 1.9433,-1.9433 z m 92.1013,-577.55915 a 5.3148117,5.3148117 0 0 1 -5.3148,5.3148 5.3148117,5.3148117 0 0 1 -5.3148,-5.3148 5.3148117,5.3148117 0 0 1 5.3148,-5.31485 5.3148117,5.3148117 0 0 1 5.3148,5.31485 z m -100.91088,354.08035 0,-10.6299 -10.62992,0 z m 49.10518,0 0,-10.6299 10.6299,0 z m -59.98565,-35.1826 70.86615,0 0,35.4331 -70.86615,0 z m 106.29925,-318.89765 0,318.89765 -141.73232,0 0,-318.89765" />
  </g>
</svg>
