<?xml version="1.0" encoding="UTF-8" standalone="no"?>
<!-- Created with Inkscape (http://www.inkscape.org/) -->

<svg
   xmlns:dc="http://purl.org/dc/elements/1.1/"
   xmlns:cc="http://creativecommons.org/ns#"
   xmlns:rdf="http://www.w3.org/1999/02/22-rdf-syntax-ns#"
   xmlns:svg="http://www.w3.org/2000/svg"
   xmlns="http://www.w3.org/2000/svg"
   xmlns:sodipodi="http://sodipodi.sourceforge.net/DTD/sodipodi-0.dtd"
   xmlns:inkscape="http://www.inkscape.org/namespaces/inkscape"
   width="380.02365mm"
   height="300.1171mm"
   viewBox="0 0 1346.5406 1063.407"
   id="svg2"
   version="1.1"
   inkscape:version="0.91 r13725"
   sodipodi:docname="gate.svg">
  <defs
     id="defs4" />
  <sodipodi:namedview
     id="base"
     pagecolor="#ffffff"
     bordercolor="#666666"
     borderopacity="1.0"
     inkscape:pageopacity="0.0"
     inkscape:pageshadow="2"
     inkscape:zoom="0.49497475"
     inkscape:cx="788.98575"
     inkscape:cy="498.19109"
     inkscape:document-units="mm"
     inkscape:current-layer="layer1"
     showgrid="false"
     fit-margin-top="0"
     fit-margin-left="0"
     fit-margin-right="0"
     fit-margin-bottom="0"
     showguides="false"
     inkscape:window-width="1680"
     inkscape:window-height="1001"
     inkscape:window-x="0"
     inkscape:window-y="23"
     inkscape:window-maximized="1" />
  <metadata
     id="metadata7">
    <rdf:RDF>
      <cc:Work
         rdf:about="">
        <dc:format>image/svg+xml</dc:format>
        <dc:type
           rdf:resource="http://purl.org/dc/dcmitype/StillImage" />
        <dc:title></dc:title>
      </cc:Work>
    </rdf:RDF>
  </metadata>
  <g
     inkscape:label="Layer 1"
     inkscape:groupmode="layer"
     id="layer1"
     transform="translate(-806.37015,-314.15829)">
    <g
       id="g4948"
       transform="translate(642.66874,-70.839261)">
      <g
         transform="translate(729.89599,-6.6342808)"
         id="g4862">
        <g
           id="g4856"
           style="stroke-width:0.35433075;stroke-miterlimit:4;stroke-dasharray:none"
           transform="translate(0,-5.3706409)" />
      </g>
      <g
         transform="translate(-70.866147,70.866057)"
         id="g4878">
        <g
           id="g4771">
          <g
             id="g4716">
            <g
               id="g4712"
               transform="translate(-256.90492,75.052693)" />
            <g
               id="g4672"
               transform="translate(290.72115,0)">
              <g
                 id="g4630">
                <g
                   id="g4600">
                  <g
                     transform="translate(-1069.2583,-293.32392)"
                     id="g4566" />
                  <g
                     id="g4576">
                    <g
                       transform="translate(-145.71431,-185.71432)"
                       id="g4461">
                      <g
                         id="g4411"
                         transform="translate(96.149793,258.53)">
                        <g
                           id="g4389"
                           transform="translate(247.77151,-175.4509)">
                          <g
                             id="g4385" />
                        </g>
                      </g>
                      <g
                         id="g4449"
                         transform="translate(-191.45866,0)">
                        <g
                           transform="translate(-4.7321435,10.625002)"
                           id="g4433">
                          <g
                             id="g4429"
                             transform="translate(-4.4627065e-6,0)"
                             style="stroke:#ff0000;stroke-width:0.35433075;stroke-miterlimit:4;stroke-dasharray:none;stroke-opacity:1" />
                        </g>
                        <g
                           transform="translate(739.36243,10.625002)"
                           id="g4439">
                          <g
                             style="stroke:#ff0000;stroke-width:0.35433075;stroke-miterlimit:4;stroke-dasharray:none;stroke-opacity:1"
                             transform="translate(-4.4627065e-6,0)"
                             id="g4443" />
                        </g>
                      </g>
                    </g>
                    <g
                       id="g4570"
                       transform="matrix(-1,0,0,1,2303.4917,-293.32392)" />
                  </g>
                </g>
              </g>
              <g
                 transform="translate(-161.97612,75.052693)"
                 id="g4668" />
            </g>
          </g>
          <g
             transform="translate(-53.380869,114.60371)"
             id="g4764" />
        </g>
        <g
           id="g4868"
           transform="matrix(-1,0,0,1,1014.9136,-77.500341)">
          <g
             id="g4870"
             style="stroke-width:0.35433075;stroke-miterlimit:4;stroke-dasharray:none"
             transform="translate(0,-5.3706409)" />
        </g>
      </g>
    </g>
    <g
       id="g5019"
       transform="translate(-386.01035,47.000466)">
      <g
         transform="translate(-23.678122,-6.6647598)"
         id="g5009" />
      <g
         transform="translate(-23.678122,-130.68052)"
         id="g5013" />
    </g>
    <g
       transform="translate(511.57148,40.335706)"
       id="g5029" />
    <path
       id="rect5039"
       style="opacity:1;fill:none;fill-opacity:0.39215686;fill-rule:nonzero;stroke:#ff0000;stroke-width:0.35433072;stroke-miterlimit:4;stroke-dasharray:none;stroke-opacity:1"
       d="m 1580.3884,1288.7752 0,35.4331 -17.7165,0 0,-35.4331 z m -35.433,0 0,35.4331 -17.7165,0 0,-35.4331 z m -88.5827,0 0,35.4331 -17.7166,0 0,-35.4331 z m -35.4331,0 0,35.4331 -17.7165,0 0,-35.4331 z m 159.4488,-921.25996 0,35.4331 -17.7165,0 0,-35.4331 z m -35.433,0 0,35.4331 -17.7165,0 0,-35.4331 z m -88.5827,0 0,35.4331 -17.7166,0 0,-35.4331 z m -35.4331,0 0,35.4331 -17.7165,0 0,-35.4331 z m -11.9998,862.64846 a 5.314812,5.3148114 0 0 0 -5.3148,5.3149 5.314812,5.3148114 0 0 0 5.3148,5.3148 5.314812,5.3148114 0 0 0 5.3149,-5.3148 5.314812,5.3148114 0 0 0 -5.3149,-5.3149 z m -354.0804,100.9109 10.6299,0 0,10.6299 z m 0,-49.1052 10.6299,0 0,-10.6299 z m 35.1826,59.9857 0,-70.8661 -35.4331,0 0,70.8661 z m 318.8977,-106.2992 -318.8977,0 0,141.7323 318.8977,0 m -70.8662,-854.46227 0,91.69839 c 0,4.0445 -3.256,7.3004 -7.3004,7.3004 l -91.6985,0 c -4.0444,0 -7.3004,-3.2559 -7.3004,-7.3004 l 0,-91.69839 c 0,-4.0444 3.256,-7.3004 7.3004,-7.3004 l 91.6985,0 c 4.0444,0 7.3004,3.256 7.3004,7.3004 z m 0,138.54329 0,91.6985 c 0,4.0444 -3.256,7.3004 -7.3004,7.3004 l -91.6985,0 c -4.0444,0 -7.3004,-3.256 -7.3004,-7.3004 l 0,-91.6985 c 0,-4.0444 3.256,-7.3003 7.3004,-7.3003 l 91.6985,0 c 4.0444,0 7.3004,3.2559 7.3004,7.3003 z m 0,138.54329 0,91.6984 c 0,4.0444 -3.256,7.3004 -7.3004,7.3004 l -91.6985,0 c -4.0444,0 -7.3004,-3.256 -7.3004,-7.3004 l 0,-91.6984 c 0,-4.0444 3.256,-7.3004 7.3004,-7.3004 l 91.6985,0 c 4.0444,0 7.3004,3.256 7.3004,7.3004 z m 0,138.54329 0,91.6985 c 0,4.0444 -3.256,7.3003 -7.3004,7.3003 l -91.6985,0 c -4.0444,0 -7.3004,-3.2559 -7.3004,-7.3003 l 0,-91.6985 c 0,-4.0444 3.256,-7.3004 7.3004,-7.3004 l 91.6985,0 c 4.0444,0 7.3004,3.256 7.3004,7.3004 z m 0,138.5433 0,91.6985 c 0,4.0444 -3.256,7.3004 -7.3004,7.3004 l -91.6985,0 c -4.0444,0 -7.3004,-3.256 -7.3004,-7.3004 l 0,-91.6985 c 0,-4.0444 3.256,-7.3003 7.3004,-7.3003 l 91.6985,0 c 4.0444,0 7.3004,3.2559 7.3004,7.3003 z m -506.69288,-16.6956 0,31.5465 c 0,1.0766 -0.8667,1.9433 -1.9433,1.9433 l -3.2001,0 c -1.0766,0 -1.9433,-0.8667 -1.9433,-1.9433 l 0,-31.5465 c 0,-1.0766 0.8667,-1.9433 1.9433,-1.9433 l 3.2001,0 c 1.0766,0 1.9433,0.8667 1.9433,1.9433 z m -0.4923,-460.91278 0,32.1121 c 0,0.9269 -0.7463,1.6732 -1.6733,1.6732 l -2.7554,0 c -0.927,0 -1.6732,-0.7463 -1.6732,-1.6732 l 0,-32.1121 c 0,-0.9269 0.7462,-1.6732 1.6732,-1.6732 l 2.7554,0 c 0.927,0 1.6733,0.7463 1.6733,1.6732 z m 280.41348,-24.97169 0,542.68547 c 0,6.7155 -5.4063,12.1218 -12.1218,12.1218 l -103.31537,0 c -6.7155,0 -12.1217,-5.4063 -12.1217,-12.1218 l 0,-542.68547 c 0,-6.7155 5.4063,-12.1218 12.1217,-12.1218 l 103.31537,0 c 6.7155,0 12.1218,5.4063 12.1218,12.1218 z m -294.09448,767.33227 -10.6299,0 0,-10.6299 z m 24.8018,35.5369 0,-35.4331 -35.4317,0 0,35.4331 z m -24.8018,-106.1894 -10.6299,0 0,10.6299 z m 24.8333,-106.4757 0,106.2992 -35.433,0 0,-106.2992 z m -24.8333,-0.1038 -10.6299,0 0,-10.6299 z m 0,-637.51507 -10.6299,0 0,10.6299 z m 24.8333,-106.47569 0,106.29919 -35.433,0 0,-106.29919 z m -24.8333,-0.1038 -10.6299,0 0,-10.6299 z m 0,283.50098 -10.6299,0 0,-10.6299 z m 24.8032,0.1038 0,283.46458 -35.4331,0 0,-283.46458 z m -24.8333,283.64098 -10.6299,0 0,10.63 z M 2152.7336,845.86091 a 425.04527,531.52157 0 0 0 -425.0449,-531.52149 425.04527,531.52157 0 0 0 -0.1465,0.006 l 0,-0.01 -920.96478,0 0,1063.05268 920.96478,0 0,-0.016 a 425.04527,531.52157 0 0 0 0.1465,0.01 425.04527,531.52157 0 0 0 425.0449,-531.52139 z M 817.20732,349.87229 l -10.6299,0 0,10.6299 z m 24.8018,-35.5369 0,35.4331 -35.4317,0 0,-35.4331 z m -10.6285,976.38311 0,31.5466 c 0,1.0765 -0.8667,1.9432 -1.9433,1.9432 l -3.2001,0 c -1.0766,0 -1.9433,-0.8667 -1.9433,-1.9432 l 0,-31.5466 c 0,-1.0766 0.8667,-1.9432 1.9433,-1.9432 l 3.2001,0 c 1.0766,0 1.9433,0.8666 1.9433,1.9432 z m 0,-921.25996 0,31.5465 c 0,1.0766 -0.8667,1.9433 -1.9433,1.9433 l -3.2001,0 c -1.0766,0 -1.9433,-0.8667 -1.9433,-1.9433 l 0,-31.5465 c 0,-1.0766 0.8667,-1.9433 1.9433,-1.9433 l 3.2001,0 c 1.0766,0 1.9433,0.8667 1.9433,1.9433 z m 577.55918,92.10129 a 5.314812,5.3148114 0 0 1 -5.3148,-5.3148 5.314812,5.3148114 0 0 1 5.3148,-5.3148 5.314812,5.3148114 0 0 1 5.3149,5.3148 5.314812,5.3148114 0 0 1 -5.3149,5.3148 z m -354.0804,-100.91087 10.6299,0 0,-10.62992 z m 0,49.10518 10.6299,0 0,10.6299 z m 35.1826,-59.98565 0,70.86615 -35.4331,0 0,-70.86615 z m 318.8977,106.29924 -318.8977,0 0,-141.73231 318.8977,0"
       inkscape:connector-curvature="0" />
  </g>
</svg>
