<?xml version="1.0" encoding="UTF-8" standalone="no"?>
<!-- Created with Inkscape (http://www.inkscape.org/) -->

<svg
   xmlns:dc="http://purl.org/dc/elements/1.1/"
   xmlns:cc="http://creativecommons.org/ns#"
   xmlns:rdf="http://www.w3.org/1999/02/22-rdf-syntax-ns#"
   xmlns:svg="http://www.w3.org/2000/svg"
   xmlns="http://www.w3.org/2000/svg"
   xmlns:sodipodi="http://sodipodi.sourceforge.net/DTD/sodipodi-0.dtd"
   xmlns:inkscape="http://www.inkscape.org/namespaces/inkscape"
   width="70.099991mm"
   height="30.1mm"
   viewBox="0 0 248.38579 106.65354"
   id="svg2"
   version="1.1"
   inkscape:version="0.91 r13725"
   sodipodi:docname="hm.svg">
  <defs
     id="defs4" />
  <sodipodi:namedview
     id="base"
     pagecolor="#ffffff"
     bordercolor="#666666"
     borderopacity="1.0"
     inkscape:pageopacity="0.0"
     inkscape:pageshadow="2"
     inkscape:zoom="1.979899"
     inkscape:cx="-9.2440465"
     inkscape:cy="65.693098"
     inkscape:document-units="mm"
     inkscape:current-layer="text4171"
     showgrid="false"
     inkscape:window-width="1680"
     inkscape:window-height="1001"
     inkscape:window-x="0"
     inkscape:window-y="23"
     inkscape:window-maximized="1"
     fit-margin-top="0"
     fit-margin-left="0"
     fit-margin-right="0"
     fit-margin-bottom="0"
     showguides="false" />
  <metadata
     id="metadata7">
    <rdf:RDF>
      <cc:Work
         rdf:about="">
        <dc:format>image/svg+xml</dc:format>
        <dc:type
           rdf:resource="http://purl.org/dc/dcmitype/StillImage" />
        <dc:title />
      </cc:Work>
    </rdf:RDF>
  </metadata>
  <g
     inkscape:label="Layer 1"
     inkscape:groupmode="layer"
     id="layer1"
     transform="translate(-134.16162,-188.65336)">
    <text
       xml:space="preserve"
       style="font-style:normal;font-weight:normal;font-size:40px;line-height:125%;font-family:sans-serif;letter-spacing:0px;word-spacing:0px;fill:#000000;fill-opacity:1;stroke:none;stroke-width:1px;stroke-linecap:butt;stroke-linejoin:miter;stroke-opacity:1"
       x="169.28571"
       y="350.21936"
       id="text4198"
       sodipodi:linespacing="125%"><tspan
         sodipodi:role="line"
         id="tspan4200"
         x="169.28571"
         y="350.21936" /></text>
    <g
       style="font-style:normal;font-weight:normal;font-size:40px;line-height:125%;font-family:sans-serif;letter-spacing:0px;word-spacing:0px;fill:#000000;fill-opacity:1;stroke:none;stroke-width:0.35433072;stroke-linecap:butt;stroke-linejoin:miter;stroke-miterlimit:4;stroke-dasharray:none;stroke-opacity:1"
       id="text4146" />
    <g
       style="font-style:normal;font-weight:normal;font-size:40px;line-height:125%;font-family:sans-serif;letter-spacing:0px;word-spacing:0px;fill:none;fill-opacity:1;stroke:#ff0000;stroke-width:0.35433072;stroke-linecap:butt;stroke-linejoin:miter;stroke-miterlimit:4;stroke-dasharray:none;stroke-opacity:1"
       id="text4171">
      <g
         id="g4183">
        <g
           transform="translate(6.56599,15.72362)"
           id="g4180"
           style="">
          <circle
             style="opacity:1;fill:none;fill-opacity:0.39215686;fill-rule:nonzero;stroke:#ff0000;stroke-width:0.35283187;stroke-miterlimit:4;stroke-dasharray:none;stroke-opacity:1"
             id="path4138"
             cx="147.26099"
             cy="226.25652"
             r="8.8590174" />
          <ellipse
             style="opacity:1;fill:none;fill-opacity:0.39215686;fill-rule:nonzero;stroke:#ff0000;stroke-width:0.35433072;stroke-miterlimit:4;stroke-dasharray:none;stroke-opacity:1"
             id="path4159"
             cx="251.78853"
             cy="226.25652"
             rx="124.01559"
             ry="53.149456" />
        </g>
        <path
           id="path4176"
           style="font-style:normal;font-variant:normal;font-weight:normal;font-stretch:normal;font-family:HYQuanTangShiF;-inkscape-font-specification:HYQuanTangShiF;fill:none;stroke:#ff0000;stroke-width:0.35433072;stroke-miterlimit:4;stroke-dasharray:none;stroke-opacity:1"
           d="m 216.7289,227.52412 q 0.32,0.4 0.32,0.8 0,0.36 -0.28,1 -0.68,1.44 -1.24,2.52 -0.52,1.08 -0.96,1.92 0.32,0.2 0.56,0.4 0.28,0.2 0.48,0.48 0.24,0.32 0.2,0.52 0,0.2 -0.36,0.24 -1.16,0.2 -2.16,0.36 -1,0.12 -2.24,0.28 -0.56,0.08 -0.84,0.12 -0.28,0 -0.68,-0.08 l -0.04,0 0,0.08 -0.16,0.8 q -0.08,0.48 -0.16,0.88 -0.04,0.36 -0.12,0.8 -0.08,0.44 -0.16,1 -0.08,0.56 -0.2,1.4 -0.04,0.12 -0.04,0.28 0.04,0 0.04,0 0.04,-0.04 0.08,-0.04 l 2.68,-0.4 q 0.68,-0.12 1,-0.28 0.48,-0.2 0.76,-0.16 0.28,0 0.68,0.36 0.52,0.44 0.96,0.96 0.44,0.48 0.64,0.8 0.16,0.28 0.24,0.48 0.08,0.16 0.12,0.4 0.04,0.2 0,0.52 -0.04,0.28 -0.08,0.76 -0.2,1.48 -0.52,3 -0.32,1.52 -0.72,2.92 -0.36,1.4 -0.8,2.56 -0.4,1.16 -0.8,1.88 -0.44,0.76 -0.88,1.36 -0.44,0.6 -1.12,0.96 -0.44,0.2 -0.72,0.24 -0.28,0.08 -0.48,0.04 -0.6,-0.04 -0.76,-1.04 -0.12,-0.56 -0.56,-1.2 -0.4,-0.6 -1.32,-1.64 -0.4,-0.44 -0.28,-0.64 0.16,-0.2 0.72,0 0.44,0.2 1.16,0.4 0.76,0.2 1.2,0.32 0.48,0.12 0.64,-0.24 0.52,-0.88 0.96,-2.28 0.44,-1.4 0.76,-2.96 0.32,-1.56 0.52,-3.08 0.2,-1.56 0.2,-2.68 0,-0.16 -0.08,-0.2 -0.04,-0.08 -0.32,-0.04 -0.56,0.08 -1.36,0.2 -0.8,0.12 -1.68,0.32 -0.4,0.08 -0.64,0.12 -0.2,0 -0.48,-0.08 -0.08,0.44 -0.2,0.72 -0.08,0.24 -0.24,0.52 -0.24,0.44 -0.48,0.48 -0.24,0.04 -0.68,-0.4 -0.24,-0.28 -0.44,-0.48 -0.16,-0.2 -0.28,-0.4 -0.2,-0.28 -0.2,-0.48 0,-0.2 0.12,-0.76 0.16,-0.8 0.28,-1.36 0.12,-0.6 0.2,-1.12 0.08,-0.56 0.16,-1.16 0.08,-0.6 0.16,-1.48 0.08,-0.64 0.08,-1.12 0.04,-0.48 0.04,-0.84 0,-0.36 -0.04,-0.68 -0.04,-0.32 -0.08,-0.72 -0.12,-1.24 0.88,-0.48 0.84,0.72 1.4,1.52 0.68,-0.08 1.48,-0.24 0.8,-0.16 1.72,-0.36 l 0.08,0 q 0.16,-0.6 0.32,-1.4 0.16,-0.8 0.28,-1.6 0.16,-0.8 0.28,-1.52 0.12,-0.72 0.2,-1.24 0.04,-0.28 -0.2,-0.28 -0.56,0.08 -1.6,0.28 -1.04,0.16 -1.88,0.36 -0.48,0.08 -0.76,0.08 -0.28,0 -0.68,-0.08 -0.4,-0.12 -0.72,-0.2 -0.28,-0.12 -0.68,-0.32 -0.64,-0.32 -0.56,-0.56 0.08,-0.28 0.72,-0.28 1.76,-0.08 2.72,-0.24 l 2.44,-0.52 q 0.36,-0.08 0.6,-0.2 0.28,-0.12 0.64,-0.36 0.32,-0.2 0.56,-0.2 0.28,0 0.68,0.2 0.56,0.28 1.12,0.68 0.56,0.4 0.88,0.8 z m 15.68,25.72 q -0.28,-0.72 -0.6,-1.52 -0.28,-0.8 -0.72,-1.64 -3,0.6 -5.24,1.2 -2.2,0.6 -3.28,0.92 -0.76,0.24 -1.56,0.64 -0.76,0.4 -1.2,0.72 -0.64,0.48 -1.32,-0.2 -0.2,-0.2 -0.56,-0.68 -0.32,-0.48 -0.64,-1 -0.52,-0.96 0.12,-1.32 1.08,-0.64 2.12,-2.68 0.68,-1.32 1.44,-3.36 0.8,-2.04 1.48,-4.16 0.68,-2.12 1.2,-4.04 0.56,-1.96 0.76,-3.12 0.16,-0.92 0.12,-1.88 0,-0.96 -0.28,-1.92 -0.4,-1.48 0.88,-0.72 0.96,0.56 1.68,1.28 0.72,0.72 1.24,1.32 0.56,0.76 0.08,1.44 -0.32,0.44 -0.48,0.84 -0.16,0.4 -0.48,1.4 -0.48,1.56 -1.24,3.64 -0.76,2.04 -1.64,4.16 -0.88,2.12 -1.84,4.12 -0.92,2 -1.76,3.4 l 9.88,-1.12 q -0.4,-0.76 -0.88,-1.52 -0.44,-0.8 -1,-1.64 -0.48,-0.72 -0.2,-0.88 0.28,-0.2 0.92,0.24 1.84,1.28 3.08,2.44 1.24,1.12 1.96,2.08 0.48,0.64 0.56,1.16 0.08,0.48 -0.2,1.2 -0.16,0.44 -0.48,0.88 -0.28,0.44 -0.56,0.76 -0.4,0.44 -0.76,0.36 -0.36,-0.08 -0.6,-0.8 z" />
        <path
           id="path4178"
           style="font-style:normal;font-variant:normal;font-weight:normal;font-stretch:normal;font-family:HYQuanTangShiF;-inkscape-font-specification:HYQuanTangShiF;fill:none;stroke:#ff0000;stroke-width:0.35433072;stroke-miterlimit:4;stroke-dasharray:none;stroke-opacity:1"
           d="m 286.58015,233.92412 q -0.04,-0.76 -0.08,-1.24 -0.04,-0.48 -0.12,-0.92 -0.08,-0.44 -0.24,-0.88 -0.16,-0.48 -0.44,-1.16 -0.44,-1.12 0.64,-0.56 0.6,0.32 1.12,0.72 0.56,0.4 0.88,0.68 0.36,0.36 0.48,0.68 0.16,0.28 0.2,0.96 l 0,4.64 1.04,-0.28 q 0.48,-0.12 0.64,-0.16 0.2,-0.08 0.44,-0.2 0.48,-0.16 0.72,0.04 0.12,0.08 0.36,0.32 0.24,0.2 0.44,0.44 0.2,0.24 0.16,0.4 0,0.12 -0.32,0.2 -0.24,0.04 -0.68,0.12 -0.44,0.08 -0.96,0.2 -0.48,0.08 -0.96,0.16 -0.48,0.08 -0.8,0.12 l -0.08,0 q 0,1.64 0,3 0.04,1.36 0.04,2.64 l 1,-0.2 q 0.6,-0.12 0.88,-0.2 0.28,-0.12 0.52,-0.2 0.32,-0.12 0.44,-0.12 0.16,-0.04 0.4,0.12 l 0.48,0.4 q 0.08,-1.2 0.16,-2.84 0.08,-1.64 0.12,-3.44 0.04,-1.8 0,-3.52 0,-1.76 -0.08,-3.16 0,-0.24 -0.24,-0.24 -0.84,0.08 -1.4,0.24 -0.52,0.12 -1.36,0.32 -0.32,0.08 -0.52,0.08 -0.16,-0.04 -0.36,-0.16 -0.2,-0.12 -0.44,-0.28 -0.24,-0.16 -0.48,-0.4 -0.36,-0.36 0.28,-0.48 0.36,-0.04 0.6,-0.08 0.28,-0.08 0.68,-0.16 0.56,-0.16 1.04,-0.28 0.48,-0.12 0.92,-0.2 0.32,-0.08 0.48,-0.16 0.2,-0.08 0.4,-0.24 0.44,-0.24 0.68,-0.24 0.28,0 0.68,0.28 0.52,0.32 0.88,0.64 0.36,0.28 0.68,0.6 0.28,0.32 0.36,0.6 0.12,0.28 0.08,1.08 -0.04,1.64 -0.12,3.6 -0.04,1.96 -0.16,3.92 -0.08,1.96 -0.2,3.8 -0.12,1.8 -0.24,3.24 -0.08,0.4 -0.24,0.64 -0.12,0.2 -0.52,0 -0.36,-0.2 -0.76,-0.48 -0.4,-0.28 -0.6,-0.52 -0.32,-0.24 -0.4,-0.44 -0.04,-0.2 -0.04,-0.52 -0.8,0.08 -1.68,0.16 -0.88,0.08 -1.92,0.28 l 0,0.92 q 0,1.16 -0.72,0.84 -0.8,-0.36 -1.16,-0.76 -0.2,-0.2 -0.32,-0.36 -0.08,-0.16 -0.04,-0.6 0,-0.88 -0.04,-2.56 0,-1.68 -0.04,-3.44 -0.04,-1.76 -0.08,-3.28 -0.04,-1.52 -0.08,-2.12 z m 23.8,-5.64 q 0.32,0.44 0.36,0.68 0.04,0.24 -0.08,0.8 -0.08,0.32 -0.12,0.84 -0.04,0.48 0,1.08 0,1.4 0,3.72 0.04,2.28 0.08,4.52 0.04,2.16 0.08,4.48 0.04,2.28 0.08,4.28 0.04,1.96 0.04,3.4 0,1.44 0,1.84 -0.08,1.04 -0.2,1.52 -0.08,0.52 -0.36,1.04 -0.2,0.4 -0.44,0.68 -0.2,0.28 -0.52,0.6 -1,0.88 -1.76,-0.44 -0.36,-0.64 -0.6,-1.08 -0.24,-0.4 -0.56,-0.76 -0.28,-0.36 -0.8,-0.72 -0.48,-0.4 -1.32,-1 -0.56,-0.36 -0.44,-0.68 0.12,-0.32 0.76,-0.2 1.2,0.24 1.84,0.36 0.64,0.08 1.08,0.12 0.24,0.04 0.36,-0.04 0.12,-0.08 0.16,-0.52 0.04,-0.48 0,-2.12 0,-1.64 -0.04,-3.84 0,-2.24 -0.08,-4.76 -0.04,-2.56 -0.08,-4.92 -0.04,-2.36 -0.12,-4.2 -0.04,-1.88 -0.08,-2.76 0,-0.76 -0.12,-1.6 0,-0.36 -0.44,-0.32 -0.24,0.04 -0.72,0.12 -0.44,0.08 -0.96,0.2 -0.48,0.08 -0.96,0.2 -0.48,0.08 -0.84,0.2 -0.56,0.12 -0.88,0.12 -0.32,0 -0.64,-0.16 -0.32,-0.08 -0.56,-0.2 -0.24,-0.12 -0.6,-0.36 -0.32,-0.2 -0.28,-0.44 0.04,-0.24 0.36,-0.28 0.56,-0.08 0.88,-0.12 0.32,-0.04 0.88,-0.16 l 3.12,-0.68 q 0.4,-0.08 0.56,-0.12 0.2,-0.08 0.4,-0.2 0.48,-0.24 0.8,-0.24 0.32,0 0.76,0.32 0.52,0.36 1.16,0.96 0.64,0.56 0.84,0.84 z m -11.24,4.6 q -0.04,-0.8 -0.12,-1.4 -0.04,-0.6 -0.12,-1.12 -0.08,-0.52 -0.2,-1 -0.12,-0.48 -0.24,-1.04 -0.12,-0.56 0.08,-0.8 0.24,-0.24 0.92,0.32 0.64,0.48 1.16,1.12 0.52,0.64 0.84,1.04 0.32,0.44 0.44,0.84 0.12,0.36 0.04,0.96 -0.08,0.68 -0.08,1.12 0,0.4 -0.04,1.16 l 0,0.88 2.24,-0.48 q 0.52,-0.12 0.72,-0.16 0.2,-0.08 0.48,-0.2 0.44,-0.16 0.76,0.08 0.12,0.08 0.36,0.36 0.24,0.28 0.44,0.6 0.2,0.32 0.16,0.52 0,0.16 -0.36,0.24 l -3.2,0.48 q -1.12,0.16 -1.64,-0.04 -0.08,1.48 -0.2,2.84 -0.08,1.32 -0.24,2.6 0.68,-0.08 1.24,-0.16 0.6,-0.12 1.6,-0.32 0.6,-0.12 0.8,-0.16 0.24,-0.08 0.52,-0.2 0.32,-0.12 0.48,-0.04 0.16,0.04 0.32,0.16 0.08,0.08 0.32,0.4 0.24,0.28 0.44,0.6 0.44,0.68 -0.2,0.72 -0.56,0.08 -1.56,0.2 -0.96,0.08 -1.84,0.16 -0.84,0.08 -1.32,0 -0.48,-0.12 -0.92,-0.44 l -0.12,0.8 q -0.68,4.2 -2.2,7.36 -1.52,3.16 -4.44,5.64 -0.24,0.2 -0.52,0.32 -0.28,0.16 -0.48,0.08 -0.2,-0.12 -0.16,-0.36 0.08,-0.24 0.28,-0.56 2.48,-3.6 3.56,-6.68 1.08,-3.12 1.52,-6.24 0.4,-2.8 0.48,-5.36 0.08,-2.6 0,-4.84 z" />
      </g>
    </g>
  </g>
</svg>
