<?xml version="1.0" encoding="UTF-8" standalone="no"?>
<!-- Created with Inkscape (http://www.inkscape.org/) -->

<svg
   xmlns:dc="http://purl.org/dc/elements/1.1/"
   xmlns:cc="http://creativecommons.org/ns#"
   xmlns:rdf="http://www.w3.org/1999/02/22-rdf-syntax-ns#"
   xmlns:svg="http://www.w3.org/2000/svg"
   xmlns="http://www.w3.org/2000/svg"
   xmlns:sodipodi="http://sodipodi.sourceforge.net/DTD/sodipodi-0.dtd"
   xmlns:inkscape="http://www.inkscape.org/namespaces/inkscape"
   width="129.60034mm"
   height="50.099911mm"
   viewBox="0 0 459.21381 177.51937"
   id="svg2"
   version="1.1"
   inkscape:version="0.91 r13725"
   sodipodi:docname="locks.svg">
  <defs
     id="defs4" />
  <sodipodi:namedview
     id="base"
     pagecolor="#ffffff"
     bordercolor="#666666"
     borderopacity="1.0"
     inkscape:pageopacity="0.0"
     inkscape:pageshadow="2"
     inkscape:zoom="1.4"
     inkscape:cx="213.48101"
     inkscape:cy="203.84866"
     inkscape:document-units="mm"
     inkscape:current-layer="layer1"
     showgrid="false"
     inkscape:window-width="1680"
     inkscape:window-height="1001"
     inkscape:window-x="0"
     inkscape:window-y="23"
     inkscape:window-maximized="1"
     fit-margin-top="0"
     fit-margin-left="0"
     fit-margin-right="0"
     fit-margin-bottom="0" />
  <metadata
     id="metadata7">
    <rdf:RDF>
      <cc:Work
         rdf:about="">
        <dc:format>image/svg+xml</dc:format>
        <dc:type
           rdf:resource="http://purl.org/dc/dcmitype/StillImage" />
        <dc:title></dc:title>
      </cc:Work>
    </rdf:RDF>
  </metadata>
  <g
     inkscape:label="Layer 1"
     inkscape:groupmode="layer"
     id="layer1"
     transform="translate(-117.23327,-97.821579)">
    <path
       style="opacity:1;fill:none;fill-opacity:0.39215686;fill-rule:nonzero;stroke:#ff0000;stroke-width:0.35433072;stroke-miterlimit:4;stroke-dasharray:none;stroke-opacity:1"
       d="m 117.41044,190.12472 0,14.17383 17.7168,0 0,63.77929 7.08593,7.08594 19.49024,0 7.08594,-7.08789 0,-63.77734 17.71679,0 0,-14.17383 -69.0957,0 z"
       id="rect4136"
       inkscape:connector-curvature="0" />
    <path
       style="opacity:1;fill:none;fill-opacity:0.39215686;fill-rule:nonzero;stroke:#ff0000;stroke-width:0.35433072;stroke-miterlimit:4;stroke-dasharray:none;stroke-opacity:1"
       d="m 186.50614,197.20631 c -0.005,-3.92306 -4.74503,-7.08159 -10.63086,-7.08159 l 0,0"
       id="path4192"
       inkscape:connector-curvature="0" />
    <path
       style="opacity:1;fill:none;fill-opacity:0.39215686;fill-rule:nonzero;stroke:#ff0000;stroke-width:0.35433072;stroke-miterlimit:4;stroke-dasharray:none;stroke-opacity:1"
       d="m 128.0413,190.12472 c -5.88898,0 -10.63086,3.16191 -10.63086,7.08789 l 0,0"
       id="rect4154"
       inkscape:connector-curvature="0" />
    <path
       inkscape:connector-curvature="0"
       id="path4216"
       d="m 195.3632,190.12472 0,14.17383 17.7168,0 0,63.77929 7.08593,7.08594 19.49024,0 7.08594,-7.08789 0,-63.77734 17.71679,0 0,-14.17383 -69.0957,0 z"
       style="opacity:1;fill:none;fill-opacity:0.39215686;fill-rule:nonzero;stroke:#ff0000;stroke-width:0.35433072;stroke-miterlimit:4;stroke-dasharray:none;stroke-opacity:1" />
    <path
       inkscape:connector-curvature="0"
       id="path4218"
       d="m 264.4589,197.20631 c -0.005,-3.92306 -4.74503,-7.08159 -10.63086,-7.08159 l 0,0"
       style="opacity:1;fill:none;fill-opacity:0.39215686;fill-rule:nonzero;stroke:#ff0000;stroke-width:0.35433072;stroke-miterlimit:4;stroke-dasharray:none;stroke-opacity:1" />
    <path
       inkscape:connector-curvature="0"
       id="path4220"
       d="m 205.99406,190.12472 c -5.88898,0 -10.63086,3.16191 -10.63086,7.08789 l 0,0"
       style="opacity:1;fill:none;fill-opacity:0.39215686;fill-rule:nonzero;stroke:#ff0000;stroke-width:0.35433072;stroke-miterlimit:4;stroke-dasharray:none;stroke-opacity:1" />
    <path
       style="opacity:1;fill:none;fill-opacity:0.39215686;fill-rule:nonzero;stroke:#ff0000;stroke-width:0.35433072;stroke-miterlimit:4;stroke-dasharray:none;stroke-opacity:1"
       d="m 273.31596,190.12472 0,14.17383 17.7168,0 0,63.77929 7.08593,7.08594 19.49024,0 7.08594,-7.08789 0,-63.77734 17.71679,0 0,-14.17383 -69.0957,0 z"
       id="path4222"
       inkscape:connector-curvature="0" />
    <path
       style="opacity:1;fill:none;fill-opacity:0.39215686;fill-rule:nonzero;stroke:#ff0000;stroke-width:0.35433072;stroke-miterlimit:4;stroke-dasharray:none;stroke-opacity:1"
       d="m 342.41166,197.20631 c -0.005,-3.92306 -4.74503,-7.08159 -10.63086,-7.08159 l 0,0"
       id="path4224"
       inkscape:connector-curvature="0" />
    <path
       style="opacity:1;fill:none;fill-opacity:0.39215686;fill-rule:nonzero;stroke:#ff0000;stroke-width:0.35433072;stroke-miterlimit:4;stroke-dasharray:none;stroke-opacity:1"
       d="m 283.94682,190.12472 c -5.88898,0 -10.63086,3.16191 -10.63086,7.08789 l 0,0"
       id="path4226"
       inkscape:connector-curvature="0" />
    <path
       inkscape:connector-curvature="0"
       id="path4228"
       d="m 351.26872,190.12472 0,14.17383 17.7168,0 0,63.77929 7.08593,7.08594 19.49024,0 7.08594,-7.08789 0,-63.77734 17.71679,0 0,-14.17383 -69.0957,0 z"
       style="opacity:1;fill:none;fill-opacity:0.39215686;fill-rule:nonzero;stroke:#ff0000;stroke-width:0.35433072;stroke-miterlimit:4;stroke-dasharray:none;stroke-opacity:1" />
    <path
       inkscape:connector-curvature="0"
       id="path4230"
       d="m 420.36442,197.20631 c -0.005,-3.92306 -4.74503,-7.08159 -10.63086,-7.08159 l 0,0"
       style="opacity:1;fill:none;fill-opacity:0.39215686;fill-rule:nonzero;stroke:#ff0000;stroke-width:0.35433072;stroke-miterlimit:4;stroke-dasharray:none;stroke-opacity:1" />
    <path
       inkscape:connector-curvature="0"
       id="path4232"
       d="m 361.89958,190.12472 c -5.88898,0 -10.63086,3.16191 -10.63086,7.08789 l 0,0"
       style="opacity:1;fill:none;fill-opacity:0.39215686;fill-rule:nonzero;stroke:#ff0000;stroke-width:0.35433072;stroke-miterlimit:4;stroke-dasharray:none;stroke-opacity:1" />
    <path
       style="opacity:1;fill:none;fill-opacity:0.39215686;fill-rule:nonzero;stroke:#ff0000;stroke-width:0.35433072;stroke-miterlimit:4;stroke-dasharray:none;stroke-opacity:1"
       d="m 429.22148,190.12472 0,14.17383 17.7168,0 0,63.77929 7.08593,7.08594 19.49024,0 7.08594,-7.08789 0,-63.77734 17.71679,0 0,-14.17383 -69.0957,0 z"
       id="path4234"
       inkscape:connector-curvature="0" />
    <path
       style="opacity:1;fill:none;fill-opacity:0.39215686;fill-rule:nonzero;stroke:#ff0000;stroke-width:0.35433072;stroke-miterlimit:4;stroke-dasharray:none;stroke-opacity:1"
       d="m 498.31718,197.20631 c -0.005,-3.92306 -4.74503,-7.08159 -10.63086,-7.08159 l 0,0"
       id="path4236"
       inkscape:connector-curvature="0" />
    <path
       style="opacity:1;fill:none;fill-opacity:0.39215686;fill-rule:nonzero;stroke:#ff0000;stroke-width:0.35433072;stroke-miterlimit:4;stroke-dasharray:none;stroke-opacity:1"
       d="m 439.85234,190.12472 c -5.88898,0 -10.63086,3.16191 -10.63086,7.08789 l 0,0"
       id="path4238"
       inkscape:connector-curvature="0" />
    <path
       inkscape:connector-curvature="0"
       id="path4240"
       d="m 507.17424,190.12472 0,14.17383 17.7168,0 0,63.77929 7.08593,7.08594 19.49024,0 7.08594,-7.08789 0,-63.77734 17.71679,0 0,-14.17383 -69.0957,0 z"
       style="opacity:1;fill:none;fill-opacity:0.39215686;fill-rule:nonzero;stroke:#ff0000;stroke-width:0.35433072;stroke-miterlimit:4;stroke-dasharray:none;stroke-opacity:1" />
    <path
       inkscape:connector-curvature="0"
       id="path4242"
       d="m 576.26994,197.20631 c -0.005,-3.92306 -4.74503,-7.08159 -10.63086,-7.08159 l 0,0"
       style="opacity:1;fill:none;fill-opacity:0.39215686;fill-rule:nonzero;stroke:#ff0000;stroke-width:0.35433072;stroke-miterlimit:4;stroke-dasharray:none;stroke-opacity:1" />
    <path
       inkscape:connector-curvature="0"
       id="path4244"
       d="m 517.8051,190.12472 c -5.88898,0 -10.63086,3.16191 -10.63086,7.08789 l 0,0"
       style="opacity:1;fill:none;fill-opacity:0.39215686;fill-rule:nonzero;stroke:#ff0000;stroke-width:0.35433072;stroke-miterlimit:4;stroke-dasharray:none;stroke-opacity:1" />
    <path
       inkscape:connector-curvature="0"
       id="path4246"
       d="m 117.41044,97.998744 0,14.173826 17.7168,0 0,63.77929 7.08593,7.08594 19.49024,0 7.08594,-7.08789 0,-63.77734 17.71679,0 0,-14.173826 -69.0957,0 z"
       style="opacity:1;fill:none;fill-opacity:0.39215686;fill-rule:nonzero;stroke:#ff0000;stroke-width:0.35433072;stroke-miterlimit:4;stroke-dasharray:none;stroke-opacity:1" />
    <path
       inkscape:connector-curvature="0"
       id="path4248"
       d="m 186.50614,105.08033 c -0.005,-3.92306 -4.74503,-7.081586 -10.63086,-7.081586 l 0,0"
       style="opacity:1;fill:none;fill-opacity:0.39215686;fill-rule:nonzero;stroke:#ff0000;stroke-width:0.35433072;stroke-miterlimit:4;stroke-dasharray:none;stroke-opacity:1" />
    <path
       inkscape:connector-curvature="0"
       id="path4250"
       d="m 128.0413,97.998744 c -5.88898,0 -10.63086,3.161906 -10.63086,7.087886 l 0,0"
       style="opacity:1;fill:none;fill-opacity:0.39215686;fill-rule:nonzero;stroke:#ff0000;stroke-width:0.35433072;stroke-miterlimit:4;stroke-dasharray:none;stroke-opacity:1" />
    <path
       style="opacity:1;fill:none;fill-opacity:0.39215686;fill-rule:nonzero;stroke:#ff0000;stroke-width:0.35433072;stroke-miterlimit:4;stroke-dasharray:none;stroke-opacity:1"
       d="m 195.3632,97.998744 0,14.173826 17.7168,0 0,63.77929 7.08593,7.08594 19.49024,0 7.08594,-7.08789 0,-63.77734 17.71679,0 0,-14.173826 -69.0957,0 z"
       id="path4252"
       inkscape:connector-curvature="0" />
    <path
       style="opacity:1;fill:none;fill-opacity:0.39215686;fill-rule:nonzero;stroke:#ff0000;stroke-width:0.35433072;stroke-miterlimit:4;stroke-dasharray:none;stroke-opacity:1"
       d="m 264.4589,105.08033 c -0.005,-3.92306 -4.74503,-7.081586 -10.63086,-7.081586 l 0,0"
       id="path4254"
       inkscape:connector-curvature="0" />
    <path
       style="opacity:1;fill:none;fill-opacity:0.39215686;fill-rule:nonzero;stroke:#ff0000;stroke-width:0.35433072;stroke-miterlimit:4;stroke-dasharray:none;stroke-opacity:1"
       d="m 205.99406,97.998744 c -5.88898,0 -10.63086,3.161906 -10.63086,7.087886 l 0,0"
       id="path4256"
       inkscape:connector-curvature="0" />
    <path
       inkscape:connector-curvature="0"
       id="path4258"
       d="m 273.31596,97.998744 0,14.173826 17.7168,0 0,63.77929 7.08593,7.08594 19.49024,0 7.08594,-7.08789 0,-63.77734 17.71679,0 0,-14.173826 -69.0957,0 z"
       style="opacity:1;fill:none;fill-opacity:0.39215686;fill-rule:nonzero;stroke:#ff0000;stroke-width:0.35433072;stroke-miterlimit:4;stroke-dasharray:none;stroke-opacity:1" />
    <path
       inkscape:connector-curvature="0"
       id="path4260"
       d="m 342.41166,105.08033 c -0.005,-3.92306 -4.74503,-7.081586 -10.63086,-7.081586 l 0,0"
       style="opacity:1;fill:none;fill-opacity:0.39215686;fill-rule:nonzero;stroke:#ff0000;stroke-width:0.35433072;stroke-miterlimit:4;stroke-dasharray:none;stroke-opacity:1" />
    <path
       inkscape:connector-curvature="0"
       id="path4262"
       d="m 283.94682,97.998744 c -5.88898,0 -10.63086,3.161906 -10.63086,7.087886 l 0,0"
       style="opacity:1;fill:none;fill-opacity:0.39215686;fill-rule:nonzero;stroke:#ff0000;stroke-width:0.35433072;stroke-miterlimit:4;stroke-dasharray:none;stroke-opacity:1" />
    <path
       style="opacity:1;fill:none;fill-opacity:0.39215686;fill-rule:nonzero;stroke:#ff0000;stroke-width:0.35433072;stroke-miterlimit:4;stroke-dasharray:none;stroke-opacity:1"
       d="m 351.26872,97.998744 0,14.173826 17.7168,0 0,63.77929 7.08593,7.08594 19.49024,0 7.08594,-7.08789 0,-63.77734 17.71679,0 0,-14.173826 -69.0957,0 z"
       id="path4264"
       inkscape:connector-curvature="0" />
    <path
       style="opacity:1;fill:none;fill-opacity:0.39215686;fill-rule:nonzero;stroke:#ff0000;stroke-width:0.35433072;stroke-miterlimit:4;stroke-dasharray:none;stroke-opacity:1"
       d="m 420.36442,105.08033 c -0.005,-3.92306 -4.74503,-7.081586 -10.63086,-7.081586 l 0,0"
       id="path4266"
       inkscape:connector-curvature="0" />
    <path
       style="opacity:1;fill:none;fill-opacity:0.39215686;fill-rule:nonzero;stroke:#ff0000;stroke-width:0.35433072;stroke-miterlimit:4;stroke-dasharray:none;stroke-opacity:1"
       d="m 361.89958,97.998744 c -5.88898,0 -10.63086,3.161906 -10.63086,7.087886 l 0,0"
       id="path4268"
       inkscape:connector-curvature="0" />
    <path
       inkscape:connector-curvature="0"
       id="path4270"
       d="m 429.22148,97.998744 0,14.173826 17.7168,0 0,63.77929 7.08593,7.08594 19.49024,0 7.08594,-7.08789 0,-63.77734 17.71679,0 0,-14.173826 -69.0957,0 z"
       style="opacity:1;fill:none;fill-opacity:0.39215686;fill-rule:nonzero;stroke:#ff0000;stroke-width:0.35433072;stroke-miterlimit:4;stroke-dasharray:none;stroke-opacity:1" />
    <path
       inkscape:connector-curvature="0"
       id="path4272"
       d="m 498.31718,105.08033 c -0.005,-3.92306 -4.74503,-7.081586 -10.63086,-7.081586 l 0,0"
       style="opacity:1;fill:none;fill-opacity:0.39215686;fill-rule:nonzero;stroke:#ff0000;stroke-width:0.35433072;stroke-miterlimit:4;stroke-dasharray:none;stroke-opacity:1" />
    <path
       inkscape:connector-curvature="0"
       id="path4274"
       d="m 439.85234,97.998744 c -5.88898,0 -10.63086,3.161906 -10.63086,7.087886 l 0,0"
       style="opacity:1;fill:none;fill-opacity:0.39215686;fill-rule:nonzero;stroke:#ff0000;stroke-width:0.35433072;stroke-miterlimit:4;stroke-dasharray:none;stroke-opacity:1" />
    <path
       style="opacity:1;fill:none;fill-opacity:0.39215686;fill-rule:nonzero;stroke:#ff0000;stroke-width:0.35433072;stroke-miterlimit:4;stroke-dasharray:none;stroke-opacity:1"
       d="m 507.17424,97.998744 0,14.173826 17.7168,0 0,63.77929 7.08593,7.08594 19.49024,0 7.08594,-7.08789 0,-63.77734 17.71679,0 0,-14.173826 -69.0957,0 z"
       id="path4276"
       inkscape:connector-curvature="0" />
    <path
       style="opacity:1;fill:none;fill-opacity:0.39215686;fill-rule:nonzero;stroke:#ff0000;stroke-width:0.35433072;stroke-miterlimit:4;stroke-dasharray:none;stroke-opacity:1"
       d="m 576.26994,105.08033 c -0.005,-3.92306 -4.74503,-7.081586 -10.63086,-7.081586 l 0,0"
       id="path4278"
       inkscape:connector-curvature="0" />
    <path
       style="opacity:1;fill:none;fill-opacity:0.39215686;fill-rule:nonzero;stroke:#ff0000;stroke-width:0.35433072;stroke-miterlimit:4;stroke-dasharray:none;stroke-opacity:1"
       d="m 517.8051,97.998744 c -5.88898,0 -10.63086,3.161906 -10.63086,7.087886 l 0,0"
       id="path4280"
       inkscape:connector-curvature="0" />
  </g>
</svg>
