<?xml version="1.0" encoding="UTF-8" standalone="no"?>
<!-- Created with Inkscape (http://www.inkscape.org/) -->

<svg
   xmlns:dc="http://purl.org/dc/elements/1.1/"
   xmlns:cc="http://creativecommons.org/ns#"
   xmlns:rdf="http://www.w3.org/1999/02/22-rdf-syntax-ns#"
   xmlns:svg="http://www.w3.org/2000/svg"
   xmlns="http://www.w3.org/2000/svg"
   xmlns:sodipodi="http://sodipodi.sourceforge.net/DTD/sodipodi-0.dtd"
   xmlns:inkscape="http://www.inkscape.org/namespaces/inkscape"
   width="80.100006mm"
   height="35.099998mm"
   viewBox="0 0 283.81891 124.37007"
   id="svg2"
   version="1.1"
   inkscape:version="0.91 r13725"
   sodipodi:docname="mx.svg">
  <defs
     id="defs4" />
  <sodipodi:namedview
     id="base"
     pagecolor="#ffffff"
     bordercolor="#666666"
     borderopacity="1.0"
     inkscape:pageopacity="0.0"
     inkscape:pageshadow="2"
     inkscape:zoom="1.979899"
     inkscape:cx="110.6717"
     inkscape:cy="65.693089"
     inkscape:document-units="mm"
     inkscape:current-layer="layer1"
     showgrid="false"
     inkscape:window-width="1680"
     inkscape:window-height="1001"
     inkscape:window-x="0"
     inkscape:window-y="23"
     inkscape:window-maximized="1"
     fit-margin-top="0"
     fit-margin-left="0"
     fit-margin-right="0"
     fit-margin-bottom="0" />
  <metadata
     id="metadata7">
    <rdf:RDF>
      <cc:Work
         rdf:about="">
        <dc:format>image/svg+xml</dc:format>
        <dc:type
           rdf:resource="http://purl.org/dc/dcmitype/StillImage" />
        <dc:title></dc:title>
      </cc:Work>
    </rdf:RDF>
  </metadata>
  <g
     inkscape:label="Layer 1"
     inkscape:groupmode="layer"
     id="layer1"
     transform="translate(-134.16162,-170.93682)">
    <g
       id="g4168">
      <g
         id="g4148">
        <circle
           style="opacity:1;fill:none;fill-opacity:0.39215686;fill-rule:nonzero;stroke:#ff0000;stroke-width:0.35283187;stroke-miterlimit:4;stroke-dasharray:none;stroke-opacity:1"
           id="path4138"
           cx="153.82698"
           cy="233.12186"
           r="8.8590174" />
        <ellipse
           style="opacity:1;fill:none;fill-opacity:0.39215686;fill-rule:nonzero;stroke:#ff0000;stroke-width:0.4093613;stroke-miterlimit:4;stroke-dasharray:none;stroke-opacity:1"
           id="path4159"
           cx="276.07108"
           cy="233.12186"
           rx="141.70477"
           ry="61.980358" />
      </g>
      <g
         id="text4198"
         style="font-style:normal;font-variant:normal;font-weight:normal;font-stretch:normal;font-size:40px;line-height:125%;font-family:FZQiTi-S14T;-inkscape-font-specification:FZQiTi-S14T;letter-spacing:0px;word-spacing:0px;fill:none;fill-opacity:1;stroke:#ff0000;stroke-width:0.35433072;stroke-linecap:butt;stroke-linejoin:miter;stroke-miterlimit:4;stroke-dasharray:none;stroke-opacity:1">
        <path
           id="path4153"
           style="font-style:normal;font-variant:normal;font-weight:normal;font-stretch:normal;font-size:35px;font-family:FZQiTi-S14T;-inkscape-font-specification:FZQiTi-S14T;fill:none;stroke:#ff0000;stroke-width:0.35433072;stroke-miterlimit:4;stroke-dasharray:none;stroke-opacity:1"
           d="m 196.46951,244.60623 q -1.09375,-1.64062 -2.73437,-2.73437 -5.46875,-3.96485 -13.67188,-6.97266 -3.00781,5.74219 -6.15234,8.75 -0.95703,1.23047 -2.46094,0.95703 -1.5039,-0.54687 -1.64062,-1.91406 0,-0.27344 0,-0.54688 0,0 0.13672,-0.13671 0,-0.13672 0.13671,-0.13672 0.13672,-0.6836 0.27344,-0.6836 0,0 0.13672,0.13672 0.13672,0.54688 0.68359,0.54688 0.54688,-0.13672 0.95704,-0.27344 3.55468,-2.1875 6.01562,-7.10938 -0.54687,-0.41015 -0.54687,-0.68359 0,-0.13672 0.27343,-0.13672 -0.27343,0 0.13672,-0.13672 0.13672,-0.13672 0.41016,-0.13672 0.27344,-0.13671 0.41015,-0.13671 2.1875,-4.92188 3.55469,-10.52735 0,-0.27344 -0.13672,-0.41015 -0.13672,-0.27344 -0.41015,-0.6836 -0.27344,-0.27344 -0.41016,-0.54687 l 0,-0.27344 q -0.13672,-0.13672 0,-0.27344 0.13672,0 0.54688,-0.13672 0.27343,0 0.41015,0 1.23047,0.13672 1.91406,1.36719 0,0.68359 -0.27343,1.23047 -1.09375,4.51172 -3.41797,10.66406 9.98047,3.55469 15.17578,7.10938 2.32422,1.5039 2.32422,3.28125 0,1.23047 -0.54688,1.36718 -0.54687,0 -1.09375,-0.82031 z"
           inkscape:connector-curvature="0" />
        <path
           id="path4155"
           style="font-style:normal;font-variant:normal;font-weight:normal;font-stretch:normal;font-size:35px;font-family:FZQiTi-S14T;-inkscape-font-specification:FZQiTi-S14T;fill:none;stroke:#ff0000;stroke-width:0.35433072;stroke-miterlimit:4;stroke-dasharray:none;stroke-opacity:1"
           d="m 213.28592,248.70779 q -0.27344,-0.54687 -0.27344,-1.09375 0.13672,-0.68359 1.23047,-1.23046 l 0.27344,0 q 1.64062,-1.09375 2.87109,-3.00782 -0.27344,-0.54687 -1.23047,-1.23047 -0.68359,-0.41015 -0.95703,-0.68359 -0.27344,-0.13672 -1.09375,-0.54687 -2.32422,-0.95704 -2.59765,-2.1875 0.13671,-0.27344 0.27343,-0.6836 1.77735,-1.23047 6.97266,-2.32422 0.27344,-3.14453 0.27344,-6.28906 -2.46094,0 -5.74219,0.82031 -1.77734,1.91407 -3.41797,2.46094 -1.77734,-0.27344 -1.91406,-2.1875 l 0.27344,0 q 0,0.13672 0.13671,0.13672 1.77735,-0.54688 3.14454,-4.10156 0.54687,-1.50391 0.41015,-2.59766 0,-0.13672 0.13672,-0.27344 0,-0.13672 0,-0.13672 0,-0.13671 0,-0.27343 0,-0.27344 0.68359,-0.27344 0.41016,0 0.6836,0.41016 0.27344,0.13671 0.41015,0.27343 0.27344,0.13672 0.41016,0.13672 0.54688,0.27344 0.68359,2.05078 0,0.41016 -0.54687,1.77735 -0.13672,0.68359 -0.27344,0.95703 2.32422,-0.41016 5.0586,-0.6836 0.41015,-6.01562 0.27343,-8.88671 -0.41015,-0.82032 -0.41015,-1.23047 0.13672,-0.41016 0.68359,-0.54688 1.09375,0.6836 1.77734,1.36719 0.13672,0.95703 -0.13671,4.10156 -0.27344,3.00781 -0.27344,4.92188 3.28125,-0.54688 4.64844,-0.54688 0.82031,0.13672 1.09375,0.6836 0.13671,0.41015 -0.41016,0.82031 -0.54688,-0.13672 -0.95703,0.13672 -2.05078,-0.13672 -4.51172,0.27343 -0.41016,3.41797 -0.41016,6.5625 0.95703,0.13672 1.77735,0.54688 1.23047,0.27344 1.09375,1.36719 0,0.27343 0,0.68359 -0.6836,0.68359 -1.77735,2.32422 -2.59765,3.69141 -5.60547,6.28906 0.54688,0 1.77735,-0.13672 4.10156,-0.54687 6.28906,-0.41015 1.64063,0.27343 1.77734,0.82031 0,1.77734 -1.64062,1.23047 -3.55469,-0.41016 -7.10938,0.27344 -1.91406,0.27343 -2.46093,0.27343 l -0.41016,0 q 0,0 -0.27344,0 -0.68359,-0.27343 -0.68359,-0.13672 z m 0,-9.02343 q 0.41016,0.13672 1.23047,0.68359 1.91406,1.09375 3.14453,1.09375 0.54687,0 0.68359,-1.23047 0.27344,-1.23047 0.27344,-2.73437 -2.46094,0.41015 -4.92187,1.64062 -0.13672,0 -0.13672,0.13672 -0.13672,0 -0.27344,0 l 0,0.41016 z m 6.97266,-0.54688 q 0.82031,-0.82031 1.09375,-1.64062 0,-0.13672 -0.13672,-0.27344 -0.27344,0 -0.6836,0 0,0.41016 -0.13672,0.95703 0,0.68359 -0.13671,0.95703 z"
           inkscape:connector-curvature="0" />
        <path
           id="path4157"
           style="font-style:normal;font-variant:normal;font-weight:normal;font-stretch:normal;font-size:35px;font-family:FZQiTi-S14T;-inkscape-font-specification:FZQiTi-S14T;fill:none;stroke:#ff0000;stroke-width:0.35433072;stroke-miterlimit:4;stroke-dasharray:none;stroke-opacity:1"
           d="m 265.37576,234.21561 q -0.54687,0.13672 -2.1875,-0.13672 -1.09375,-0.13672 -1.64062,-0.13672 -3.82813,-0.41016 -7.38281,0 -0.27344,0.68359 -0.6836,1.09375 -1.36719,1.50391 -2.59765,3.14453 0,0.27344 0.13671,0.54688 0.27344,-0.13672 0.82032,-0.41016 0.27343,-0.27344 0.41015,-0.27344 1.09375,-0.13672 3.14453,-0.54687 2.59766,-0.41016 3.82813,-0.54688 1.91406,0.13672 2.1875,1.64063 -0.27344,1.5039 -1.77734,4.375 -0.41016,0.95703 -0.6836,1.36718 0.82031,0.95704 -0.54687,1.50391 -0.6836,0 -1.91407,0.13672 -2.46093,0.13672 -3.6914,0.27344 -0.27344,0.68359 -1.36719,0.82031 -0.54687,-0.27344 -1.23047,-1.36719 -0.13672,-0.41015 -0.27344,-0.54687 -0.68359,-1.50391 -0.95703,-4.10157 0,-0.27343 0,-0.54687 -1.77734,2.1875 -3.96484,4.10156 -0.13672,0.13672 -0.68359,0.13672 -0.41016,0 -0.6836,0.13672 -0.41015,0.27344 -0.82031,0.13672 -0.27344,-0.13672 -0.54688,0 -1.23046,0.54687 -0.95703,0 0.13672,-0.13672 0.6836,-0.54688 0.68359,-0.54687 0.95703,-0.82031 5.46875,-4.78516 7.65625,-9.02344 -0.6836,0.13672 -2.05078,0.41016 -1.64063,0.41016 -2.59766,0.54687 -0.27344,0.13672 -0.95703,0.27344 -2.05078,0.6836 -3.28125,0.82031 -1.91406,-0.13671 -2.87109,-1.09375 0.13671,-0.68359 3.6914,-0.95703 0.27344,0 0.41016,0 4.10156,-0.68359 8.20312,-1.5039 0.13672,-0.27344 0,-0.82032 0,-0.54687 0,-0.82031 0.13672,-0.68359 1.36719,-0.41015 1.50391,-2.05079 2.73438,-4.78516 -1.77735,0.13672 -3.69141,0.54687 0,0.27344 0.13672,0.6836 0.27344,0.95703 0.27344,1.5039 0.13671,0.95704 -0.95704,1.23047 0,0 -0.27343,-0.13672 -0.27344,-0.27343 -0.41016,-0.27343 -0.13672,0 -0.27344,0.13672 -0.41015,0 -0.68359,-0.6836 0,0 -0.13672,-0.27344 -0.41016,-0.68359 -0.54687,-1.5039 -0.6836,0.13672 -1.09375,0.41015 -0.27344,0 -0.6836,0.13672 -0.41015,0.13672 -0.68359,0.13672 -0.13672,-0.27344 -0.27344,-0.27344 0,0 -0.13672,0 -0.95703,-0.27343 -0.95703,-0.82031 0,-0.68359 1.64063,-0.95703 0.27343,0 0.82031,-0.13672 0.68359,0 0.95703,-0.13672 -0.13672,-0.82031 -0.54688,-1.5039 -0.13671,-1.09375 -0.13671,-1.91407 0.13671,-1.09375 0.54687,-1.09375 l 1.77734,1.23047 q 0.95704,0.41016 1.23047,2.32422 0,0.13672 0.13672,0.41016 2.32422,-0.41016 4.51172,-0.6836 0.95703,-2.59765 1.36719,-5.05859 0,-0.13672 0,-0.41016 -0.13672,-0.13671 -0.13672,-0.27343 0.13672,-0.54688 0.95703,-0.6836 1.23047,-0.27343 1.50391,1.91407 0,0.27343 -0.27344,0.68359 -0.27344,0.41016 -0.27344,0.54687 -0.41015,1.64063 -0.95703,3.00782 0.41016,0 1.09375,-0.13672 0.68359,0 0.95703,0 1.50391,-0.27344 1.77735,0.82031 0.13671,0.41016 -0.27344,0.54688 -0.13672,0 -0.27344,0.13671 -0.95703,0.54688 -1.91406,0.54688 -0.95703,0 -2.1875,0 -1.23047,2.73437 -3.41797,5.19531 0.68359,0.54688 0.68359,1.23047 3.82813,-0.68359 7.51953,-0.95703 2.32422,0.13672 3.69141,1.36719 0.41016,0.54687 -0.27344,1.09375 z m -12.03125,5.05859 q -0.27343,0 -0.82031,0.13672 -0.95703,0 -1.23047,0.13672 0.13672,0.54687 0.41016,1.5039 0.68359,2.32422 0.82031,3.55469 0.54688,-0.13672 1.64063,-0.27344 1.23046,-0.13671 1.64062,-0.27343 0.13672,-0.13672 0.27344,-0.54688 1.91406,-2.87109 1.91406,-4.51172 -1.50391,-0.27343 -4.23828,0.27344 0.13672,-0.13672 -0.41016,0 z"
           inkscape:connector-curvature="0" />
        <path
           id="path4160"
           style="font-style:normal;font-variant:normal;font-weight:normal;font-stretch:normal;font-size:35px;font-family:FZQiTi-S14T;-inkscape-font-specification:FZQiTi-S14T;fill:none;stroke:#ff0000;stroke-width:0.35433072;stroke-miterlimit:4;stroke-dasharray:none;stroke-opacity:1"
           d="m 294.49686,231.48123 q -1.09375,0.27344 -3.14453,1.09375 -1.36719,0.41016 -2.05079,0.6836 -0.13671,1.23046 -0.27343,3.6914 -0.27344,2.73438 -0.41016,3.96485 0.13672,0 0.13672,0.13671 3.28125,-3.00781 5.87891,-6.28906 0.68359,-0.95703 0.27343,0.27344 -1.36718,3.41797 -4.375,6.97266 -0.13672,0.27343 -0.54687,0.68359 -0.27344,0.27344 -1.23047,1.50391 -0.54688,0.82031 -1.09375,0.82031 -0.82031,-0.13672 -1.09375,-1.91406 0,-0.41016 0.27344,-1.23047 0.27343,-0.41016 0.27343,-0.54688 0.82032,-7.10937 0.82032,-14.6289 0,-0.27344 -0.13672,-0.82032 -0.13672,-0.41015 -0.13672,-0.68359 -0.13672,-0.41016 0.54687,-0.41016 0.41016,0.13672 0.54688,0.13672 0.41016,0.54688 0.54687,1.36719 0.54688,-0.41016 2.1875,-1.64063 0.13672,-0.13671 0.27344,-0.27343 0,-0.13672 0,-0.27344 0,-0.82031 0.13672,-1.09375 0.41016,-0.41016 0.82031,-0.41016 0.27344,0 0.6836,0.41016 0.82031,-0.27344 1.64062,-1.09375 0.13672,0 0.27344,-0.41016 0.13672,-0.54687 0.41016,-0.41015 1.09375,0.27343 1.36718,1.23047 -0.13672,1.5039 -1.23047,2.05078 -0.68359,0 -2.05078,0.54687 0.54688,2.05078 1.36719,4.78516 0.41016,-0.13672 1.09375,-0.41016 0.41016,-0.13672 1.50391,-0.68359 0,-0.13672 0,-0.27344 0.13672,-0.41016 0.68359,-0.41016 0.27344,-0.13671 0.41016,-0.13671 1.23047,0.13671 1.5039,0.95703 0.27344,0.41015 -0.27343,0.95703 -0.27344,0.41015 -1.09375,0.54687 -0.13672,0 -0.41016,-0.13672 -0.27344,0 -0.41016,0 -1.23047,0.27344 -2.59765,0.6836 2.05078,7.92969 5.19531,13.39844 0.41016,1.09375 0.82031,1.23046 0.54688,0 0.54688,-2.1875 0,-0.82031 0.13672,-2.05078 0.13671,-1.09375 0.13671,-1.77734 0,-1.09375 0.27344,-1.36719 0,0.41016 0.13672,1.36719 0,0.95703 0,1.36719 0.41016,-0.41016 0.41016,-0.13672 0,0.54687 0.13672,1.64062 0.27343,2.1875 0.27343,3.14453 -0.27343,1.23047 -0.68359,2.1875 -0.27344,0.13672 -0.95703,0.27344 -1.09375,-0.27344 -1.77735,-1.77734 -3.41796,-5.87891 -5.74218,-14.62891 z m -5.0586,-4.375 q 0,1.77735 -0.13672,4.64844 1.23047,-0.27344 3.96485,-1.23047 0.54687,-0.13672 0.82031,-0.27344 -0.68359,-2.46093 -1.50391,-4.64843 -1.5039,0.54687 -3.14453,1.5039 z m -9.98047,20.3711 q 0.13672,-0.82032 0.27344,-2.46094 0.27344,-1.64063 0.27344,-2.46094 0,-3.00781 0.41016,-8.33984 -0.6836,1.23047 -1.91407,2.46093 -0.95703,1.23047 -2.59765,2.73438 -1.36719,1.64062 -2.59766,0.95703 -0.27344,0 -0.27344,-0.27344 0,-0.54687 0.95703,-1.09375 0.27344,-0.27343 0.41016,-0.41015 3.14453,-3.14453 5.60547,-6.5625 1.50391,-2.46094 2.05078,-4.10157 -2.05078,1.09375 -4.64844,2.32422 -2.46093,1.09375 -3.82812,0.27344 -1.09375,-0.41016 -1.09375,-1.64062 0.13672,-0.82032 1.09375,-0.95704 0,0.54688 0.27344,0.54688 0.95703,0 3.00781,-0.68359 0.95703,-0.41016 1.5039,-0.54688 0.54688,-0.13672 1.77735,-0.41016 1.09375,-0.27343 1.64062,-0.41015 2.32422,-0.82031 2.59766,0.27344 0,0.41015 -0.41016,1.64062 -0.13672,0.41016 -0.13672,0.54688 -0.27343,0.41015 -0.95703,1.77734 1.50391,-1.36719 2.32422,-0.95703 1.09375,0 1.09375,0.82031 -1.64062,1.64063 -3.96484,1.09375 -0.13672,0.54688 -0.54688,0.95703 0.13672,0.27344 0.13672,1.50391 0.82031,0 1.64063,0.41015 0.41015,0.13672 0.95703,0.95704 0.13672,0.13671 0.27344,0.27343 0.54687,0.6836 0.13671,1.09375 -0.68359,0.13672 -1.09375,0 -0.13671,-0.13672 -0.68359,-0.68359 -0.95703,-1.09375 -1.23047,-1.09375 0.27344,4.64844 -0.13672,8.33984 0,3.14453 -0.27343,5.19532 -0.13672,0.27343 -0.82032,0.27343 -1.09375,-0.13672 -1.23047,-1.36718 z m 2.8711,-25.70313 q 0,-0.13672 0.41015,-0.27344 0.13672,-0.13672 0.13672,-0.13672 0,-0.54687 -0.82031,-1.36718 -0.27344,-0.27344 -0.54687,-0.95703 -0.27344,-0.6836 -0.54688,-0.95704 0,-0.27343 1.64063,-0.68359 3.82812,0.41016 3.96484,3.82813 -0.41016,1.36718 -1.36719,1.5039 -0.82031,0 -1.09375,-0.41015 -0.13672,0 -0.54687,0 -1.23047,-0.13672 -1.23047,-0.54688 z"
           inkscape:connector-curvature="0" />
        <path
           id="path4162"
           style="font-style:normal;font-variant:normal;font-weight:normal;font-stretch:normal;font-size:35px;font-family:FZQiTi-S14T;-inkscape-font-specification:FZQiTi-S14T;fill:none;stroke:#ff0000;stroke-width:0.35433072;stroke-miterlimit:4;stroke-dasharray:none;stroke-opacity:1"
           d="m 323.07108,231.48123 0.27343,0 -0.82031,0.27344 q -0.41016,2.46094 -1.23047,4.51172 0,0.13672 -0.13672,0.41015 -0.13672,0.82032 -0.41015,1.09375 3.14453,2.32422 4.375,5.33204 0,0.95703 -1.09375,1.23046 -0.6836,0 -1.23047,-1.5039 -0.27344,-0.6836 -0.41016,-0.82031 -0.95703,-1.36719 -2.46094,-2.59766 -2.1875,3.82812 -6.01562,3.96484 -0.54688,0.13672 -1.50391,-0.13672 -0.54687,-0.13671 -0.95703,-0.13671 0,-0.13672 0.13672,-0.27344 0.13672,-0.27344 0.13672,-0.27344 0.54687,0.13672 1.36719,-0.13672 0.27343,-0.13672 0.41015,-0.13672 3.28125,-1.09375 4.92188,-3.82812 -1.23047,-0.82031 -2.73438,-1.36719 -0.13672,0 -0.41015,-0.13672 -0.82032,0 -0.95703,-0.54687 0,-0.41016 0.82031,-1.64063 0.54687,-0.54687 0.82031,-1.36719 -2.59766,0.82032 -5.33203,1.36719 -0.27344,0 -0.68359,0.41016 -0.6836,0.41015 -1.09375,0.41015 -1.64063,0 -2.32422,-1.23046 0,-0.27344 0,-0.41016 0.41015,-0.13672 1.36718,-0.27344 0.54688,-0.13672 0.6836,-0.13672 1.36719,-0.27343 4.10156,-0.82031 2.59766,-0.41016 3.96484,-0.68359 0.6836,-1.77735 1.64063,-4.78516 0.68359,-1.91406 1.09375,-3.14453 0.41016,-1.23047 0.41016,-1.91406 0,-0.6836 -0.27344,-1.36719 l 0.13672,0 q 0.13672,0 0.27343,0.27344 0.13672,0.27343 0.27344,0.27343 l 0.13672,0 q 0.13672,-0.13671 0.13672,-0.13671 1.36719,1.5039 0.68359,3.14453 -1.36718,3.6914 -3.00781,7.38281 0.54688,-0.13672 1.36719,-0.27344 0.95703,-0.13672 1.36719,-0.13672 0.27343,-0.82031 0.27343,-1.91406 0,-0.27344 -0.13672,-0.54687 -0.13671,-0.13672 -0.13671,-0.27344 l 0,-0.13672 q 0.13671,-0.41016 1.09375,-0.54688 0.68359,0.13672 0.82031,1.09375 0,0.41016 -0.13672,1.23047 0,0.6836 0,0.95703 0.13672,0 0.27344,-0.13671 0.27343,0 0.27343,0 0.13672,0 0.13672,0.13671 l -0.41015,0 q 0,0 0,0.13672 l 0.13672,0.13672 z m 2.1875,-0.27344 q 0,-0.13671 0.27343,-0.13671 0.27344,0 0.95703,0.27343 0.54688,0.41016 0.95704,0.82032 1.23046,-0.41016 2.32421,-0.6836 2.73438,-0.82031 5.0586,-0.82031 0.95703,0.27344 1.91406,1.09375 0.54688,0.54687 0.27344,1.23047 -1.23047,2.87109 -2.46094,5.33203 0,0.41016 0,0.41016 0,0.95703 -1.64062,1.09375 -0.82032,-0.13672 -2.46094,-0.13672 -0.6836,0 -0.95703,0 0,0.13672 -0.13672,0.27343 -0.13672,0.41016 -0.6836,0.27344 -0.95703,-0.13672 -1.36718,-2.05078 -0.13672,-0.41016 -0.13672,-0.54687 -0.27344,-0.95704 -0.6836,-2.73438 -0.54687,-1.91406 -0.82031,-2.73437 -0.41015,-0.82032 -0.41015,-0.95704 z m 8.0664,0.82032 q -1.5039,0 -4.375,0.54687 -0.68359,0.13672 -1.09375,0.27344 0.41016,0.82031 0.82031,2.59766 0.41016,1.91406 0.82032,2.73437 1.23047,0 2.46093,-0.13672 1.09375,-2.46094 1.64063,-5.33203 0.27344,-0.82031 -0.27344,-0.68359 z m -16.95312,3.55468 q 1.36718,0.41016 3.00781,1.23047 0.27344,-0.68359 0.41016,-1.23047 0.54687,-1.64062 0.95703,-3.41796 -1.50391,0.54687 -3.14453,0.95703 -0.54688,1.23047 -1.23047,2.46093 z"
           inkscape:connector-curvature="0" />
        <path
           id="path4164"
           style="font-style:normal;font-variant:normal;font-weight:normal;font-stretch:normal;font-size:35px;font-family:FZQiTi-S14T;-inkscape-font-specification:FZQiTi-S14T;fill:none;stroke:#ff0000;stroke-width:0.35433072;stroke-miterlimit:4;stroke-dasharray:none;stroke-opacity:1"
           d="m 368.05154,243.6492 q -0.82031,1.36719 -2.73437,1.36719 -1.77734,-0.13672 -4.10156,-3.14453 -0.41016,-0.6836 -0.6836,-0.95703 -1.77734,2.59765 -4.10156,3.82812 l -0.13672,0 q -0.13672,0 -0.27344,0 -0.13671,0.13672 -0.27343,0.13672 0,0 -0.13672,0 -0.27344,-0.13672 -0.41016,-0.13672 0.13672,0 -0.27344,0.13672 0,0 -0.13671,-0.13672 0.27343,-0.27344 0.68359,-0.54687 0.54687,-0.41016 0.68359,-0.54688 5.46875,-7.10937 7.92969,-13.80859 -0.13672,0 -0.82031,0 -0.54688,0.13672 -0.82031,0.13672 -2.1875,-0.41016 -2.32422,-0.95704 0.41015,-0.27343 1.5039,-0.41015 0.6836,0 1.09375,-0.13672 0.95703,0 3.00782,-0.41016 2.1875,-0.27343 3.28125,-0.41015 3.6914,0.27343 3.55468,2.59765 -1.36718,6.83594 -4.51172,13.39844 z m -11.07421,-15.58594 q 0,0.6836 -1.36719,2.1875 -0.27344,0.41016 -0.95703,1.09375 -0.82032,1.09375 -1.23047,1.64063 0,0.13672 0.13672,0.27344 0.54687,0.68359 0.41015,1.5039 0,0.13672 0.41016,0 0.13672,-0.13672 0.54687,-0.54687 1.91407,-2.05078 2.46094,-3.41797 0.27344,-0.41016 0.27344,-0.6836 0.13672,-0.27343 0.95703,-0.27343 0.68359,0 0.68359,0.54687 0,0.13672 -0.13671,0.27344 -0.13672,0.27344 -0.13672,0.41016 -0.54688,0.95703 -2.1875,2.59765 -1.09375,0.95703 -1.36719,1.36719 2.32422,0.82031 3.55469,2.32422 0.41015,0.95703 -0.82032,1.23047 -0.41015,0 -0.82031,-0.6836 -0.27344,-0.27343 -0.41015,-0.41015 -0.13672,-0.13672 -0.54688,-0.41016 -1.50391,-1.36719 -2.59766,-1.36719 0,1.50391 -0.13671,4.64844 -0.13672,4.78516 0,6.83594 0.27343,1.77734 -1.50391,1.77734 -1.09375,-0.27344 -0.82031,-2.1875 0.13672,-1.36719 0.41015,-4.375 0.54688,-5.19531 0.54688,-7.92969 -3.55469,4.51172 -6.28906,6.97266 -1.50391,1.36719 -2.73438,0.95703 -0.68359,0 -0.41016,-1.36719 0.13672,-0.27343 1.91407,-1.77734 0.27343,-0.27344 0.27343,-0.27344 5.60547,-5.05859 7.79297,-9.16015 -0.54687,0.13672 -1.91406,0.68359 -1.64062,0.68359 -2.46094,0.95703 -3.6914,1.50391 -5.19531,0 -1.09375,-1.09375 0.41016,-1.77734 0.27343,0 0.54687,0.13672 0.27344,0.13672 0.41016,0.13672 1.09375,-0.27344 3.41797,-0.95704 4.10156,-1.23046 6.15234,-1.91406 0.13672,0 0.41016,-0.13672 0.41015,-0.27343 0.82031,-0.27343 1.36719,0.13671 1.50391,1.36718 z m 5.46875,12.98828 q 0.27343,0.13672 0.54687,0.41016 0.27344,0.41016 0.68359,0.54688 2.46094,0.68359 3.14454,-1.50391 2.1875,-5.05859 2.87109,-9.29688 0.68359,-2.87109 -1.23047,-2.59765 -1.91406,0.13672 -3.28125,0.82031 1.09375,0.82031 0.27344,2.05078 -0.13672,0.27344 -0.13672,0.41016 -0.27344,0.68359 -1.09375,2.05078 -2.05078,4.375 -3.14453,6.28906 0,0 0.27344,0.27344 0.54687,0.54687 0.95703,0.82031 0.13672,-0.41015 0.13672,-0.27344 z M 351.64529,223.9617 q 0,-0.41016 0.82032,-0.95703 0.41015,-0.27344 0.41015,-0.41016 -1.23047,-1.09375 -2.46093,-3.55468 0,-0.13672 0,-0.13672 0.13671,0 0.54687,-0.13672 0.41016,0 0.41016,0 0.54687,-0.13672 1.64062,0.13672 0.82031,0.27343 1.36719,0.27343 4.10156,0.95704 4.23828,3.28125 -0.68359,1.50391 -4.10156,1.50391 -0.13672,0 -0.27344,-0.13672 -0.41016,-0.13672 -1.23047,-0.13672 -0.13672,0 -0.54687,0.13672 -0.27344,0.27344 -0.54688,0.27344 -0.27344,0 -0.27344,-0.13672 z m 9.84375,17.22656 q 0,0.27344 0.27344,0.54688 l 0,-0.13672 q -0.13672,-0.41016 -0.27344,-0.41016 z m 0.41016,-0.54687 q 0.27344,0 0.27344,0.41015 -0.27344,0 -0.27344,-0.41015 z m -0.68359,0.27344 q 0,0 0.13672,0.13671 0,-0.13671 -0.13672,-0.13671 z m 0.82031,0.82031 q -0.13672,0 0,0.13672 0,0 0,-0.13672 z m 0,0.13672 0,0.13672 0.13672,0 -0.13672,-0.13672 z"
           inkscape:connector-curvature="0" />
        <path
           id="path4166"
           style="font-style:normal;font-variant:normal;font-weight:normal;font-stretch:normal;font-size:35px;font-family:FZQiTi-S14T;-inkscape-font-specification:FZQiTi-S14T;fill:none;stroke:#ff0000;stroke-width:0.35433072;stroke-miterlimit:4;stroke-dasharray:none;stroke-opacity:1"
           d="m 390.3367,243.6492 0,-0.27344 q 0,-0.68359 0.82031,-4.64843 0.13672,-0.41016 0.13672,-0.54688 0.13672,-0.95703 0.6836,-1.91406 0,0 0,-0.13672 -0.13672,-0.13672 0,-0.27344 0.13671,-0.13672 0.27343,-0.13672 0.95703,0.13672 0.82032,0.95703 0.13671,0 0.13671,0.13672 0.27344,0.13672 0.54688,0.13672 0.27344,-0.13672 0.68359,-1.91406 0,-0.54688 -0.13672,-0.68359 l -0.27343,0 q -1.23047,0 -2.05078,0.68359 -0.6836,0.82031 -1.77735,2.59766 -0.68359,1.09375 -1.09375,1.64062 -2.1875,3.69141 -4.64844,5.87891 -2.1875,1.36718 -3.55468,1.5039 -0.41016,0 -1.09375,-0.68359 0.13672,-0.27344 1.77734,-1.09375 4.10156,-2.05078 7.65625,-8.06641 0.27344,-0.68359 0.68359,-1.36718 -1.09375,0.27343 -2.46093,0.95703 -0.27344,0.13672 -0.82032,0.27343 -1.77734,0.82032 -2.73437,0.82032 -0.41016,0 -0.95703,0 -0.41016,-0.41016 -0.41016,-0.95703 0,-1.36719 0.41016,-1.64063 0.41015,0 1.23047,-0.41016 0,0.13672 0,0.41016 -0.13672,0.27344 -0.13672,0.54688 0.82031,0 2.59765,-0.54688 0,-0.54687 0,-1.50391 -0.13671,-2.1875 0,-3.28125 0,-0.41015 0.13672,-1.36718 0.13672,-3.69141 0.54688,-5.33203 0.13672,-0.41016 0.95703,-0.41016 0.95703,0.27344 0.95703,2.59766 0.68359,0.13671 2.32422,-0.13672 1.09375,-0.27344 1.64062,-0.27344 0.27344,0 0.41016,0 0.13672,0 0.27344,0 0.13672,0 0.13672,0.13672 0.27343,0.27344 0.41015,0.41015 l 0,0.13672 q 0,0.27344 -2.1875,1.09375 -1.23047,0.41016 -1.5039,0.54688 -0.54688,0.41015 -0.95703,0.82031 -0.27344,0.41016 -0.54688,0.68359 -0.13672,0.13672 -0.13672,0.41016 0,0.41016 0.54688,0.41016 0.54687,0 1.64062,-0.27344 0.95703,-0.27344 1.36719,-0.27344 0.82031,0.27344 0.95703,0.95703 -0.54687,0.6836 -3.69141,1.23047 -0.68359,0.27344 -0.95703,0.27344 l 0,2.46094 q 1.09375,-0.27344 3.41797,-0.95703 0.54688,-0.27344 0.6836,-0.27344 0.13671,-0.13672 0.68359,-0.41016 0.13672,0 0.54687,0 0.41016,0.13672 0.41016,0.13672 0.27344,-2.59766 0.27344,-8.20312 0.13672,-2.8711 -0.82031,-2.59766 -0.54688,0 -2.1875,0.68359 -0.54688,0.13672 -0.82032,0.27344 -0.13672,0 -0.54687,0.13672 0,0 -0.13672,0 -0.82031,0 -2.46094,-0.82031 0.41016,-0.6836 3.00781,-1.09375 0.13672,0 0.13672,0 0.54688,-0.13672 1.77735,-0.54688 1.77734,-0.41015 2.59765,-0.54687 1.64063,0.41015 2.05078,1.91406 0,0.95703 -0.13671,3.14453 -0.13672,6.01563 -0.41016,9.16016 0,2.05078 -0.82031,4.23828 -0.82032,1.77734 -1.91407,1.77734 -0.13671,0 -0.41015,0 -0.27344,0.13672 -0.41016,0 0,-0.13672 -0.13672,-0.41015 -0.27343,-0.95704 -0.41015,-2.1875 -0.54688,1.23046 -0.82032,3.14453 -0.13671,0.41015 -0.27343,1.77734 l 0,0.68359 q 0,1.23047 0.54687,1.77735 1.09375,0.95703 5.19531,1.09375 0.54688,0 0.82032,0 4.64843,0 5.19531,-0.6836 0.13672,-0.13671 0.13672,-0.13671 0.54687,-1.36719 0.54687,-5.33204 l 0,-0.13671 q 0.41016,0.82031 0.6836,0.95703 l 0.27343,0 q 0.13672,0 0.41016,1.09375 0.27344,0.41015 0.27344,0.54687 0,0 0.27344,0.6836 0.13671,0.54687 0.13671,0.68359 l 0,0.41016 q 0,0.95703 -0.54687,1.77734 -1.36719,1.77734 -9.70703,1.64062 -5.74219,-0.54687 -5.74219,-3.96484 z m -1.23047,-16.13281 q 0,0.27344 0,0.68359 0.6836,-0.27344 0.82031,-0.82031 -0.13671,0 -0.54687,0.13672 -0.27344,0 -0.27344,0 z"
           inkscape:connector-curvature="0" />
      </g>
    </g>
  </g>
</svg>
