<?xml version="1.0" encoding="UTF-8" standalone="no"?>
<!-- Created with Inkscape (http://www.inkscape.org/) -->

<svg
   xmlns:dc="http://purl.org/dc/elements/1.1/"
   xmlns:cc="http://creativecommons.org/ns#"
   xmlns:rdf="http://www.w3.org/1999/02/22-rdf-syntax-ns#"
   xmlns:svg="http://www.w3.org/2000/svg"
   xmlns="http://www.w3.org/2000/svg"
   xmlns:sodipodi="http://sodipodi.sourceforge.net/DTD/sodipodi-0.dtd"
   xmlns:inkscape="http://www.inkscape.org/namespaces/inkscape"
   width="400.01001mm"
   height="280.01001mm"
   viewBox="0 0 1417.3583 992.16145"
   id="svg2"
   version="1.1"
   inkscape:version="0.91 r13725"
   sodipodi:docname="plastic-support.svg">
  <defs
     id="defs4" />
  <sodipodi:namedview
     id="base"
     pagecolor="#ffffff"
     bordercolor="#666666"
     borderopacity="1.0"
     inkscape:pageopacity="0.0"
     inkscape:pageshadow="2"
     inkscape:zoom="0.49497475"
     inkscape:cx="590.40688"
     inkscape:cy="411.11792"
     inkscape:document-units="mm"
     inkscape:current-layer="layer1"
     showgrid="false"
     inkscape:window-width="1680"
     inkscape:window-height="1001"
     inkscape:window-x="0"
     inkscape:window-y="23"
     inkscape:window-maximized="1"
     fit-margin-top="0"
     fit-margin-left="0"
     fit-margin-right="0"
     fit-margin-bottom="0" />
  <metadata
     id="metadata7">
    <rdf:RDF>
      <cc:Work
         rdf:about="">
        <dc:format>image/svg+xml</dc:format>
        <dc:type
           rdf:resource="http://purl.org/dc/dcmitype/StillImage" />
        <dc:title></dc:title>
      </cc:Work>
    </rdf:RDF>
  </metadata>
  <g
     inkscape:label="Layer 1"
     inkscape:groupmode="layer"
     id="layer1"
     transform="translate(-35.415335,-30.100399)">
    <g
       id="g4226"
       transform="translate(235.3971,-204.87818)" />
    <path
       id="circle4224"
       style="opacity:1;fill:none;fill-opacity:0.39215686;fill-rule:nonzero;stroke:#ff0000;stroke-width:0.03543307;stroke-miterlimit:4;stroke-dasharray:none;stroke-opacity:1"
       d="m 1261.4087,919.66528 a 3.5347166,3.5347166 0 0 1 -3.5347,3.53472 3.5347166,3.5347166 0 0 1 -3.5347,-3.53472 3.5347166,3.5347166 0 0 1 3.5347,-3.53471 3.5347166,3.5347166 0 0 1 3.5347,3.53471 z m -1027.55903,4e-5 a 3.5347166,3.5347166 0 0 1 -3.53472,3.5347 3.5347166,3.5347166 0 0 1 -3.53472,-3.5347 3.5347166,3.5347166 0 0 1 3.53472,-3.5348 3.5347166,3.5347166 0 0 1 3.53472,3.5348 z m 1024.02433,-3.7205 0,70.8662 -1027.55905,0 0,-70.8662 m -17.7165,-850.393634 1062.99205,0 0,8.858267 -1062.99205,0 z m 0,44.645674 1062.99205,0 0,8.85827 -1062.99205,0 z M 35.433052,30.118116 l 1417.322848,0 0,992.125984 -1417.322848,0 z M 212.59845,278.1496 l 1062.99205,0 0,496.06299 -1062.99205,0 z"
       inkscape:connector-curvature="0" />
  </g>
</svg>
