<?xml version="1.0" encoding="UTF-8" standalone="no"?>
<!-- Created with Inkscape (http://www.inkscape.org/) -->

<svg
   xmlns:dc="http://purl.org/dc/elements/1.1/"
   xmlns:cc="http://creativecommons.org/ns#"
   xmlns:rdf="http://www.w3.org/1999/02/22-rdf-syntax-ns#"
   xmlns:svg="http://www.w3.org/2000/svg"
   xmlns="http://www.w3.org/2000/svg"
   xmlns:sodipodi="http://sodipodi.sourceforge.net/DTD/sodipodi-0.dtd"
   xmlns:inkscape="http://www.inkscape.org/namespaces/inkscape"
   width="70.099991mm"
   height="30.1mm"
   viewBox="0 0 248.38579 106.65354"
   id="svg2"
   version="1.1"
   inkscape:version="0.91 r13725"
   sodipodi:docname="rzh.svg">
  <defs
     id="defs4" />
  <sodipodi:namedview
     id="base"
     pagecolor="#ffffff"
     bordercolor="#666666"
     borderopacity="1.0"
     inkscape:pageopacity="0.0"
     inkscape:pageshadow="2"
     inkscape:zoom="1.979899"
     inkscape:cx="78.134148"
     inkscape:cy="65.693098"
     inkscape:document-units="mm"
     inkscape:current-layer="layer1"
     showgrid="false"
     inkscape:window-width="1680"
     inkscape:window-height="1005"
     inkscape:window-x="0"
     inkscape:window-y="23"
     inkscape:window-maximized="1"
     fit-margin-top="0"
     fit-margin-left="0"
     fit-margin-right="0"
     fit-margin-bottom="0" />
  <metadata
     id="metadata7">
    <rdf:RDF>
      <cc:Work
         rdf:about="">
        <dc:format>image/svg+xml</dc:format>
        <dc:type
           rdf:resource="http://purl.org/dc/dcmitype/StillImage" />
        <dc:title />
      </cc:Work>
    </rdf:RDF>
  </metadata>
  <g
     inkscape:label="Layer 1"
     inkscape:groupmode="layer"
     id="layer1"
     transform="translate(-134.16162,-188.65336)">
    <text
       xml:space="preserve"
       style="font-style:normal;font-weight:normal;font-size:40px;line-height:125%;font-family:sans-serif;letter-spacing:0px;word-spacing:0px;fill:#000000;fill-opacity:1;stroke:none;stroke-width:1px;stroke-linecap:butt;stroke-linejoin:miter;stroke-opacity:1"
       x="169.28571"
       y="350.21936"
       id="text4198"
       sodipodi:linespacing="125%"><tspan
         sodipodi:role="line"
         id="tspan4200"
         x="169.28571"
         y="350.21936" /></text>
    <g
       style="font-style:normal;font-weight:normal;font-size:40px;line-height:125%;font-family:sans-serif;letter-spacing:0px;word-spacing:0px;fill:#000000;fill-opacity:1;stroke:none;stroke-width:0.35433072;stroke-linecap:butt;stroke-linejoin:miter;stroke-miterlimit:4;stroke-dasharray:none;stroke-opacity:1"
       id="text4146" />
    <g
       id="g4202">
      <g
         transform="translate(6.5659915,15.723612)"
         id="g4180">
        <circle
           style="opacity:1;fill:none;fill-opacity:0.39215686;fill-rule:nonzero;stroke:#ff0000;stroke-width:0.35283187;stroke-miterlimit:4;stroke-dasharray:none;stroke-opacity:1"
           id="path4138"
           cx="147.26099"
           cy="226.25652"
           r="8.8590174" />
        <ellipse
           style="opacity:1;fill:none;fill-opacity:0.39215686;fill-rule:nonzero;stroke:#ff0000;stroke-width:0.35462967;stroke-miterlimit:4;stroke-dasharray:none;stroke-opacity:1"
           id="path4159"
           cx="251.78853"
           cy="226.25652"
           rx="124.01559"
           ry="53.149456" />
      </g>
      <path
         id="path4165"
         style="font-style:normal;font-weight:normal;font-size:30px;line-height:125%;font-family:'American Typewriter';letter-spacing:0px;word-spacing:0px;fill:none;fill-opacity:1;stroke:#ff0000;stroke-width:0.35433072;stroke-linecap:butt;stroke-linejoin:miter;stroke-miterlimit:4;stroke-dasharray:none;stroke-opacity:1;font-variant:normal;font-stretch:normal;-inkscape-font-specification:'American Typewriter'"
         d="m 188.38546,227.4107 0.03,9.33 q 0.03,1.53 0.81,1.53 0.18,0 0.75,-0.15 0.36,-0.06 0.48,-0.06 0.99,0 0.99,1.02 0,0.99 -1.23,0.99 -0.48,0 -1.53,-0.12 -1.05,-0.12 -1.62,-0.12 -0.48,0 -1.44,0.12 -0.96,0.12 -1.41,0.12 l -0.15,0 q -1.26,0 -1.26,-1.08 0,-0.93 1.02,-0.93 0.06,0 0.21,0 0.18,0.03 0.27,0.03 0.75,0.12 0.87,0.12 0.54,0 0.66,-0.45 0.15,-0.48 0.18,-2.43 l 0.03,-2.1 0.09,-4.65 -0.03,-5.34 q -0.03,-0.9 -0.09,-1.2 -0.21,-0.69 -0.84,-0.69 -0.09,0 -0.78,0.12 -0.33,0.06 -0.54,0.06 -1.02,0 -1.02,-0.96 0,-0.99 1.2,-0.99 0.33,0 0.57,0.03 l 0.72,0.09 q 0.48,0.06 0.81,0.06 0.3,0 0.9,-0.09 0.6,-0.12 0.9,-0.12 0.69,0 0.69,0.87 0,0.3 -0.03,0.45 -0.21,2.31 -0.21,6.54 z" />
      <path
         id="path4167"
         style="font-style:normal;font-weight:normal;font-size:30px;line-height:125%;font-family:'American Typewriter';letter-spacing:0px;word-spacing:0px;fill:none;fill-opacity:1;stroke:#ff0000;stroke-width:0.35433072;stroke-linecap:butt;stroke-linejoin:miter;stroke-miterlimit:4;stroke-dasharray:none;stroke-opacity:1;font-variant:normal;font-stretch:normal;-inkscape-font-specification:'American Typewriter'"
         d="m 206.58327,231.1307 q 0,1.14 -0.15,1.41 -0.15,0.24 -0.87,0.24 l -9.54,0 q -0.39,0 -0.51,0.12 -0.12,0.09 -0.12,0.33 0,2.25 1.35,3.75 1.35,1.5 3.36,1.5 1.32,0 2.4,-0.72 1.11,-0.72 1.44,-1.83 l 0.27,-0.87 q 0.21,-0.72 0.99,-0.72 1.11,0 1.11,1.14 0,1.95 -1.98,3.48 -1.98,1.5 -4.5,1.5 -3.15,0 -5.01,-2.1 -1.86,-2.13 -1.86,-5.7 0,-3.66 1.98,-5.94 1.98,-2.28 5.16,-2.28 2.82,0 4.65,1.89 1.83,1.89 1.83,4.8 z m -10.89,-0.78 q 0,0.42 0.66,0.42 l 7.17,0 q 0.63,0 0.63,-0.42 0,-1.59 -1.2,-2.76 -1.2,-1.17 -2.82,-1.17 -1.68,0 -3.06,1.23 -1.38,1.2 -1.38,2.7 z" />
      <path
         id="path4169"
         style="font-style:normal;font-weight:normal;font-size:30px;line-height:125%;font-family:'American Typewriter';letter-spacing:0px;word-spacing:0px;fill:none;fill-opacity:1;stroke:#ff0000;stroke-width:0.35433072;stroke-linecap:butt;stroke-linejoin:miter;stroke-miterlimit:4;stroke-dasharray:none;stroke-opacity:1;font-variant:normal;font-stretch:normal;-inkscape-font-specification:'American Typewriter'"
         d="m 215.17218,224.4407 q 2.01,0 3.36,1.05 l 0,-0.12 q 0,-1.11 0.96,-1.11 0.99,0 0.99,0.96 0,0.18 -0.06,0.9 -0.12,0.6 -0.12,1.2 0,0.36 0.09,1.05 0.12,0.69 0.12,1.05 0,1.14 -0.99,1.14 -0.96,0 -0.99,-0.96 l -0.03,-0.99 q -0.03,-0.9 -1.05,-1.53 -0.99,-0.66 -2.34,-0.66 -1.38,0 -2.31,0.72 -0.93,0.69 -0.93,1.74 0,1.92 2.64,2.28 l 1.74,0.24 q 5.1,0.69 5.1,4.23 0,2.16 -1.65,3.51 -1.65,1.32 -4.32,1.32 -2.49,0 -4.32,-1.41 0.03,0.3 0.03,0.57 0,1.08 -1.02,1.08 -1.11,0 -1.11,-1.23 0,0.21 0.18,-1.56 0.06,-0.42 0.06,-0.84 0,-0.72 -0.12,-1.35 -0.12,-0.63 -0.12,-0.99 0,-1.05 0.96,-1.05 0.63,0 0.78,0.3 0.18,0.3 0.21,1.59 0.03,1.29 1.35,2.1 1.32,0.81 3.36,0.81 1.47,0 2.43,-0.75 0.96,-0.75 0.96,-1.89 0,-2.04 -3.24,-2.37 -3.09,-0.33 -4.71,-1.2 -1.62,-0.9 -1.62,-3.12 0,-2.1 1.59,-3.39 1.59,-1.32 4.14,-1.32 z" />
      <path
         id="path4171"
         style="font-style:normal;font-weight:normal;font-size:30px;line-height:125%;font-family:'American Typewriter';letter-spacing:0px;word-spacing:0px;fill:none;fill-opacity:1;stroke:#ff0000;stroke-width:0.35433072;stroke-linecap:butt;stroke-linejoin:miter;stroke-miterlimit:4;stroke-dasharray:none;stroke-opacity:1;font-variant:normal;font-stretch:normal;-inkscape-font-specification:'American Typewriter'"
         d="m 229.87921,224.4407 q 2.01,0 3.36,1.05 l 0,-0.12 q 0,-1.11 0.96,-1.11 0.99,0 0.99,0.96 0,0.18 -0.06,0.9 -0.12,0.6 -0.12,1.2 0,0.36 0.09,1.05 0.12,0.69 0.12,1.05 0,1.14 -0.99,1.14 -0.96,0 -0.99,-0.96 l -0.03,-0.99 q -0.03,-0.9 -1.05,-1.53 -0.99,-0.66 -2.34,-0.66 -1.38,0 -2.31,0.72 -0.93,0.69 -0.93,1.74 0,1.92 2.64,2.28 l 1.74,0.24 q 5.1,0.69 5.1,4.23 0,2.16 -1.65,3.51 -1.65,1.32 -4.32,1.32 -2.49,0 -4.32,-1.41 0.03,0.3 0.03,0.57 0,1.08 -1.02,1.08 -1.11,0 -1.11,-1.23 0,0.21 0.18,-1.56 0.06,-0.42 0.06,-0.84 0,-0.72 -0.12,-1.35 -0.12,-0.63 -0.12,-0.99 0,-1.05 0.96,-1.05 0.63,0 0.78,0.3 0.18,0.3 0.21,1.59 0.03,1.29 1.35,2.1 1.32,0.81 3.36,0.81 1.47,0 2.43,-0.75 0.96,-0.75 0.96,-1.89 0,-2.04 -3.24,-2.37 -3.09,-0.33 -4.71,-1.2 -1.62,-0.9 -1.62,-3.12 0,-2.1 1.59,-3.39 1.59,-1.32 4.14,-1.32 z" />
      <path
         id="path4173"
         style="font-style:normal;font-weight:normal;font-size:30px;line-height:125%;font-family:'American Typewriter';letter-spacing:0px;word-spacing:0px;fill:none;fill-opacity:1;stroke:#ff0000;stroke-width:0.35433072;stroke-linecap:butt;stroke-linejoin:miter;stroke-miterlimit:4;stroke-dasharray:none;stroke-opacity:1;font-variant:normal;font-stretch:normal;-inkscape-font-specification:'American Typewriter'"
         d="m 250.61624,231.2507 0,3.9 q 0,1.5 0.03,1.77 0.15,1.35 0.81,1.35 0.15,0 0.75,-0.15 0.15,-0.06 0.45,-0.06 1.14,0 1.14,0.99 0,0.42 -0.39,0.72 -0.36,0.3 -0.93,0.3 -0.48,0 -1.47,-0.12 -0.96,-0.15 -1.44,-0.15 -0.78,0 -1.74,0.12 -1.17,0.15 -1.56,0.15 -1.2,0 -1.2,-1.02 0,-0.99 1.02,-0.99 0.24,0 0.69,0.09 0.48,0.09 0.72,0.09 0.72,0 0.87,-1.92 0,-0.12 0,-2.61 l 0,-2.46 q 0,-2.49 0,-2.61 -0.15,-1.89 -0.9,-1.89 -0.24,0 -0.69,0.12 -0.42,0.09 -0.63,0.09 -1.08,0 -1.08,-0.96 0,-1.02 1.32,-1.02 0.57,0 0.81,0.03 0.96,0.12 1.23,0.12 0.24,0 0.72,-0.06 0.51,-0.09 0.75,-0.09 0.87,0 0.87,1.17 0,0.12 -0.03,0.36 -0.03,0.24 -0.03,0.36 -0.03,0.24 -0.06,1.86 -0.03,1.23 -0.03,2.52 z m -1.56,-7.86 q -0.69,0 -1.2,-0.48 -0.48,-0.51 -0.48,-1.2 0,-0.69 0.48,-1.17 0.51,-0.48 1.2,-0.48 0.69,0 1.17,0.48 0.51,0.48 0.51,1.17 0,0.69 -0.51,1.2 -0.48,0.48 -1.17,0.48 z" />
      <path
         id="path4175"
         style="font-style:normal;font-weight:normal;font-size:30px;line-height:125%;font-family:'American Typewriter';letter-spacing:0px;word-spacing:0px;fill:none;fill-opacity:1;stroke:#ff0000;stroke-width:0.35433072;stroke-linecap:butt;stroke-linejoin:miter;stroke-miterlimit:4;stroke-dasharray:none;stroke-opacity:1;font-variant:normal;font-stretch:normal;-inkscape-font-specification:'American Typewriter'"
         d="m 261.40265,224.4407 q 2.01,0 3.36,1.05 l 0,-0.12 q 0,-1.11 0.96,-1.11 0.99,0 0.99,0.96 0,0.18 -0.06,0.9 -0.12,0.6 -0.12,1.2 0,0.36 0.09,1.05 0.12,0.69 0.12,1.05 0,1.14 -0.99,1.14 -0.96,0 -0.99,-0.96 l -0.03,-0.99 q -0.03,-0.9 -1.05,-1.53 -0.99,-0.66 -2.34,-0.66 -1.38,0 -2.31,0.72 -0.93,0.69 -0.93,1.74 0,1.92 2.64,2.28 l 1.74,0.24 q 5.1,0.69 5.1,4.23 0,2.16 -1.65,3.51 -1.65,1.32 -4.32,1.32 -2.49,0 -4.32,-1.41 0.03,0.3 0.03,0.57 0,1.08 -1.02,1.08 -1.11,0 -1.11,-1.23 0,0.21 0.18,-1.56 0.06,-0.42 0.06,-0.84 0,-0.72 -0.12,-1.35 -0.12,-0.63 -0.12,-0.99 0,-1.05 0.96,-1.05 0.63,0 0.78,0.3 0.18,0.3 0.21,1.59 0.03,1.29 1.35,2.1 1.32,0.81 3.36,0.81 1.47,0 2.43,-0.75 0.96,-0.75 0.96,-1.89 0,-2.04 -3.24,-2.37 -3.09,-0.33 -4.71,-1.2 -1.62,-0.9 -1.62,-3.12 0,-2.1 1.59,-3.39 1.59,-1.32 4.14,-1.32 z" />
      <path
         id="path4177"
         style="font-style:normal;font-weight:normal;font-size:30px;line-height:125%;font-family:'American Typewriter';letter-spacing:0px;word-spacing:0px;fill:none;fill-opacity:1;stroke:#ff0000;stroke-width:0.35433072;stroke-linecap:butt;stroke-linejoin:miter;stroke-miterlimit:4;stroke-dasharray:none;stroke-opacity:1;font-variant:normal;font-stretch:normal;-inkscape-font-specification:'American Typewriter'"
         d="m 281.77968,225.8507 0,0.87 q 1.08,-1.29 2.04,-1.77 0.96,-0.51 2.4,-0.51 2.94,0 4.32,2.28 1.02,-1.26 2.07,-1.77 1.05,-0.51 2.7,-0.51 1.71,0 3.06,0.72 1.5,0.81 2.07,2.28 0.39,0.99 0.39,3.12 l 0,2.91 -0.03,2.25 q 0,1.23 0.03,1.5 0.15,1.08 0.78,1.08 0.21,0 0.63,-0.09 0.42,-0.09 0.63,-0.09 1.05,0 1.05,0.9 0,1.05 -1.2,1.05 -0.45,0 -1.38,-0.12 -0.9,-0.09 -1.38,-0.09 -0.51,0 -1.5,0.09 -0.96,0.12 -1.47,0.12 -1.26,0 -1.26,-1.05 0,-0.9 0.96,-0.9 0.12,0 0.6,0.06 0.18,0.06 0.48,0.06 0.51,0 0.63,-0.51 0.15,-0.51 0.18,-2.55 l 0.03,-1.83 0,-1.98 q 0,-2.07 -0.33,-3 -0.3,-0.96 -1.17,-1.5 -0.87,-0.54 -1.98,-0.54 -2.13,0 -2.97,1.47 -0.66,1.17 -0.66,4.08 l 0,2.13 q 0,2.82 0.12,3.54 0.15,0.69 0.72,0.69 0.18,0 0.51,-0.06 0.36,-0.09 0.54,-0.09 0.42,0 0.69,0.3 0.3,0.27 0.3,0.69 0,0.99 -1.41,0.99 -0.45,0 -1.35,-0.12 -0.87,-0.12 -1.32,-0.12 -0.63,0 -1.38,0.12 -0.75,0.12 -1.32,0.12 -1.23,0 -1.23,-1.02 0,-0.93 0.9,-0.93 0.33,0 0.51,0.06 0.42,0.09 0.63,0.09 0.72,0 0.75,-1.53 l 0.03,-1.41 q 0.03,-0.66 0.03,-1.29 0.03,-0.54 0.03,-0.57 l 0,-2.49 q 0,-2.61 -0.72,-3.63 -0.69,-1.02 -2.49,-1.02 -1.98,0 -3.03,1.44 -0.87,1.17 -0.87,4.08 l 0,3.99 q 0,1.2 0.03,1.41 0.12,1.02 0.66,1.02 0.15,0 0.63,-0.12 0.06,0 0.18,-0.03 0.12,0 0.21,0 1.17,0 1.17,0.99 0,0.96 -1.35,0.96 -0.51,0 -1.26,-0.09 -1.02,-0.12 -1.74,-0.12 -0.36,0 -1.32,0.09 -1.29,0.12 -1.56,0.12 -1.2,0 -1.2,-1.02 0,-0.93 1.14,-0.93 0.06,0 0.18,0 0.12,0.03 0.18,0.03 l 0.75,0.15 q 0.03,0.03 0.12,0.03 0.81,0 0.87,-1.47 l 0.06,-1.71 0,-4.59 q 0,-2.55 -0.15,-3.18 -0.12,-0.63 -0.72,-0.63 -0.12,0 -0.84,0.15 -0.3,0.06 -0.48,0.06 -1.11,0 -1.11,-0.96 0,-1.02 1.23,-1.02 0.33,0 0.9,0.06 0.57,0.06 0.99,0.06 0.15,0 0.33,-0.03 0.18,0 0.21,0 l 0.72,-0.09 0.09,0 q 0.72,0 0.72,0.87 z" />
      <path
         id="path4179"
         style="font-style:normal;font-weight:normal;font-size:30px;line-height:125%;font-family:'American Typewriter';letter-spacing:0px;word-spacing:0px;fill:none;fill-opacity:1;stroke:#ff0000;stroke-width:0.35433072;stroke-linecap:butt;stroke-linejoin:miter;stroke-miterlimit:4;stroke-dasharray:none;stroke-opacity:1;font-variant:normal;font-stretch:normal;-inkscape-font-specification:'American Typewriter'"
         d="m 312.07031,240.4607 q -3.15,0 -5.04,-2.16 -1.89,-2.19 -1.89,-5.85 0,-3.66 1.89,-5.82 1.92,-2.19 5.13,-2.19 3.27,0 5.16,2.13 1.89,2.13 1.89,5.79 0,3.66 -1.95,5.88 -1.95,2.22 -5.19,2.22 z m 0.15,-14.04 q -2.1,0 -3.3,1.47 -1.2,1.47 -1.32,4.17 0,0 0,0.39 0,2.82 1.17,4.44 1.2,1.59 3.33,1.59 2.19,0 3.42,-1.59 1.26,-1.62 1.26,-4.47 0,-6 -4.56,-6 z" />
      <path
         id="path4181"
         style="font-style:normal;font-weight:normal;font-size:30px;line-height:125%;font-family:'American Typewriter';letter-spacing:0px;word-spacing:0px;fill:none;fill-opacity:1;stroke:#ff0000;stroke-width:0.35433072;stroke-linecap:butt;stroke-linejoin:miter;stroke-miterlimit:4;stroke-dasharray:none;stroke-opacity:1;font-variant:normal;font-stretch:normal;-inkscape-font-specification:'American Typewriter'"
         d="m 326.04796,225.8207 0,0.81 q 1.56,-2.19 4.17,-2.19 2.1,0 3.39,1.2 1.32,1.17 1.32,3.03 0,1.32 -0.66,2.16 -0.66,0.81 -1.74,0.81 -0.69,0 -1.17,-0.42 -0.48,-0.42 -0.48,-1.02 0,-0.48 0.36,-0.84 0.36,-0.39 0.84,-0.39 0.09,0 0.39,0.09 0.18,-0.36 0.18,-0.66 0,-0.87 -0.78,-1.47 -0.75,-0.6 -1.89,-0.6 -2.34,0 -3.12,2.1 -0.48,1.29 -0.48,3.9 l 0,1.98 q 0,2.01 0.03,2.25 0.15,1.71 0.93,1.71 0.39,0 0.81,-0.12 0.33,-0.09 0.57,-0.09 0.96,0 0.96,0.96 0,1.05 -1.23,1.05 l -0.12,0 q -0.45,0 -1.38,-0.12 -0.9,-0.09 -1.35,-0.09 -1.2,0 -1.89,0.06 l -1.68,0.15 q -1.23,0 -1.23,-1.05 0,-0.93 1.14,-0.93 0.3,0 0.45,0.03 l 0.45,0.09 q 0.3,0.06 0.42,0.06 0.75,0 0.81,-1.38 l 0.06,-1.53 -0.09,-6.81 q -0.09,-1.77 -0.9,-1.77 -0.24,0 -0.66,0.09 -0.42,0.09 -0.66,0.09 -0.99,0 -0.99,-0.96 0,-1.05 1.29,-1.05 0.3,0 0.9,0.09 0.6,0.06 0.9,0.06 0.24,0 0.78,-0.06 0.24,-0.06 0.57,-0.06 0.78,0 0.78,0.84 z" />
      <path
         id="path4183"
         style="font-style:normal;font-weight:normal;font-size:30px;line-height:125%;font-family:'American Typewriter';letter-spacing:0px;word-spacing:0px;fill:none;fill-opacity:1;stroke:#ff0000;stroke-width:0.35433072;stroke-linecap:butt;stroke-linejoin:miter;stroke-miterlimit:4;stroke-dasharray:none;stroke-opacity:1;font-variant:normal;font-stretch:normal;-inkscape-font-specification:'American Typewriter'"
         d="m 349.90359,231.1307 q 0,1.14 -0.15,1.41 -0.15,0.24 -0.87,0.24 l -9.54,0 q -0.39,0 -0.51,0.12 -0.12,0.09 -0.12,0.33 0,2.25 1.35,3.75 1.35,1.5 3.36,1.5 1.32,0 2.4,-0.72 1.11,-0.72 1.44,-1.83 l 0.27,-0.87 q 0.21,-0.72 0.99,-0.72 1.11,0 1.11,1.14 0,1.95 -1.98,3.48 -1.98,1.5 -4.5,1.5 -3.15,0 -5.01,-2.1 -1.86,-2.13 -1.86,-5.7 0,-3.66 1.98,-5.94 1.98,-2.28 5.16,-2.28 2.82,0 4.65,1.89 1.83,1.89 1.83,4.8 z m -10.89,-0.78 q 0,0.42 0.66,0.42 l 7.17,0 q 0.63,0 0.63,-0.42 0,-1.59 -1.2,-2.76 -1.2,-1.17 -2.82,-1.17 -1.68,0 -3.06,1.23 -1.38,1.2 -1.38,2.7 z" />
      <g
         id="text4150"
         style="font-style:normal;font-weight:normal;font-size:40px;line-height:125%;font-family:sans-serif;letter-spacing:0px;word-spacing:0px;fill:#000000;fill-opacity:1;stroke:none;stroke-width:0.35433072;stroke-linecap:butt;stroke-linejoin:miter;stroke-miterlimit:4;stroke-dasharray:none;stroke-opacity:1">
        <path
           id="path4186"
           style="font-style:normal;font-variant:normal;font-weight:normal;font-stretch:normal;font-size:25px;font-family:'American Typewriter';-inkscape-font-specification:'American Typewriter';fill:none;stroke:#ff0000;stroke-width:0.35433072;stroke-miterlimit:4;stroke-dasharray:none;stroke-opacity:1"
           d="m 310.53718,255.05955 q -0.725,0.35 -1.85,0.6 1.475,0.275 2.025,1.1 0.575,0.825 0.575,2.725 l 0,1.15 q -0.025,0.1 -0.025,0.3 0,1.8 1.15,1.8 1.175,0 1.175,-2.15 0,-0.75 0,-0.75 l -0.025,-0.625 q 0,0 0,-0.35 0,-0.725 0.1,-1 0.2,-0.425 0.775,-0.425 0.9,0 0.9,1.05 0,0.025 -0.025,0.55 l -0.025,0.525 q -0.025,0.525 -0.025,0.675 l 0,0.625 q 0.025,0.15 0.025,0.45 0,1.45 -0.825,2.275 -0.8,0.8 -2.25,0.8 -2.95,0 -2.95,-2.975 l 0,-0.75 0.025,-0.85 0,-0.55 q 0,-1.675 -0.65,-2.2 -0.625,-0.55 -2.625,-0.55 l -2.325,0 q -0.8,0 -0.8,0.975 l 0,1.925 q 0,1.85 0.05,2.1 0.225,1.25 1.25,1.25 0.35,0 0.525,-0.05 0.425,-0.075 0.65,-0.075 0.8,0 0.8,0.85 0,0.9 -1.075,0.9 0,0 -0.375,-0.05 l -1.35,-0.175 q -0.775,-0.1 -1.375,-0.1 -0.75,0 -1.75,0.125 l -1.2,0.15 q -0.4,0.05 -0.375,0.05 -1.075,0 -1.075,-0.9 0,-0.8 0.775,-0.8 0.125,0 0.675,0.05 0.275,0.075 0.525,0.075 1.275,0 1.275,-1.875 l 0,-10.025 q 0,-1.875 -1.275,-1.875 -0.2,0 -0.6,0.075 -0.4,0.05 -0.6,0.05 -0.325,0 -0.55,-0.225 -0.225,-0.25 -0.225,-0.575 0,-0.875 1.1,-0.875 0.1,0 0.35,0.025 l 1.275,0.125 q 0.5,0.05 1.25,0.05 0.775,0 1.725,-0.05 l 1.9,-0.1 q 0.95,-0.05 1.75,-0.05 5.5,0 5.5,4.2 0,2.475 -1.9,3.375 z m -6.925,-0.225 2.35,0 q 2.1,0 3.15,-0.6 1.275,-0.725 1.275,-2.425 0,-2.85 -3.9,-2.85 -2.075,0 -2.825,0.325 -0.725,0.3 -0.75,1.225 l -0.025,0.8 0,2.875 q 0,0.425 0.15,0.55 0.15,0.1 0.575,0.1 z" />
        <path
           id="path4188"
           style="font-style:normal;font-variant:normal;font-weight:normal;font-stretch:normal;font-size:25px;font-family:'American Typewriter';-inkscape-font-specification:'American Typewriter';fill:none;stroke:#ff0000;stroke-width:0.35433072;stroke-miterlimit:4;stroke-dasharray:none;stroke-opacity:1"
           d="m 329.40007,249.90955 -11.025,12.875 6.275,0 q 2.15,0 2.8,-0.4 0.675,-0.4 0.675,-1.675 0,-0.375 -0.075,-1.025 -0.075,-0.65 -0.075,-1.15 0,-1 0.95,-1 0.9,0 0.9,1.05 0,0.275 -0.075,1.05 -0.075,0.775 -0.075,1.5 0,0.7 0.025,0.925 0.1,0.875 0.1,1.175 0,1.175 -1.425,1.175 -0.6,0 -1.15,-0.025 -2.25,-0.1 -4.7,-0.1 -1.225,0 -2.85,0.075 -0.525,0.025 -1.35,0.025 -1.175,0 -1.6,-0.3 -0.425,-0.3 -0.425,-1.1 0,-0.775 0.575,-1.45 l 10.55,-12.45 -6.125,0 q -1.55,0 -2.125,0.55 -0.55,0.55 -0.55,2.025 0,0.25 0.025,0.775 0.025,0.525 0.025,0.775 0,1.25 -0.95,1.25 -0.925,0 -0.925,-1.025 0,-0.475 0.1,-1.375 0.1,-0.925 0.1,-1.4 0,-0.325 -0.05,-0.95 -0.05,-0.65 -0.05,-0.975 0,-1.35 1.35,-1.3 l 0.675,0.025 q 0.475,0.025 1.35,0 0.35,0 0.875,0 0.625,0.025 0.8,0.025 l 5.175,-0.025 q 0,0 1,0 1.8,0 1.8,1.25 0,0.575 -0.525,1.2 z" />
        <path
           id="path4190"
           style="font-style:normal;font-variant:normal;font-weight:normal;font-stretch:normal;font-size:25px;font-family:'American Typewriter';-inkscape-font-specification:'American Typewriter';fill:none;stroke:#ff0000;stroke-width:0.35433072;stroke-miterlimit:4;stroke-dasharray:none;stroke-opacity:1"
           d="m 336.57859,254.63455 8,0 0,-3.675 q 0,-1.875 -1.275,-1.875 -0.15,0 -0.55,0.075 -0.375,0.075 -0.65,0.075 -0.8,0 -0.8,-0.825 0,-0.9 1.075,-0.9 0.35,0 1.275,0.15 0.925,0.15 1.7,0.15 1.25,0 2.5,-0.175 0.725,-0.1 0.95,-0.1 1.1,0 1.1,0.875 0,0.8 -0.775,0.8 -0.2,0 -0.6,-0.05 -0.4,-0.075 -0.6,-0.075 -1.275,0 -1.275,1.875 l 0,9.975 q 0,1.875 1.25,1.875 0.2,0 0.6,-0.05 0.425,-0.075 0.625,-0.075 0.775,0 0.775,0.8 0,0.9 -1.1,0.9 -0.225,0 -0.975,-0.15 -0.875,-0.175 -1.9,-0.175 -1.375,0 -2.325,0.15 -1.1,0.175 -1.2,0.175 -1.1,0 -1.1,-0.9 0,-0.825 0.8,-0.825 0.2,0 0.6,0.075 0.4,0.05 0.6,0.05 1.05,0 1.25,-1.375 0.025,-0.175 0.025,-2.25 l 0,-2.825 -8,0 0,2.85 q 0,2.075 0.025,2.25 0.2,1.375 1.25,1.375 0.2,0 0.6,-0.05 0.425,-0.075 0.625,-0.075 0.775,0 0.775,0.8 0,0.9 -1.1,0.9 -0.175,0 -1.075,-0.15 -1.2,-0.2 -2.1,-0.2 -1.05,0 -2.25,0.2 l -0.6,0.1 q -0.3,0.05 -0.325,0.05 -1.15,0 -1.15,-0.9 0,-0.325 0.225,-0.575 0.25,-0.25 0.575,-0.25 0.225,0 0.675,0.075 0.275,0.075 0.525,0.075 1.275,0 1.275,-1.875 l 0,-10.025 q 0,-1.875 -1.275,-1.875 -0.175,0 -0.55,0.075 -0.375,0.075 -0.65,0.075 -0.325,0 -0.575,-0.25 -0.225,-0.25 -0.225,-0.575 0,-0.875 1.15,-0.875 0.225,0 0.925,0.125 0.95,0.175 2.325,0.175 0.525,0 1.55,-0.15 1.05,-0.15 1.55,-0.15 1.1,0 1.1,0.9 0,0.35 -0.225,0.6 -0.225,0.225 -0.55,0.225 -0.275,0 -0.675,-0.075 -0.4,-0.075 -0.55,-0.075 -1.225,0 -1.25,1.875 l -0.025,3.7 z" />
      </g>
    </g>
  </g>
</svg>
