<?xml version="1.0" encoding="UTF-8" standalone="no"?>
<!-- Created with Inkscape (http://www.inkscape.org/) -->

<svg
   xmlns:dc="http://purl.org/dc/elements/1.1/"
   xmlns:cc="http://creativecommons.org/ns#"
   xmlns:rdf="http://www.w3.org/1999/02/22-rdf-syntax-ns#"
   xmlns:svg="http://www.w3.org/2000/svg"
   xmlns="http://www.w3.org/2000/svg"
   xmlns:sodipodi="http://sodipodi.sourceforge.net/DTD/sodipodi-0.dtd"
   xmlns:inkscape="http://www.inkscape.org/namespaces/inkscape"
   width="500mm"
   height="350mm"
   viewBox="0 0 1771.6535 1240.1575"
   id="svg2"
   version="1.1"
   inkscape:version="0.91 r13725"
   sodipodi:docname="whitewall_second_half.svg">
  <defs
     id="defs4" />
  <sodipodi:namedview
     id="base"
     pagecolor="#ffffff"
     bordercolor="#666666"
     borderopacity="1.0"
     inkscape:pageopacity="0.0"
     inkscape:pageshadow="2"
     inkscape:zoom="0.49497475"
     inkscape:cx="302.76159"
     inkscape:cy="913.62155"
     inkscape:document-units="mm"
     inkscape:current-layer="layer1"
     showgrid="false"
     width="500mm"
     inkscape:window-width="1680"
     inkscape:window-height="1001"
     inkscape:window-x="0"
     inkscape:window-y="23"
     inkscape:window-maximized="1" />
  <metadata
     id="metadata7">
    <rdf:RDF>
      <cc:Work
         rdf:about="">
        <dc:format>image/svg+xml</dc:format>
        <dc:type
           rdf:resource="http://purl.org/dc/dcmitype/StillImage" />
        <dc:title></dc:title>
      </cc:Work>
    </rdf:RDF>
  </metadata>
  <g
     inkscape:label="Layer 1"
     inkscape:groupmode="layer"
     id="layer1"
     transform="translate(0,187.7953)">
    <rect
       style="fill:none"
       id="rect4150"
       width="171.72594"
       height="593.96973"
       x="1594.0208"
       y="-70.92746" />
    <rect
       style="fill:none;stroke-width:0.35433071;stroke-miterlimit:4;stroke-dasharray:none"
       id="rect4152"
       width="173.74623"
       height="535.38086"
       x="1581.8989"
       y="-97.191429" />
    <rect
       style="fill:none;stroke-width:0.35433071;stroke-miterlimit:4;stroke-dasharray:none"
       id="rect4154"
       width="193.9493"
       height="416.18286"
       x="1604.1222"
       y="121.00151" />
    <g
       id="g4237">
      <rect
         y="-0.21677828"
         x="1561.6958"
         height="456.58896"
         width="179.80716"
         id="rect4144"
         style="fill:none" />
      <rect
         y="-54.765011"
         x="1612.2035"
         height="882.87335"
         width="135.36044"
         id="rect4148"
         style="fill:none" />
      <path
         inkscape:connector-curvature="0"
         id="path4164"
         d="m 1743.4841,-70.201635 c -103.937,0 -207.874,0 -311.811,0 0,354.328105 0,708.656215 0,1062.984325 77.1322,-7.87614 169.0182,-17.99635 218.8043,-84.78948 26.3385,-75.11481 29.0478,-157.12952 41.0869,-235.71571 27.971,-246.58219 42.3447,-494.57108 51.9198,-742.479135 z m -1388.97629,3e-5 c 359.05513,0 718.11029,0 1077.16539,0 0,354.330685 0,708.661375 0,1062.992065 -359.0551,0 -718.11026,0 -1077.16539,0 0,-354.33069 0,-708.66138 0,-1062.992065 z m -311.812293,-5.4e-5 c 103.937013,0 207.874033,0 311.811043,0 0,354.328119 0,708.656249 0,1062.984369 C 277.37438,984.90655 185.48833,974.78633 135.70227,907.99317 109.36369,832.87836 106.65439,750.86365 94.615317,672.27746 66.644301,425.69528 52.27062,177.70635 42.695517,-70.201659 Z"
         style="fill:none;stroke:#ff0000;stroke-width:0.35433072;stroke-miterlimit:4;stroke-dasharray:none;stroke-opacity:1" />
      <path
         inkscape:connector-curvature="0"
         id="path4232"
         d="m 354.48655,-70.18248 0.0335,1062.97988"
         style="fill:none;fill-rule:evenodd;stroke:#000000;stroke-width:0.35433072;stroke-linecap:butt;stroke-linejoin:miter;stroke-miterlimit:4;stroke-dasharray:none;stroke-opacity:1" />
      <path
         style="fill:none;fill-rule:evenodd;stroke:#000000;stroke-width:0.35433072;stroke-linecap:butt;stroke-linejoin:miter;stroke-miterlimit:4;stroke-dasharray:none;stroke-opacity:1"
         d="m 1431.5562,-70.18248 0.1,1062.97988"
         id="path4235"
         inkscape:connector-curvature="0" />
    </g>
  </g>
</svg>
