<?xml version="1.0" encoding="UTF-8" standalone="no"?>
<!-- Created with Inkscape (http://www.inkscape.org/) -->

<svg
   xmlns:dc="http://purl.org/dc/elements/1.1/"
   xmlns:cc="http://creativecommons.org/ns#"
   xmlns:rdf="http://www.w3.org/1999/02/22-rdf-syntax-ns#"
   xmlns:svg="http://www.w3.org/2000/svg"
   xmlns="http://www.w3.org/2000/svg"
   xmlns:sodipodi="http://sodipodi.sourceforge.net/DTD/sodipodi-0.dtd"
   xmlns:inkscape="http://www.inkscape.org/namespaces/inkscape"
   width="480.38513mm"
   height="300.18307mm"
   viewBox="0 0 1702.152 1063.6408"
   id="svg2"
   version="1.1"
   inkscape:version="0.91 r13725"
   sodipodi:docname="whitewall_second_half_without_black.svg">
  <defs
     id="defs4" />
  <sodipodi:namedview
     id="base"
     pagecolor="#ffffff"
     bordercolor="#666666"
     borderopacity="1.0"
     inkscape:pageopacity="0.0"
     inkscape:pageshadow="2"
     inkscape:zoom="1.979899"
     inkscape:cx="1434.8493"
     inkscape:cy="764.13244"
     inkscape:document-units="mm"
     inkscape:current-layer="layer1"
     showgrid="false"
     width="500mm"
     inkscape:window-width="1680"
     inkscape:window-height="1001"
     inkscape:window-x="0"
     inkscape:window-y="23"
     inkscape:window-maximized="1"
     fit-margin-top="0"
     fit-margin-left="0"
     fit-margin-right="0"
     fit-margin-bottom="0" />
  <metadata
     id="metadata7">
    <rdf:RDF>
      <cc:Work
         rdf:about="">
        <dc:format>image/svg+xml</dc:format>
        <dc:type
           rdf:resource="http://purl.org/dc/dcmitype/StillImage" />
        <dc:title></dc:title>
      </cc:Work>
    </rdf:RDF>
  </metadata>
  <g
     inkscape:label="Layer 1"
     inkscape:groupmode="layer"
     id="layer1"
     transform="translate(210.37749,106.07592)">
    <g
       id="g4204"
       transform="translate(88.582674,-818.69342)">
      <g
         id="g4189" />
    </g>
    <g
       transform="translate(1486.0754,-818.69342)"
       id="g4210"
       style="stroke:#ff0000;stroke-width:0.03543307;stroke-miterlimit:4;stroke-dasharray:none;stroke-opacity:1">
      <g
         id="g4212"
         style="stroke:#ff0000;stroke-width:0.03543307;stroke-miterlimit:4;stroke-dasharray:none;stroke-opacity:1" />
      <path
         id="path4218"
         style="fill:none;stroke:#ff0000;stroke-width:0.03543307;stroke-miterlimit:4;stroke-dasharray:none;stroke-opacity:1"
         d="m -88.165947,794.05513 0,212.59837 -116.929133,0 0,-212.59837 m 122.067084,-5.28841 a 5.1379433,5.1379433 0 0 1 -5.137943,5.13795 5.1379433,5.1379433 0 0 1 -5.137944,-5.13795 5.1379433,5.1379433 0 0 1 5.137944,-5.13794 5.1379433,5.1379433 0 0 1 5.137943,5.13794 z m -116.929134,0 a 5.1379433,5.1379433 0 0 1 -5.13795,5.13795 5.1379433,5.1379433 0 0 1 -5.13794,-5.13795 5.1379433,5.1379433 0 0 1 5.13794,-5.13794 5.1379433,5.1379433 0 0 1 5.13795,5.13794 z m -1285.70157,5.28841 0,212.59837 -116.9291,0 0,-212.59837 m 122.0671,-5.28841 a 5.1379433,5.1379433 0 0 1 -5.138,5.13795 5.1379433,5.1379433 0 0 1 -5.1379,-5.13795 5.1379433,5.1379433 0 0 1 5.1379,-5.13794 5.1379433,5.1379433 0 0 1 5.138,5.13794 z m -116.9292,0 a 5.1379433,5.1379433 0 0 1 -5.1379,5.13795 5.1379433,5.1379433 0 0 1 -5.1379,-5.13795 5.1379433,5.1379433 0 0 1 5.1379,-5.13794 5.1379433,5.1379433 0 0 1 5.1379,5.13794 z m 1291.0085,-76.00384 0,0.35546 311.6289,0 c -0.021,1.02896 -12.5315,613.22276 -101.0058,955.69336 -13.4117,51.9143 -66.0355,78.6583 -115.3497,92.418 -49.3141,13.7596 -95.2773,14.5254 -95.2773,14.5254 l 0.01,0.3554 c 0,0 45.9994,-0.765 95.3652,-14.539 49.3658,-13.7741 102.1392,-40.5669 115.5996,-92.6699 C -6.8982,1326.0516 5.551,712.94452 5.551,712.94452 l -0.1777,-0.004 0,-0.17774 -311.8106,0 z m -1389.6856,0.002 0,0.17578 -0.1777,0.004 c 0,0 12.4492,613.10714 101.0215,955.95704 13.4603,52.1031 66.2319,78.8978 115.5976,92.6719 49.3658,13.774 95.3672,14.5371 95.3672,14.5371 l 0.01,-0.3535 c 0,0 -45.9632,-0.7658 -95.2773,-14.5254 -49.3143,-13.7598 -101.9401,-40.5038 -115.3517,-92.4181 -88.4751,-342.4737 -100.9832,-954.67736 -101.0039,-955.69536 l 311.6289,0 0,-0.35351 -311.8106,0 z m 312.1641,0 0,0.35546 1077.166,0 0,-0.35546 -1077.166,0 z m 0,1062.99222 0,0.3554 1077.166,0 0,-0.3554 -1077.166,0 z"
         inkscape:connector-curvature="0" />
    </g>
  </g>
</svg>
