<?xml version="1.0" encoding="UTF-8" standalone="no"?>
<!-- Created with Inkscape (http://www.inkscape.org/) -->

<svg
   xmlns:dc="http://purl.org/dc/elements/1.1/"
   xmlns:cc="http://creativecommons.org/ns#"
   xmlns:rdf="http://www.w3.org/1999/02/22-rdf-syntax-ns#"
   xmlns:svg="http://www.w3.org/2000/svg"
   xmlns="http://www.w3.org/2000/svg"
   xmlns:sodipodi="http://sodipodi.sourceforge.net/DTD/sodipodi-0.dtd"
   xmlns:inkscape="http://www.inkscape.org/namespaces/inkscape"
   width="70.099991mm"
   height="30.1mm"
   viewBox="0 0 248.38579 106.65354"
   id="svg2"
   version="1.1"
   inkscape:version="0.91 r13725"
   sodipodi:docname="wxy.svg">
  <defs
     id="defs4" />
  <sodipodi:namedview
     id="base"
     pagecolor="#ffffff"
     bordercolor="#666666"
     borderopacity="1.0"
     inkscape:pageopacity="0.0"
     inkscape:pageshadow="2"
     inkscape:zoom="1.979899"
     inkscape:cx="-29.952177"
     inkscape:cy="49.969484"
     inkscape:document-units="mm"
     inkscape:current-layer="layer1"
     showgrid="false"
     inkscape:window-width="1680"
     inkscape:window-height="1001"
     inkscape:window-x="0"
     inkscape:window-y="23"
     inkscape:window-maximized="1"
     fit-margin-top="0"
     fit-margin-left="0"
     fit-margin-right="0"
     fit-margin-bottom="0" />
  <metadata
     id="metadata7">
    <rdf:RDF>
      <cc:Work
         rdf:about="">
        <dc:format>image/svg+xml</dc:format>
        <dc:type
           rdf:resource="http://purl.org/dc/dcmitype/StillImage" />
        <dc:title />
      </cc:Work>
    </rdf:RDF>
  </metadata>
  <g
     inkscape:label="Layer 1"
     inkscape:groupmode="layer"
     id="layer1"
     transform="translate(-127.59563,-172.92974)">
    <g
       id="g4180">
      <circle
         r="8.8590174"
         cy="226.25652"
         cx="147.26099"
         id="path4138"
         style="opacity:1;fill:none;fill-opacity:0.39215686;fill-rule:nonzero;stroke:#ff0000;stroke-width:0.35283187;stroke-miterlimit:4;stroke-dasharray:none;stroke-opacity:1" />
      <ellipse
         ry="53.149456"
         rx="124.01559"
         cy="226.25652"
         cx="251.78853"
         id="path4159"
         style="opacity:1;fill:none;fill-opacity:0.39215686;fill-rule:nonzero;stroke:#ff0000;stroke-width:0.35462967;stroke-miterlimit:4;stroke-dasharray:none;stroke-opacity:1" />
    </g>
    <text
       xml:space="preserve"
       style="font-style:normal;font-weight:normal;font-size:40px;line-height:125%;font-family:sans-serif;letter-spacing:0px;word-spacing:0px;fill:#000000;fill-opacity:1;stroke:none;stroke-width:1px;stroke-linecap:butt;stroke-linejoin:miter;stroke-opacity:1"
       x="169.28571"
       y="350.21936"
       id="text4198"
       sodipodi:linespacing="125%"><tspan
         sodipodi:role="line"
         id="tspan4200"
         x="169.28571"
         y="350.21936" /></text>
    <g
       transform="matrix(1.25,0,0,-1.25,178.35326,244.37038)"
       inkscape:label="ink_ext_XXXXXX"
       id="g4167">
      <g
         transform="scale(0.1,0.1)"
         id="g4169">
        <path
           inkscape:connector-curvature="0"
           id="path4171"
           style="fill:none;stroke:#ff0000;stroke-width:2.83465004;stroke-linecap:butt;stroke-linejoin:miter;stroke-miterlimit:4;stroke-dasharray:none;stroke-opacity:1"
           d="m 177.5,160.266 c -5.859,-1.493 -14.219,-4.383 -25.16,-8.75 -7.301,-2.192 -12.77,-4.024 -16.399,-5.473 -0.742,-6.559 -1.492,-16.41 -2.191,-29.527 -1.48,-14.614 -2.578,-25.1605 -3.281,-31.723 0.703,0 1.09,-0.3907 1.09,-1.0899 17.5,16.0117 33.171,32.8129 47.031,50.3129 3.64,5.078 4.379,4.367 2.191,-2.192 -7.301,-18.242 -18.98,-36.8318 -35,-55.781 -0.742,-1.4805 -2.191,-3.2774 -4.371,-5.4688 -1.488,-1.4804 -4.769,-5.4687 -9.851,-12.0312 -2.93,-4.3711 -5.86,-6.5586 -8.75,-6.5586 -4.368,0.6992 -7.297,5.8203 -8.75,15.3086 0,2.1914 0.711,5.4726 2.191,9.8398 1.449,2.1914 2.191,3.6406 2.191,4.3828 4.368,37.8864 6.559,76.9064 6.559,117.0274 0,1.449 -0.391,3.629 -1.09,6.562 -0.75,2.188 -1.101,3.989 -1.101,5.469 -0.739,2.192 0.711,3.281 4.382,3.281 2.188,-0.742 3.629,-1.089 4.368,-1.089 2.191,-2.934 3.64,-6.563 4.382,-10.942 2.887,2.192 8.75,6.559 17.5,13.129 0.7,0.699 1.438,1.442 2.18,2.18 0,0.711 0,1.449 0,2.191 0,4.379 0.359,7.27 1.098,8.75 2.191,2.192 4.371,3.281 6.562,3.281 1.449,0 3.278,-1.089 5.469,-3.281 4.371,1.449 8.75,4.379 13.129,8.75 0.699,0 1.441,1.09 2.18,3.281 0.711,2.887 1.8,3.989 3.281,3.278 5.82,-1.481 9.461,-4.758 10.941,-9.84 -0.742,-8.051 -4.019,-13.52 -9.84,-16.41 -3.671,0 -9.14,-1.481 -16.41,-4.367 2.891,-10.942 6.559,-23.711 10.938,-38.282 2.191,0.7 5.082,1.789 8.75,3.282 2.191,0.699 6.172,2.539 12.031,5.468 0,0.7 0,1.438 0,2.18 0.699,2.191 2.539,3.289 5.469,3.289 1.441,0.699 2.543,1.09 3.281,1.09 6.559,-0.738 10.551,-3.277 12.031,-7.66 1.449,-2.18 0.699,-4.758 -2.191,-7.649 -1.481,-2.191 -4.371,-3.671 -8.75,-4.379 -0.738,0 -1.828,0.348 -3.281,1.098 -1.481,0 -2.579,0 -3.278,0 -6.562,-1.488 -13.511,-3.289 -20.781,-5.469 10.941,-42.312 24.77,-78.0504 41.559,-107.191 2.191,-5.8594 4.382,-9.1407 6.57,-9.8399 2.891,0 4.371,5.8203 4.371,17.5 0,4.3711 0.352,9.8399 1.09,16.4024 0.711,5.8164 1.101,10.5468 1.101,14.2187 0,5.8208 0.7,9.4488 2.18,10.9418 0,-2.192 0.359,-5.864 1.098,-10.9418 0,-5.1211 0,-8.75 0,-10.9414 2.191,2.1914 3.281,2.5391 3.281,1.1016 0,-2.9297 0.352,-7.3125 1.09,-13.1289 1.449,-11.6836 2.191,-20.0821 2.191,-25.1524 -1.48,-6.5703 -3.281,-12.3906 -5.472,-17.5 -1.481,-0.7109 -4.02,-1.4492 -7.649,-2.1875 -5.859,1.4766 -10.59,6.2071 -14.219,14.2188 C 205.199,74.5625 189.879,113.582 177.5,160.266 Z m -40.469,35 c 0,-9.493 -0.39,-21.883 -1.09,-37.192 6.559,1.449 17.11,4.731 31.719,9.84 2.891,0.711 5.07,1.449 6.559,2.191 -3.668,13.129 -7.66,25.508 -12.028,37.188 -8.05,-2.93 -16.41,-6.949 -25.16,-12.027 z M 57.1914,32.293 c 0.6992,4.3789 1.4375,10.9414 2.1875,19.6914 1.4414,8.75 2.1797,15.3086 2.1797,19.6875 0,16.0117 1.1016,38.2811 3.2812,66.7111 -3.6679,-6.559 -8.75,-13.117 -15.3085,-19.68 C 44.4102,112.133 37.5,104.832 28.75,96.8242 21.4492,88.0742 14.5313,85.4922 7.96875,89.1719 c -1.48828,0 -2.1875,0.7031 -2.1875,2.1836 0,2.8867 2.53906,5.8164 7.66015,8.7495 1.4375,1.45 2.5391,2.54 3.2774,3.278 16.7617,16.762 31.7226,34.262 44.8398,52.5 8.0117,13.133 13.4805,24.07 16.4102,32.82 -10.9375,-5.859 -23.3594,-12.031 -37.1875,-18.598 -13.1211,-5.863 -23.3594,-6.562 -30.6211,-2.191 -5.85942,2.191 -8.75004,6.57 -8.75004,13.129 0.69922,4.371 3.6289,6.91 8.75004,7.66 0,-2.93 0.6992,-4.379 2.1796,-4.379 5.0821,0 13.129,1.801 24.0704,5.469 5.0703,2.191 9.1015,3.629 12.0312,4.379 2.8867,0.703 7.6484,1.793 14.2188,3.281 5.8203,1.442 10.1914,2.539 13.1211,3.281 12.3789,4.371 19.2968,3.629 20.7773,-2.191 0,-2.188 -1.0898,-6.559 -3.2773,-13.129 -0.7422,-2.18 -1.0899,-3.672 -1.0899,-4.371 -1.4922,-2.188 -4.0312,-6.949 -7.6601,-14.219 8.0078,7.27 14.2187,9.848 18.5897,7.66 5.828,0 8.758,-2.191 8.758,-6.57 -8.758,-8.742 -19.3399,-11.672 -31.7188,-8.742 -0.75,-2.93 -2.1914,-5.469 -4.3789,-7.656 0.6992,-1.493 1.0976,-5.473 1.0976,-12.032 4.3711,0 8.7422,-1.101 13.1211,-3.281 2.1914,-0.75 4.7305,-3.289 7.6602,-7.66 0.6992,-0.738 1.4414,-1.48 2.1796,-2.188 2.8902,-3.671 3.2812,-6.562 1.1012,-8.75 -3.6715,-0.742 -6.5621,-0.742 -8.7496,0 -0.7422,0.708 -2.582,2.54 -5.4726,5.469 -5.1172,5.821 -8.3985,8.75 -9.8399,8.75 1.4414,-24.801 1.0899,-47.031 -1.0976,-66.7185 0,-16.793 -0.7422,-30.6211 -2.1915,-41.5625 -0.7382,-1.4492 -2.9296,-2.1875 -6.5585,-2.1875 -5.8594,0.7383 -9.1407,4.3789 -9.8399,10.9375 z m 22.9688,205.621 c 0,0.711 1.0898,1.449 3.2812,2.191 0.6992,0.708 1.0899,1.098 1.0899,1.098 0,2.891 -2.1915,6.563 -6.5625,10.93 -1.4883,1.449 -2.9297,3.992 -4.379,7.66 -1.4804,3.629 -2.9296,6.172 -4.371,7.66 0,1.442 4.371,3.281 13.121,5.461 20.3902,-2.18 30.9802,-12.422 31.7192,-30.621 -2.18,-7.301 -5.86,-11.328 -10.938,-12.027 -4.371,0 -7.3007,1.089 -8.7421,3.277 -0.75,0 -2.1875,0 -4.3789,0 -6.5586,0.699 -9.8398,2.191 -9.8398,4.371 z" />
        <path
           inkscape:connector-curvature="0"
           id="path4173"
           style="fill:none;stroke:#ff0000;stroke-width:2.83465004;stroke-linecap:butt;stroke-linejoin:miter;stroke-miterlimit:4;stroke-dasharray:none;stroke-opacity:1"
           d="m 417.031,44.3242 c 5.078,-3.6289 9.098,-5.4687 12.028,-5.4687 2.191,0.7383 3.992,4.3789 5.472,10.9375 0,2.8906 0.348,7.2695 1.09,13.1211 1.449,10.9414 2.188,19.3007 2.188,25.1601 -4.368,-1.4804 -8.039,-2.9297 -10.93,-4.3711 -1.488,-0.75 -2.188,-1.4883 -2.188,-2.1875 -3.671,-2.9336 -8.05,-4.7734 -13.132,-5.4726 0,2.8906 1.8,6.1718 5.472,9.8398 2.891,3.6406 4.379,6.1797 4.379,7.6602 l 0,1.0898 -5.469,5.4722 c -3.671,2.188 -5.472,4.727 -5.472,7.661 2.191,4.367 3.281,6.906 3.281,7.648 0,0.711 0,1.102 0,1.102 1.449,0.699 2.891,1.089 4.371,1.089 2.188,2.887 3.641,5.469 4.379,7.661 0,0.699 -1.09,1.089 -3.281,1.089 -3.668,0 -6.207,-1.48 -7.66,-4.371 -2.18,-20.429 -3.278,-48.5192 -3.278,-84.2184 0,-2.1914 0,-3.9922 0,-5.4726 -0.742,-2.8907 -1.48,-4.7305 -2.191,-5.4688 -3.668,0 -7.649,2.9297 -12.031,8.75 -1.481,6.5586 -1.829,16.0196 -1.09,28.4414 0,2.8867 0,5.0782 0,6.5586 0,5.8203 1.09,15.668 3.281,29.5308 1.449,9.458 2.191,16.411 2.191,20.778 -5.863,-11.68 -13.132,-20.43 -21.882,-26.2502 -9.489,-6.5586 -19.329,-8.75 -29.528,-6.5586 -8.75,1.4492 -16.41,5.4688 -22.972,12.0308 0,0 0.351,0.348 1.101,1.098 2.18,0 2.891,0.352 2.18,1.09 -0.738,1.449 -2.18,3.98 -4.371,7.66 l 0,1.09 c 5.082,-4.371 7.652,-6.211 7.652,-5.469 -2.18,3.629 -5.461,6.918 -9.84,9.84 0,1.449 -0.39,2.191 -1.09,2.191 0,-2.191 0.7,-4.023 2.188,-5.472 l 0,-1.09 c -2.188,2.191 -3.289,4.371 -3.289,6.562 0.711,0 0.711,0.708 0,2.188 -1.481,0 -2.18,0 -2.18,0 0.699,2.191 0,6.172 -2.191,12.031 -0.739,2.192 -1.098,3.629 -1.098,4.379 0,0.699 0,2.539 0,5.469 -0.742,2.891 -1.09,4.371 -1.09,4.371 0,0.699 -0.39,1.449 -1.09,2.191 -0.742,0.7 -1.101,1.09 -1.101,1.09 0,10.942 4.379,19.692 13.129,26.25 29.14,21.129 59.41,35.348 90.781,42.66 2.891,4.371 4.371,9.45 4.371,15.309 0,2.891 -2.922,7.27 -8.742,13.129 -0.75,0.703 -2.188,2.183 -4.379,4.371 -1.48,2.191 -2.93,3.629 -4.379,4.371 0.707,2.191 2.188,3.289 4.379,3.289 7.27,0 13.828,-1.488 19.691,-4.379 9.45,-3.672 13.469,-10.23 12.028,-19.691 0,-3.668 -0.739,-6.949 -2.188,-9.84 0.699,0 1.449,0 2.188,0 10.941,1.449 20.043,2.191 27.34,2.191 7.269,0 12.031,-0.742 14.222,-2.191 0.699,-0.738 1.449,-1.84 2.188,-3.277 3.633,-3.672 5.472,-7.313 5.472,-10.942 0,-4.371 -2.191,-6.558 -6.562,-6.558 -16.801,-2.192 -28.828,-5.121 -36.098,-8.75 -2.191,-1.493 -5.121,-3.672 -8.75,-6.563 -2.191,-2.187 -3.281,-3.289 -3.281,-3.289 l -5.469,-2.18 5.469,5.469 c 0,-0.75 -1.09,-1.098 -3.281,-1.098 -0.739,0 0.351,0.708 3.281,2.188 -0.738,0.699 -2.191,0.352 -4.371,-1.09 0,-0.75 -0.399,-2.187 -1.098,-4.379 -2.191,-6.558 -3.672,-10.941 -4.371,-13.121 0.699,0.699 2.18,1.789 4.371,3.281 5.078,3.629 9.098,5.469 12.028,5.469 5.82,-1.488 9.851,-6.211 12.031,-14.219 0,-10.242 0,-21.171 0,-32.82 -0.738,-10.93 -0.738,-27.73 0,-50.3085 0.711,-14.6133 1.101,-25.543 1.101,-32.8125 -0.742,-12.3789 -2.191,-20.3907 -4.382,-24.0586 -3.668,-4.3789 -8.75,-6.1719 -15.309,-5.4688 -2.93,0.7383 -4.77,4.0196 -5.469,9.8399 -0.742,0.7383 -1.09,1.4883 -1.09,2.1875 -0.742,2.9297 -2.582,5.4726 -5.472,7.6601 -0.739,1.4805 -1.489,2.5703 -2.188,3.2813 l 0,1.0898 z m -94.062,76.5588 c 0.703,-3.668 1.801,-5.469 3.281,-5.469 0.699,-0.742 1.449,-1.48 2.191,-2.18 7.258,-8.05 14.219,-12.421 20.778,-13.129 9.453,0 16.011,1.797 19.691,5.469 6.559,4.379 13.469,13.828 20.781,28.442 10.93,26.949 18.2,50.308 21.868,70 -23.36,-6.563 -43.75,-14.614 -61.25,-24.063 -19.688,-10.937 -31.008,-21.879 -33.899,-32.82 0,-2.18 0,-4.758 0,-7.649 0.699,-9.492 2.891,-16.062 6.559,-19.691 l 0,1.09 z m 101.722,-9.84 c 2.887,-4.371 7.258,-8.051 13.118,-10.938 0,16.02 0,34.61 0,55.778 0,3.64 0,6.922 0,9.851 -1.481,1.438 -2.93,2.18 -4.368,2.18 -6.562,-2.18 -12.031,-5.851 -16.41,-10.93 0,-0.742 -0.39,-2.191 -1.09,-4.379 -0.742,-6.562 -1.492,-12.031 -2.191,-16.402 1.449,0 3.629,0.352 6.559,1.09 2.191,0.699 3.64,1.09 4.382,1.09 6.559,-1.481 9.84,-4.367 9.84,-8.75 0,-2.93 -1.48,-5.461 -4.371,-7.649 -3.68,-2.929 -5.469,-6.57 -5.469,-10.941 z m 6.559,95.16 c -0.738,-2.187 -1.84,-6.211 -3.281,-12.031 8.75,6.562 13.48,10.933 14.222,13.121 -5.121,0 -8.75,-0.391 -10.941,-1.09 z" />
        <path
           inkscape:connector-curvature="0"
           id="path4175"
           style="fill:none;stroke:#ff0000;stroke-width:2.83465004;stroke-linecap:butt;stroke-linejoin:miter;stroke-miterlimit:4;stroke-dasharray:none;stroke-opacity:1"
           d="m 693.75,14.793 c -0.738,2.1914 -2.191,4.7695 -4.371,7.6601 -2.188,5.1094 -4.379,9.1407 -6.57,12.0313 l -2.188,0 c -3.672,0 -6.562,-0.3516 -8.742,-1.1016 -0.75,-5.0703 -3.289,-8 -7.66,-8.75 -5.117,0.75 -8.75,8.0508 -10.938,21.8828 -0.742,10.9375 -0.39,25.8594 1.098,44.8399 2.18,18.2075 6.562,29.5275 13.121,33.9105 0,0 0,0.699 0,2.187 -0.738,1.442 -1.09,2.539 -1.09,3.281 1.442,0 2.891,-0.39 4.371,-1.101 2.188,-1.481 3.629,-2.18 4.379,-2.18 3.629,0 5.461,4.371 5.461,13.121 0,1.449 0,4.379 0,8.75 0.707,6.559 1.098,11.289 1.098,14.219 -7.309,0 -14.219,0 -20.778,0 -8.75,-12.418 -18.992,-22.969 -30.632,-31.719 C 615,117.953 603.672,110.305 596.41,108.855 c -5.859,0 -9.851,2.188 -12.031,6.559 -0.75,0 -1.098,0.711 -1.098,2.191 0,3.637 3.989,5.817 12.028,6.567 25.511,10.933 52.5,36.441 80.941,76.562 -11.68,-2.191 -23.359,-5.468 -35,-9.851 -8.051,-2.93 -14.219,-4.367 -18.59,-4.367 -6.57,2.187 -12.039,4.726 -16.41,7.656 0.699,0 0.699,0.351 0,1.094 -0.738,1.437 -0.391,2.539 1.09,3.277 5.082,0 9.851,0.352 14.219,1.09 7.269,1.449 17.851,3.992 31.722,7.66 13.828,3.629 24.059,6.172 30.629,7.66 0,5.07 0,10.93 0,17.5 -0.75,4.371 -0.75,8 0,10.93 -10.238,-2.18 -21.18,-2.93 -32.82,-2.18 1.449,0 4.379,1.09 8.75,3.281 0.711,0.7 1.101,1.09 1.101,1.09 -0.742,0 -1.839,0 -3.281,0 -5.859,-1.48 -9.14,-1.48 -9.851,0 38.64,10.942 58.671,21.879 60.16,32.809 3.633,0 7.261,-3.278 10.941,-9.84 0,0 0.352,-1.09 1.09,-3.277 0,-2.192 0,-3.672 0,-4.383 0,-0.738 -0.391,-1.481 -1.09,-2.18 -0.75,0 -1.101,-0.39 -1.101,-1.098 -5.86,-5.863 -14.219,-9.839 -25.149,-12.031 2.18,-5.859 2.891,-15.308 2.18,-28.441 0.711,0 1.449,0 2.191,0 13.828,2.89 24.418,3.992 31.719,3.281 5.82,0 10.199,-2.57 13.129,-7.648 -2.188,-2.934 -5.859,-5.121 -10.938,-6.563 -10.242,0.699 -22.269,0 -36.101,-2.187 -0.738,-6.563 -1.09,-17.891 -1.09,-33.911 15.309,0 29.879,-1.832 43.75,-5.472 9.449,-1.481 16.02,-5.86 19.691,-13.117 0.7,-3.672 -1.492,-5.121 -6.57,-4.383 -0.742,0 -1.832,0.359 -3.281,1.101 -1.481,0 -2.93,0 -4.371,0 0,0 -0.391,0 -1.09,0 -2.93,-0.742 -4.77,0 -5.469,2.18 l 1.09,0 c 0,0 -0.738,0.359 -2.191,1.102 0,-0.743 -0.739,-1.102 -2.188,-1.102 0,0 -0.391,0.359 -1.09,1.102 l 5.469,2.187 0,1.09 c -4.379,1.449 -8.051,2.539 -10.941,3.281 -10.938,2.192 -21.868,3.629 -32.809,4.379 -0.738,-4.379 -1.09,-10.937 -1.09,-19.687 0,-2.192 0,-5.473 0,-9.852 -0.75,-5.109 -1.101,-8.742 -1.101,-10.93 2.89,2.891 6.171,4.371 9.851,4.371 10.192,2.887 16.75,0.348 19.68,-7.652 l 0,-24.0702 c 1.449,-27.7305 -1.481,-51.3984 -8.75,-71.0898 -2.93,-8.75 -8.039,-12.7305 -15.309,-12.0274 l -1.09,0 -2.191,3.2774 z m 0,24.0625 c 1.449,0 2.539,0 3.281,0 l 1.09,0 c 1.449,0 2.539,1.4883 3.289,4.3789 2.18,13.1211 3.281,24.7578 3.281,35 -5.121,0 -9.492,-2.5821 -13.132,-7.6602 -2.93,-2.9297 -5.469,-5.1211 -7.649,-6.5586 1.442,2.1875 2.539,3.6289 3.281,4.3672 0.7,0.711 1.438,1.4492 2.188,2.1914 0.699,1.4492 1.441,2.8906 2.18,4.3789 -0.739,-0.75 -1.829,-1.8398 -3.278,-3.2812 -5.859,-7.3086 -9.84,-10.9375 -12.031,-10.9375 0,0.6992 0.352,1.0898 1.09,1.0898 0,0.6992 1.801,2.5391 5.469,5.4688 2.191,3.6289 4.382,6.9101 6.57,9.8398 l -2.188,0 c -2.191,0 -5.472,-0.3906 -9.851,-1.0898 -4.371,-0.7383 -7.301,-1.0899 -8.75,-1.0899 0,-12.4297 0.711,-22.2695 2.191,-29.539 0,-1.4414 0,-2.1797 0,-2.1797 l 3.278,0 c 2.191,0 5.082,0.3906 8.75,1.0898 2.89,0.7383 5.082,1.0899 6.57,1.0899 3.633,-0.6993 6.172,-1.7891 7.652,-3.2813 l 0,-1.0898 c -2.191,0 -3.281,-0.6992 -3.281,-2.1875 z m -25.16,59.0586 c 0,-8.7422 0,-14.6016 0,-17.5 2.89,0 7.269,1.1015 13.129,3.289 5.82,1.4414 9.84,2.1797 12.031,2.1797 6.559,1.4492 10.551,0 12.031,-4.3672 1.449,11.6367 1.449,22.5784 0,32.8084 0,3.629 -1.832,4.731 -5.472,3.281 -0.739,-0.742 -2.579,-1.832 -5.469,-3.281 -7.301,-4.371 -12.77,-6.211 -16.399,-5.469 -4.382,0 -7.66,1.797 -9.851,5.469 0,-5.121 0,-10.582 0,-16.4099 z m -1.09,73.2889 c 4.379,0 9.449,0 15.309,0 0,8.75 0,16.012 0,21.871 -0.739,-0.742 -2.579,-2.929 -5.469,-6.558 -6.559,-9.493 -9.84,-14.614 -9.84,-15.313 z m 1.09,-54.687 c 3.64,-2.192 6.18,-1.844 7.66,1.089 -2.191,1.45 -4.371,3.278 -6.559,5.469 0,0 0,-0.742 0,-2.191 -0.742,-2.18 -1.101,-3.668 -1.101,-4.367 z m -3.281,133.437 c 0,0 0,-0.39 0,-1.098 1.453,0.708 1.453,1.098 0,1.098 z m 6.57,-5.469 1.09,-1.101 0,1.101 -1.09,0 z m -3.289,5.469 c -0.738,0 -0.738,-0.39 0,-1.098 0,0.708 0,1.098 0,1.098 z" />
        <path
           inkscape:connector-curvature="0"
           id="path4177"
           style="fill:none;stroke:#ff0000;stroke-width:2.83465004;stroke-linecap:butt;stroke-linejoin:miter;stroke-miterlimit:4;stroke-dasharray:none;stroke-opacity:1"
           d="m 966.09,160.266 2.191,0 -6.562,-2.192 c -2.188,-13.121 -5.469,-25.16 -9.84,-36.09 0,-0.742 -0.399,-1.839 -1.098,-3.281 -0.742,-4.379 -1.832,-7.308 -3.281,-8.75 16.762,-12.4296 28.441,-26.6405 35,-42.66 0,-5.1211 -2.93,-8.3985 -8.75,-9.8399 -3.672,0 -6.949,3.9805 -9.84,12.0313 -1.488,3.6289 -2.582,5.8203 -3.289,6.5586 -5.109,7.2695 -11.672,14.2226 -19.68,20.7812 -11.679,-20.4297 -27.742,-31.0117 -48.132,-31.7187 -2.93,-0.7422 -6.95,-0.3907 -12.028,1.0976 -2.929,0.6992 -5.472,1.0899 -7.66,1.0899 0,0.6992 0.359,1.4492 1.098,2.1914 0.703,1.4375 1.09,2.1875 1.09,2.1875 2.89,-0.75 6.57,-0.3985 10.941,1.0937 1.449,0.6992 2.539,1.0899 3.281,1.0899 17.5,5.8164 30.629,16.0195 39.379,30.6285 -6.57,4.371 -13.871,8.008 -21.879,10.93 -0.742,0 -1.832,0.359 -3.281,1.102 -4.371,0 -6.949,1.437 -7.66,4.367 0,2.191 2.191,6.57 6.57,13.133 2.891,2.886 5.07,6.558 6.559,10.937 -13.867,-4.379 -28.09,-8.051 -42.66,-10.937 -1.481,0 -3.278,-1.102 -5.469,-3.282 -3.668,-2.191 -6.559,-3.281 -8.75,-3.281 -8.75,0 -14.961,3.281 -18.59,9.84 0,1.449 0,2.539 0,3.281 2.191,0.699 5.82,1.449 10.941,2.192 2.887,0.699 4.719,1.089 5.469,1.089 7.262,1.45 18.199,3.637 32.809,6.559 13.832,2.191 24.41,3.988 31.722,5.469 3.629,9.461 8.008,22.23 13.118,38.289 3.64,10.191 6.57,18.594 8.75,25.152 2.191,6.559 3.281,11.641 3.281,15.309 0,3.64 -0.738,7.269 -2.18,10.941 l 1.09,0 c 0.699,0 1.449,-0.742 2.191,-2.191 0.7,-1.481 1.438,-2.18 2.18,-2.18 l 1.098,0 c 0.703,0.699 1.09,1.09 1.09,1.09 7.269,-8.051 9.101,-16.41 5.472,-25.16 -7.301,-19.68 -15.312,-39.367 -24.062,-59.059 2.89,0.699 6.562,1.449 10.941,2.192 5.07,0.699 8.75,1.089 10.93,1.089 1.449,4.379 2.191,9.458 2.191,15.317 0,1.441 -0.39,2.891 -1.09,4.371 -0.742,0.699 -1.101,1.449 -1.101,2.191 l 0,1.09 c 0.711,2.192 3.64,3.629 8.75,4.379 3.64,-0.75 5.82,-3.68 6.57,-8.75 0,-2.187 -0.39,-5.469 -1.101,-9.848 0,-3.671 0,-6.21 0,-7.652 0.711,0 1.453,0.352 2.191,1.09 1.449,0 2.191,0 2.191,0 0.7,0 1.09,-0.391 1.09,-1.09 l -3.281,0 c 0,0 0,-0.39 0,-1.098 l 1.09,-1.089 z m 17.5,2.187 c 0,0.699 0.711,1.09 2.191,1.09 1.449,0 3.989,-0.738 7.66,-2.188 2.887,-2.183 5.469,-4.371 7.649,-6.562 6.57,2.191 12.74,3.98 18.6,5.473 14.57,4.367 28.04,6.558 40.47,6.558 5.07,-1.48 10.19,-4.371 15.31,-8.75 2.89,-2.929 3.63,-6.211 2.19,-9.84 -6.57,-15.32 -13.13,-29.531 -19.69,-42.66 0,-2.191 0,-3.281 0,-3.281 0,-5.1211 -4.38,-8.0508 -13.13,-8.75 -4.37,0.6992 -10.93,1.0898 -19.68,1.0898 -3.68,0 -6.21,0 -7.66,0 0,-0.7383 -0.39,-1.4805 -1.09,-2.1797 -0.75,-2.1875 -2.58,-2.9297 -5.47,-2.1875 -5.12,0.6992 -8.75,6.168 -10.94,16.4064 -0.738,2.183 -1.09,3.633 -1.09,4.371 -1.488,5.082 -3.289,12.379 -5.469,21.871 -2.929,10.199 -5.121,17.5 -6.562,21.879 -2.188,4.379 -3.289,6.91 -3.289,7.66 z m 64.53,-6.57 c -8.04,0 -19.68,-1.481 -35,-4.367 -3.67,-0.743 -6.56,-1.493 -8.74,-2.192 2.18,-4.371 4.37,-11.332 6.56,-20.781 2.18,-10.23 4.37,-17.5 6.56,-21.871 6.56,0 13.12,0.351 19.69,1.094 5.82,13.117 10.19,27.339 13.12,42.648 1.45,4.379 0.71,6.18 -2.19,5.469 z M 912.5,127.453 c 7.27,-2.187 15.309,-5.469 24.059,-9.848 1.453,3.637 2.543,6.918 3.281,9.848 2.89,8.75 5.469,17.852 7.66,27.34 -8.051,-2.93 -16.41,-5.469 -25.16,-7.66 -2.93,-6.559 -6.211,-13.117 -9.84,-19.68 z" />
        <path
           inkscape:connector-curvature="0"
           id="path4179"
           style="fill:none;stroke:#ff0000;stroke-width:2.83465004;stroke-linecap:butt;stroke-linejoin:miter;stroke-miterlimit:4;stroke-dasharray:none;stroke-opacity:1"
           d="m 1179.38,66.2031 c -0.75,0 -1.49,0 -2.19,0 l -1.1,0 c -1.48,1.4414 -2.57,2.1797 -3.28,2.1797 0,1.4492 -0.74,3.6406 -2.19,6.5703 -1.48,2.1797 -2.18,3.6289 -2.18,4.3711 -1.49,3.6289 -4.38,11.6406 -8.75,24.0588 -0.74,2.89 -1.49,5.082 -2.19,6.57 0,1.442 -0.74,3.281 -2.19,5.461 -1.48,4.379 -2.19,7.27 -2.19,8.758 0.71,0.703 1.1,1.441 1.1,2.183 0,1.45 -0.39,2.188 -1.1,2.188 0,0 0,0.699 0,2.191 0,2.891 1.8,4.371 5.47,4.371 1.45,0 3.29,-1.48 5.47,-4.371 2.89,-3.671 5.08,-5.859 6.56,-6.562 2.9,0.703 5.83,1.441 8.76,2.183 0.7,0.708 1.44,1.098 2.18,1.098 1.45,13.121 5.08,25.152 10.94,36.09 -5.12,-2.188 -13.12,-3.277 -24.06,-3.277 -1.49,0 -5.12,1.089 -10.94,3.277 -2.19,1.449 -3.67,2.191 -4.38,2.191 -0.74,0.7 -1.83,1.438 -3.28,2.18 -2.93,2.899 -4.37,5.078 -4.37,6.57 -0.74,2.891 0.35,4.719 3.28,5.469 1.45,0 4.73,0.352 9.84,1.09 16.02,0 28.44,1.801 37.19,5.473 5.08,16.007 7.66,29.136 7.66,39.367 -0.74,7.269 -2.19,13.133 -4.38,17.5 -0.74,1.449 -1.09,2.539 -1.09,3.289 l 0,1.094 c 0.7,0.699 1.44,1.437 2.19,2.187 l 7.65,0 c 1.45,-0.75 3.28,-1.098 5.47,-1.098 3.63,-0.742 6.17,-1.832 7.66,-3.281 2.89,-4.371 4.37,-9.492 4.37,-15.308 -0.74,-5.864 -2.19,-14.614 -4.37,-26.25 -0.74,-5.864 -1.49,-10.243 -2.19,-13.133 2.19,0 4.73,0 7.66,0 3.63,0 6.56,0 8.75,0 2.89,-1.481 4.37,-4.367 4.37,-8.75 0,0 0,-0.391 0,-1.09 0.7,-2.188 0.35,-3.668 -1.09,-4.371 -5.12,-2.188 -13.13,-4.379 -24.06,-6.567 -6.57,-16.05 -13.87,-29.183 -21.88,-39.371 2.19,0 5.47,0.7 9.84,2.18 2.89,1.449 4.73,2.191 5.47,2.191 0.71,0 1.45,0 2.19,0 2.89,-0.742 5.08,0 6.56,2.188 l 10.94,0 c 5.82,-1.48 9.1,-5.121 9.84,-10.938 -0.74,-2.933 -2.18,-6.21 -4.37,-9.839 -0.74,-1.493 -1.49,-2.582 -2.19,-3.282 -0.74,-0.742 -1.48,-2.191 -2.19,-4.379 -2.93,-5.863 -4.76,-9.4917 -5.47,-10.9409 -0.74,-2.1797 -2.92,-5.1094 -6.56,-8.7422 -0.74,-1.4883 -1.83,-3.2891 -3.28,-5.4688 -0.74,-2.9297 -3.67,-4.3789 -8.75,-4.3789 -7.3,-1.4804 -12.42,-2.1914 -15.31,-2.1914 0.7,0 1.09,-1.4805 1.09,-4.3672 0,-1.4922 -0.74,-2.9336 -2.19,-4.3828 -0.74,0 -1.48,-0.3906 -2.18,-1.0898 0,-0.7383 -0.39,-2.1875 -1.1,-4.3789 -1.48,0 -3.28,1.1015 -5.46,3.289 z M 1210,51.9844 c 0,0.6992 0,1.0898 0,1.0898 0.7,0 0.7,0.3477 0,1.0977 0,1.4414 0.7,2.1836 2.19,2.1836 7.26,-1.4805 16.4,1.4492 27.34,8.75 15.31,10.9375 27.35,25.5078 36.09,43.7495 -4.37,7.27 -10.93,16.411 -19.68,27.348 -0.74,0.699 -1.1,1.442 -1.1,2.18 -1.48,2.191 -2.93,3.992 -4.37,5.472 -0.74,0.708 -2.19,1.45 -4.38,2.188 -5.86,1.449 -8.75,3.629 -8.75,6.562 0.71,2.887 2.54,6.567 5.47,10.938 2.19,0.699 3.64,1.09 4.38,1.09 2.19,1.449 4.37,3.992 6.56,7.66 10.2,11.641 20.39,35.352 30.63,71.09 0,0.711 0,2.191 0,4.383 1.44,3.629 1.44,6.558 0,8.75 0,1.437 -0.75,2.187 -2.19,2.187 l 0,1.09 c 0.7,0.699 1.09,1.09 1.09,1.09 1.45,0.711 2.89,1.101 4.38,1.101 2.89,0 4.72,-0.742 5.46,-2.191 l 0,-4.379 c 0,-10.23 -1.83,-20.781 -5.46,-31.711 -4.38,-16.801 -11.33,-33.91 -20.78,-51.41 7.26,0 21.87,3.281 43.74,9.84 0.71,0 1.8,0.359 3.29,1.101 10.19,2.891 17.5,4.371 21.87,4.371 l 4.38,0 c 1.44,-1.48 2.54,-2.191 3.28,-2.191 0,0 0,-0.391 0,-1.09 l 1.09,0 -1.09,0 c 0,0 -0.39,-0.39 -1.1,-1.09 -0.74,0 -1.09,-0.742 -1.09,-2.191 -0.74,-1.48 -2.19,-2.578 -4.37,-3.277 -0.75,0 -3.29,-0.391 -7.66,-1.094 -16.06,-2.93 -26.64,-5.117 -31.72,-6.567 2.19,-5.863 2.89,-11.683 2.19,-17.5 -2.93,-14.613 -6.96,-28.082 -12.03,-40.472 10.19,-13.1174 20.78,-22.9611 31.72,-29.5275 0.7,-0.7422 2.18,-1.4805 4.37,-2.1914 8.01,-5.8516 15.66,-9.4922 22.97,-10.9297 1.44,-0.7422 3.98,-1.4922 7.66,-2.1914 11.64,-2.1875 19.68,-4.3789 24.06,-6.5586 l 3.28,-4.3789 c 1.44,0 2.19,-1.0899 2.19,-3.2813 0,-2.9297 -2.93,-4.3711 -8.75,-4.3711 -15.32,1.4414 -28.44,3.6289 -39.38,6.5625 -7.3,1.4375 -16.05,6.9063 -26.25,16.4063 -6.56,5.8203 -14.96,14.5703 -25.15,26.2422 0.7,-0.7422 0.35,-0.3907 -1.1,1.1015 -0.74,-0.7422 -1.83,-2.1914 -3.28,-4.3828 -10.23,-16.0508 -18.98,-26.9883 -26.25,-32.8086 -9.49,-9.4922 -21.87,-13.8711 -37.19,-13.1211 -4.37,1.4414 -6.56,2.5391 -6.56,3.2813 z m 51.41,94.0586 c 1.44,-1.48 5.07,-5.859 10.93,-13.129 3.64,-5.109 6.57,-8.742 8.75,-10.93 4.38,6.559 8.01,18.938 10.94,37.188 0,6.562 -1.09,9.844 -3.28,9.844 -8.05,-1.493 -16.41,-2.192 -25.16,-2.192 -6.56,-6.558 -9.84,-10.23 -9.84,-10.941 0,-1.481 1.8,-4.02 5.47,-7.649 0.7,-0.742 1.44,-1.492 2.19,-2.191 z m -76.57,-60.1602 c 8.01,0.711 13.48,1.8008 16.41,3.2891 1.45,0.7031 5.08,8.7422 10.94,24.0621 0,0 0.35,1.09 1.09,3.282 0.7,3.629 1.1,5.816 1.1,6.558 0,0.699 -0.4,1.098 -1.1,1.098 -2.19,0 -5.12,-0.75 -8.75,-2.188 -2.19,-0.742 -3.67,-1.101 -4.37,-1.101 -7.31,-2.18 -16.06,-3.668 -26.25,-4.367 3.63,-10.942 7.26,-21.1722 10.93,-30.6332 z m 40.47,-29.5273 0,-1.0899 0,1.0899 z" />
      </g>
    </g>
  </g>
</svg>
