<?xml version="1.0" encoding="UTF-8" standalone="no"?>
<!-- Created with Inkscape (http://www.inkscape.org/) -->

<svg
   xmlns:dc="http://purl.org/dc/elements/1.1/"
   xmlns:cc="http://creativecommons.org/ns#"
   xmlns:rdf="http://www.w3.org/1999/02/22-rdf-syntax-ns#"
   xmlns:svg="http://www.w3.org/2000/svg"
   xmlns="http://www.w3.org/2000/svg"
   xmlns:sodipodi="http://sodipodi.sourceforge.net/DTD/sodipodi-0.dtd"
   xmlns:inkscape="http://www.inkscape.org/namespaces/inkscape"
   width="70.099991mm"
   height="30.1mm"
   viewBox="0 0 248.38579 106.65354"
   id="svg2"
   version="1.1"
   inkscape:version="0.91 r13725"
   sodipodi:docname="wxy.svg">
  <defs
     id="defs4" />
  <sodipodi:namedview
     id="base"
     pagecolor="#ffffff"
     bordercolor="#666666"
     borderopacity="1.0"
     inkscape:pageopacity="0.0"
     inkscape:pageshadow="2"
     inkscape:zoom="1.979899"
     inkscape:cx="-36.518165"
     inkscape:cy="65.693098"
     inkscape:document-units="mm"
     inkscape:current-layer="layer1"
     showgrid="false"
     inkscape:window-width="1680"
     inkscape:window-height="1001"
     inkscape:window-x="0"
     inkscape:window-y="23"
     inkscape:window-maximized="1"
     fit-margin-top="0"
     fit-margin-left="0"
     fit-margin-right="0"
     fit-margin-bottom="0" />
  <metadata
     id="metadata7">
    <rdf:RDF>
      <cc:Work
         rdf:about="">
        <dc:format>image/svg+xml</dc:format>
        <dc:type
           rdf:resource="http://purl.org/dc/dcmitype/StillImage" />
        <dc:title></dc:title>
      </cc:Work>
    </rdf:RDF>
  </metadata>
  <g
     inkscape:label="Layer 1"
     inkscape:groupmode="layer"
     id="layer1"
     transform="translate(-134.16162,-188.65336)">
    <g
       id="g4180"
       transform="translate(6.5659915,15.723612)">
      <circle
         r="8.8590174"
         cy="226.25652"
         cx="147.26099"
         id="path4138"
         style="opacity:1;fill:none;fill-opacity:0.39215686;fill-rule:nonzero;stroke:#ff0000;stroke-width:0.35283187;stroke-miterlimit:4;stroke-dasharray:none;stroke-opacity:1" />
      <ellipse
         ry="53.149456"
         rx="124.01559"
         cy="226.25652"
         cx="251.78853"
         id="path4159"
         style="opacity:1;fill:none;fill-opacity:0.39215686;fill-rule:nonzero;stroke:#ff0000;stroke-width:0.35462967;stroke-miterlimit:4;stroke-dasharray:none;stroke-opacity:1" />
    </g>
    <text
       xml:space="preserve"
       style="font-style:normal;font-weight:normal;font-size:40px;line-height:125%;font-family:sans-serif;letter-spacing:0px;word-spacing:0px;fill:#000000;fill-opacity:1;stroke:none;stroke-width:1px;stroke-linecap:butt;stroke-linejoin:miter;stroke-opacity:1"
       x="169.28571"
       y="350.21936"
       id="text4198"
       sodipodi:linespacing="125%"><tspan
         sodipodi:role="line"
         id="tspan4200"
         x="169.28571"
         y="350.21936" /></text>
    <g
       transform="translate(10.565991,15.723618)"
       id="layer1-6"
       inkscape:label="Layer 1">
      <g
         style="font-style:normal;font-weight:normal;font-size:40px;line-height:125%;font-family:sans-serif;letter-spacing:0px;word-spacing:0px;fill:#000000;fill-opacity:1;stroke:none;stroke-width:1px;stroke-linecap:butt;stroke-linejoin:miter;stroke-opacity:1"
         id="text4198-7" />
      <g
         style="font-style:normal;font-weight:normal;font-size:40px;line-height:125%;font-family:sans-serif;letter-spacing:0px;word-spacing:0px;fill:none;fill-opacity:1;stroke:#ff0000;stroke-width:0.35433072;stroke-linecap:butt;stroke-linejoin:miter;stroke-miterlimit:4;stroke-dasharray:none;stroke-opacity:1"
         id="text4214">
        <path
           d="m 195.394,224.33719 q -1.09375,0.27344 -3.14453,1.09375 -1.36719,0.41015 -2.05079,0.68359 -0.13671,1.23047 -0.27343,3.69141 -0.27344,2.73437 -0.41016,3.96484 0.13672,0 0.13672,0.13672 3.28125,-3.00781 5.87891,-6.28906 0.68359,-0.95703 0.27343,0.27344 -1.36718,3.41796 -4.375,6.97265 -0.13672,0.27344 -0.54687,0.6836 -0.27344,0.27343 -1.23047,1.5039 -0.54688,0.82031 -1.09375,0.82031 -0.82031,-0.13671 -1.09375,-1.91406 0,-0.41015 0.27344,-1.23047 0.27343,-0.41015 0.27343,-0.54687 0.82032,-7.10938 0.82032,-14.62891 0,-0.27344 -0.13672,-0.82031 -0.13672,-0.41016 -0.13672,-0.68359 -0.13672,-0.41016 0.54687,-0.41016 0.41016,0.13672 0.54688,0.13672 0.41016,0.54687 0.54687,1.36719 0.54688,-0.41016 2.1875,-1.64063 0.13672,-0.13672 0.27344,-0.27344 0,-0.13672 0,-0.27343 0,-0.82032 0.13672,-1.09375 0.41016,-0.41016 0.82031,-0.41016 0.27344,0 0.6836,0.41016 0.82031,-0.27344 1.64062,-1.09375 0.13672,0 0.27344,-0.41016 0.13672,-0.54688 0.41016,-0.41016 1.09375,0.27344 1.36718,1.23047 -0.13672,1.50391 -1.23047,2.05078 -0.68359,0 -2.05078,0.54688 0.54688,2.05078 1.36719,4.78515 0.41016,-0.13671 1.09375,-0.41015 0.41016,-0.13672 1.50391,-0.6836 0,-0.13671 0,-0.27343 0.13672,-0.41016 0.68359,-0.41016 0.27344,-0.13672 0.41016,-0.13672 1.23047,0.13672 1.5039,0.95703 0.27344,0.41016 -0.27343,0.95703 -0.27344,0.41016 -1.09375,0.54688 -0.13672,0 -0.41016,-0.13672 -0.27344,0 -0.41016,0 -1.23047,0.27344 -2.59765,0.68359 2.05078,7.92969 5.19531,13.39844 0.41016,1.09375 0.82031,1.23047 0.54688,0 0.54688,-2.1875 0,-0.82031 0.13672,-2.05078 0.13671,-1.09375 0.13671,-1.77734 0,-1.09375 0.27344,-1.36719 0,0.41015 0.13672,1.36719 0,0.95703 0,1.36718 0.41016,-0.41015 0.41016,-0.13672 0,0.54688 0.13672,1.64063 0.27343,2.1875 0.27343,3.14453 -0.27343,1.23047 -0.68359,2.1875 -0.27344,0.13672 -0.95703,0.27344 -1.09375,-0.27344 -1.77735,-1.77735 -3.41796,-5.8789 -5.74218,-14.6289 z m -5.0586,-4.375 q 0,1.77734 -0.13672,4.64844 1.23047,-0.27344 3.96485,-1.23047 0.54687,-0.13672 0.82031,-0.27344 -0.68359,-2.46094 -1.50391,-4.64844 -1.5039,0.54688 -3.14453,1.50391 z m -9.98047,20.37109 q 0.13672,-0.82031 0.27344,-2.46094 0.27344,-1.64062 0.27344,-2.46093 0,-3.00782 0.41016,-8.33985 -0.6836,1.23047 -1.91407,2.46094 -0.95703,1.23047 -2.59765,2.73438 -1.36719,1.64062 -2.59766,0.95703 -0.27344,0 -0.27344,-0.27344 0,-0.54688 0.95703,-1.09375 0.27344,-0.27344 0.41016,-0.41016 3.14453,-3.14453 5.60547,-6.5625 1.50391,-2.46093 2.05078,-4.10156 -2.05078,1.09375 -4.64844,2.32422 -2.46093,1.09375 -3.82812,0.27344 -1.09375,-0.41016 -1.09375,-1.64063 0.13672,-0.82031 1.09375,-0.95703 0,0.54688 0.27344,0.54688 0.95703,0 3.00781,-0.6836 0.95703,-0.41015 1.5039,-0.54687 0.54688,-0.13672 1.77735,-0.41016 1.09375,-0.27344 1.64062,-0.41016 2.32422,-0.82031 2.59766,0.27344 0,0.41016 -0.41016,1.64063 -0.13672,0.41015 -0.13672,0.54687 -0.27343,0.41016 -0.95703,1.77735 1.50391,-1.36719 2.32422,-0.95704 1.09375,0 1.09375,0.82032 -1.64062,1.64062 -3.96484,1.09375 -0.13672,0.54687 -0.54688,0.95703 0.13672,0.27344 0.13672,1.5039 0.82031,0 1.64063,0.41016 0.41015,0.13672 0.95703,0.95703 0.13672,0.13672 0.27344,0.27344 0.54687,0.68359 0.13671,1.09375 -0.68359,0.13672 -1.09375,0 -0.13671,-0.13672 -0.68359,-0.68359 -0.95703,-1.09375 -1.23047,-1.09375 0.27344,4.64843 -0.13672,8.33984 0,3.14453 -0.27343,5.19531 -0.13672,0.27344 -0.82032,0.27344 -1.09375,-0.13672 -1.23047,-1.36719 z m 2.8711,-25.70312 q 0,-0.13672 0.41015,-0.27344 0.13672,-0.13672 0.13672,-0.13672 0,-0.54687 -0.82031,-1.36719 -0.27344,-0.27343 -0.54687,-0.95703 -0.27344,-0.68359 -0.54688,-0.95703 0,-0.27344 1.64063,-0.68359 3.82812,0.41015 3.96484,3.82812 -0.41016,1.36719 -1.36719,1.50391 -0.82031,0 -1.09375,-0.41016 -0.13672,0 -0.54687,0 -1.23047,-0.13672 -1.23047,-0.54687 z"
           style="font-style:normal;font-variant:normal;font-weight:normal;font-stretch:normal;font-size:35px;font-family:FZQiTi-S14T;-inkscape-font-specification:FZQiTi-S14T;fill:none;stroke:#ff0000;stroke-width:0.35433072;stroke-miterlimit:4;stroke-dasharray:none;stroke-opacity:1"
           id="path4629" />
        <path
           d="m 225.3354,238.82938 q 0.95703,0.68359 1.50391,0.68359 0.41016,-0.13672 0.68359,-1.36719 0,-0.54687 0.13672,-1.64062 0.27344,-2.05078 0.27344,-3.14453 -0.82031,0.27343 -1.36719,0.54687 -0.27344,0.13672 -0.27344,0.27344 -0.68359,0.54687 -1.64062,0.68359 0,-0.54687 0.68359,-1.23047 0.54688,-0.68359 0.54688,-0.95703 l 0,-0.13672 -0.6836,-0.68359 q -0.68359,-0.41016 -0.68359,-0.95703 0.41016,-0.82031 0.41016,-0.95703 0,-0.13672 0,-0.13672 0.27343,-0.13672 0.54687,-0.13672 0.41016,-0.54688 0.54688,-0.95703 0,-0.13672 -0.41016,-0.13672 -0.68359,0 -0.95703,0.54687 -0.41016,3.82813 -0.41016,10.52735 0,0.41015 0,0.68359 -0.13672,0.54688 -0.27343,0.6836 -0.6836,0 -1.50391,-1.09375 -0.27344,-1.23047 -0.13672,-3.55469 0,-0.54688 0,-0.82031 0,-1.09375 0.41016,-3.69141 0.27343,-1.77734 0.27343,-2.59766 -1.09375,2.1875 -2.73437,3.28125 -1.77734,1.23047 -3.69141,0.82032 -1.64062,-0.27344 -2.87109,-1.50391 0,0 0.13672,-0.13672 0.41015,0 0.27344,-0.13672 -0.13672,-0.27344 -0.54688,-0.95703 l 0,-0.13672 q 0.95703,0.82031 0.95703,0.6836 -0.41015,-0.6836 -1.23047,-1.23047 0,-0.27344 -0.13672,-0.27344 0,0.41016 0.27344,0.68359 l 0,0.13672 q -0.41015,-0.41015 -0.41015,-0.82031 0.13671,0 0,-0.27344 -0.27344,0 -0.27344,0 0.13672,-0.41015 -0.27344,-1.5039 -0.13672,-0.41016 -0.13672,-0.54688 0,-0.13672 0,-0.68359 -0.13672,-0.54688 -0.13672,-0.54688 0,-0.13672 -0.13672,-0.27344 -0.13671,-0.13671 -0.13671,-0.13671 0,-2.05079 1.64062,-3.28125 5.46875,-3.96485 11.34766,-5.33204 0.54687,-0.82031 0.54687,-1.91406 0,-0.54687 -1.09375,-1.64062 -0.13672,-0.13672 -0.54687,-0.54688 -0.27344,-0.41015 -0.54688,-0.54687 0.13672,-0.41016 0.54688,-0.41016 1.36718,0 2.46093,0.54688 1.77735,0.68359 1.50391,2.46093 0,0.6836 -0.27344,1.23047 0.13672,0 0.27344,0 2.05078,-0.27344 3.41797,-0.27344 1.36719,0 1.77734,0.27344 0.13672,0.13672 0.27344,0.41016 0.68359,0.68359 0.68359,1.36719 0,0.82031 -0.82031,0.82031 -3.14453,0.41015 -4.51172,1.09375 -0.41015,0.27344 -1.09375,0.82031 -0.41015,0.41016 -0.41015,0.41016 l -0.6836,0.27343 0.6836,-0.68359 q 0,0.13672 -0.41016,0.13672 -0.13672,0 0.41016,-0.27344 -0.13672,-0.13672 -0.54688,0.13672 0,0.13672 -0.13672,0.54688 -0.41015,1.23046 -0.54687,1.64062 0.13672,-0.13672 0.54687,-0.41016 0.95703,-0.68359 1.50391,-0.68359 1.09375,0.27344 1.50391,1.77734 0,1.91407 0,4.10157 -0.13672,2.05078 0,6.28906 0.13671,2.73437 0.13671,4.10156 -0.13671,2.32422 -0.54687,3.00781 -0.68359,0.82032 -1.91406,0.6836 -0.54688,-0.13672 -0.6836,-1.23047 -0.13672,-0.13672 -0.13672,-0.27344 -0.13671,-0.54687 -0.68359,-0.95703 -0.13672,-0.27344 -0.27344,-0.41016 l 0,-0.13671 z m -11.75781,-9.57032 q 0.13672,0.6836 0.41016,0.6836 0.13672,0.13672 0.27343,0.27343 1.36719,1.50391 2.59766,1.64063 1.77734,0 2.46094,-0.68359 1.23047,-0.82032 2.59765,-3.55469 2.05079,-5.0586 2.73438,-8.75 -4.375,1.23047 -7.65625,3.00781 -3.69141,2.05078 -4.23828,4.10156 0,0.41016 0,0.95703 0.13672,1.77735 0.82031,2.46094 l 0,-0.13672 z m 12.71484,1.23047 q 0.54688,0.82031 1.64063,1.36719 0,-3.00781 0,-6.97266 0,-0.68359 0,-1.23047 -0.27344,-0.27343 -0.54688,-0.27343 -1.23046,0.41015 -2.05078,1.36718 0,0.13672 -0.13672,0.54688 -0.13671,1.23047 -0.27343,2.05078 0.27343,0 0.82031,-0.13672 0.41016,-0.13672 0.54687,-0.13672 1.23047,0.27344 1.23047,1.09375 0,0.54688 -0.54687,0.95703 -0.6836,0.54688 -0.6836,1.36719 z m 0.82032,-11.89453 q -0.13672,0.41016 -0.41016,1.50391 1.64063,-1.23047 1.77734,-1.64063 -0.95703,0 -1.36718,0.13672 z"
           style="font-style:normal;font-variant:normal;font-weight:normal;font-stretch:normal;font-size:35px;font-family:FZQiTi-S14T;-inkscape-font-specification:FZQiTi-S14T;fill:none;stroke:#ff0000;stroke-width:0.35433072;stroke-miterlimit:4;stroke-dasharray:none;stroke-opacity:1"
           id="path4631" />
        <path
           d="m 259.92525,242.52078 q -0.13672,-0.41015 -0.54688,-0.95703 -0.41015,-0.95703 -0.82031,-1.50391 l -0.27344,0 q -0.68359,0 -1.09375,0.13672 -0.13672,0.95703 -0.95703,1.09375 -0.95703,-0.13672 -1.36719,-2.73437 -0.13672,-2.05078 0.13672,-5.60547 0.41016,-3.41797 1.64063,-4.23828 0,0 0,-0.27344 -0.13672,-0.27344 -0.13672,-0.41016 0.27344,0 0.54687,0.13672 0.41016,0.27344 0.54688,0.27344 0.68359,0 0.68359,-1.64062 0,-0.27344 0,-1.09375 0.13672,-1.23047 0.13672,-1.77735 -1.36719,0 -2.59766,0 -1.64062,2.32422 -3.82812,3.96485 -2.87109,2.59765 -4.23828,2.87109 -1.09375,0 -1.50391,-0.82031 -0.13672,0 -0.13672,-0.27344 0,-0.68359 1.50391,-0.82031 4.78516,-2.05078 10.11719,-9.57032 -2.1875,0.41016 -4.375,1.23047 -1.50391,0.54688 -2.32422,0.54688 -1.23047,-0.41016 -2.05078,-0.95703 0.13672,0 0,-0.13672 -0.13672,-0.27344 0.13672,-0.41016 0.95703,0 1.77734,-0.13672 1.36719,-0.27343 3.96484,-0.95703 2.59766,-0.68359 3.82813,-0.95703 0,-0.95703 0,-2.1875 -0.13672,-0.82031 0,-1.36719 -1.91406,0.41016 -4.10156,0.27344 0.27343,0 1.09375,-0.41016 0.13671,-0.13671 0.13671,-0.13671 -0.13671,0 -0.41015,0 -1.09375,0.27343 -1.23047,0 7.24609,-2.05079 7.51953,-4.10157 0.68359,0 1.36719,1.23047 0,0 0.13672,0.41016 0,0.41015 0,0.54687 0,0.13672 -0.13672,0.27344 -0.13672,0 -0.13672,0.13672 -1.09375,1.09375 -3.14453,1.50391 0.41015,1.09375 0.27344,3.55468 0.13671,0 0.27343,0 2.59766,-0.54687 3.96485,-0.41015 1.09375,0 1.64062,0.95703 -0.41015,0.54687 -1.36719,0.82031 -1.91406,-0.13672 -4.51171,0.27344 -0.13672,1.23047 -0.13672,4.23828 2.87109,0 5.46875,0.68359 1.77734,0.27344 2.46093,1.64063 0.13672,0.68359 -0.82031,0.54687 -0.13672,0 -0.41015,-0.13672 -0.27344,0 -0.54688,0 0,0 -0.13672,0 -0.54687,0.13672 -0.68359,-0.27343 l 0.13672,0 q 0,0 -0.27344,-0.13672 0,0.13672 -0.27344,0.13672 0,0 -0.13672,-0.13672 l 0.6836,-0.27344 0,-0.13672 q -0.82032,-0.27344 -1.36719,-0.41015 -2.05078,-0.41016 -4.10156,-0.54688 -0.13672,0.82031 -0.13672,2.46094 0,0.41015 0,1.23047 -0.13672,0.95703 -0.13672,1.36718 0.54687,-0.54687 1.23047,-0.54687 1.91406,-0.54688 2.46094,0.95703 l 0,3.00781 q 0.27343,5.19532 -1.09375,8.88672 -0.54688,1.64063 -1.91407,1.50391 l -0.13672,0 -0.27343,-0.41016 z m 0,-3.00781 q 0.27343,0 0.41015,0 l 0.13672,0 q 0.27344,0 0.41016,-0.54688 0.41015,-2.46093 0.41015,-4.375 -0.95703,0 -1.64062,0.95704 -0.54688,0.54687 -0.95703,0.82031 0.27344,-0.41016 0.41015,-0.54688 0.13672,-0.13672 0.27344,-0.27343 0.13672,-0.27344 0.27344,-0.54688 -0.13672,0.13672 -0.41016,0.41016 -1.09375,1.36718 -1.5039,1.36718 0,-0.13671 0.13672,-0.13671 0,-0.13672 0.68359,-0.6836 0.41016,-0.68359 0.82031,-1.23047 l -0.27344,0 q -0.41015,0 -1.23046,0.13672 -0.82032,0.13672 -1.09375,0.13672 0,2.32422 0.27343,3.69141 0,0.27343 0,0.27343 l 0.41016,0 q 0.41016,0 1.09375,-0.13671 0.54687,-0.13672 0.82031,-0.13672 0.6836,0.13672 0.95703,0.41015 l 0,0.13672 q -0.41015,0 -0.41015,0.27344 z m -3.14453,-7.38281 q 0,1.64062 0,2.1875 0.54687,0 1.64062,-0.41016 1.09375,-0.27344 1.50391,-0.27344 1.23047,-0.27343 1.5039,0.54688 0.27344,-2.1875 0,-4.10156 0,-0.6836 -0.68359,-0.41016 -0.13672,0.13672 -0.68359,0.41016 -1.36719,0.82031 -2.05079,0.68359 -0.82031,0 -1.23046,-0.68359 0,0.95703 0,2.05078 z M 256.644,222.97 q 0.82031,0 1.91406,0 0,-1.64062 0,-2.73437 -0.13672,0.13671 -0.68359,0.82031 -1.23047,1.77734 -1.23047,1.91406 z m 0.13672,6.83594 q 0.68359,0.41015 0.95703,-0.13672 -0.41016,-0.27344 -0.82032,-0.68359 0,0 0,0.27343 -0.13671,0.41016 -0.13671,0.54688 z m -0.41016,-16.67969 q 0,0 0,0.13672 0.27344,-0.13672 0,-0.13672 z m 0.82031,0.68359 0.13672,0.13672 0,-0.13672 -0.13672,0 z m -0.41015,-0.68359 q -0.13672,0 0,0.13672 0,-0.13672 0,-0.13672 z"
           style="font-style:normal;font-variant:normal;font-weight:normal;font-stretch:normal;font-size:35px;font-family:FZQiTi-S14T;-inkscape-font-specification:FZQiTi-S14T;fill:none;stroke:#ff0000;stroke-width:0.35433072;stroke-miterlimit:4;stroke-dasharray:none;stroke-opacity:1"
           id="path4633" />
        <path
           d="m 293.96822,224.33719 0.27343,0 -0.82031,0.27344 q -0.41016,2.46093 -1.23047,4.51171 0,0.13672 -0.13672,0.41016 -0.13672,0.82031 -0.41015,1.09375 3.14453,2.32422 4.375,5.33203 0,0.95703 -1.09375,1.23047 -0.6836,0 -1.23047,-1.50391 -0.27344,-0.68359 -0.41016,-0.82031 -0.95703,-1.36719 -2.46094,-2.59765 -2.1875,3.82812 -6.01562,3.96484 -0.54688,0.13672 -1.50391,-0.13672 -0.54687,-0.13672 -0.95703,-0.13672 0,-0.13672 0.13672,-0.27344 0.13672,-0.27343 0.13672,-0.27343 0.54687,0.13672 1.36719,-0.13672 0.27343,-0.13672 0.41015,-0.13672 3.28125,-1.09375 4.92188,-3.82813 -1.23047,-0.82031 -2.73438,-1.36718 -0.13672,0 -0.41015,-0.13672 -0.82032,0 -0.95703,-0.54688 0,-0.41015 0.82031,-1.64062 0.54687,-0.54688 0.82031,-1.36719 -2.59766,0.82031 -5.33203,1.36719 -0.27344,0 -0.68359,0.41015 -0.6836,0.41016 -1.09375,0.41016 -1.64063,0 -2.32422,-1.23047 0,-0.27344 0,-0.41015 0.41015,-0.13672 1.36718,-0.27344 0.54688,-0.13672 0.6836,-0.13672 1.36719,-0.27344 4.10156,-0.82031 2.59766,-0.41016 3.96484,-0.6836 0.6836,-1.77734 1.64063,-4.78515 0.68359,-1.91407 1.09375,-3.14453 0.41016,-1.23047 0.41016,-1.91407 0,-0.68359 -0.27344,-1.36718 l 0.13672,0 q 0.13672,0 0.27343,0.27343 0.13672,0.27344 0.27344,0.27344 l 0.13672,0 q 0.13672,-0.13672 0.13672,-0.13672 1.36719,1.50391 0.68359,3.14453 -1.36718,3.69141 -3.00781,7.38282 0.54688,-0.13672 1.36719,-0.27344 0.95703,-0.13672 1.36719,-0.13672 0.27343,-0.82031 0.27343,-1.91406 0,-0.27344 -0.13672,-0.54688 -0.13671,-0.13672 -0.13671,-0.27344 l 0,-0.13671 q 0.13671,-0.41016 1.09375,-0.54688 0.68359,0.13672 0.82031,1.09375 0,0.41016 -0.13672,1.23047 0,0.68359 0,0.95703 0.13672,0 0.27344,-0.13672 0.27343,0 0.27343,0 0.13672,0 0.13672,0.13672 l -0.41015,0 q 0,0 0,0.13672 l 0.13672,0.13672 z m 2.1875,-0.27344 q 0,-0.13672 0.27343,-0.13672 0.27344,0 0.95703,0.27344 0.54688,0.41016 0.95704,0.82031 1.23046,-0.41015 2.32421,-0.68359 2.73438,-0.82031 5.0586,-0.82031 0.95703,0.27343 1.91406,1.09375 0.54688,0.54687 0.27344,1.23046 -1.23047,2.8711 -2.46094,5.33204 0,0.41015 0,0.41015 0,0.95703 -1.64062,1.09375 -0.82032,-0.13672 -2.46094,-0.13672 -0.6836,0 -0.95703,0 0,0.13672 -0.13672,0.27344 -0.13672,0.41016 -0.6836,0.27344 -0.95703,-0.13672 -1.36718,-2.05078 -0.13672,-0.41016 -0.13672,-0.54688 -0.27344,-0.95703 -0.6836,-2.73437 -0.54687,-1.91407 -0.82031,-2.73438 -0.41015,-0.82031 -0.41015,-0.95703 z m 8.0664,0.82031 q -1.5039,0 -4.375,0.54688 -0.68359,0.13672 -1.09375,0.27344 0.41016,0.82031 0.82031,2.59765 0.41016,1.91406 0.82032,2.73438 1.23047,0 2.46093,-0.13672 1.09375,-2.46094 1.64063,-5.33203 0.27344,-0.82032 -0.27344,-0.6836 z m -16.95312,3.55469 q 1.36718,0.41016 3.00781,1.23047 0.27344,-0.68359 0.41016,-1.23047 0.54687,-1.64062 0.95703,-3.41797 -1.50391,0.54688 -3.14453,0.95703 -0.54688,1.23047 -1.23047,2.46094 z"
           style="font-style:normal;font-variant:normal;font-weight:normal;font-stretch:normal;font-size:35px;font-family:FZQiTi-S14T;-inkscape-font-specification:FZQiTi-S14T;fill:none;stroke:#ff0000;stroke-width:0.35433072;stroke-miterlimit:4;stroke-dasharray:none;stroke-opacity:1"
           id="path4635" />
        <path
           d="m 320.62837,236.095 q -0.13672,0 -0.27344,0 l -0.13671,0 q -0.27344,-0.27344 -0.41016,-0.27344 0,-0.27343 -0.27344,-0.82031 -0.27344,-0.41016 -0.27344,-0.54687 -0.27343,-0.6836 -1.09375,-3.00782 -0.13671,-0.54687 -0.27343,-0.82031 0,-0.27344 -0.27344,-0.68359 -0.27344,-0.82032 -0.27344,-1.09375 0.13672,-0.13672 0.13672,-0.27344 0,-0.27344 -0.13672,-0.27344 0,0 0,-0.27344 0,-0.54687 0.6836,-0.54687 0.27343,0 0.68359,0.54687 0.54687,0.6836 0.82031,0.82032 0.54688,-0.13672 1.09375,-0.27344 0.13672,-0.13672 0.27344,-0.13672 0.27344,-2.46094 1.36719,-4.51172 -0.95703,0.41016 -3.00782,0.41016 -0.27343,0 -1.36718,-0.41016 -0.41016,-0.27344 -0.54688,-0.27344 -0.13672,-0.13671 -0.41015,-0.27343 -0.54688,-0.54688 -0.54688,-0.82032 -0.13672,-0.54687 0.41016,-0.68359 0.27343,0 1.23047,-0.13672 3.00781,0 4.64843,-0.68359 0.95703,-3.00781 0.95703,-4.92188 -0.13671,-1.36718 -0.54687,-2.1875 -0.13672,-0.27343 -0.13672,-0.41015 l 0,-0.13672 q 0.13672,-0.13672 0.27344,-0.27344 l 0.95703,0 q 0.27344,0.13672 0.68359,0.13672 0.6836,0.13672 0.95703,0.41016 0.54688,0.82031 0.54688,1.91406 -0.13672,1.09375 -0.54688,3.28125 -0.13671,1.09375 -0.27343,1.64062 0.41015,0 0.95703,0 0.68359,0 1.09375,0 0.54687,0.27344 0.54687,1.09375 0,0 0,0.13672 0.13672,0.41016 -0.13672,0.54688 -0.95703,0.41015 -3.00781,0.82031 -1.23047,3.00781 -2.73437,4.92187 0.41015,0 1.23047,-0.27343 0.54687,-0.27344 0.68359,-0.27344 0.13672,0 0.27344,0 0.54687,0.13672 0.82031,-0.27344 l 1.36719,0 q 1.09375,0.27344 1.23047,1.36719 -0.13672,0.54687 -0.54688,1.23047 -0.13672,0.27344 -0.27344,0.41015 -0.13672,0.13672 -0.27343,0.54688 -0.54688,1.09375 -0.6836,1.36719 -0.13672,0.41015 -0.82031,1.09375 -0.13672,0.27343 -0.41016,0.68359 -0.13672,0.54688 -1.09375,0.54688 -1.36718,0.27343 -1.91406,0.27343 0.13672,0 0.13672,0.54688 0,0.27344 -0.27344,0.54687 -0.13672,0 -0.27344,0.13672 0,0.13672 -0.13671,0.54688 l 0,0 q -0.27344,0 -0.6836,-0.41016 z m 3.82813,1.77734 q 0,-0.13671 0,-0.13671 0.13672,0 0,-0.13672 0,-0.27344 0.27343,-0.27344 1.36719,0.27344 3.41797,-1.09375 2.8711,-2.05078 4.51172,-5.46875 -0.82031,-1.36719 -2.46094,-3.41797 -0.13671,-0.13672 -0.13671,-0.27344 -0.27344,-0.41015 -0.54688,-0.68359 -0.13672,-0.13672 -0.54687,-0.27344 -1.09375,-0.27344 -1.09375,-0.82031 0.13671,-0.54688 0.68359,-1.36719 0.41016,-0.13672 0.54687,-0.13672 0.41016,-0.27343 0.82032,-0.95703 1.91406,-2.1875 3.82812,-8.88672 0,-0.13672 0,-0.54687 0.27344,-0.6836 0,-1.09375 0,-0.27344 -0.27344,-0.27344 l 0,-0.13672 q 0.13672,-0.13672 0.13672,-0.13672 0.27344,-0.13672 0.54688,-0.13672 0.54687,0 0.68359,0.27344 l 0,0.54688 q 0,1.91406 -0.68359,3.96484 -0.82031,3.14453 -2.59766,6.42578 1.36719,0 5.46875,-1.23047 0.13672,0 0.41016,-0.13672 1.91406,-0.54687 2.73437,-0.54687 l 0.54688,0 q 0.27344,0.27344 0.41015,0.27344 0,0 0,0.13672 l 0.13672,0 -0.13672,0 q 0,0 -0.13671,0.13671 -0.13672,0 -0.13672,0.27344 -0.13672,0.27344 -0.54688,0.41016 -0.13672,0 -0.95703,0.13672 -3.00781,0.54687 -3.96484,0.82031 0.41015,1.09375 0.27343,2.1875 -0.54687,2.73437 -1.5039,5.05859 1.91406,2.46094 3.96484,3.69141 0.13672,0.13672 0.54688,0.27344 1.5039,1.09375 2.87109,1.36718 0.27344,0.13672 0.95703,0.27344 2.1875,0.41016 3.00781,0.82031 l 0.41016,0.54688 q 0.27344,0 0.27344,0.41016 0,0.54687 -1.09375,0.54687 -2.8711,-0.27344 -4.92188,-0.82031 -1.36718,-0.27344 -3.28125,-2.05078 -1.23047,-1.09375 -3.14453,-3.28125 0.13672,0.13672 -0.13672,-0.13672 -0.13672,0.13672 -0.41015,0.54687 -1.91407,3.00782 -3.28125,4.10157 -1.77735,1.77734 -4.64844,1.64062 -0.82031,-0.27344 -0.82031,-0.41016 z m 6.42578,-11.75781 q 0.27344,0.27344 1.36719,1.64063 0.68359,0.95703 1.09375,1.36718 0.82031,-1.23046 1.36718,-4.64843 0,-1.23047 -0.41015,-1.23047 -1.50391,0.27344 -3.14453,0.27344 -1.23047,1.23046 -1.23047,1.36718 0,0.27344 0.68359,0.95703 0.13672,0.13672 0.27344,0.27344 z m -9.57031,7.51953 q 1.5039,-0.13672 2.05078,-0.41015 0.27343,-0.13672 1.36718,-3.00782 0,0 0.13672,-0.41015 0.13672,-0.6836 0.13672,-0.82031 0,-0.13672 -0.13672,-0.13672 -0.41015,0 -1.09375,0.27343 -0.41015,0.13672 -0.54687,0.13672 -1.36719,0.41016 -3.28125,0.54688 0.68359,2.05078 1.36719,3.82812 z m 5.05859,3.69141 0,0.13672 0,-0.13672 z"
           style="font-style:normal;font-variant:normal;font-weight:normal;font-stretch:normal;font-size:35px;font-family:FZQiTi-S14T;-inkscape-font-specification:FZQiTi-S14T;fill:none;stroke:#ff0000;stroke-width:0.35433072;stroke-miterlimit:4;stroke-dasharray:none;stroke-opacity:1"
           id="path4637" />
      </g>
    </g>
  </g>
</svg>
