<?xml version="1.0" encoding="UTF-8" standalone="no"?>
<!-- Created with Inkscape (http://www.inkscape.org/) -->

<svg
   xmlns:dc="http://purl.org/dc/elements/1.1/"
   xmlns:cc="http://creativecommons.org/ns#"
   xmlns:rdf="http://www.w3.org/1999/02/22-rdf-syntax-ns#"
   xmlns:svg="http://www.w3.org/2000/svg"
   xmlns="http://www.w3.org/2000/svg"
   xmlns:sodipodi="http://sodipodi.sourceforge.net/DTD/sodipodi-0.dtd"
   xmlns:inkscape="http://www.inkscape.org/namespaces/inkscape"
   width="210mm"
   height="297mm"
   viewBox="0 0 744.09448819 1052.3622047"
   id="svg2"
   version="1.1"
   inkscape:version="0.91 r13725"
   sodipodi:docname="dvs346.svg">
  <defs
     id="defs4" />
  <sodipodi:namedview
     id="base"
     pagecolor="#ffffff"
     bordercolor="#666666"
     borderopacity="1.0"
     inkscape:pageopacity="0.0"
     inkscape:pageshadow="2"
     inkscape:zoom="0.7794709"
     inkscape:cx="73.126528"
     inkscape:cy="731.09344"
     inkscape:document-units="mm"
     inkscape:current-layer="layer1"
     showgrid="false"
     inkscape:window-width="1680"
     inkscape:window-height="1001"
     inkscape:window-x="0"
     inkscape:window-y="23"
     inkscape:window-maximized="1" />
  <metadata
     id="metadata7">
    <rdf:RDF>
      <cc:Work
         rdf:about="">
        <dc:format>image/svg+xml</dc:format>
        <dc:type
           rdf:resource="http://purl.org/dc/dcmitype/StillImage" />
        <dc:title />
      </cc:Work>
    </rdf:RDF>
  </metadata>
  <g
     inkscape:label="Layer 1"
     inkscape:groupmode="layer"
     id="layer1">
    <g
       id="g4354"
       transform="translate(147.10607,7.6456852)">
      <g
         id="g4344" />
      <g
         transform="translate(0,92.125984)"
         id="g4348" />
    </g>
    <path
       id="circle4380"
       style="opacity:1;fill:none;fill-opacity:0.39215686;fill-rule:nonzero;stroke:#ff0000;stroke-width:0.70592028;stroke-miterlimit:4;stroke-dasharray:none;stroke-opacity:1"
       d="m 407.10628,118.03723 a 18.249403,18.249403 0 0 1 -18.2494,18.2494 18.249403,18.249403 0 0 1 -18.24941,-18.2494 18.249403,18.249403 0 0 1 18.24941,-18.249413 18.249403,18.249403 0 0 1 18.2494,18.249413 z m 29.46325,46.06302 a 1.6496631,1.6496631 0 0 1 -1.64966,1.64966 1.6496631,1.6496631 0 0 1 -1.64966,-1.64966 1.6496631,1.6496631 0 0 1 1.64966,-1.64967 1.6496631,1.6496631 0 0 1 1.64966,1.64967 z m -92.12599,0 a 1.6496631,1.6496631 0 0 1 -1.64966,1.64966 1.6496631,1.6496631 0 0 1 -1.64966,-1.64966 1.6496631,1.6496631 0 0 1 1.64966,-1.64967 1.6496631,1.6496631 0 0 1 1.64966,1.64967 z m 92.12599,-92.125983 a 1.6496631,1.6496631 0 0 1 -1.64966,1.64966 1.6496631,1.6496631 0 0 1 -1.64966,-1.64966 1.6496631,1.6496631 0 0 1 1.64966,-1.64967 1.6496631,1.6496631 0 0 1 1.64966,1.64967 z m -92.12599,0 a 1.6496631,1.6496631 0 0 1 -1.64966,1.64966 1.6496631,1.6496631 0 0 1 -1.64966,-1.64966 1.6496631,1.6496631 0 0 1 1.64966,-1.64967 1.6496631,1.6496631 0 0 1 1.64966,1.64967 z m -8.33055,-6.68091 105.48777,0 0,105.487773 -105.48777,0 z"
       inkscape:connector-curvature="0" />
    <rect
       ry="0"
       y="401.08591"
       x="92.431999"
       height="150.94489"
       width="205.51181"
       id="rect4314"
       style="opacity:1;fill:none;fill-opacity:0.39215686;fill-rule:nonzero;stroke:#00ff00;stroke-width:0.70866144;stroke-miterlimit:4;stroke-dasharray:none;stroke-opacity:1" />
    <g
       transform="translate(152.08834,-210.36597)"
       id="g4266">
      <g
         id="g4268" />
      <g
         id="g4274"
         transform="translate(0,92.125984)" />
    </g>
    <path
       id="circle4280"
       style="opacity:1;fill:none;fill-opacity:0.39215686;fill-rule:nonzero;stroke:#ff0000;stroke-width:0.70592028;stroke-miterlimit:4;stroke-dasharray:none;stroke-opacity:1"
       d="m 136.26042,121.97099 a 18.249403,18.249403 0 0 1 -18.2494,18.2494 18.249403,18.249403 0 0 1 -18.249414,-18.2494 18.249403,18.249403 0 0 1 18.249414,-18.2494 18.249403,18.249403 0 0 1 18.2494,18.2494 z m 29.46325,46.06302 a 1.6496631,1.6496631 0 0 1 -1.64966,1.64966 1.6496631,1.6496631 0 0 1 -1.64966,-1.64966 1.6496631,1.6496631 0 0 1 1.64966,-1.64967 1.6496631,1.6496631 0 0 1 1.64966,1.64967 z m -92.125994,0 a 1.6496631,1.6496631 0 0 1 -1.64966,1.64966 1.6496631,1.6496631 0 0 1 -1.64966,-1.64966 1.6496631,1.6496631 0 0 1 1.64966,-1.64967 1.6496631,1.6496631 0 0 1 1.64966,1.64967 z M 165.72367,75.908031 a 1.6496631,1.6496631 0 0 1 -1.64966,1.64966 1.6496631,1.6496631 0 0 1 -1.64966,-1.64966 1.6496631,1.6496631 0 0 1 1.64966,-1.64967 1.6496631,1.6496631 0 0 1 1.64966,1.64967 z m -92.125994,0 a 1.6496631,1.6496631 0 0 1 -1.64966,1.64966 1.6496631,1.6496631 0 0 1 -1.64966,-1.64966 1.6496631,1.6496631 0 0 1 1.64966,-1.64967 1.6496631,1.6496631 0 0 1 1.64966,1.64967 z m -8.33055,-6.68091 105.487774,0 0,105.487769 -105.487774,0 z m -18.20858,-16.20993 220.566344,0 0,162.002169 -220.566344,0 z"
       inkscape:connector-curvature="0" />
  </g>
</svg>
