<?xml version="1.0" encoding="UTF-8" standalone="no"?>
<!-- Created with Inkscape (http://www.inkscape.org/) -->

<svg
   xmlns:dc="http://purl.org/dc/elements/1.1/"
   xmlns:cc="http://creativecommons.org/ns#"
   xmlns:rdf="http://www.w3.org/1999/02/22-rdf-syntax-ns#"
   xmlns:svg="http://www.w3.org/2000/svg"
   xmlns="http://www.w3.org/2000/svg"
   xmlns:sodipodi="http://sodipodi.sourceforge.net/DTD/sodipodi-0.dtd"
   xmlns:inkscape="http://www.inkscape.org/namespaces/inkscape"
   width="210mm"
   height="297mm"
   viewBox="0 0 744.09448819 1052.3622047"
   id="svg2"
   version="1.1"
   inkscape:version="0.91 r13725"
   sodipodi:docname="dvs346-larger-for-mount.svg">
  <defs
     id="defs4" />
  <sodipodi:namedview
     id="base"
     pagecolor="#ffffff"
     bordercolor="#666666"
     borderopacity="1.0"
     inkscape:pageopacity="0.0"
     inkscape:pageshadow="2"
     inkscape:zoom="0.7794709"
     inkscape:cx="-148.8189"
     inkscape:cy="731.09344"
     inkscape:document-units="mm"
     inkscape:current-layer="layer1"
     showgrid="false"
     inkscape:window-width="1680"
     inkscape:window-height="1001"
     inkscape:window-x="0"
     inkscape:window-y="23"
     inkscape:window-maximized="1" />
  <metadata
     id="metadata7">
    <rdf:RDF>
      <cc:Work
         rdf:about="">
        <dc:format>image/svg+xml</dc:format>
        <dc:type
           rdf:resource="http://purl.org/dc/dcmitype/StillImage" />
        <dc:title />
      </cc:Work>
    </rdf:RDF>
  </metadata>
  <g
     inkscape:label="Layer 1"
     inkscape:groupmode="layer"
     id="layer1">
    <g
       id="g4354"
       transform="translate(147.10607,7.6456852)">
      <g
         id="g4344" />
      <g
         transform="translate(0,92.125984)"
         id="g4348" />
    </g>
    <path
       id="circle4380"
       style="opacity:1;fill:none;fill-opacity:0.39215686;fill-rule:nonzero;stroke:#ff0000;stroke-width:0.70866142;stroke-miterlimit:4;stroke-dasharray:none;stroke-opacity:1"
       d="m 336.11299,65.293357 105.48777,0 0,105.487773 -105.48777,0 z m 8.33055,6.68091 a 1.6496631,1.6496631 0 0 1 -1.64966,1.64966 1.6496631,1.6496631 0 0 1 -1.64966,-1.64966 1.6496631,1.6496631 0 0 1 1.64966,-1.64967 1.6496631,1.6496631 0 0 1 1.64966,1.64967 z m 92.12599,0 a 1.6496631,1.6496631 0 0 1 -1.64966,1.64966 1.6496631,1.6496631 0 0 1 -1.64966,-1.64966 1.6496631,1.6496631 0 0 1 1.64966,-1.64967 1.6496631,1.6496631 0 0 1 1.64966,1.64967 z m -92.12599,92.125983 a 1.6496631,1.6496631 0 0 1 -1.64966,1.64966 1.6496631,1.6496631 0 0 1 -1.64966,-1.64966 1.6496631,1.6496631 0 0 1 1.64966,-1.64967 1.6496631,1.6496631 0 0 1 1.64966,1.64967 z m 92.12599,0 a 1.6496631,1.6496631 0 0 1 -1.64966,1.64966 1.6496631,1.6496631 0 0 1 -1.64966,-1.64966 1.6496631,1.6496631 0 0 1 1.64966,-1.64967 1.6496631,1.6496631 0 0 1 1.64966,1.64967 z m -20.77305,-46.063 a 26.939591,26.939586 0 0 1 -26.93959,26.93959 26.939591,26.939586 0 0 1 -26.93961,-26.93959 26.939591,26.939586 0 0 1 26.93961,-26.939601 26.939591,26.939586 0 0 1 26.93959,26.939601 z" />
    <g
       transform="translate(152.08834,-210.36597)"
       id="g4266">
      <g
         id="g4268" />
      <g
         id="g4274"
         transform="translate(0,92.125984)" />
    </g>
    <rect
       ry="0"
       y="517.31818"
       x="101.79499"
       height="150.23909"
       width="204.80603"
       id="rect4314"
       style="opacity:1;fill:none;fill-opacity:0.39215686;fill-rule:nonzero;stroke:#00ff00;stroke-width:0.7057876;stroke-miterlimit:4;stroke-dasharray:none;stroke-opacity:1" />
    <path
       id="rect4177"
       style="opacity:1;fill:none;fill-opacity:0.39215686;fill-rule:nonzero;stroke:#ff0000;stroke-width:0.70866142;stroke-miterlimit:4;stroke-dasharray:none;stroke-opacity:1"
       d="m 51.913658,47.707687 222.461712,0 0,163.190733 -222.461712,0 z m 19.459204,17.107181 105.487758,0 0,105.487752 -105.487758,0 z m 8.33055,6.68091 a 1.6496631,1.6496631 0 0 1 -1.64966,1.64965 1.6496631,1.6496631 0 0 1 -1.64966,-1.64965 1.6496631,1.6496631 0 0 1 1.64966,-1.64967 1.6496631,1.6496631 0 0 1 1.64966,1.64967 z m 92.125978,0 a 1.6496631,1.6496631 0 0 1 -1.64966,1.64965 1.6496631,1.6496631 0 0 1 -1.64966,-1.64965 1.6496631,1.6496631 0 0 1 1.64966,-1.64967 1.6496631,1.6496631 0 0 1 1.64966,1.64967 z M 79.703412,163.62174 a 1.6496631,1.6496631 0 0 1 -1.64966,1.64966 1.6496631,1.6496631 0 0 1 -1.64966,-1.64966 1.6496631,1.6496631 0 0 1 1.64966,-1.64967 1.6496631,1.6496631 0 0 1 1.64966,1.64967 z m 92.125978,0 a 1.6496631,1.6496631 0 0 1 -1.64966,1.64966 1.6496631,1.6496631 0 0 1 -1.64966,-1.64966 1.6496631,1.6496631 0 0 1 1.64966,-1.64967 1.6496631,1.6496631 0 0 1 1.64966,1.64967 z m -20.77305,-46.063 a 26.939591,26.939586 0 0 1 -26.93959,26.93959 26.939591,26.939586 0 0 1 -26.9396,-26.93959 26.939591,26.939586 0 0 1 26.9396,-26.939592 26.939591,26.939586 0 0 1 26.93959,26.939592 z" />
  </g>
</svg>
