<?xml version="1.0" encoding="UTF-8" standalone="no"?>
<!-- Created with Inkscape (http://www.inkscape.org/) -->

<svg
   xmlns:dc="http://purl.org/dc/elements/1.1/"
   xmlns:cc="http://creativecommons.org/ns#"
   xmlns:rdf="http://www.w3.org/1999/02/22-rdf-syntax-ns#"
   xmlns:svg="http://www.w3.org/2000/svg"
   xmlns="http://www.w3.org/2000/svg"
   xmlns:sodipodi="http://sodipodi.sourceforge.net/DTD/sodipodi-0.dtd"
   xmlns:inkscape="http://www.inkscape.org/namespaces/inkscape"
   width="378.09964mm"
   height="94.09964mm"
   viewBox="0 0 1339.7232 333.42392"
   id="svg2"
   version="1.1"
   inkscape:version="0.91 r13725"
   sodipodi:docname="round-mount-v6-middle.svg">
  <defs
     id="defs4" />
  <sodipodi:namedview
     id="base"
     pagecolor="#ffffff"
     bordercolor="#666666"
     borderopacity="1.0"
     inkscape:pageopacity="0.0"
     inkscape:pageshadow="2"
     inkscape:zoom="0.25"
     inkscape:cx="145.17753"
     inkscape:cy="-838.7576"
     inkscape:document-units="mm"
     inkscape:current-layer="layer1"
     showgrid="false"
     inkscape:window-width="1680"
     inkscape:window-height="1001"
     inkscape:window-x="0"
     inkscape:window-y="23"
     inkscape:window-maximized="1"
     fit-margin-top="0"
     fit-margin-left="0"
     fit-margin-right="0"
     fit-margin-bottom="0" />
  <metadata
     id="metadata7">
    <rdf:RDF>
      <cc:Work
         rdf:about="">
        <dc:format>image/svg+xml</dc:format>
        <dc:type
           rdf:resource="http://purl.org/dc/dcmitype/StillImage" />
        <dc:title></dc:title>
      </cc:Work>
    </rdf:RDF>
  </metadata>
  <g
     inkscape:label="Layer 1"
     inkscape:groupmode="layer"
     id="layer1"
     transform="translate(-65.787439,-9.8733326)">
    <g
       transform="translate(-305.71429,198.57143)"
       id="g4331">
      <g
         id="g4333"
         transform="translate(162.23126,-91.958517)">
        <g
           transform="translate(0,-89.631304)"
           id="g4335">
          <g
             id="g4339"
             transform="translate(-135.43504,-204.19661)" />
        </g>
      </g>
    </g>
    <g
       id="g4536"
       transform="translate(17.324007,453.88897)">
      <g
         id="g4538">
        <g
           transform="translate(1.4285714,79.143069)"
           id="g4546">
          <g
             id="g4550"
             transform="translate(37.671595,-220.43244)">
            <g
               id="g4552" />
          </g>
        </g>
      </g>
    </g>
    <g
       id="g4302"
       transform="translate(-3.254982,207.92108)">
      <g
         transform="translate(1.4285714,79.143069)"
         id="g4272" />
    </g>
    <g
       transform="translate(60.056557,430.42417)"
       id="g5000">
      <g
         id="g5002"
         transform="translate(-54.072069,27.751406)">
        <g
           transform="translate(1.4285714,79.143069)"
           id="g5010">
          <g
             id="g5014"
             transform="translate(37.671595,-220.43244)">
            <g
               transform="translate(595.27559,0)"
               id="g5022" />
          </g>
        </g>
      </g>
    </g>
    <g
       transform="translate(2.4892007e-7,258.06504)"
       id="g4450">
      <g
         id="g4460"
         transform="translate(-63.139061,-32.326671)">
        <g
           id="g4468"
           transform="translate(750.95275,116.80823)" />
      </g>
    </g>
    <g
       transform="translate(-189.09239,1089.1026)"
       id="g4454" />
    <g
       id="g4482"
       transform="translate(10.792409,-34)">
      <g
         transform="translate(8,9.8501426)"
         id="g4420">
        <g
           id="g4310"
           transform="translate(-24.930855,22.933013)">
          <ellipse
             ry="8.6802683"
             rx="8.6802692"
             cy="182.02332"
             cx="158.91342"
             id="ellipse4312"
             style="opacity:1;fill:none;fill-opacity:0.39215686;fill-rule:nonzero;stroke:#ff0000;stroke-width:0.35600024;stroke-miterlimit:4;stroke-dasharray:none;stroke-opacity:1" />
          <ellipse
             style="opacity:1;fill:none;fill-opacity:0.39215686;fill-rule:nonzero;stroke:#ff0000;stroke-width:0.35600024;stroke-miterlimit:4;stroke-dasharray:none;stroke-opacity:1"
             id="ellipse4314"
             cx="1324.6615"
             cy="182.02332"
             rx="8.6802692"
             ry="8.6802683" />
        </g>
        <path
           inkscape:connector-curvature="0"
           id="path4316"
           d="m 213.70718,34.20014 0,0.18554 a 166.35804,166.35805 0 0 0 -0.17578,-0.008 166.35804,166.35805 0 0 0 -166.35937,166.35742 166.35804,166.35805 0 0 0 166.35937,166.35938 166.35804,166.35805 0 0 0 0.17578,-0.006 l 0,0.18164 1006.29882,0 0,-0.1875 a 166.35806,166.35807 0 0 0 0.1778,0.01 166.35806,166.35807 0 0 0 166.3574,-166.35742 166.35806,166.35807 0 0 0 -166.3574,-166.35937 166.35806,166.35807 0 0 0 -0.1778,0.006 l 0,-0.18164 -1006.29882,0 z"
           style="opacity:1;fill:none;fill-opacity:0.39215686;fill-rule:nonzero;stroke:#ff0000;stroke-width:0.35400003;stroke-miterlimit:4;stroke-dasharray:none;stroke-opacity:1" />
        <g
           id="g4383"
           transform="translate(-40.283745,-410.5174)">
          <g
             id="g4373">
            <path
               style="opacity:1;fill:none;fill-opacity:0.39215686;fill-rule:nonzero;stroke:#ff0000;stroke-width:0.35433075;stroke-miterlimit:4;stroke-dasharray:none;stroke-opacity:1"
               d="m 310.68359,533.34375 0,21.23047 0,0.0293 0,3.51367 21.25977,0 0,106.33008 -21.25977,0 0,3.54296 0,0.002 0,21.25195 0,0.006 0,3.53711 74.41797,0 0,42.52344 1.76367,0 0.006,0 40.74219,0 0,-0.004 1.75977,0 0,-42.54687 65.5625,0 0,-3.50977 0,-0.0352 0,-81.46093 -14.17383,0 0,-56.69336 14.17383,0 0,-17.7168 -184.25196,0 z"
               id="path4322"
               inkscape:connector-curvature="0" />
          </g>
          <g
             transform="translate(708.66142,0)"
             id="g4377">
            <path
               inkscape:connector-curvature="0"
               id="path4379"
               d="m 310.68359,533.34375 0,21.23047 0,0.0293 0,3.51367 21.25977,0 0,106.33008 -21.25977,0 0,3.54296 0,0.002 0,21.25195 0,0.006 0,3.53711 74.41797,0 0,42.52344 1.76367,0 0.006,0 40.74219,0 0,-0.004 1.75977,0 0,-42.54687 65.5625,0 0,-3.50977 0,-0.0352 0,-81.46093 -14.17383,0 0,-56.69336 14.17383,0 0,-17.7168 -184.25196,0 z"
               style="opacity:1;fill:none;fill-opacity:0.39215686;fill-rule:nonzero;stroke:#ff0000;stroke-width:0.35433075;stroke-miterlimit:4;stroke-dasharray:none;stroke-opacity:1" />
          </g>
        </g>
      </g>
      <g
         transform="translate(17.771707,-567.92151)"
         id="g4398">
        <circle
           cy="-672.20758"
           cx="203.93532"
           id="use4330"
           style="opacity:1;fill:none;fill-opacity:0.39215686;fill-rule:nonzero;stroke:#ff0000;stroke-width:0.31711137;stroke-miterlimit:4;stroke-dasharray:none;stroke-opacity:1"
           transform="scale(1,-1)"
           r="14.900499" />
        <circle
           r="14.900499"
           transform="scale(1,-1)"
           style="opacity:1;fill:none;fill-opacity:0.39215686;fill-rule:nonzero;stroke:#ff0000;stroke-width:0.31711137;stroke-miterlimit:4;stroke-dasharray:none;stroke-opacity:1"
           id="circle4377"
           cx="203.93532"
           cy="-884.80603" />
        <circle
           r="14.900499"
           transform="scale(1,-1)"
           style="opacity:1;fill:none;fill-opacity:0.39215686;fill-rule:nonzero;stroke:#ff0000;stroke-width:0.31711137;stroke-miterlimit:4;stroke-dasharray:none;stroke-opacity:1"
           id="circle4379"
           cx="707.0849"
           cy="-672.20758" />
        <circle
           cy="-884.80603"
           cx="707.0849"
           id="circle4381"
           style="opacity:1;fill:none;fill-opacity:0.39215686;fill-rule:nonzero;stroke:#ff0000;stroke-width:0.31711137;stroke-miterlimit:4;stroke-dasharray:none;stroke-opacity:1"
           transform="scale(1,-1)"
           r="14.900499" />
        <circle
           cy="-672.20758"
           cx="1210.2345"
           id="circle4383"
           style="opacity:1;fill:none;fill-opacity:0.39215686;fill-rule:nonzero;stroke:#ff0000;stroke-width:0.31711137;stroke-miterlimit:4;stroke-dasharray:none;stroke-opacity:1"
           transform="scale(1,-1)"
           r="14.900499" />
        <circle
           r="14.900499"
           transform="scale(1,-1)"
           style="opacity:1;fill:none;fill-opacity:0.39215686;fill-rule:nonzero;stroke:#ff0000;stroke-width:0.31711137;stroke-miterlimit:4;stroke-dasharray:none;stroke-opacity:1"
           id="circle4385"
           cx="1210.2345"
           cy="-884.80603" />
      </g>
    </g>
  </g>
</svg>
