<?xml version="1.0" encoding="UTF-8" standalone="no"?>
<!-- Created with Inkscape (http://www.inkscape.org/) -->

<svg
   xmlns:dc="http://purl.org/dc/elements/1.1/"
   xmlns:cc="http://creativecommons.org/ns#"
   xmlns:rdf="http://www.w3.org/1999/02/22-rdf-syntax-ns#"
   xmlns:svg="http://www.w3.org/2000/svg"
   xmlns="http://www.w3.org/2000/svg"
   xmlns:sodipodi="http://sodipodi.sourceforge.net/DTD/sodipodi-0.dtd"
   xmlns:inkscape="http://www.inkscape.org/namespaces/inkscape"
   width="300.10001mm"
   height="110.10001mm"
   viewBox="0 0 1063.3465 390.11813"
   id="svg2"
   version="1.1"
   inkscape:version="0.91 r13725"
   sodipodi:docname="round-mount-v7-middle.svg">
  <defs
     id="defs4" />
  <sodipodi:namedview
     id="base"
     pagecolor="#ffffff"
     bordercolor="#666666"
     borderopacity="1.0"
     inkscape:pageopacity="0.0"
     inkscape:pageshadow="2"
     inkscape:zoom="0.45254834"
     inkscape:cx="388.6335"
     inkscape:cy="427.50158"
     inkscape:document-units="mm"
     inkscape:current-layer="g6085"
     showgrid="false"
     inkscape:window-width="1680"
     inkscape:window-height="1005"
     inkscape:window-x="0"
     inkscape:window-y="23"
     inkscape:window-maximized="1"
     fit-margin-top="0"
     fit-margin-left="0"
     fit-margin-right="0"
     fit-margin-bottom="0" />
  <metadata
     id="metadata7">
    <rdf:RDF>
      <cc:Work
         rdf:about="">
        <dc:format>image/svg+xml</dc:format>
        <dc:type
           rdf:resource="http://purl.org/dc/dcmitype/StillImage" />
        <dc:title></dc:title>
      </cc:Work>
    </rdf:RDF>
  </metadata>
  <g
     inkscape:label="Layer 1"
     inkscape:groupmode="layer"
     id="layer1"
     transform="translate(-631.98393,-141.45573)">
    <g
       transform="translate(-305.71429,198.57143)"
       id="g4331">
      <g
         id="g4333"
         transform="translate(162.23126,-91.958517)">
        <g
           transform="translate(0,-89.631304)"
           id="g4335">
          <g
             id="g4339"
             transform="translate(-135.43504,-204.19661)" />
        </g>
      </g>
    </g>
    <g
       id="g4536"
       transform="translate(17.324007,453.88897)">
      <g
         id="g4538">
        <g
           transform="translate(1.4285714,79.143069)"
           id="g4546">
          <g
             id="g4550"
             transform="translate(37.671595,-220.43244)">
            <g
               id="g4552" />
          </g>
        </g>
      </g>
    </g>
    <g
       id="g4302"
       transform="translate(-3.254982,207.92108)">
      <g
         transform="translate(1.4285714,79.143069)"
         id="g4272" />
    </g>
    <g
       transform="translate(60.056557,430.42417)"
       id="g5000">
      <g
         id="g5002"
         transform="translate(-54.072069,27.751406)">
        <g
           transform="translate(1.4285714,79.143069)"
           id="g5010">
          <g
             id="g5014"
             transform="translate(37.671595,-220.43244)">
            <g
               transform="translate(595.27559,0)"
               id="g5022" />
          </g>
        </g>
      </g>
    </g>
    <g
       transform="translate(2.4892007e-7,258.06504)"
       id="g4450">
      <g
         id="g4460"
         transform="translate(-63.139061,-32.326671)">
        <g
           id="g4468"
           transform="translate(750.95275,116.80823)" />
      </g>
    </g>
    <g
       transform="translate(-189.09239,1089.1026)"
       id="g4454" />
    <g
       id="g6085"
       transform="translate(-2648.4551,-1797.8634)">
      <g
         id="g4567">
        <rect
           rx="17.716536"
           style="opacity:1;fill:none;fill-opacity:0.39215686;fill-rule:nonzero;stroke:#ff0000;stroke-width:0.35433072;stroke-miterlimit:4;stroke-dasharray:none;stroke-opacity:1"
           id="rect5797"
           width="336.62967"
           height="113.40132"
           x="3643.7974"
           y="2077.6775" />
        <circle
           cy="-1992.646"
           cx="3493.2146"
           id="use4330"
           style="opacity:1;fill:none;fill-opacity:0.39215686;fill-rule:nonzero;stroke:#ff0000;stroke-width:0.31711137;stroke-miterlimit:4;stroke-dasharray:none;stroke-opacity:1"
           transform="scale(1,-1)"
           r="14.900499" />
        <circle
           r="14.900499"
           transform="scale(1,-1)"
           style="opacity:1;fill:none;fill-opacity:0.39215686;fill-rule:nonzero;stroke:#ff0000;stroke-width:0.31711137;stroke-miterlimit:4;stroke-dasharray:none;stroke-opacity:1"
           id="circle5251"
           cx="3493.2146"
           cy="-2276.1104" />
        <circle
           cy="-1992.646"
           cx="4131.0098"
           id="circle5263"
           style="opacity:1;fill:none;fill-opacity:0.39215686;fill-rule:nonzero;stroke:#ff0000;stroke-width:0.31711137;stroke-miterlimit:4;stroke-dasharray:none;stroke-opacity:1"
           transform="scale(1,-1)"
           r="14.900499" />
        <circle
           r="14.900499"
           transform="scale(1,-1)"
           style="opacity:1;fill:none;fill-opacity:0.39215686;fill-rule:nonzero;stroke:#ff0000;stroke-width:0.31711137;stroke-miterlimit:4;stroke-dasharray:none;stroke-opacity:1"
           id="circle5267"
           cx="4131.0098"
           cy="-2276.1104" />
        <circle
           r="8.681078"
           cy="1992.646"
           cx="3493.2146"
           id="circle5081"
           style="opacity:1;fill:none;fill-opacity:0.39215686;fill-rule:nonzero;stroke:#ff0000;stroke-width:0.35438013;stroke-miterlimit:4;stroke-dasharray:none;stroke-opacity:1" />
        <circle
           style="opacity:1;fill:none;fill-opacity:0.39215686;fill-rule:nonzero;stroke:#ff0000;stroke-width:0.35438013;stroke-miterlimit:4;stroke-dasharray:none;stroke-opacity:1"
           id="circle5253"
           cx="3493.2146"
           cy="2276.1104"
           r="8.681078" />
        <circle
           r="8.681078"
           cy="1992.646"
           cx="4131.0098"
           id="circle5265"
           style="opacity:1;fill:none;fill-opacity:0.39215686;fill-rule:nonzero;stroke:#ff0000;stroke-width:0.35438013;stroke-miterlimit:4;stroke-dasharray:none;stroke-opacity:1" />
        <circle
           style="opacity:1;fill:none;fill-opacity:0.39215686;fill-rule:nonzero;stroke:#ff0000;stroke-width:0.35438013;stroke-miterlimit:4;stroke-dasharray:none;stroke-opacity:1"
           id="circle5269"
           cx="4131.0098"
           cy="2276.1104"
           r="8.681078" />
        <path
           style="opacity:1;fill:none;fill-opacity:0.39215686;fill-rule:nonzero;stroke:#ff0000;stroke-width:0.35433072;stroke-miterlimit:4;stroke-dasharray:none;stroke-opacity:1"
           d="m 3329.5678,1939.4963 a 531.49622,467.71709 0 0 0 -48.9516,194.8808 531.49622,467.71709 0 0 0 49.0383,194.883 l 965.0022,0 a 531.49622,467.71709 0 0 0 48.9516,-194.883 531.49622,467.71709 0 0 0 -49.0384,-194.8808 l -965.0021,0 z"
           id="rect4548"
           inkscape:connector-curvature="0" />
        <path
           sodipodi:nodetypes="ssssccccccccccccccs"
           inkscape:connector-curvature="0"
           id="rect6110"
           d="m 3364.8283,2042.4238 c -13.741,0 -24.8027,11.0638 -24.8027,24.8047 l 0,135.0098 c 0,13.7409 11.0617,24.8027 24.8027,24.8027 l 106.7246,0 46.0645,0 24.8027,0 c 3.9133,-4e-4 7.0856,-3.1726 7.086,-7.0859 5e-4,-3.1257 -1.1939,-5.2266 -4.0022,-6.1689 -1.7734,-0.3464 -3.1183,-2.5355 -3.0838,-5.0154 l 0,-6.5325 0,-135.0098 0,-8.6105 c 0.2807,-2.2308 3.0185,-2.9152 3.0185,-2.9152 2.43,-1.1233 4.0672,-3.3382 4.0675,-6.1911 7e-4,-3.914 -3.1719,-7.0875 -7.086,-7.0879 l -24.8027,0 -46.0645,0 z"
           style="opacity:1;fill:none;fill-opacity:0.39215686;fill-rule:nonzero;stroke:#ff0000;stroke-width:0.35433072;stroke-miterlimit:4;stroke-dasharray:none;stroke-opacity:1" />
        <path
           style="opacity:1;fill:none;fill-opacity:0.39215686;fill-rule:nonzero;stroke:#ff0000;stroke-width:0.35433072;stroke-miterlimit:4;stroke-dasharray:none;stroke-opacity:1"
           d="m 4073.5925,2042.4238 c -13.741,0 -24.8027,11.0638 -24.8027,24.8047 l 0,135.0098 c 0,13.7409 11.0617,24.8027 24.8027,24.8027 l 106.7246,0 46.0645,0 24.8027,0 c 3.9133,-4e-4 7.0856,-3.1726 7.086,-7.0859 5e-4,-3.1257 -1.1939,-5.2266 -4.0022,-6.1689 -1.7734,-0.3464 -3.1183,-2.5355 -3.0838,-5.0154 l 0,-6.5325 0,-135.0098 0,-8.6105 c 0.2807,-2.2308 3.0185,-2.9152 3.0185,-2.9152 2.43,-1.1233 4.0672,-3.3382 4.0675,-6.1911 7e-4,-3.914 -3.1719,-7.0875 -7.086,-7.0879 l -24.8027,0 -46.0645,0 z"
           id="path6131"
           inkscape:connector-curvature="0"
           sodipodi:nodetypes="ssssccccccccccccccs" />
      </g>
    </g>
  </g>
</svg>
