<?xml version="1.0" encoding="UTF-8" standalone="no"?>
<!-- Created with Inkscape (http://www.inkscape.org/) -->

<svg
   xmlns:dc="http://purl.org/dc/elements/1.1/"
   xmlns:cc="http://creativecommons.org/ns#"
   xmlns:rdf="http://www.w3.org/1999/02/22-rdf-syntax-ns#"
   xmlns:svg="http://www.w3.org/2000/svg"
   xmlns="http://www.w3.org/2000/svg"
   xmlns:sodipodi="http://sodipodi.sourceforge.net/DTD/sodipodi-0.dtd"
   xmlns:inkscape="http://www.inkscape.org/namespaces/inkscape"
   width="420mm"
   height="297mm"
   viewBox="0 0 1488.189 1052.3622"
   id="svg2"
   version="1.1"
   inkscape:version="0.91 r13725"
   sodipodi:docname="round-mount.svg">
  <defs
     id="defs4" />
  <sodipodi:namedview
     id="base"
     pagecolor="#ffffff"
     bordercolor="#666666"
     borderopacity="1.0"
     inkscape:pageopacity="0.0"
     inkscape:pageshadow="2"
     inkscape:zoom="0.7"
     inkscape:cx="705.79172"
     inkscape:cy="533.90512"
     inkscape:document-units="mm"
     inkscape:current-layer="g4339"
     showgrid="false"
     inkscape:window-width="1680"
     inkscape:window-height="1001"
     inkscape:window-x="0"
     inkscape:window-y="23"
     inkscape:window-maximized="1" />
  <metadata
     id="metadata7">
    <rdf:RDF>
      <cc:Work
         rdf:about="">
        <dc:format>image/svg+xml</dc:format>
        <dc:type
           rdf:resource="http://purl.org/dc/dcmitype/StillImage" />
        <dc:title></dc:title>
      </cc:Work>
    </rdf:RDF>
  </metadata>
  <g
     inkscape:label="Layer 1"
     inkscape:groupmode="layer"
     id="layer1">
    <g
       id="g4294"
       transform="translate(-305.71429,-151.42857)">
      <g
         transform="translate(162.23126,-91.958517)"
         id="g4243">
        <g
           id="g4227"
           transform="translate(0,-89.631304)">
          <path
             inkscape:connector-curvature="0"
             id="rect4155"
             d="m 382.12109,348.50669 0,0.18554 a 166.35804,166.35805 0 0 0 -0.17578,-0.008 166.35804,166.35805 0 0 0 -166.35937,166.35742 166.35804,166.35805 0 0 0 166.35937,166.35938 166.35804,166.35805 0 0 0 0.17578,-0.006 l 0,0.18164 1006.29881,0 0,-0.1875 a 166.35806,166.35807 0 0 0 0.1778,0.01 166.35806,166.35807 0 0 0 166.3574,-166.35742 166.35806,166.35807 0 0 0 -166.3574,-166.35937 166.35806,166.35807 0 0 0 -0.1778,0.006 l 0,-0.18164 -1006.29881,0 z"
             style="opacity:1;fill:none;fill-opacity:0.39215686;fill-rule:nonzero;stroke:#ff0000;stroke-width:0.35400003;stroke-miterlimit:4;stroke-dasharray:none;stroke-opacity:1" />
          <g
             transform="translate(-135.43504,-204.19661)"
             id="g4211">
            <path
               style="opacity:1;fill:none;fill-opacity:0.39215686;fill-rule:nonzero;stroke:#ff0000;stroke-width:0.35433075;stroke-miterlimit:4;stroke-dasharray:none;stroke-opacity:1"
               d="m 517.55592,623.56839 0,21.25977 21.25977,0 0,113.38672 -21.25977,0 0,21.25976 76.17969,0 0,35.4336 40.75,0 0,-35.4336 67.32226,0 0,-81.49609 -14.17383,0 0,-56.69336 14.17383,0 0,-17.7168 -184.25195,0 z"
               id="rect4179"
               inkscape:connector-curvature="0" />
            <ellipse
               style="opacity:1;fill:none;fill-opacity:0.39215686;fill-rule:nonzero;stroke:#ff0000;stroke-width:0.35386699;stroke-miterlimit:4;stroke-dasharray:none;stroke-opacity:1"
               id="path4203"
               cx="609.50476"
               cy="708.4306"
               rx="56.515984"
               ry="56.515987" />
            <path
               inkscape:connector-curvature="0"
               id="path4207"
               d="m 1339.6033,623.56839 0,21.25977 21.2597,0 0,113.38672 -21.2597,0 0,21.25976 76.1797,0 0,35.4336 40.75,0 0,-35.4336 67.3222,0 0,-81.49609 -14.1738,0 0,-56.69336 14.1738,0 0,-17.7168 -184.2519,0 z"
               style="opacity:1;fill:none;fill-opacity:0.39215686;fill-rule:nonzero;stroke:#ff0000;stroke-width:0.35433075;stroke-miterlimit:4;stroke-dasharray:none;stroke-opacity:1" />
            <ellipse
               ry="56.515987"
               rx="56.515984"
               cy="708.4306"
               cx="1431.5521"
               id="ellipse4209"
               style="opacity:1;fill:none;fill-opacity:0.39215686;fill-rule:nonzero;stroke:#ff0000;stroke-width:0.35386699;stroke-miterlimit:4;stroke-dasharray:none;stroke-opacity:1" />
          </g>
        </g>
        <g
           id="g4239"
           transform="translate(-35.433048,6.0937532e-7)">
          <ellipse
             ry="8.6802683"
             rx="8.6802692"
             cy="425.4104"
             cx="337.8295"
             id="path4217"
             style="opacity:1;fill:none;fill-opacity:0.39215686;fill-rule:nonzero;stroke:#ff0000;stroke-width:0.35600024;stroke-miterlimit:4;stroke-dasharray:none;stroke-opacity:1" />
          <ellipse
             style="opacity:1;fill:none;fill-opacity:0.39215686;fill-rule:nonzero;stroke:#ff0000;stroke-width:0.35600024;stroke-miterlimit:4;stroke-dasharray:none;stroke-opacity:1"
             id="ellipse4219"
             cx="1503.5776"
             cy="425.4104"
             rx="8.6802692"
             ry="8.6802683" />
        </g>
      </g>
      <g
         transform="translate(-337.80144,127.5681)"
         id="g4283">
        <g
           id="g4255"
           transform="translate(485.43313,0)">
          <ellipse
             style="opacity:1;fill:none;fill-opacity:0.39215686;fill-rule:nonzero;stroke:#ff0000;stroke-width:0.35600024;stroke-miterlimit:4;stroke-dasharray:none;stroke-opacity:1"
             id="ellipse4221"
             cx="414.43695"
             cy="83.639671"
             rx="8.6802692"
             ry="8.6802683" />
          <ellipse
             ry="8.6802683"
             rx="8.6802692"
             cy="328.1279"
             cx="414.43695"
             id="ellipse4235"
             style="opacity:1;fill:none;fill-opacity:0.39215686;fill-rule:nonzero;stroke:#ff0000;stroke-width:0.35600024;stroke-miterlimit:4;stroke-dasharray:none;stroke-opacity:1" />
        </g>
        <g
           id="g4259"
           transform="translate(970.86626,0)">
          <ellipse
             ry="8.6802683"
             rx="8.6802692"
             cy="83.639671"
             cx="414.43695"
             id="ellipse4261"
             style="opacity:1;fill:none;fill-opacity:0.39215686;fill-rule:nonzero;stroke:#ff0000;stroke-width:0.35600024;stroke-miterlimit:4;stroke-dasharray:none;stroke-opacity:1" />
          <ellipse
             style="opacity:1;fill:none;fill-opacity:0.39215686;fill-rule:nonzero;stroke:#ff0000;stroke-width:0.35600024;stroke-miterlimit:4;stroke-dasharray:none;stroke-opacity:1"
             id="ellipse4263"
             cx="414.43695"
             cy="328.1279"
             rx="8.6802692"
             ry="8.6802683" />
          <g
             id="g4327">
            <ellipse
               style="opacity:1;fill:none;fill-opacity:0.39215686;fill-rule:nonzero;stroke:#ff0000;stroke-width:0.35600024;stroke-miterlimit:4;stroke-dasharray:none;stroke-opacity:1"
               id="ellipse4317"
               cx="68.864395"
               cy="239.55038"
               rx="8.6802692"
               ry="8.6802683" />
            <ellipse
               ry="8.6802683"
               rx="8.6802692"
               cy="239.55038"
               cx="890.91174"
               id="ellipse4319"
               style="opacity:1;fill:none;fill-opacity:0.39215686;fill-rule:nonzero;stroke:#ff0000;stroke-width:0.35600024;stroke-miterlimit:4;stroke-dasharray:none;stroke-opacity:1" />
          </g>
        </g>
        <g
           transform="translate(1456.2994,0)"
           id="g4277">
          <ellipse
             style="opacity:1;fill:none;fill-opacity:0.39215686;fill-rule:nonzero;stroke:#ff0000;stroke-width:0.35600024;stroke-miterlimit:4;stroke-dasharray:none;stroke-opacity:1"
             id="ellipse4279"
             cx="414.43695"
             cy="83.639671"
             rx="8.6802692"
             ry="8.6802683" />
          <ellipse
             ry="8.6802683"
             rx="8.6802692"
             cy="328.1279"
             cx="414.43695"
             id="ellipse4281"
             style="opacity:1;fill:none;fill-opacity:0.39215686;fill-rule:nonzero;stroke:#ff0000;stroke-width:0.35600024;stroke-miterlimit:4;stroke-dasharray:none;stroke-opacity:1" />
        </g>
      </g>
    </g>
    <g
       transform="translate(-305.71429,198.57143)"
       id="g4331">
      <g
         id="g4333"
         transform="translate(162.23126,-91.958517)">
        <g
           transform="translate(0,-89.631304)"
           id="g4335">
          <path
             style="opacity:1;fill:none;fill-opacity:0.39215686;fill-rule:nonzero;stroke:#ff0000;stroke-width:0.35400003;stroke-miterlimit:4;stroke-dasharray:none;stroke-opacity:1"
             d="m 382.12109,348.50669 0,0.18554 a 166.35804,166.35805 0 0 0 -0.17578,-0.008 166.35804,166.35805 0 0 0 -166.35937,166.35742 166.35804,166.35805 0 0 0 166.35937,166.35938 166.35804,166.35805 0 0 0 0.17578,-0.006 l 0,0.18164 1006.29881,0 0,-0.1875 a 166.35806,166.35807 0 0 0 0.1778,0.01 166.35806,166.35807 0 0 0 166.3574,-166.35742 166.35806,166.35807 0 0 0 -166.3574,-166.35937 166.35806,166.35807 0 0 0 -0.1778,0.006 l 0,-0.18164 -1006.29881,0 z"
             id="path4337"
             inkscape:connector-curvature="0" />
          <g
             id="g4339"
             transform="translate(-135.43504,-204.19661)">
            <ellipse
               ry="56.515987"
               rx="56.515984"
               cy="708.4306"
               cx="609.50476"
               id="ellipse4343"
               style="opacity:1;fill:none;fill-opacity:0.39215686;fill-rule:nonzero;stroke:#ff0000;stroke-width:0.35386699;stroke-miterlimit:4;stroke-dasharray:none;stroke-opacity:1" />
            <ellipse
               style="opacity:1;fill:none;fill-opacity:0.39215686;fill-rule:nonzero;stroke:#ff0000;stroke-width:0.35386699;stroke-miterlimit:4;stroke-dasharray:none;stroke-opacity:1"
               id="ellipse4347"
               cx="1431.5521"
               cy="708.4306"
               rx="56.515984"
               ry="56.515987" />
          </g>
        </g>
        <g
           transform="translate(-35.433048,6.0937532e-7)"
           id="g4349">
          <ellipse
             style="opacity:1;fill:none;fill-opacity:0.39215686;fill-rule:nonzero;stroke:#ff0000;stroke-width:0.35600024;stroke-miterlimit:4;stroke-dasharray:none;stroke-opacity:1"
             id="ellipse4351"
             cx="337.8295"
             cy="425.4104"
             rx="8.6802692"
             ry="8.6802683" />
          <ellipse
             ry="8.6802683"
             rx="8.6802692"
             cy="425.4104"
             cx="1503.5776"
             id="ellipse4353"
             style="opacity:1;fill:none;fill-opacity:0.39215686;fill-rule:nonzero;stroke:#ff0000;stroke-width:0.35600024;stroke-miterlimit:4;stroke-dasharray:none;stroke-opacity:1" />
        </g>
      </g>
      <g
         id="g4355"
         transform="translate(-337.80144,127.5681)">
        <g
           transform="translate(485.43313,0)"
           id="g4357">
          <ellipse
             ry="8.6802683"
             rx="8.6802692"
             cy="83.639671"
             cx="414.43695"
             id="ellipse4359"
             style="opacity:1;fill:none;fill-opacity:0.39215686;fill-rule:nonzero;stroke:#ff0000;stroke-width:0.35600024;stroke-miterlimit:4;stroke-dasharray:none;stroke-opacity:1" />
          <ellipse
             style="opacity:1;fill:none;fill-opacity:0.39215686;fill-rule:nonzero;stroke:#ff0000;stroke-width:0.35600024;stroke-miterlimit:4;stroke-dasharray:none;stroke-opacity:1"
             id="ellipse4361"
             cx="414.43695"
             cy="328.1279"
             rx="8.6802692"
             ry="8.6802683" />
        </g>
        <g
           transform="translate(970.86626,0)"
           id="g4363">
          <ellipse
             style="opacity:1;fill:none;fill-opacity:0.39215686;fill-rule:nonzero;stroke:#ff0000;stroke-width:0.35600024;stroke-miterlimit:4;stroke-dasharray:none;stroke-opacity:1"
             id="ellipse4365"
             cx="414.43695"
             cy="83.639671"
             rx="8.6802692"
             ry="8.6802683" />
          <ellipse
             ry="8.6802683"
             rx="8.6802692"
             cy="328.1279"
             cx="414.43695"
             id="ellipse4367"
             style="opacity:1;fill:none;fill-opacity:0.39215686;fill-rule:nonzero;stroke:#ff0000;stroke-width:0.35600024;stroke-miterlimit:4;stroke-dasharray:none;stroke-opacity:1" />
          <g
             id="g4369">
            <ellipse
               ry="8.6802683"
               rx="8.6802692"
               cy="239.55038"
               cx="68.864395"
               id="ellipse4371"
               style="opacity:1;fill:none;fill-opacity:0.39215686;fill-rule:nonzero;stroke:#ff0000;stroke-width:0.35600024;stroke-miterlimit:4;stroke-dasharray:none;stroke-opacity:1" />
            <ellipse
               style="opacity:1;fill:none;fill-opacity:0.39215686;fill-rule:nonzero;stroke:#ff0000;stroke-width:0.35600024;stroke-miterlimit:4;stroke-dasharray:none;stroke-opacity:1"
               id="ellipse4373"
               cx="890.91174"
               cy="239.55038"
               rx="8.6802692"
               ry="8.6802683" />
          </g>
        </g>
        <g
           id="g4375"
           transform="translate(1456.2994,0)">
          <ellipse
             ry="8.6802683"
             rx="8.6802692"
             cy="83.639671"
             cx="414.43695"
             id="ellipse4377"
             style="opacity:1;fill:none;fill-opacity:0.39215686;fill-rule:nonzero;stroke:#ff0000;stroke-width:0.35600024;stroke-miterlimit:4;stroke-dasharray:none;stroke-opacity:1" />
          <ellipse
             style="opacity:1;fill:none;fill-opacity:0.39215686;fill-rule:nonzero;stroke:#ff0000;stroke-width:0.35600024;stroke-miterlimit:4;stroke-dasharray:none;stroke-opacity:1"
             id="ellipse4379"
             cx="414.43695"
             cy="328.1279"
             rx="8.6802692"
             ry="8.6802683" />
        </g>
      </g>
    </g>
    <g
       transform="translate(-305.71429,535.71429)"
       id="g4383">
      <g
         id="g4385"
         transform="translate(162.23126,-91.958517)">
        <g
           transform="translate(0,-89.631304)"
           id="g4387">
          <path
             style="opacity:1;fill:none;fill-opacity:0.39215686;fill-rule:nonzero;stroke:#ff0000;stroke-width:0.35400003;stroke-miterlimit:4;stroke-dasharray:none;stroke-opacity:1"
             d="m 382.12109,348.50669 0,0.18554 a 166.35804,166.35805 0 0 0 -0.17578,-0.008 166.35804,166.35805 0 0 0 -166.35937,166.35742 166.35804,166.35805 0 0 0 166.35937,166.35938 166.35804,166.35805 0 0 0 0.17578,-0.006 l 0,0.18164 1006.29881,0 0,-0.1875 a 166.35806,166.35807 0 0 0 0.1778,0.01 166.35806,166.35807 0 0 0 166.3574,-166.35742 166.35806,166.35807 0 0 0 -166.3574,-166.35937 166.35806,166.35807 0 0 0 -0.1778,0.006 l 0,-0.18164 -1006.29881,0 z"
             id="path4389"
             inkscape:connector-curvature="0" />
          <g
             id="g4391"
             transform="translate(-135.43504,-204.19661)">
            <path
               inkscape:connector-curvature="0"
               id="path4393"
               d="m 517.55592,623.56839 0,21.25977 21.25977,0 0,113.38672 -21.25977,0 0,21.25976 76.17969,0 0,35.4336 40.75,0 0,-35.4336 67.32226,0 0,-81.49609 -14.17383,0 0,-56.69336 14.17383,0 0,-17.7168 -184.25195,0 z"
               style="opacity:1;fill:none;fill-opacity:0.39215686;fill-rule:nonzero;stroke:#ff0000;stroke-width:0.35433075;stroke-miterlimit:4;stroke-dasharray:none;stroke-opacity:1" />
            <path
               style="opacity:1;fill:none;fill-opacity:0.39215686;fill-rule:nonzero;stroke:#ff0000;stroke-width:0.35433075;stroke-miterlimit:4;stroke-dasharray:none;stroke-opacity:1"
               d="m 1339.6033,623.56839 0,21.25977 21.2597,0 0,113.38672 -21.2597,0 0,21.25976 76.1797,0 0,35.4336 40.75,0 0,-35.4336 67.3222,0 0,-81.49609 -14.1738,0 0,-56.69336 14.1738,0 0,-17.7168 -184.2519,0 z"
               id="path4397"
               inkscape:connector-curvature="0" />
          </g>
        </g>
        <g
           transform="translate(-35.433048,6.0937532e-7)"
           id="g4401">
          <ellipse
             style="opacity:1;fill:none;fill-opacity:0.39215686;fill-rule:nonzero;stroke:#ff0000;stroke-width:0.35600024;stroke-miterlimit:4;stroke-dasharray:none;stroke-opacity:1"
             id="ellipse4403"
             cx="337.8295"
             cy="425.4104"
             rx="8.6802692"
             ry="8.6802683" />
          <ellipse
             ry="8.6802683"
             rx="8.6802692"
             cy="425.4104"
             cx="1503.5776"
             id="ellipse4405"
             style="opacity:1;fill:none;fill-opacity:0.39215686;fill-rule:nonzero;stroke:#ff0000;stroke-width:0.35600024;stroke-miterlimit:4;stroke-dasharray:none;stroke-opacity:1" />
        </g>
      </g>
      <g
         id="g4407"
         transform="translate(-337.80144,127.5681)">
        <g
           transform="translate(485.43313,0)"
           id="g4409">
          <ellipse
             ry="8.6802683"
             rx="8.6802692"
             cy="83.639671"
             cx="414.43695"
             id="ellipse4411"
             style="opacity:1;fill:none;fill-opacity:0.39215686;fill-rule:nonzero;stroke:#ff0000;stroke-width:0.35600024;stroke-miterlimit:4;stroke-dasharray:none;stroke-opacity:1" />
          <ellipse
             style="opacity:1;fill:none;fill-opacity:0.39215686;fill-rule:nonzero;stroke:#ff0000;stroke-width:0.35600024;stroke-miterlimit:4;stroke-dasharray:none;stroke-opacity:1"
             id="ellipse4413"
             cx="414.43695"
             cy="328.1279"
             rx="8.6802692"
             ry="8.6802683" />
        </g>
        <g
           transform="translate(970.86626,0)"
           id="g4415">
          <ellipse
             style="opacity:1;fill:none;fill-opacity:0.39215686;fill-rule:nonzero;stroke:#ff0000;stroke-width:0.35600024;stroke-miterlimit:4;stroke-dasharray:none;stroke-opacity:1"
             id="ellipse4417"
             cx="414.43695"
             cy="83.639671"
             rx="8.6802692"
             ry="8.6802683" />
          <ellipse
             ry="8.6802683"
             rx="8.6802692"
             cy="328.1279"
             cx="414.43695"
             id="ellipse4419"
             style="opacity:1;fill:none;fill-opacity:0.39215686;fill-rule:nonzero;stroke:#ff0000;stroke-width:0.35600024;stroke-miterlimit:4;stroke-dasharray:none;stroke-opacity:1" />
          <g
             id="g4421">
            <ellipse
               ry="8.6802683"
               rx="8.6802692"
               cy="239.55038"
               cx="68.864395"
               id="ellipse4423"
               style="opacity:1;fill:none;fill-opacity:0.39215686;fill-rule:nonzero;stroke:#ff0000;stroke-width:0.35600024;stroke-miterlimit:4;stroke-dasharray:none;stroke-opacity:1" />
            <ellipse
               style="opacity:1;fill:none;fill-opacity:0.39215686;fill-rule:nonzero;stroke:#ff0000;stroke-width:0.35600024;stroke-miterlimit:4;stroke-dasharray:none;stroke-opacity:1"
               id="ellipse4425"
               cx="890.91174"
               cy="239.55038"
               rx="8.6802692"
               ry="8.6802683" />
          </g>
        </g>
        <g
           id="g4427"
           transform="translate(1456.2994,0)">
          <ellipse
             ry="8.6802683"
             rx="8.6802692"
             cy="83.639671"
             cx="414.43695"
             id="ellipse4429"
             style="opacity:1;fill:none;fill-opacity:0.39215686;fill-rule:nonzero;stroke:#ff0000;stroke-width:0.35600024;stroke-miterlimit:4;stroke-dasharray:none;stroke-opacity:1" />
          <ellipse
             style="opacity:1;fill:none;fill-opacity:0.39215686;fill-rule:nonzero;stroke:#ff0000;stroke-width:0.35600024;stroke-miterlimit:4;stroke-dasharray:none;stroke-opacity:1"
             id="ellipse4431"
             cx="414.43695"
             cy="328.1279"
             rx="8.6802692"
             ry="8.6802683" />
        </g>
      </g>
    </g>
  </g>
</svg>
