<?xml version="1.0" encoding="UTF-8" standalone="no"?>
<!-- Created with Inkscape (http://www.inkscape.org/) -->

<svg
   xmlns:dc="http://purl.org/dc/elements/1.1/"
   xmlns:cc="http://creativecommons.org/ns#"
   xmlns:rdf="http://www.w3.org/1999/02/22-rdf-syntax-ns#"
   xmlns:svg="http://www.w3.org/2000/svg"
   xmlns="http://www.w3.org/2000/svg"
   xmlns:sodipodi="http://sodipodi.sourceforge.net/DTD/sodipodi-0.dtd"
   xmlns:inkscape="http://www.inkscape.org/namespaces/inkscape"
   width="420mm"
   height="297mm"
   viewBox="0 0 1488.189 1052.3622"
   id="svg2"
   version="1.1"
   inkscape:version="0.91 r13725"
   sodipodi:docname="round-mount-v3.svg">
  <defs
     id="defs4" />
  <sodipodi:namedview
     id="base"
     pagecolor="#ffffff"
     bordercolor="#666666"
     borderopacity="1.0"
     inkscape:pageopacity="0.0"
     inkscape:pageshadow="2"
     inkscape:zoom="0.8658505"
     inkscape:cx="710.10707"
     inkscape:cy="553.29634"
     inkscape:document-units="mm"
     inkscape:current-layer="g4468"
     showgrid="false"
     inkscape:window-width="1680"
     inkscape:window-height="1001"
     inkscape:window-x="0"
     inkscape:window-y="23"
     inkscape:window-maximized="1" />
  <metadata
     id="metadata7">
    <rdf:RDF>
      <cc:Work
         rdf:about="">
        <dc:format>image/svg+xml</dc:format>
        <dc:type
           rdf:resource="http://purl.org/dc/dcmitype/StillImage" />
        <dc:title />
      </cc:Work>
    </rdf:RDF>
  </metadata>
  <g
     inkscape:label="Layer 1"
     inkscape:groupmode="layer"
     id="layer1">
    <g
       transform="translate(-305.71429,198.57143)"
       id="g4331">
      <g
         id="g4333"
         transform="translate(162.23126,-91.958517)">
        <g
           transform="translate(0,-89.631304)"
           id="g4335">
          <g
             id="g4339"
             transform="translate(-135.43504,-204.19661)" />
        </g>
      </g>
    </g>
    <g
       id="g4536"
       transform="translate(17.324007,453.88897)">
      <g
         id="g4538">
        <g
           transform="translate(1.4285714,79.143069)"
           id="g4546">
          <g
             id="g4550"
             transform="translate(37.671595,-220.43244)">
            <g
               id="g4552" />
          </g>
        </g>
      </g>
    </g>
    <g
       id="g4302"
       transform="translate(-3.254982,207.92108)">
      <g
         transform="translate(1.4285714,79.143069)"
         id="g4272" />
    </g>
    <g
       id="g4294"
       transform="translate(39.199753,-880.36111)">
      <g
         id="g4284"
         transform="translate(-1.8263659,436.63171)">
        <ellipse
           ry="8.6802683"
           rx="8.6802692"
           cy="182.02332"
           cx="158.91342"
           id="path4217"
           style="opacity:1;fill:none;fill-opacity:0.39215686;fill-rule:nonzero;stroke:#ff0000;stroke-width:0.35600024;stroke-miterlimit:4;stroke-dasharray:none;stroke-opacity:1" />
        <ellipse
           style="opacity:1;fill:none;fill-opacity:0.39215686;fill-rule:nonzero;stroke:#ff0000;stroke-width:0.35600024;stroke-miterlimit:4;stroke-dasharray:none;stroke-opacity:1"
           id="ellipse4219"
           cx="1324.6615"
           cy="182.02332"
           rx="8.6802692"
           ry="8.6802683" />
      </g>
      <path
         inkscape:connector-curvature="0"
         id="rect4155"
         d="m 238.63806,165.05586 0,0.18554 a 166.35804,166.35805 0 0 0 -0.17578,-0.008 166.35804,166.35805 0 0 0 -166.35937,166.35742 166.35804,166.35805 0 0 0 166.35937,166.35938 166.35804,166.35805 0 0 0 0.17578,-0.006 l 0,0.18164 1006.29884,0 0,-0.1875 a 166.35806,166.35807 0 0 0 0.1778,0.01 166.35806,166.35807 0 0 0 166.3574,-166.35742 166.35806,166.35807 0 0 0 -166.3574,-166.35937 166.35806,166.35807 0 0 0 -0.1778,0.006 l 0,-0.18164 -1006.29884,0 z"
         style="opacity:1;fill:none;fill-opacity:0.39215686;fill-rule:nonzero;stroke:#ff0000;stroke-width:0.35400003;stroke-miterlimit:4;stroke-dasharray:none;stroke-opacity:1"
         transform="translate(-1.8264106,287.06415)" />
      <g
         transform="translate(-63.139061,-32.326671)"
         id="g4263">
        <g
           id="g4254"
           transform="translate(42.29133,116.80823)">
          <path
             inkscape:connector-curvature="0"
             id="rect4179"
             d="m 314.35214,456.35339 0,21.25977 21.25977,0 0,113.38672 -21.25977,0 0,21.25976 76.17969,0 0,35.4336 40.75,0 0,-35.4336 67.32226,0 0,-81.49609 -14.17383,0 0,-56.69336 14.17383,0 0,-17.7168 -184.25195,0 z"
             style="opacity:1;fill:none;fill-opacity:0.39215686;fill-rule:nonzero;stroke:#ff0000;stroke-width:0.35433075;stroke-miterlimit:4;stroke-dasharray:none;stroke-opacity:1" />
          <ellipse
             ry="56.515987"
             rx="56.515984"
             cy="534.12897"
             cx="406.30099"
             id="path4203"
             style="opacity:1;fill:none;fill-opacity:0.39215686;fill-rule:nonzero;stroke:#ff0000;stroke-width:0.35386699;stroke-miterlimit:4;stroke-dasharray:none;stroke-opacity:1" />
        </g>
        <g
           transform="translate(750.95275,116.80823)"
           id="g4257">
          <path
             style="opacity:1;fill:none;fill-opacity:0.39215686;fill-rule:nonzero;stroke:#ff0000;stroke-width:0.35433075;stroke-miterlimit:4;stroke-dasharray:none;stroke-opacity:1"
             d="m 314.35214,456.35339 0,21.25977 21.25977,0 0,113.38672 -21.25977,0 0,21.25976 76.17969,0 0,35.4336 40.75,0 0,-35.4336 67.32226,0 0,-81.49609 -14.17383,0 0,-56.69336 14.17383,0 0,-17.7168 -184.25195,0 z"
             id="path4259"
             inkscape:connector-curvature="0" />
          <ellipse
             style="opacity:1;fill:none;fill-opacity:0.39215686;fill-rule:nonzero;stroke:#ff0000;stroke-width:0.35386699;stroke-miterlimit:4;stroke-dasharray:none;stroke-opacity:1"
             id="ellipse4261"
             cx="406.30099"
             cy="534.12897"
             rx="56.515984"
             ry="56.515987" />
        </g>
      </g>
      <g
         transform="translate(17.233491,199.48629)"
         id="g4753">
        <g
           id="g4737"
           transform="translate(28.583153,311.9647)">
          <ellipse
             transform="scale(1,-1)"
             ry="5.1367464"
             rx="5.1367459"
             style="opacity:1;fill:none;fill-opacity:0.39215686;fill-rule:nonzero;stroke:#ff0000;stroke-width:0.35642865;stroke-miterlimit:4;stroke-dasharray:none;stroke-opacity:1"
             id="use4330"
             cx="190.99483"
             cy="-202.87332" />
          <ellipse
             cy="-11.534739"
             cx="190.99483"
             id="ellipse4735"
             style="opacity:1;fill:none;fill-opacity:0.39215686;fill-rule:nonzero;stroke:#ff0000;stroke-width:0.35642865;stroke-miterlimit:4;stroke-dasharray:none;stroke-opacity:1"
             rx="5.1367459"
             ry="5.1367464"
             transform="scale(1,-1)" />
        </g>
        <g
           transform="translate(531.73276,311.9647)"
           id="g4741">
          <ellipse
             cy="-202.87332"
             cx="190.99483"
             id="ellipse4743"
             style="opacity:1;fill:none;fill-opacity:0.39215686;fill-rule:nonzero;stroke:#ff0000;stroke-width:0.35642865;stroke-miterlimit:4;stroke-dasharray:none;stroke-opacity:1"
             rx="5.1367459"
             ry="5.1367464"
             transform="scale(1,-1)" />
          <ellipse
             transform="scale(1,-1)"
             ry="5.1367464"
             rx="5.1367459"
             style="opacity:1;fill:none;fill-opacity:0.39215686;fill-rule:nonzero;stroke:#ff0000;stroke-width:0.35642865;stroke-miterlimit:4;stroke-dasharray:none;stroke-opacity:1"
             id="ellipse4745"
             cx="190.99483"
             cy="-11.534739" />
        </g>
        <g
           id="g4747"
           transform="translate(1034.8824,311.9647)">
          <ellipse
             transform="scale(1,-1)"
             ry="5.1367464"
             rx="5.1367459"
             style="opacity:1;fill:none;fill-opacity:0.39215686;fill-rule:nonzero;stroke:#ff0000;stroke-width:0.35642865;stroke-miterlimit:4;stroke-dasharray:none;stroke-opacity:1"
             id="ellipse4749"
             cx="190.99483"
             cy="-202.87332" />
          <ellipse
             cy="-11.534739"
             cx="190.99483"
             id="ellipse4751"
             style="opacity:1;fill:none;fill-opacity:0.39215686;fill-rule:nonzero;stroke:#ff0000;stroke-width:0.35642865;stroke-miterlimit:4;stroke-dasharray:none;stroke-opacity:1"
             rx="5.1367459"
             ry="5.1367464"
             transform="scale(1,-1)" />
        </g>
      </g>
    </g>
    <g
       transform="translate(60.056557,430.42417)"
       id="g5000">
      <g
         id="g5002"
         transform="translate(-54.072069,27.751406)">
        <g
           transform="translate(1.4285714,79.143069)"
           id="g5010">
          <g
             id="g5014"
             transform="translate(37.671595,-220.43244)">
            <g
               transform="translate(595.27559,0)"
               id="g5022" />
          </g>
        </g>
      </g>
    </g>
    <g
       transform="translate(-9.7999379,-442.63054)"
       id="g4317">
      <g
         transform="translate(-1.8263659,436.63171)"
         id="g4319">
        <ellipse
           style="opacity:1;fill:none;fill-opacity:0.39215686;fill-rule:nonzero;stroke:#ff0000;stroke-width:0.35600024;stroke-miterlimit:4;stroke-dasharray:none;stroke-opacity:1"
           id="ellipse4321"
           cx="158.91342"
           cy="182.02332"
           rx="8.6802692"
           ry="8.6802683" />
        <ellipse
           ry="8.6802683"
           rx="8.6802692"
           cy="182.02332"
           cx="1324.6615"
           id="ellipse4323"
           style="opacity:1;fill:none;fill-opacity:0.39215686;fill-rule:nonzero;stroke:#ff0000;stroke-width:0.35600024;stroke-miterlimit:4;stroke-dasharray:none;stroke-opacity:1" />
      </g>
      <path
         transform="translate(-1.8264106,287.06415)"
         style="opacity:1;fill:none;fill-opacity:0.39215686;fill-rule:nonzero;stroke:#ff0000;stroke-width:0.35400003;stroke-miterlimit:4;stroke-dasharray:none;stroke-opacity:1"
         d="m 238.63806,165.05586 0,0.18554 a 166.35804,166.35805 0 0 0 -0.17578,-0.008 166.35804,166.35805 0 0 0 -166.35937,166.35742 166.35804,166.35805 0 0 0 166.35937,166.35938 166.35804,166.35805 0 0 0 0.17578,-0.006 l 0,0.18164 1006.29884,0 0,-0.1875 a 166.35806,166.35807 0 0 0 0.1778,0.01 166.35806,166.35807 0 0 0 166.3574,-166.35742 166.35806,166.35807 0 0 0 -166.3574,-166.35937 166.35806,166.35807 0 0 0 -0.1778,0.006 l 0,-0.18164 -1006.29884,0 z"
         id="path4325"
         inkscape:connector-curvature="0" />
      <g
         id="g4327"
         transform="translate(-63.139061,-32.326671)" />
      <g
         id="g4342"
         transform="translate(17.233491,199.48629)">
        <g
           transform="translate(28.583153,311.9647)"
           id="g4344">
          <ellipse
             cy="-202.87332"
             cx="190.99483"
             id="ellipse4346"
             style="opacity:1;fill:none;fill-opacity:0.39215686;fill-rule:nonzero;stroke:#ff0000;stroke-width:0.35642865;stroke-miterlimit:4;stroke-dasharray:none;stroke-opacity:1"
             rx="5.1367459"
             ry="5.1367464"
             transform="scale(1,-1)" />
          <ellipse
             transform="scale(1,-1)"
             ry="5.1367464"
             rx="5.1367459"
             style="opacity:1;fill:none;fill-opacity:0.39215686;fill-rule:nonzero;stroke:#ff0000;stroke-width:0.35642865;stroke-miterlimit:4;stroke-dasharray:none;stroke-opacity:1"
             id="ellipse4348"
             cx="190.99483"
             cy="-11.534739" />
        </g>
        <g
           id="g4350"
           transform="translate(531.73276,311.9647)">
          <ellipse
             transform="scale(1,-1)"
             ry="5.1367464"
             rx="5.1367459"
             style="opacity:1;fill:none;fill-opacity:0.39215686;fill-rule:nonzero;stroke:#ff0000;stroke-width:0.35642865;stroke-miterlimit:4;stroke-dasharray:none;stroke-opacity:1"
             id="ellipse4352"
             cx="190.99483"
             cy="-202.87332" />
          <ellipse
             cy="-11.534739"
             cx="190.99483"
             id="ellipse4354"
             style="opacity:1;fill:none;fill-opacity:0.39215686;fill-rule:nonzero;stroke:#ff0000;stroke-width:0.35642865;stroke-miterlimit:4;stroke-dasharray:none;stroke-opacity:1"
             rx="5.1367459"
             ry="5.1367464"
             transform="scale(1,-1)" />
        </g>
        <g
           transform="translate(1034.8824,311.9647)"
           id="g4356">
          <ellipse
             cy="-202.87332"
             cx="190.99483"
             id="ellipse4358"
             style="opacity:1;fill:none;fill-opacity:0.39215686;fill-rule:nonzero;stroke:#ff0000;stroke-width:0.35642865;stroke-miterlimit:4;stroke-dasharray:none;stroke-opacity:1"
             rx="5.1367459"
             ry="5.1367464"
             transform="scale(1,-1)" />
          <ellipse
             transform="scale(1,-1)"
             ry="5.1367464"
             rx="5.1367459"
             style="opacity:1;fill:none;fill-opacity:0.39215686;fill-rule:nonzero;stroke:#ff0000;stroke-width:0.35642865;stroke-miterlimit:4;stroke-dasharray:none;stroke-opacity:1"
             id="ellipse4360"
             cx="190.99483"
             cy="-11.534739" />
        </g>
      </g>
    </g>
    <g
       transform="translate(-13.066584,-88.199445)"
       id="g4362">
      <g
         transform="translate(-1.8263659,436.63171)"
         id="g4364">
        <ellipse
           style="opacity:1;fill:none;fill-opacity:0.39215686;fill-rule:nonzero;stroke:#ff0000;stroke-width:0.35600024;stroke-miterlimit:4;stroke-dasharray:none;stroke-opacity:1"
           id="ellipse4366"
           cx="158.91342"
           cy="182.02332"
           rx="8.6802692"
           ry="8.6802683" />
        <ellipse
           ry="8.6802683"
           rx="8.6802692"
           cy="182.02332"
           cx="1324.6615"
           id="ellipse4368"
           style="opacity:1;fill:none;fill-opacity:0.39215686;fill-rule:nonzero;stroke:#ff0000;stroke-width:0.35600024;stroke-miterlimit:4;stroke-dasharray:none;stroke-opacity:1" />
      </g>
      <path
         transform="translate(-1.8264106,287.06415)"
         style="opacity:1;fill:none;fill-opacity:0.39215686;fill-rule:nonzero;stroke:#ff0000;stroke-width:0.35400003;stroke-miterlimit:4;stroke-dasharray:none;stroke-opacity:1"
         d="m 238.63806,165.05586 0,0.18554 a 166.35804,166.35805 0 0 0 -0.17578,-0.008 166.35804,166.35805 0 0 0 -166.35937,166.35742 166.35804,166.35805 0 0 0 166.35937,166.35938 166.35804,166.35805 0 0 0 0.17578,-0.006 l 0,0.18164 1006.29884,0 0,-0.1875 a 166.35806,166.35807 0 0 0 0.1778,0.01 166.35806,166.35807 0 0 0 166.3574,-166.35742 166.35806,166.35807 0 0 0 -166.3574,-166.35937 166.35806,166.35807 0 0 0 -0.1778,0.006 l 0,-0.18164 -1006.29884,0 z"
         id="path4370"
         inkscape:connector-curvature="0" />
      <g
         id="g4372"
         transform="translate(-63.139061,-32.326671)">
        <g
           transform="translate(42.29133,116.80823)"
           id="g4374">
          <ellipse
             style="opacity:1;fill:none;fill-opacity:0.39215686;fill-rule:nonzero;stroke:#ff0000;stroke-width:0.35386699;stroke-miterlimit:4;stroke-dasharray:none;stroke-opacity:1"
             id="ellipse4378"
             cx="406.30099"
             cy="534.12897"
             rx="56.515984"
             ry="56.515987" />
        </g>
        <g
           id="g4380"
           transform="translate(750.95275,116.80823)">
          <ellipse
             ry="56.515987"
             rx="56.515984"
             cy="534.12897"
             cx="406.30099"
             id="ellipse4384"
             style="opacity:1;fill:none;fill-opacity:0.39215686;fill-rule:nonzero;stroke:#ff0000;stroke-width:0.35386699;stroke-miterlimit:4;stroke-dasharray:none;stroke-opacity:1" />
        </g>
      </g>
      <g
         id="g4386"
         transform="translate(17.233491,199.48629)">
        <g
           transform="translate(28.583153,311.9647)"
           id="g4388">
          <ellipse
             cy="-202.87332"
             cx="190.99483"
             id="ellipse4390"
             style="opacity:1;fill:none;fill-opacity:0.39215686;fill-rule:nonzero;stroke:#ff0000;stroke-width:0.35642865;stroke-miterlimit:4;stroke-dasharray:none;stroke-opacity:1"
             rx="5.1367459"
             ry="5.1367464"
             transform="scale(1,-1)" />
          <ellipse
             transform="scale(1,-1)"
             ry="5.1367464"
             rx="5.1367459"
             style="opacity:1;fill:none;fill-opacity:0.39215686;fill-rule:nonzero;stroke:#ff0000;stroke-width:0.35642865;stroke-miterlimit:4;stroke-dasharray:none;stroke-opacity:1"
             id="ellipse4392"
             cx="190.99483"
             cy="-11.534739" />
        </g>
        <g
           id="g4394"
           transform="translate(531.73276,311.9647)">
          <ellipse
             transform="scale(1,-1)"
             ry="5.1367464"
             rx="5.1367459"
             style="opacity:1;fill:none;fill-opacity:0.39215686;fill-rule:nonzero;stroke:#ff0000;stroke-width:0.35642865;stroke-miterlimit:4;stroke-dasharray:none;stroke-opacity:1"
             id="ellipse4396"
             cx="190.99483"
             cy="-202.87332" />
          <ellipse
             cy="-11.534739"
             cx="190.99483"
             id="ellipse4398"
             style="opacity:1;fill:none;fill-opacity:0.39215686;fill-rule:nonzero;stroke:#ff0000;stroke-width:0.35642865;stroke-miterlimit:4;stroke-dasharray:none;stroke-opacity:1"
             rx="5.1367459"
             ry="5.1367464"
             transform="scale(1,-1)" />
        </g>
        <g
           transform="translate(1034.8824,311.9647)"
           id="g4400">
          <ellipse
             cy="-202.87332"
             cx="190.99483"
             id="ellipse4402"
             style="opacity:1;fill:none;fill-opacity:0.39215686;fill-rule:nonzero;stroke:#ff0000;stroke-width:0.35642865;stroke-miterlimit:4;stroke-dasharray:none;stroke-opacity:1"
             rx="5.1367459"
             ry="5.1367464"
             transform="scale(1,-1)" />
          <ellipse
             transform="scale(1,-1)"
             ry="5.1367464"
             rx="5.1367459"
             style="opacity:1;fill:none;fill-opacity:0.39215686;fill-rule:nonzero;stroke:#ff0000;stroke-width:0.35642865;stroke-miterlimit:4;stroke-dasharray:none;stroke-opacity:1"
             id="ellipse4404"
             cx="190.99483"
             cy="-11.534739" />
        </g>
      </g>
    </g>
    <g
       transform="translate(2.4892007e-7,258.06504)"
       id="g4450">
      <g
         transform="translate(-1.8263659,436.63171)"
         id="g4452">
        <ellipse
           style="opacity:1;fill:none;fill-opacity:0.39215686;fill-rule:nonzero;stroke:#ff0000;stroke-width:0.35600024;stroke-miterlimit:4;stroke-dasharray:none;stroke-opacity:1"
           id="ellipse4454"
           cx="158.91342"
           cy="182.02332"
           rx="8.6802692"
           ry="8.6802683" />
        <ellipse
           ry="8.6802683"
           rx="8.6802692"
           cy="182.02332"
           cx="1324.6615"
           id="ellipse4456"
           style="opacity:1;fill:none;fill-opacity:0.39215686;fill-rule:nonzero;stroke:#ff0000;stroke-width:0.35600024;stroke-miterlimit:4;stroke-dasharray:none;stroke-opacity:1" />
      </g>
      <path
         transform="translate(-1.8264106,287.06415)"
         style="opacity:1;fill:none;fill-opacity:0.39215686;fill-rule:nonzero;stroke:#ff0000;stroke-width:0.35400003;stroke-miterlimit:4;stroke-dasharray:none;stroke-opacity:1"
         d="m 238.63806,165.05586 0,0.18554 a 166.35804,166.35805 0 0 0 -0.17578,-0.008 166.35804,166.35805 0 0 0 -166.35937,166.35742 166.35804,166.35805 0 0 0 166.35937,166.35938 166.35804,166.35805 0 0 0 0.17578,-0.006 l 0,0.18164 1006.29884,0 0,-0.1875 a 166.35806,166.35807 0 0 0 0.1778,0.01 166.35806,166.35807 0 0 0 166.3574,-166.35742 166.35806,166.35807 0 0 0 -166.3574,-166.35937 166.35806,166.35807 0 0 0 -0.1778,0.006 l 0,-0.18164 -1006.29884,0 z"
         id="path4458"
         inkscape:connector-curvature="0" />
      <g
         id="g4460"
         transform="translate(-63.139061,-32.326671)">
        <g
           transform="translate(42.29133,116.80823)"
           id="g4462">
          <path
             style="opacity:1;fill:none;fill-opacity:0.39215686;fill-rule:nonzero;stroke:#ff0000;stroke-width:0.35433075;stroke-miterlimit:4;stroke-dasharray:none;stroke-opacity:1"
             d="m 314.35214,456.35339 0,21.25977 21.25977,0 0,113.38672 -21.25977,0 0,21.25976 76.17969,0 0,35.4336 40.75,0 0,-35.4336 67.32226,0 0,-81.49609 -14.17383,0 0,-56.69336 14.17383,0 0,-17.7168 -184.25195,0 z"
             id="path4464"
             inkscape:connector-curvature="0" />
        </g>
        <g
           id="g4468"
           transform="translate(750.95275,116.80823)">
          <path
             inkscape:connector-curvature="0"
             id="path4470"
             d="m 314.35214,456.35339 0,21.25977 21.25977,0 0,113.38672 -21.25977,0 0,21.25976 76.17969,0 0,35.4336 40.75,0 0,-35.4336 67.32226,0 0,-81.49609 -14.17383,0 0,-56.69336 14.17383,0 0,-17.7168 -184.25195,0 z"
             style="opacity:1;fill:none;fill-opacity:0.39215686;fill-rule:nonzero;stroke:#ff0000;stroke-width:0.35433075;stroke-miterlimit:4;stroke-dasharray:none;stroke-opacity:1" />
        </g>
      </g>
      <g
         id="g4474"
         transform="translate(17.233491,199.48629)">
        <g
           transform="translate(28.583153,311.9647)"
           id="g4476">
          <ellipse
             cy="-202.87332"
             cx="190.99483"
             id="ellipse4478"
             style="opacity:1;fill:none;fill-opacity:0.39215686;fill-rule:nonzero;stroke:#ff0000;stroke-width:0.35642865;stroke-miterlimit:4;stroke-dasharray:none;stroke-opacity:1"
             rx="5.1367459"
             ry="5.1367464"
             transform="scale(1,-1)" />
          <ellipse
             transform="scale(1,-1)"
             ry="5.1367464"
             rx="5.1367459"
             style="opacity:1;fill:none;fill-opacity:0.39215686;fill-rule:nonzero;stroke:#ff0000;stroke-width:0.35642865;stroke-miterlimit:4;stroke-dasharray:none;stroke-opacity:1"
             id="ellipse4480"
             cx="190.99483"
             cy="-11.534739" />
        </g>
        <g
           id="g4482"
           transform="translate(531.73276,311.9647)">
          <ellipse
             transform="scale(1,-1)"
             ry="5.1367464"
             rx="5.1367459"
             style="opacity:1;fill:none;fill-opacity:0.39215686;fill-rule:nonzero;stroke:#ff0000;stroke-width:0.35642865;stroke-miterlimit:4;stroke-dasharray:none;stroke-opacity:1"
             id="ellipse4484"
             cx="190.99483"
             cy="-202.87332" />
          <ellipse
             cy="-11.534739"
             cx="190.99483"
             id="ellipse4486"
             style="opacity:1;fill:none;fill-opacity:0.39215686;fill-rule:nonzero;stroke:#ff0000;stroke-width:0.35642865;stroke-miterlimit:4;stroke-dasharray:none;stroke-opacity:1"
             rx="5.1367459"
             ry="5.1367464"
             transform="scale(1,-1)" />
        </g>
        <g
           transform="translate(1034.8824,311.9647)"
           id="g4488">
          <ellipse
             cy="-202.87332"
             cx="190.99483"
             id="ellipse4490"
             style="opacity:1;fill:none;fill-opacity:0.39215686;fill-rule:nonzero;stroke:#ff0000;stroke-width:0.35642865;stroke-miterlimit:4;stroke-dasharray:none;stroke-opacity:1"
             rx="5.1367459"
             ry="5.1367464"
             transform="scale(1,-1)" />
          <ellipse
             transform="scale(1,-1)"
             ry="5.1367464"
             rx="5.1367459"
             style="opacity:1;fill:none;fill-opacity:0.39215686;fill-rule:nonzero;stroke:#ff0000;stroke-width:0.35642865;stroke-miterlimit:4;stroke-dasharray:none;stroke-opacity:1"
             id="ellipse4492"
             cx="190.99483"
             cy="-11.534739" />
        </g>
      </g>
    </g>
  </g>
</svg>
