<?xml version="1.0" encoding="UTF-8" standalone="no"?>
<!-- Created with Inkscape (http://www.inkscape.org/) -->

<svg
   xmlns:dc="http://purl.org/dc/elements/1.1/"
   xmlns:cc="http://creativecommons.org/ns#"
   xmlns:rdf="http://www.w3.org/1999/02/22-rdf-syntax-ns#"
   xmlns:svg="http://www.w3.org/2000/svg"
   xmlns="http://www.w3.org/2000/svg"
   xmlns:sodipodi="http://sodipodi.sourceforge.net/DTD/sodipodi-0.dtd"
   xmlns:inkscape="http://www.inkscape.org/namespaces/inkscape"
   width="378.09964mm"
   height="94.09964mm"
   viewBox="0 0 1339.7232 333.42392"
   id="svg2"
   version="1.1"
   inkscape:version="0.91 r13725"
   sodipodi:docname="round-mount-v5-3.svg">
  <defs
     id="defs4" />
  <sodipodi:namedview
     id="base"
     pagecolor="#ffffff"
     bordercolor="#666666"
     borderopacity="1.0"
     inkscape:pageopacity="0.0"
     inkscape:pageshadow="2"
     inkscape:zoom="0.70710678"
     inkscape:cx="640.27953"
     inkscape:cy="230.8927"
     inkscape:document-units="mm"
     inkscape:current-layer="g4495"
     showgrid="false"
     inkscape:window-width="1680"
     inkscape:window-height="1001"
     inkscape:window-x="0"
     inkscape:window-y="23"
     inkscape:window-maximized="1"
     fit-margin-top="0"
     fit-margin-left="0"
     fit-margin-right="0"
     fit-margin-bottom="0" />
  <metadata
     id="metadata7">
    <rdf:RDF>
      <cc:Work
         rdf:about="">
        <dc:format>image/svg+xml</dc:format>
        <dc:type
           rdf:resource="http://purl.org/dc/dcmitype/StillImage" />
        <dc:title></dc:title>
      </cc:Work>
    </rdf:RDF>
  </metadata>
  <g
     inkscape:label="Layer 1"
     inkscape:groupmode="layer"
     id="layer1"
     transform="translate(-97.550612,-121.94609)">
    <g
       transform="translate(-305.71429,198.57143)"
       id="g4331">
      <g
         id="g4333"
         transform="translate(162.23126,-91.958517)">
        <g
           transform="translate(0,-89.631304)"
           id="g4335">
          <g
             id="g4339"
             transform="translate(-135.43504,-204.19661)" />
        </g>
      </g>
    </g>
    <g
       id="g4536"
       transform="translate(17.324007,453.88897)">
      <g
         id="g4538">
        <g
           transform="translate(1.4285714,79.143069)"
           id="g4546">
          <g
             id="g4550"
             transform="translate(37.671595,-220.43244)">
            <g
               id="g4552" />
          </g>
        </g>
      </g>
    </g>
    <g
       id="g4302"
       transform="translate(-3.254982,207.92108)">
      <g
         transform="translate(1.4285714,79.143069)"
         id="g4272" />
    </g>
    <g
       transform="translate(60.056557,430.42417)"
       id="g5000">
      <g
         id="g5002"
         transform="translate(-54.072069,27.751406)">
        <g
           transform="translate(1.4285714,79.143069)"
           id="g5010">
          <g
             id="g5014"
             transform="translate(37.671595,-220.43244)">
            <g
               transform="translate(595.27559,0)"
               id="g5022" />
          </g>
        </g>
      </g>
    </g>
    <g
       transform="translate(2.4892007e-7,258.06504)"
       id="g4450">
      <g
         id="g4460"
         transform="translate(-63.139061,-32.326671)">
        <g
           id="g4468"
           transform="translate(750.95275,116.80823)" />
      </g>
    </g>
    <g
       transform="translate(-189.09239,1089.1026)"
       id="g4454" />
    <g
       id="g4487"
       transform="translate(-68.405168,353.12597)">
      <g
         id="g4495">
        <g
           id="g4322"
           transform="matrix(1.0516131,0,0,1.0516131,-43.13915,-2.9150252)">
          <g
             transform="translate(0,-233.85303)"
             id="g4489">
            <path
               inkscape:connector-curvature="0"
               id="path4491"
               d="m 389.36133,91.728516 0,21.259764 21.25976,0 0,113.38672 -21.25976,0 0,21.25977 76.17969,0 0,35.43164 0,0.002 0,7.08594 40.74804,0 0,-7.08594 0.002,0 0,-35.43359 67.32226,0 0,-81.4961 -14.17383,0 0,-56.69336 14.17383,0 0,-17.716794 -184.25195,0 z"
               style="opacity:1;fill:none;fill-opacity:0.39215686;fill-rule:nonzero;stroke:#ff0000;stroke-width:0.35433075;stroke-miterlimit:4;stroke-dasharray:none;stroke-opacity:1" />
          </g>
          <path
             inkscape:connector-curvature="0"
             id="path4497"
             d="m 1098.0234,-142.12451 0,21.25976 21.2598,0 0,113.38672 -21.2598,0 0,21.25977 76.1797,0 0,35.43359 0,0 0,7.08594 40.748,0 0,-7.08594 0,-35.43359 67.3223,0 0,-81.4961 -14.1738,0 0,-56.69336 14.1738,0 0,-17.71679 -184.252,0 z"
             style="opacity:1;fill:none;fill-opacity:0.39215686;fill-rule:nonzero;stroke:#ff0000;stroke-width:0.35433075;stroke-miterlimit:4;stroke-dasharray:none;stroke-opacity:1" />
        </g>
        <g
           id="g4327">
          <g
             transform="translate(94.029922,-246.49123)"
             id="g4465">
            <ellipse
               style="opacity:1;fill:none;fill-opacity:0.39215686;fill-rule:nonzero;stroke:#ff0000;stroke-width:0.35600024;stroke-miterlimit:4;stroke-dasharray:none;stroke-opacity:1"
               id="ellipse4467"
               cx="158.91342"
               cy="182.02332"
               rx="8.6802692"
               ry="8.6802683" />
            <ellipse
               ry="8.6802683"
               rx="8.6802692"
               cy="182.02332"
               cx="1324.6615"
               id="ellipse4469"
               style="opacity:1;fill:none;fill-opacity:0.39215686;fill-rule:nonzero;stroke:#ff0000;stroke-width:0.35600024;stroke-miterlimit:4;stroke-dasharray:none;stroke-opacity:1" />
          </g>
          <path
             style="opacity:1;fill:none;fill-opacity:0.39215686;fill-rule:nonzero;stroke:#ff0000;stroke-width:0.35400003;stroke-miterlimit:4;stroke-dasharray:none;stroke-opacity:1"
             d="m 332.66793,-231.00293 0,0.18554 a 166.35804,166.35805 0 0 0 -0.17577,-0.008 166.35804,166.35805 0 0 0 -166.35938,166.35742 166.35804,166.35805 0 0 0 166.35938,166.35938 166.35804,166.35805 0 0 0 0.17577,-0.006 l 0,0.18164 1006.29877,0 0,-0.1875 a 166.35806,166.35807 0 0 0 0.1778,0.01 166.35806,166.35807 0 0 0 166.3574,-166.35742 166.35806,166.35807 0 0 0 -166.3574,-166.35937 166.35806,166.35807 0 0 0 -0.1778,0.006 l 0,-0.18164 -1006.29877,0 z"
             id="path4471"
             inkscape:connector-curvature="0" />
          <g
             transform="translate(23.861529,277.43506)"
             id="g4248">
            <ellipse
               ry="16.6535"
               rx="16.653498"
               transform="scale(1,-1)"
               style="opacity:1;fill:none;fill-opacity:0.39215686;fill-rule:nonzero;stroke:#ff0000;stroke-width:0.35441858;stroke-miterlimit:4;stroke-dasharray:none;stroke-opacity:1"
               id="ellipse4433"
               cx="308.80615"
               cy="448.20221" />
            <ellipse
               cy="235.60374"
               cx="308.80615"
               id="ellipse4435"
               style="opacity:1;fill:none;fill-opacity:0.39215686;fill-rule:nonzero;stroke:#ff0000;stroke-width:0.35441858;stroke-miterlimit:4;stroke-dasharray:none;stroke-opacity:1"
               transform="scale(1,-1)"
               rx="16.653498"
               ry="16.6535" />
            <ellipse
               cy="448.20221"
               cx="811.95575"
               id="ellipse4437"
               style="opacity:1;fill:none;fill-opacity:0.39215686;fill-rule:nonzero;stroke:#ff0000;stroke-width:0.35441858;stroke-miterlimit:4;stroke-dasharray:none;stroke-opacity:1"
               transform="scale(1,-1)"
               rx="16.653498"
               ry="16.6535" />
            <ellipse
               ry="16.6535"
               rx="16.653498"
               transform="scale(1,-1)"
               style="opacity:1;fill:none;fill-opacity:0.39215686;fill-rule:nonzero;stroke:#ff0000;stroke-width:0.35441858;stroke-miterlimit:4;stroke-dasharray:none;stroke-opacity:1"
               id="ellipse4439"
               cx="811.95575"
               cy="235.60374" />
            <ellipse
               ry="16.6535"
               rx="16.653498"
               transform="scale(1,-1)"
               style="opacity:1;fill:none;fill-opacity:0.39215686;fill-rule:nonzero;stroke:#ff0000;stroke-width:0.35441858;stroke-miterlimit:4;stroke-dasharray:none;stroke-opacity:1"
               id="ellipse4441"
               cx="1315.1055"
               cy="448.20221" />
            <ellipse
               cy="235.60374"
               cx="1315.1055"
               id="ellipse4443"
               style="opacity:1;fill:none;fill-opacity:0.39215686;fill-rule:nonzero;stroke:#ff0000;stroke-width:0.35441858;stroke-miterlimit:4;stroke-dasharray:none;stroke-opacity:1"
               transform="scale(1,-1)"
               rx="16.653498"
               ry="16.6535" />
          </g>
        </g>
      </g>
    </g>
  </g>
</svg>
