<?xml version="1.0" encoding="UTF-8" standalone="no"?>
<!-- Created with Inkscape (http://www.inkscape.org/) -->

<svg
   xmlns:dc="http://purl.org/dc/elements/1.1/"
   xmlns:cc="http://creativecommons.org/ns#"
   xmlns:rdf="http://www.w3.org/1999/02/22-rdf-syntax-ns#"
   xmlns:svg="http://www.w3.org/2000/svg"
   xmlns="http://www.w3.org/2000/svg"
   xmlns:sodipodi="http://sodipodi.sourceforge.net/DTD/sodipodi-0.dtd"
   xmlns:inkscape="http://www.inkscape.org/namespaces/inkscape"
   width="420mm"
   height="297mm"
   viewBox="0 0 1488.189 1052.3622"
   id="svg2"
   version="1.1"
   inkscape:version="0.91 r13725"
   sodipodi:docname="round-mount-v5.svg">
  <defs
     id="defs4" />
  <sodipodi:namedview
     id="base"
     pagecolor="#ffffff"
     bordercolor="#666666"
     borderopacity="1.0"
     inkscape:pageopacity="0.0"
     inkscape:pageshadow="2"
     inkscape:zoom="0.70710678"
     inkscape:cx="587.41035"
     inkscape:cy="493.25107"
     inkscape:document-units="mm"
     inkscape:current-layer="layer1"
     showgrid="false"
     inkscape:window-width="1680"
     inkscape:window-height="1001"
     inkscape:window-x="0"
     inkscape:window-y="23"
     inkscape:window-maximized="1" />
  <metadata
     id="metadata7">
    <rdf:RDF>
      <cc:Work
         rdf:about="">
        <dc:format>image/svg+xml</dc:format>
        <dc:type
           rdf:resource="http://purl.org/dc/dcmitype/StillImage" />
        <dc:title />
      </cc:Work>
    </rdf:RDF>
  </metadata>
  <g
     inkscape:label="Layer 1"
     inkscape:groupmode="layer"
     id="layer1">
    <g
       transform="translate(-305.71429,198.57143)"
       id="g4331">
      <g
         id="g4333"
         transform="translate(162.23126,-91.958517)">
        <g
           transform="translate(0,-89.631304)"
           id="g4335">
          <g
             id="g4339"
             transform="translate(-135.43504,-204.19661)" />
        </g>
      </g>
    </g>
    <g
       id="g4536"
       transform="translate(17.324007,453.88897)">
      <g
         id="g4538">
        <g
           transform="translate(1.4285714,79.143069)"
           id="g4546">
          <g
             id="g4550"
             transform="translate(37.671595,-220.43244)">
            <g
               id="g4552" />
          </g>
        </g>
      </g>
    </g>
    <g
       id="g4302"
       transform="translate(-3.254982,207.92108)">
      <g
         transform="translate(1.4285714,79.143069)"
         id="g4272" />
    </g>
    <g
       transform="translate(60.056557,430.42417)"
       id="g5000">
      <g
         id="g5002"
         transform="translate(-54.072069,27.751406)">
        <g
           transform="translate(1.4285714,79.143069)"
           id="g5010">
          <g
             id="g5014"
             transform="translate(37.671595,-220.43244)">
            <g
               transform="translate(595.27559,0)"
               id="g5022" />
          </g>
        </g>
      </g>
    </g>
    <g
       transform="translate(2.4892007e-7,258.06504)"
       id="g4450">
      <g
         id="g4460"
         transform="translate(-63.139061,-32.326671)">
        <g
           id="g4468"
           transform="translate(750.95275,116.80823)" />
      </g>
    </g>
    <g
       transform="translate(-189.09239,1089.1026)"
       id="g4454" />
    <g
       id="g4387"
       transform="translate(130.10765,8.31803)">
      <g
         id="g4284"
         transform="translate(71.565877,-583.06907)">
        <ellipse
           ry="8.6802683"
           rx="8.6802692"
           cy="182.02332"
           cx="158.91342"
           id="path4217"
           style="opacity:1;fill:none;fill-opacity:0.39215686;fill-rule:nonzero;stroke:#ff0000;stroke-width:0.35600024;stroke-miterlimit:4;stroke-dasharray:none;stroke-opacity:1" />
        <ellipse
           style="opacity:1;fill:none;fill-opacity:0.39215686;fill-rule:nonzero;stroke:#ff0000;stroke-width:0.35600024;stroke-miterlimit:4;stroke-dasharray:none;stroke-opacity:1"
           id="ellipse4219"
           cx="1324.6615"
           cy="182.02332"
           rx="8.6802692"
           ry="8.6802683" />
      </g>
      <path
         inkscape:connector-curvature="0"
         id="rect4155"
         d="m 310.20389,-567.58077 0,0.18554 a 166.35804,166.35805 0 0 0 -0.17578,-0.008 166.35804,166.35805 0 0 0 -166.35937,166.35742 166.35804,166.35805 0 0 0 166.35937,166.35938 166.35804,166.35805 0 0 0 0.17578,-0.006 l 0,0.18164 1006.29881,0 0,-0.1875 a 166.35806,166.35807 0 0 0 0.1778,0.01 166.35806,166.35807 0 0 0 166.3574,-166.35742 166.35806,166.35807 0 0 0 -166.3574,-166.35937 166.35806,166.35807 0 0 0 -0.1778,0.006 l 0,-0.18164 -1006.29881,0 z"
         style="opacity:1;fill:none;fill-opacity:0.39215686;fill-rule:nonzero;stroke:#ff0000;stroke-width:0.35400003;stroke-miterlimit:4;stroke-dasharray:none;stroke-opacity:1" />
      <g
         transform="translate(-402.24413,220.92241)"
         id="g4292">
        <circle
           style="opacity:1;fill:none;fill-opacity:0.39215686;fill-rule:nonzero;stroke:#ff0000;stroke-width:0.35438013;stroke-miterlimit:4;stroke-dasharray:none;stroke-opacity:1"
           id="ellipse4735"
           cx="712.44781"
           cy="-728.2674"
           r="8.681078" />
        <circle
           r="8.681078"
           cy="-515.66895"
           cx="712.44781"
           id="circle4274"
           style="opacity:1;fill:none;fill-opacity:0.39215686;fill-rule:nonzero;stroke:#ff0000;stroke-width:0.35438013;stroke-miterlimit:4;stroke-dasharray:none;stroke-opacity:1" />
        <circle
           r="8.681078"
           cy="-728.2674"
           cx="1215.5974"
           id="circle4278"
           style="opacity:1;fill:none;fill-opacity:0.39215686;fill-rule:nonzero;stroke:#ff0000;stroke-width:0.35438013;stroke-miterlimit:4;stroke-dasharray:none;stroke-opacity:1" />
        <circle
           style="opacity:1;fill:none;fill-opacity:0.39215686;fill-rule:nonzero;stroke:#ff0000;stroke-width:0.35438013;stroke-miterlimit:4;stroke-dasharray:none;stroke-opacity:1"
           id="circle4282"
           cx="1215.5974"
           cy="-515.66895"
           r="8.681078" />
        <circle
           style="opacity:1;fill:none;fill-opacity:0.39215686;fill-rule:nonzero;stroke:#ff0000;stroke-width:0.35438013;stroke-miterlimit:4;stroke-dasharray:none;stroke-opacity:1"
           id="circle4286"
           cx="1718.7471"
           cy="-728.2674"
           r="8.681078" />
        <circle
           r="8.681078"
           cy="-515.66895"
           cx="1718.7471"
           id="circle4290"
           style="opacity:1;fill:none;fill-opacity:0.39215686;fill-rule:nonzero;stroke:#ff0000;stroke-width:0.35438013;stroke-miterlimit:4;stroke-dasharray:none;stroke-opacity:1" />
      </g>
    </g>
    <g
       transform="translate(107.64361,-583.50521)"
       id="g4321">
      <g
         id="g4323">
        <path
           inkscape:connector-curvature="0"
           id="path4325"
           d="m 389.36133,91.728516 0,21.259764 21.25976,0 0,113.38672 -21.25976,0 0,21.25977 76.17969,0 0,35.43164 0,0.002 0,7.08594 40.74804,0 0,-7.08594 0.002,0 0,-35.43359 67.32226,0 0,-81.4961 -14.17383,0 0,-56.69336 14.17383,0 0,-17.716794 -184.25195,0 z"
           style="opacity:1;fill:none;fill-opacity:0.39215686;fill-rule:nonzero;stroke:#ff0000;stroke-width:0.35433075;stroke-miterlimit:4;stroke-dasharray:none;stroke-opacity:1" />
        <ellipse
           style="opacity:1;fill:none;fill-opacity:0.39215686;fill-rule:nonzero;stroke:#ff0000;stroke-width:0.35386699;stroke-miterlimit:4;stroke-dasharray:none;stroke-opacity:1"
           id="ellipse4327"
           cx="481.31067"
           cy="169.50313"
           rx="56.515984"
           ry="56.515987" />
      </g>
      <g
         id="g4329">
        <path
           inkscape:connector-curvature="0"
           id="path4331"
           d="m 1098.0234,91.728516 0,21.259764 21.2598,0 0,113.38672 -21.2598,0 0,21.25977 76.1797,0 0,35.43359 0,0 0,7.08594 40.748,0 0,-7.08594 0,-35.43359 67.3223,0 0,-81.4961 -14.1738,0 0,-56.69336 14.1738,0 0,-17.716794 -184.252,0 z"
           style="opacity:1;fill:none;fill-opacity:0.39215686;fill-rule:nonzero;stroke:#ff0000;stroke-width:0.35433075;stroke-miterlimit:4;stroke-dasharray:none;stroke-opacity:1" />
        <ellipse
           ry="56.515987"
           rx="56.515984"
           cy="169.50313"
           cx="1189.972"
           id="ellipse4333"
           style="opacity:1;fill:none;fill-opacity:0.39215686;fill-rule:nonzero;stroke:#ff0000;stroke-width:0.35386699;stroke-miterlimit:4;stroke-dasharray:none;stroke-opacity:1" />
      </g>
    </g>
    <g
       id="g4405"
       transform="translate(-107.48023,-82.024387)">
      <g
         id="g4391">
        <g
           id="g4310"
           transform="translate(83.256465,104.9574)">
          <ellipse
             ry="8.6802683"
             rx="8.6802692"
             cy="182.02332"
             cx="158.91342"
             id="ellipse4312"
             style="opacity:1;fill:none;fill-opacity:0.39215686;fill-rule:nonzero;stroke:#ff0000;stroke-width:0.35600024;stroke-miterlimit:4;stroke-dasharray:none;stroke-opacity:1" />
          <ellipse
             style="opacity:1;fill:none;fill-opacity:0.39215686;fill-rule:nonzero;stroke:#ff0000;stroke-width:0.35600024;stroke-miterlimit:4;stroke-dasharray:none;stroke-opacity:1"
             id="ellipse4314"
             cx="1324.6615"
             cy="182.02332"
             rx="8.6802692"
             ry="8.6802683" />
        </g>
        <g
           id="g4311"
           transform="translate(-43.1127,1108.7649)">
          <g
             transform="translate(-347.44082,-204.03717)"
             id="g4300">
            <ellipse
               cy="728.2674"
               cx="712.44781"
               id="use4330"
               style="opacity:1;fill:none;fill-opacity:0.39215686;fill-rule:nonzero;stroke:#ff0000;stroke-width:0.35441858;stroke-miterlimit:4;stroke-dasharray:none;stroke-opacity:1"
               transform="scale(1,-1)"
               rx="16.653498"
               ry="16.6535" />
            <ellipse
               ry="16.6535"
               rx="16.653498"
               transform="scale(1,-1)"
               style="opacity:1;fill:none;fill-opacity:0.39215686;fill-rule:nonzero;stroke:#ff0000;stroke-width:0.35441858;stroke-miterlimit:4;stroke-dasharray:none;stroke-opacity:1"
               id="ellipse4272"
               cx="712.44781"
               cy="515.66895" />
            <ellipse
               ry="16.6535"
               rx="16.653498"
               transform="scale(1,-1)"
               style="opacity:1;fill:none;fill-opacity:0.39215686;fill-rule:nonzero;stroke:#ff0000;stroke-width:0.35441858;stroke-miterlimit:4;stroke-dasharray:none;stroke-opacity:1"
               id="ellipse4276"
               cx="1215.5974"
               cy="728.2674" />
            <ellipse
               cy="515.66895"
               cx="1215.5974"
               id="ellipse4280"
               style="opacity:1;fill:none;fill-opacity:0.39215686;fill-rule:nonzero;stroke:#ff0000;stroke-width:0.35441858;stroke-miterlimit:4;stroke-dasharray:none;stroke-opacity:1"
               transform="scale(1,-1)"
               rx="16.653498"
               ry="16.6535" />
            <ellipse
               cy="728.2674"
               cx="1718.7471"
               id="ellipse4284"
               style="opacity:1;fill:none;fill-opacity:0.39215686;fill-rule:nonzero;stroke:#ff0000;stroke-width:0.35441858;stroke-miterlimit:4;stroke-dasharray:none;stroke-opacity:1"
               transform="scale(1,-1)"
               rx="16.653498"
               ry="16.6535" />
            <ellipse
               ry="16.6535"
               rx="16.653498"
               transform="scale(1,-1)"
               style="opacity:1;fill:none;fill-opacity:0.39215686;fill-rule:nonzero;stroke:#ff0000;stroke-width:0.35441858;stroke-miterlimit:4;stroke-dasharray:none;stroke-opacity:1"
               id="ellipse4288"
               cx="1718.7471"
               cy="515.66895" />
          </g>
          <path
             style="opacity:1;fill:none;fill-opacity:0.39215686;fill-rule:nonzero;stroke:#ff0000;stroke-width:0.35400003;stroke-miterlimit:4;stroke-dasharray:none;stroke-opacity:1"
             d="m 365.0072,-992.54036 0,0.18554 a 166.35804,166.35805 0 0 0 -0.17578,-0.008 166.35804,166.35805 0 0 0 -166.35937,166.35742 166.35804,166.35805 0 0 0 166.35937,166.35938 166.35804,166.35805 0 0 0 0.17578,-0.006 l 0,0.18164 1006.2988,0 0,-0.1875 a 166.35806,166.35807 0 0 0 0.1778,0.01 166.35806,166.35807 0 0 0 166.3574,-166.35742 166.35806,166.35807 0 0 0 -166.3574,-166.35937 166.35806,166.35807 0 0 0 -0.1778,0.006 l 0,-0.18164 -1006.2988,0 z"
             id="path4316"
             inkscape:connector-curvature="0" />
        </g>
      </g>
      <g
         transform="translate(67.903575,-328.49301)"
         id="g4383">
        <g
           id="g4373">
          <path
             inkscape:connector-curvature="0"
             id="path4322"
             d="m 310.68359,533.34375 0,21.23047 0,0.0293 0,3.51367 21.25977,0 0,106.33008 -21.25977,0 0,3.54296 0,0.002 0,21.25195 0,0.006 0,3.53711 74.41797,0 0,42.52344 1.76367,0 0.006,0 40.74219,0 0,-0.004 1.75977,0 0,-42.54687 65.5625,0 0,-3.50977 0,-0.0352 0,-81.46093 -14.17383,0 0,-56.69336 14.17383,0 0,-17.7168 -184.25196,0 z"
             style="opacity:1;fill:none;fill-opacity:0.39215686;fill-rule:nonzero;stroke:#ff0000;stroke-width:0.35433075;stroke-miterlimit:4;stroke-dasharray:none;stroke-opacity:1" />
          <ellipse
             style="opacity:1;fill:none;fill-opacity:0.39215686;fill-rule:nonzero;stroke:#ff0000;stroke-width:0.35386699;stroke-miterlimit:4;stroke-dasharray:none;stroke-opacity:1"
             id="ellipse4324"
             cx="402.63315"
             cy="611.11829"
             rx="56.515984"
             ry="56.515987" />
        </g>
        <g
           id="g4377"
           transform="translate(708.66142,0)">
          <path
             style="opacity:1;fill:none;fill-opacity:0.39215686;fill-rule:nonzero;stroke:#ff0000;stroke-width:0.35433075;stroke-miterlimit:4;stroke-dasharray:none;stroke-opacity:1"
             d="m 310.68359,533.34375 0,21.23047 0,0.0293 0,3.51367 21.25977,0 0,106.33008 -21.25977,0 0,3.54296 0,0.002 0,21.25195 0,0.006 0,3.53711 74.41797,0 0,42.52344 1.76367,0 0.006,0 40.74219,0 0,-0.004 1.75977,0 0,-42.54687 65.5625,0 0,-3.50977 0,-0.0352 0,-81.46093 -14.17383,0 0,-56.69336 14.17383,0 0,-17.7168 -184.25196,0 z"
             id="path4379"
             inkscape:connector-curvature="0" />
          <ellipse
             ry="56.515987"
             rx="56.515984"
             cy="611.11829"
             cx="402.63315"
             id="ellipse4381"
             style="opacity:1;fill:none;fill-opacity:0.39215686;fill-rule:nonzero;stroke:#ff0000;stroke-width:0.35386699;stroke-miterlimit:4;stroke-dasharray:none;stroke-opacity:1" />
        </g>
      </g>
    </g>
    <g
       id="g4641">
      <g
         id="g4427"
         transform="translate(-108.89441,434.83499)">
        <g
           id="g4429">
          <g
             id="g4431"
             transform="translate(83.256465,104.9574)">
            <ellipse
               ry="8.6802683"
               rx="8.6802692"
               cy="182.02332"
               cx="158.91342"
               id="ellipse4433"
               style="opacity:1;fill:none;fill-opacity:0.39215686;fill-rule:nonzero;stroke:#ff0000;stroke-width:0.35600024;stroke-miterlimit:4;stroke-dasharray:none;stroke-opacity:1" />
            <ellipse
               style="opacity:1;fill:none;fill-opacity:0.39215686;fill-rule:nonzero;stroke:#ff0000;stroke-width:0.35600024;stroke-miterlimit:4;stroke-dasharray:none;stroke-opacity:1"
               id="ellipse4435"
               cx="1324.6615"
               cy="182.02332"
               rx="8.6802692"
               ry="8.6802683" />
          </g>
          <g
             id="g4437"
             transform="translate(-43.1127,1108.7649)">
            <g
               transform="translate(-347.44082,-204.03717)"
               id="g4439">
              <ellipse
                 cy="728.2674"
                 cx="712.44781"
                 id="ellipse4441"
                 style="opacity:1;fill:none;fill-opacity:0.39215686;fill-rule:nonzero;stroke:#ff0000;stroke-width:0.35441858;stroke-miterlimit:4;stroke-dasharray:none;stroke-opacity:1"
                 transform="scale(1,-1)"
                 rx="16.653498"
                 ry="16.6535" />
              <ellipse
                 ry="16.6535"
                 rx="16.653498"
                 transform="scale(1,-1)"
                 style="opacity:1;fill:none;fill-opacity:0.39215686;fill-rule:nonzero;stroke:#ff0000;stroke-width:0.35441858;stroke-miterlimit:4;stroke-dasharray:none;stroke-opacity:1"
                 id="ellipse4443"
                 cx="712.44781"
                 cy="515.66895" />
              <ellipse
                 ry="16.6535"
                 rx="16.653498"
                 transform="scale(1,-1)"
                 style="opacity:1;fill:none;fill-opacity:0.39215686;fill-rule:nonzero;stroke:#ff0000;stroke-width:0.35441858;stroke-miterlimit:4;stroke-dasharray:none;stroke-opacity:1"
                 id="ellipse4445"
                 cx="1215.5974"
                 cy="728.2674" />
              <ellipse
                 cy="515.66895"
                 cx="1215.5974"
                 id="ellipse4447"
                 style="opacity:1;fill:none;fill-opacity:0.39215686;fill-rule:nonzero;stroke:#ff0000;stroke-width:0.35441858;stroke-miterlimit:4;stroke-dasharray:none;stroke-opacity:1"
                 transform="scale(1,-1)"
                 rx="16.653498"
                 ry="16.6535" />
              <ellipse
                 cy="728.2674"
                 cx="1718.7471"
                 id="ellipse4449"
                 style="opacity:1;fill:none;fill-opacity:0.39215686;fill-rule:nonzero;stroke:#ff0000;stroke-width:0.35441858;stroke-miterlimit:4;stroke-dasharray:none;stroke-opacity:1"
                 transform="scale(1,-1)"
                 rx="16.653498"
                 ry="16.6535" />
              <ellipse
                 ry="16.6535"
                 rx="16.653498"
                 transform="scale(1,-1)"
                 style="opacity:1;fill:none;fill-opacity:0.39215686;fill-rule:nonzero;stroke:#ff0000;stroke-width:0.35441858;stroke-miterlimit:4;stroke-dasharray:none;stroke-opacity:1"
                 id="ellipse4451"
                 cx="1718.7471"
                 cy="515.66895" />
            </g>
            <path
               style="opacity:1;fill:none;fill-opacity:0.39215686;fill-rule:nonzero;stroke:#ff0000;stroke-width:0.35400003;stroke-miterlimit:4;stroke-dasharray:none;stroke-opacity:1"
               d="m 365.0072,-992.54036 0,0.18554 a 166.35804,166.35805 0 0 0 -0.17578,-0.008 166.35804,166.35805 0 0 0 -166.35937,166.35742 166.35804,166.35805 0 0 0 166.35937,166.35938 166.35804,166.35805 0 0 0 0.17578,-0.006 l 0,0.18164 1006.2988,0 0,-0.1875 a 166.35806,166.35807 0 0 0 0.1778,0.01 166.35806,166.35807 0 0 0 166.3574,-166.35742 166.35806,166.35807 0 0 0 -166.3574,-166.35937 166.35806,166.35807 0 0 0 -0.1778,0.006 l 0,-0.18164 -1006.2988,0 z"
               id="path4453"
               inkscape:connector-curvature="0" />
          </g>
        </g>
        <g
           transform="translate(67.903575,-328.49301)"
           id="g4455">
          <g
             id="g4457">
            <path
               inkscape:connector-curvature="0"
               id="path4459"
               d="m 310.68359,533.34375 0,21.23047 0,0.0293 0,3.51367 21.25977,0 0,106.33008 -21.25977,0 0,3.54296 0,0.002 0,21.25195 0,0.006 0,3.53711 74.41797,0 0,42.52344 1.76367,0 0.006,0 40.74219,0 0,-0.004 1.75977,0 0,-42.54687 65.5625,0 0,-3.50977 0,-0.0352 0,-81.46093 -14.17383,0 0,-56.69336 14.17383,0 0,-17.7168 -184.25196,0 z"
               style="opacity:1;fill:none;fill-opacity:0.39215686;fill-rule:nonzero;stroke:#ff0000;stroke-width:0.35433075;stroke-miterlimit:4;stroke-dasharray:none;stroke-opacity:1" />
            <ellipse
               style="opacity:1;fill:none;fill-opacity:0.39215686;fill-rule:nonzero;stroke:#ff0000;stroke-width:0.35386699;stroke-miterlimit:4;stroke-dasharray:none;stroke-opacity:1"
               id="ellipse4461"
               cx="402.63315"
               cy="611.11829"
               rx="56.515984"
               ry="56.515987" />
          </g>
          <g
             id="g4463"
             transform="translate(708.66142,0)">
            <path
               style="opacity:1;fill:none;fill-opacity:0.39215686;fill-rule:nonzero;stroke:#ff0000;stroke-width:0.35433075;stroke-miterlimit:4;stroke-dasharray:none;stroke-opacity:1"
               d="m 310.68359,533.34375 0,21.23047 0,0.0293 0,3.51367 21.25977,0 0,106.33008 -21.25977,0 0,3.54296 0,0.002 0,21.25195 0,0.006 0,3.53711 74.41797,0 0,42.52344 1.76367,0 0.006,0 40.74219,0 0,-0.004 1.75977,0 0,-42.54687 65.5625,0 0,-3.50977 0,-0.0352 0,-81.46093 -14.17383,0 0,-56.69336 14.17383,0 0,-17.7168 -184.25196,0 z"
               id="path4465"
               inkscape:connector-curvature="0" />
            <ellipse
               ry="56.515987"
               rx="56.515984"
               cy="611.11829"
               cx="402.63315"
               id="ellipse4467"
               style="opacity:1;fill:none;fill-opacity:0.39215686;fill-rule:nonzero;stroke:#ff0000;stroke-width:0.35386699;stroke-miterlimit:4;stroke-dasharray:none;stroke-opacity:1" />
          </g>
        </g>
      </g>
      <g
         transform="translate(-25.637947,539.79239)"
         id="g4475">
        <ellipse
           style="opacity:1;fill:none;fill-opacity:0.39215686;fill-rule:nonzero;stroke:#ff0000;stroke-width:0.35600024;stroke-miterlimit:4;stroke-dasharray:none;stroke-opacity:1"
           id="ellipse4477"
           cx="158.91342"
           cy="182.02332"
           rx="8.6802692"
           ry="8.6802683" />
        <ellipse
           ry="8.6802683"
           rx="8.6802692"
           cy="182.02332"
           cx="1324.6615"
           id="ellipse4479"
           style="opacity:1;fill:none;fill-opacity:0.39215686;fill-rule:nonzero;stroke:#ff0000;stroke-width:0.35600024;stroke-miterlimit:4;stroke-dasharray:none;stroke-opacity:1" />
      </g>
      <g
         transform="translate(-499.44793,1339.5627)"
         id="g4483">
        <ellipse
           cy="728.2674"
           cx="712.44781"
           id="ellipse4485"
           style="opacity:1;fill:none;fill-opacity:0.39215686;fill-rule:nonzero;stroke:#ff0000;stroke-width:0.35441858;stroke-miterlimit:4;stroke-dasharray:none;stroke-opacity:1"
           transform="scale(1,-1)"
           rx="16.653498"
           ry="16.6535" />
        <ellipse
           ry="16.6535"
           rx="16.653498"
           transform="scale(1,-1)"
           style="opacity:1;fill:none;fill-opacity:0.39215686;fill-rule:nonzero;stroke:#ff0000;stroke-width:0.35441858;stroke-miterlimit:4;stroke-dasharray:none;stroke-opacity:1"
           id="ellipse4487"
           cx="712.44781"
           cy="515.66895" />
        <ellipse
           ry="16.6535"
           rx="16.653498"
           transform="scale(1,-1)"
           style="opacity:1;fill:none;fill-opacity:0.39215686;fill-rule:nonzero;stroke:#ff0000;stroke-width:0.35441858;stroke-miterlimit:4;stroke-dasharray:none;stroke-opacity:1"
           id="ellipse4489"
           cx="1215.5974"
           cy="728.2674" />
        <ellipse
           cy="515.66895"
           cx="1215.5974"
           id="ellipse4491"
           style="opacity:1;fill:none;fill-opacity:0.39215686;fill-rule:nonzero;stroke:#ff0000;stroke-width:0.35441858;stroke-miterlimit:4;stroke-dasharray:none;stroke-opacity:1"
           transform="scale(1,-1)"
           rx="16.653498"
           ry="16.6535" />
        <ellipse
           cy="728.2674"
           cx="1718.7471"
           id="ellipse4493"
           style="opacity:1;fill:none;fill-opacity:0.39215686;fill-rule:nonzero;stroke:#ff0000;stroke-width:0.35441858;stroke-miterlimit:4;stroke-dasharray:none;stroke-opacity:1"
           transform="scale(1,-1)"
           rx="16.653498"
           ry="16.6535" />
        <ellipse
           ry="16.6535"
           rx="16.653498"
           transform="scale(1,-1)"
           style="opacity:1;fill:none;fill-opacity:0.39215686;fill-rule:nonzero;stroke:#ff0000;stroke-width:0.35441858;stroke-miterlimit:4;stroke-dasharray:none;stroke-opacity:1"
           id="ellipse4495"
           cx="1718.7471"
           cy="515.66895" />
      </g>
      <path
         id="path4497"
         d="M 213 551.06055 L 213 551.24609 A 166.35804 166.35805 0 0 0 212.82422 551.23828 A 166.35804 166.35805 0 0 0 81.898438 615.04297 L 81.898438 819.91602 A 166.35804 166.35805 0 0 0 212.82422 883.95508 A 166.35804 166.35805 0 0 0 213 883.94922 L 213 884.13086 L 1219.2988 884.13086 L 1219.2988 883.94336 A 166.35806 166.35807 0 0 0 1219.4766 883.95312 A 166.35806 166.35807 0 0 0 1350.4004 820.14844 L 1350.4004 615.27344 A 166.35806 166.35807 0 0 0 1219.4766 551.23633 A 166.35806 166.35807 0 0 0 1219.2988 551.24219 L 1219.2988 551.06055 L 213 551.06055 z "
         style="opacity:1;fill:none;fill-opacity:0.39215686;fill-rule:nonzero;stroke:#ff0000;stroke-width:0.35400003;stroke-miterlimit:4;stroke-dasharray:none;stroke-opacity:1" />
      <g
         transform="translate(-40.990837,106.34198)"
         id="g4499">
        <g
           id="g4501">
          <path
             inkscape:connector-curvature="0"
             id="path4503"
             d="m 310.68359,533.34375 0,21.23047 0,0.0293 0,3.51367 21.25977,0 0,106.33008 -21.25977,0 0,3.54296 0,0.002 0,21.25195 0,0.006 0,3.53711 74.41797,0 0,42.52344 1.76367,0 0.006,0 40.74219,0 0,-0.004 1.75977,0 0,-42.54687 65.5625,0 0,-3.50977 0,-0.0352 0,-81.46093 -14.17383,0 0,-56.69336 14.17383,0 0,-17.7168 -184.25196,0 z"
             style="opacity:1;fill:none;fill-opacity:0.39215686;fill-rule:nonzero;stroke:#ff0000;stroke-width:0.35433075;stroke-miterlimit:4;stroke-dasharray:none;stroke-opacity:1" />
          <ellipse
             style="opacity:1;fill:none;fill-opacity:0.39215686;fill-rule:nonzero;stroke:#ff0000;stroke-width:0.35386699;stroke-miterlimit:4;stroke-dasharray:none;stroke-opacity:1"
             id="ellipse4505"
             cx="402.63315"
             cy="611.11829"
             rx="56.515984"
             ry="56.515987" />
        </g>
        <g
           id="g4507"
           transform="translate(708.66142,0)">
          <path
             style="opacity:1;fill:none;fill-opacity:0.39215686;fill-rule:nonzero;stroke:#ff0000;stroke-width:0.35433075;stroke-miterlimit:4;stroke-dasharray:none;stroke-opacity:1"
             d="m 310.68359,533.34375 0,21.23047 0,0.0293 0,3.51367 21.25977,0 0,106.33008 -21.25977,0 0,3.54296 0,0.002 0,21.25195 0,0.006 0,3.53711 74.41797,0 0,42.52344 1.76367,0 0.006,0 40.74219,0 0,-0.004 1.75977,0 0,-42.54687 65.5625,0 0,-3.50977 0,-0.0352 0,-81.46093 -14.17383,0 0,-56.69336 14.17383,0 0,-17.7168 -184.25196,0 z"
             id="path4509"
             inkscape:connector-curvature="0" />
          <ellipse
             ry="56.515987"
             rx="56.515984"
             cy="611.11829"
             cx="402.63315"
             id="ellipse4511"
             style="opacity:1;fill:none;fill-opacity:0.39215686;fill-rule:nonzero;stroke:#ff0000;stroke-width:0.35386699;stroke-miterlimit:4;stroke-dasharray:none;stroke-opacity:1" />
        </g>
      </g>
    </g>
  </g>
</svg>
